<?xml version="1.0" encoding="utf-8" standalone="no"?>
<!DOCTYPE svg PUBLIC "-//W3C//DTD SVG 1.1//EN"
  "http://www.w3.org/Graphics/SVG/1.1/DTD/svg11.dtd">
<!-- Created with matplotlib (https://matplotlib.org/) -->
<svg height="345.6pt" version="1.1" viewBox="0 0 460.8 345.6" width="460.8pt" xmlns="http://www.w3.org/2000/svg" xmlns:xlink="http://www.w3.org/1999/xlink">
 <defs>
  <style type="text/css">
*{stroke-linecap:butt;stroke-linejoin:round;}
  </style>
 </defs>
 <g id="figure_1">
  <g id="patch_1">
   <path d="M 0 345.6 
L 460.8 345.6 
L 460.8 0 
L 0 0 
z
" style="fill:#ffffff;"/>
  </g>
  <g id="axes_1">
   <g id="patch_2">
    <path d="M 57.6 307.584 
L 414.72 307.584 
L 414.72 41.472 
L 57.6 41.472 
z
" style="fill:#ffffff;"/>
   </g>
   <g id="matplotlib.axis_1">
    <g id="xtick_1">
     <g id="line2d_1">
      <defs>
       <path d="M 0 0 
L 0 3.5 
" id="m8df436bd78" style="stroke:#000000;stroke-width:0.8;"/>
      </defs>
      <g>
       <use style="stroke:#000000;stroke-width:0.8;" x="57.6" xlink:href="#m8df436bd78" y="307.584"/>
      </g>
     </g>
     <g id="text_1">
      <!-- 0 -->
      <defs>
       <path d="M 31.78125 66.40625 
Q 24.171875 66.40625 20.328125 58.90625 
Q 16.5 51.421875 16.5 36.375 
Q 16.5 21.390625 20.328125 13.890625 
Q 24.171875 6.390625 31.78125 6.390625 
Q 39.453125 6.390625 43.28125 13.890625 
Q 47.125 21.390625 47.125 36.375 
Q 47.125 51.421875 43.28125 58.90625 
Q 39.453125 66.40625 31.78125 66.40625 
z
M 31.78125 74.21875 
Q 44.046875 74.21875 50.515625 64.515625 
Q 56.984375 54.828125 56.984375 36.375 
Q 56.984375 17.96875 50.515625 8.265625 
Q 44.046875 -1.421875 31.78125 -1.421875 
Q 19.53125 -1.421875 13.0625 8.265625 
Q 6.59375 17.96875 6.59375 36.375 
Q 6.59375 54.828125 13.0625 64.515625 
Q 19.53125 74.21875 31.78125 74.21875 
z
" id="DejaVuSans-48"/>
      </defs>
      <g transform="translate(54.41875 322.182437)scale(0.1 -0.1)">
       <use xlink:href="#DejaVuSans-48"/>
      </g>
     </g>
    </g>
    <g id="xtick_2">
     <g id="line2d_2">
      <g>
       <use style="stroke:#000000;stroke-width:0.8;" x="129.024" xlink:href="#m8df436bd78" y="307.584"/>
      </g>
     </g>
     <g id="text_2">
      <!-- 20 -->
      <defs>
       <path d="M 19.1875 8.296875 
L 53.609375 8.296875 
L 53.609375 0 
L 7.328125 0 
L 7.328125 8.296875 
Q 12.9375 14.109375 22.625 23.890625 
Q 32.328125 33.6875 34.8125 36.53125 
Q 39.546875 41.84375 41.421875 45.53125 
Q 43.3125 49.21875 43.3125 52.78125 
Q 43.3125 58.59375 39.234375 62.25 
Q 35.15625 65.921875 28.609375 65.921875 
Q 23.96875 65.921875 18.8125 64.3125 
Q 13.671875 62.703125 7.8125 59.421875 
L 7.8125 69.390625 
Q 13.765625 71.78125 18.9375 73 
Q 24.125 74.21875 28.421875 74.21875 
Q 39.75 74.21875 46.484375 68.546875 
Q 53.21875 62.890625 53.21875 53.421875 
Q 53.21875 48.921875 51.53125 44.890625 
Q 49.859375 40.875 45.40625 35.40625 
Q 44.1875 33.984375 37.640625 27.21875 
Q 31.109375 20.453125 19.1875 8.296875 
z
" id="DejaVuSans-50"/>
      </defs>
      <g transform="translate(122.6615 322.182437)scale(0.1 -0.1)">
       <use xlink:href="#DejaVuSans-50"/>
       <use x="63.623047" xlink:href="#DejaVuSans-48"/>
      </g>
     </g>
    </g>
    <g id="xtick_3">
     <g id="line2d_3">
      <g>
       <use style="stroke:#000000;stroke-width:0.8;" x="200.448" xlink:href="#m8df436bd78" y="307.584"/>
      </g>
     </g>
     <g id="text_3">
      <!-- 40 -->
      <defs>
       <path d="M 37.796875 64.3125 
L 12.890625 25.390625 
L 37.796875 25.390625 
z
M 35.203125 72.90625 
L 47.609375 72.90625 
L 47.609375 25.390625 
L 58.015625 25.390625 
L 58.015625 17.1875 
L 47.609375 17.1875 
L 47.609375 0 
L 37.796875 0 
L 37.796875 17.1875 
L 4.890625 17.1875 
L 4.890625 26.703125 
z
" id="DejaVuSans-52"/>
      </defs>
      <g transform="translate(194.0855 322.182437)scale(0.1 -0.1)">
       <use xlink:href="#DejaVuSans-52"/>
       <use x="63.623047" xlink:href="#DejaVuSans-48"/>
      </g>
     </g>
    </g>
    <g id="xtick_4">
     <g id="line2d_4">
      <g>
       <use style="stroke:#000000;stroke-width:0.8;" x="271.872" xlink:href="#m8df436bd78" y="307.584"/>
      </g>
     </g>
     <g id="text_4">
      <!-- 60 -->
      <defs>
       <path d="M 33.015625 40.375 
Q 26.375 40.375 22.484375 35.828125 
Q 18.609375 31.296875 18.609375 23.390625 
Q 18.609375 15.53125 22.484375 10.953125 
Q 26.375 6.390625 33.015625 6.390625 
Q 39.65625 6.390625 43.53125 10.953125 
Q 47.40625 15.53125 47.40625 23.390625 
Q 47.40625 31.296875 43.53125 35.828125 
Q 39.65625 40.375 33.015625 40.375 
z
M 52.59375 71.296875 
L 52.59375 62.3125 
Q 48.875 64.0625 45.09375 64.984375 
Q 41.3125 65.921875 37.59375 65.921875 
Q 27.828125 65.921875 22.671875 59.328125 
Q 17.53125 52.734375 16.796875 39.40625 
Q 19.671875 43.65625 24.015625 45.921875 
Q 28.375 48.1875 33.59375 48.1875 
Q 44.578125 48.1875 50.953125 41.515625 
Q 57.328125 34.859375 57.328125 23.390625 
Q 57.328125 12.15625 50.6875 5.359375 
Q 44.046875 -1.421875 33.015625 -1.421875 
Q 20.359375 -1.421875 13.671875 8.265625 
Q 6.984375 17.96875 6.984375 36.375 
Q 6.984375 53.65625 15.1875 63.9375 
Q 23.390625 74.21875 37.203125 74.21875 
Q 40.921875 74.21875 44.703125 73.484375 
Q 48.484375 72.75 52.59375 71.296875 
z
" id="DejaVuSans-54"/>
      </defs>
      <g transform="translate(265.5095 322.182437)scale(0.1 -0.1)">
       <use xlink:href="#DejaVuSans-54"/>
       <use x="63.623047" xlink:href="#DejaVuSans-48"/>
      </g>
     </g>
    </g>
    <g id="xtick_5">
     <g id="line2d_5">
      <g>
       <use style="stroke:#000000;stroke-width:0.8;" x="343.296" xlink:href="#m8df436bd78" y="307.584"/>
      </g>
     </g>
     <g id="text_5">
      <!-- 80 -->
      <defs>
       <path d="M 31.78125 34.625 
Q 24.75 34.625 20.71875 30.859375 
Q 16.703125 27.09375 16.703125 20.515625 
Q 16.703125 13.921875 20.71875 10.15625 
Q 24.75 6.390625 31.78125 6.390625 
Q 38.8125 6.390625 42.859375 10.171875 
Q 46.921875 13.96875 46.921875 20.515625 
Q 46.921875 27.09375 42.890625 30.859375 
Q 38.875 34.625 31.78125 34.625 
z
M 21.921875 38.8125 
Q 15.578125 40.375 12.03125 44.71875 
Q 8.5 49.078125 8.5 55.328125 
Q 8.5 64.0625 14.71875 69.140625 
Q 20.953125 74.21875 31.78125 74.21875 
Q 42.671875 74.21875 48.875 69.140625 
Q 55.078125 64.0625 55.078125 55.328125 
Q 55.078125 49.078125 51.53125 44.71875 
Q 48 40.375 41.703125 38.8125 
Q 48.828125 37.15625 52.796875 32.3125 
Q 56.78125 27.484375 56.78125 20.515625 
Q 56.78125 9.90625 50.3125 4.234375 
Q 43.84375 -1.421875 31.78125 -1.421875 
Q 19.734375 -1.421875 13.25 4.234375 
Q 6.78125 9.90625 6.78125 20.515625 
Q 6.78125 27.484375 10.78125 32.3125 
Q 14.796875 37.15625 21.921875 38.8125 
z
M 18.3125 54.390625 
Q 18.3125 48.734375 21.84375 45.5625 
Q 25.390625 42.390625 31.78125 42.390625 
Q 38.140625 42.390625 41.71875 45.5625 
Q 45.3125 48.734375 45.3125 54.390625 
Q 45.3125 60.0625 41.71875 63.234375 
Q 38.140625 66.40625 31.78125 66.40625 
Q 25.390625 66.40625 21.84375 63.234375 
Q 18.3125 60.0625 18.3125 54.390625 
z
" id="DejaVuSans-56"/>
      </defs>
      <g transform="translate(336.9335 322.182437)scale(0.1 -0.1)">
       <use xlink:href="#DejaVuSans-56"/>
       <use x="63.623047" xlink:href="#DejaVuSans-48"/>
      </g>
     </g>
    </g>
    <g id="xtick_6">
     <g id="line2d_6">
      <g>
       <use style="stroke:#000000;stroke-width:0.8;" x="414.72" xlink:href="#m8df436bd78" y="307.584"/>
      </g>
     </g>
     <g id="text_6">
      <!-- 100 -->
      <defs>
       <path d="M 12.40625 8.296875 
L 28.515625 8.296875 
L 28.515625 63.921875 
L 10.984375 60.40625 
L 10.984375 69.390625 
L 28.421875 72.90625 
L 38.28125 72.90625 
L 38.28125 8.296875 
L 54.390625 8.296875 
L 54.390625 0 
L 12.40625 0 
z
" id="DejaVuSans-49"/>
      </defs>
      <g transform="translate(405.17625 322.182437)scale(0.1 -0.1)">
       <use xlink:href="#DejaVuSans-49"/>
       <use x="63.623047" xlink:href="#DejaVuSans-48"/>
       <use x="127.246094" xlink:href="#DejaVuSans-48"/>
      </g>
     </g>
    </g>
    <g id="text_7">
     <!-- size -->
     <defs>
      <path d="M 44.28125 53.078125 
L 44.28125 44.578125 
Q 40.484375 46.53125 36.375 47.5 
Q 32.28125 48.484375 27.875 48.484375 
Q 21.1875 48.484375 17.84375 46.4375 
Q 14.5 44.390625 14.5 40.28125 
Q 14.5 37.15625 16.890625 35.375 
Q 19.28125 33.59375 26.515625 31.984375 
L 29.59375 31.296875 
Q 39.15625 29.25 43.1875 25.515625 
Q 47.21875 21.78125 47.21875 15.09375 
Q 47.21875 7.46875 41.1875 3.015625 
Q 35.15625 -1.421875 24.609375 -1.421875 
Q 20.21875 -1.421875 15.453125 -0.5625 
Q 10.6875 0.296875 5.421875 2 
L 5.421875 11.28125 
Q 10.40625 8.6875 15.234375 7.390625 
Q 20.0625 6.109375 24.8125 6.109375 
Q 31.15625 6.109375 34.5625 8.28125 
Q 37.984375 10.453125 37.984375 14.40625 
Q 37.984375 18.0625 35.515625 20.015625 
Q 33.0625 21.96875 24.703125 23.78125 
L 21.578125 24.515625 
Q 13.234375 26.265625 9.515625 29.90625 
Q 5.8125 33.546875 5.8125 39.890625 
Q 5.8125 47.609375 11.28125 51.796875 
Q 16.75 56 26.8125 56 
Q 31.78125 56 36.171875 55.265625 
Q 40.578125 54.546875 44.28125 53.078125 
z
" id="DejaVuSans-115"/>
      <path d="M 9.421875 54.6875 
L 18.40625 54.6875 
L 18.40625 0 
L 9.421875 0 
z
M 9.421875 75.984375 
L 18.40625 75.984375 
L 18.40625 64.59375 
L 9.421875 64.59375 
z
" id="DejaVuSans-105"/>
      <path d="M 5.515625 54.6875 
L 48.1875 54.6875 
L 48.1875 46.484375 
L 14.40625 7.171875 
L 48.1875 7.171875 
L 48.1875 0 
L 4.296875 0 
L 4.296875 8.203125 
L 38.09375 47.515625 
L 5.515625 47.515625 
z
" id="DejaVuSans-122"/>
      <path d="M 56.203125 29.59375 
L 56.203125 25.203125 
L 14.890625 25.203125 
Q 15.484375 15.921875 20.484375 11.0625 
Q 25.484375 6.203125 34.421875 6.203125 
Q 39.59375 6.203125 44.453125 7.46875 
Q 49.3125 8.734375 54.109375 11.28125 
L 54.109375 2.78125 
Q 49.265625 0.734375 44.1875 -0.34375 
Q 39.109375 -1.421875 33.890625 -1.421875 
Q 20.796875 -1.421875 13.15625 6.1875 
Q 5.515625 13.8125 5.515625 26.8125 
Q 5.515625 40.234375 12.765625 48.109375 
Q 20.015625 56 32.328125 56 
Q 43.359375 56 49.78125 48.890625 
Q 56.203125 41.796875 56.203125 29.59375 
z
M 47.21875 32.234375 
Q 47.125 39.59375 43.09375 43.984375 
Q 39.0625 48.390625 32.421875 48.390625 
Q 24.90625 48.390625 20.390625 44.140625 
Q 15.875 39.890625 15.1875 32.171875 
z
" id="DejaVuSans-101"/>
     </defs>
     <g transform="translate(226.465469 335.860562)scale(0.1 -0.1)">
      <use xlink:href="#DejaVuSans-115"/>
      <use x="52.099609" xlink:href="#DejaVuSans-105"/>
      <use x="79.882812" xlink:href="#DejaVuSans-122"/>
      <use x="132.373047" xlink:href="#DejaVuSans-101"/>
     </g>
    </g>
   </g>
   <g id="matplotlib.axis_2">
    <g id="ytick_1">
     <g id="line2d_7">
      <defs>
       <path d="M 0 0 
L -3.5 0 
" id="m4546dc2c36" style="stroke:#000000;stroke-width:0.8;"/>
      </defs>
      <g>
       <use style="stroke:#000000;stroke-width:0.8;" x="57.6" xlink:href="#m4546dc2c36" y="290.923472"/>
      </g>
     </g>
     <g id="text_8">
      <!-- 20 -->
      <g transform="translate(37.875 294.72269)scale(0.1 -0.1)">
       <use xlink:href="#DejaVuSans-50"/>
       <use x="63.623047" xlink:href="#DejaVuSans-48"/>
      </g>
     </g>
    </g>
    <g id="ytick_2">
     <g id="line2d_8">
      <g>
       <use style="stroke:#000000;stroke-width:0.8;" x="57.6" xlink:href="#m4546dc2c36" y="261.283678"/>
      </g>
     </g>
     <g id="text_9">
      <!-- 25 -->
      <defs>
       <path d="M 10.796875 72.90625 
L 49.515625 72.90625 
L 49.515625 64.59375 
L 19.828125 64.59375 
L 19.828125 46.734375 
Q 21.96875 47.46875 24.109375 47.828125 
Q 26.265625 48.1875 28.421875 48.1875 
Q 40.625 48.1875 47.75 41.5 
Q 54.890625 34.8125 54.890625 23.390625 
Q 54.890625 11.625 47.5625 5.09375 
Q 40.234375 -1.421875 26.90625 -1.421875 
Q 22.3125 -1.421875 17.546875 -0.640625 
Q 12.796875 0.140625 7.71875 1.703125 
L 7.71875 11.625 
Q 12.109375 9.234375 16.796875 8.0625 
Q 21.484375 6.890625 26.703125 6.890625 
Q 35.15625 6.890625 40.078125 11.328125 
Q 45.015625 15.765625 45.015625 23.390625 
Q 45.015625 31 40.078125 35.4375 
Q 35.15625 39.890625 26.703125 39.890625 
Q 22.75 39.890625 18.8125 39.015625 
Q 14.890625 38.140625 10.796875 36.28125 
z
" id="DejaVuSans-53"/>
      </defs>
      <g transform="translate(37.875 265.082896)scale(0.1 -0.1)">
       <use xlink:href="#DejaVuSans-50"/>
       <use x="63.623047" xlink:href="#DejaVuSans-53"/>
      </g>
     </g>
    </g>
    <g id="ytick_3">
     <g id="line2d_9">
      <g>
       <use style="stroke:#000000;stroke-width:0.8;" x="57.6" xlink:href="#m4546dc2c36" y="231.643883"/>
      </g>
     </g>
     <g id="text_10">
      <!-- 30 -->
      <defs>
       <path d="M 40.578125 39.3125 
Q 47.65625 37.796875 51.625 33 
Q 55.609375 28.21875 55.609375 21.1875 
Q 55.609375 10.40625 48.1875 4.484375 
Q 40.765625 -1.421875 27.09375 -1.421875 
Q 22.515625 -1.421875 17.65625 -0.515625 
Q 12.796875 0.390625 7.625 2.203125 
L 7.625 11.71875 
Q 11.71875 9.328125 16.59375 8.109375 
Q 21.484375 6.890625 26.8125 6.890625 
Q 36.078125 6.890625 40.9375 10.546875 
Q 45.796875 14.203125 45.796875 21.1875 
Q 45.796875 27.640625 41.28125 31.265625 
Q 36.765625 34.90625 28.71875 34.90625 
L 20.21875 34.90625 
L 20.21875 43.015625 
L 29.109375 43.015625 
Q 36.375 43.015625 40.234375 45.921875 
Q 44.09375 48.828125 44.09375 54.296875 
Q 44.09375 59.90625 40.109375 62.90625 
Q 36.140625 65.921875 28.71875 65.921875 
Q 24.65625 65.921875 20.015625 65.03125 
Q 15.375 64.15625 9.8125 62.3125 
L 9.8125 71.09375 
Q 15.4375 72.65625 20.34375 73.4375 
Q 25.25 74.21875 29.59375 74.21875 
Q 40.828125 74.21875 47.359375 69.109375 
Q 53.90625 64.015625 53.90625 55.328125 
Q 53.90625 49.265625 50.4375 45.09375 
Q 46.96875 40.921875 40.578125 39.3125 
z
" id="DejaVuSans-51"/>
      </defs>
      <g transform="translate(37.875 235.443102)scale(0.1 -0.1)">
       <use xlink:href="#DejaVuSans-51"/>
       <use x="63.623047" xlink:href="#DejaVuSans-48"/>
      </g>
     </g>
    </g>
    <g id="ytick_4">
     <g id="line2d_10">
      <g>
       <use style="stroke:#000000;stroke-width:0.8;" x="57.6" xlink:href="#m4546dc2c36" y="202.004089"/>
      </g>
     </g>
     <g id="text_11">
      <!-- 35 -->
      <g transform="translate(37.875 205.803308)scale(0.1 -0.1)">
       <use xlink:href="#DejaVuSans-51"/>
       <use x="63.623047" xlink:href="#DejaVuSans-53"/>
      </g>
     </g>
    </g>
    <g id="ytick_5">
     <g id="line2d_11">
      <g>
       <use style="stroke:#000000;stroke-width:0.8;" x="57.6" xlink:href="#m4546dc2c36" y="172.364295"/>
      </g>
     </g>
     <g id="text_12">
      <!-- 40 -->
      <g transform="translate(37.875 176.163514)scale(0.1 -0.1)">
       <use xlink:href="#DejaVuSans-52"/>
       <use x="63.623047" xlink:href="#DejaVuSans-48"/>
      </g>
     </g>
    </g>
    <g id="ytick_6">
     <g id="line2d_12">
      <g>
       <use style="stroke:#000000;stroke-width:0.8;" x="57.6" xlink:href="#m4546dc2c36" y="142.724501"/>
      </g>
     </g>
     <g id="text_13">
      <!-- 45 -->
      <g transform="translate(37.875 146.52372)scale(0.1 -0.1)">
       <use xlink:href="#DejaVuSans-52"/>
       <use x="63.623047" xlink:href="#DejaVuSans-53"/>
      </g>
     </g>
    </g>
    <g id="ytick_7">
     <g id="line2d_13">
      <g>
       <use style="stroke:#000000;stroke-width:0.8;" x="57.6" xlink:href="#m4546dc2c36" y="113.084707"/>
      </g>
     </g>
     <g id="text_14">
      <!-- 50 -->
      <g transform="translate(37.875 116.883925)scale(0.1 -0.1)">
       <use xlink:href="#DejaVuSans-53"/>
       <use x="63.623047" xlink:href="#DejaVuSans-48"/>
      </g>
     </g>
    </g>
    <g id="ytick_8">
     <g id="line2d_14">
      <g>
       <use style="stroke:#000000;stroke-width:0.8;" x="57.6" xlink:href="#m4546dc2c36" y="83.444913"/>
      </g>
     </g>
     <g id="text_15">
      <!-- 55 -->
      <g transform="translate(37.875 87.244131)scale(0.1 -0.1)">
       <use xlink:href="#DejaVuSans-53"/>
       <use x="63.623047" xlink:href="#DejaVuSans-53"/>
      </g>
     </g>
    </g>
    <g id="ytick_9">
     <g id="line2d_15">
      <g>
       <use style="stroke:#000000;stroke-width:0.8;" x="57.6" xlink:href="#m4546dc2c36" y="53.805118"/>
      </g>
     </g>
     <g id="text_16">
      <!-- 60 -->
      <g transform="translate(37.875 57.604337)scale(0.1 -0.1)">
       <use xlink:href="#DejaVuSans-54"/>
       <use x="63.623047" xlink:href="#DejaVuSans-48"/>
      </g>
     </g>
    </g>
    <g id="text_17">
     <!-- f1 -->
     <defs>
      <path d="M 37.109375 75.984375 
L 37.109375 68.5 
L 28.515625 68.5 
Q 23.6875 68.5 21.796875 66.546875 
Q 19.921875 64.59375 19.921875 59.515625 
L 19.921875 54.6875 
L 34.71875 54.6875 
L 34.71875 47.703125 
L 19.921875 47.703125 
L 19.921875 0 
L 10.890625 0 
L 10.890625 47.703125 
L 2.296875 47.703125 
L 2.296875 54.6875 
L 10.890625 54.6875 
L 10.890625 58.5 
Q 10.890625 67.625 15.140625 71.796875 
Q 19.390625 75.984375 28.609375 75.984375 
z
" id="DejaVuSans-102"/>
     </defs>
     <g transform="translate(31.795313 179.469406)rotate(-90)scale(0.1 -0.1)">
      <use xlink:href="#DejaVuSans-102"/>
      <use x="35.205078" xlink:href="#DejaVuSans-49"/>
     </g>
    </g>
   </g>
   <g id="line2d_16">
    <path clip-path="url(#pade54dd2c2)" d="M 57.635712 120.494655 
L 57.671424 129.682991 
L 57.707136 87.535204 
L 57.742848 77.398395 
L 57.77856 88.720796 
L 57.814272 111.365599 
L 57.849984 126.304055 
L 57.885696 105.319081 
L 57.921408 96.012185 
L 57.95712 100.695273 
L 58.31424 119.190504 
L 58.67136 139.227005 
L 59.02848 130.275787 
L 59.3856 136.144467 
L 59.74272 120.316816 
L 60.09984 123.932871 
L 60.45696 135.551671 
L 60.81408 134.958875 
L 61.1712 129.505153 
L 75.456 109.587211 
L 93.312 131.639218 
L 111.168 126.600453 
L 129.024 132.232014 
L 146.88 128.319561 
L 164.736 178.055136 
L 182.592 155.943849 
L 200.448 185.761482 
L 218.304 173.787005 
L 236.16 187.48059 
L 254.016 144.799286 
L 271.872 186.235719 
L 289.728 158.018635 
L 307.584 161.397571 
L 325.44 204.612391 
L 343.296 198.150916 
L 361.152 190.622408 
L 379.008 215.282717 
L 396.864 209.05836 
L 414.72 194.65342 
" style="fill:none;stroke:#008000;stroke-linecap:square;stroke-width:1.5;"/>
    <defs>
     <path d="M -3 3 
L 3 -3 
M -3 -3 
L 3 3 
" id="m7fefb51472" style="stroke:#008000;"/>
    </defs>
    <g clip-path="url(#pade54dd2c2)">
     <use style="fill:#008000;stroke:#008000;" x="57.635712" xlink:href="#m7fefb51472" y="120.494655"/>
     <use style="fill:#008000;stroke:#008000;" x="57.671424" xlink:href="#m7fefb51472" y="129.682991"/>
     <use style="fill:#008000;stroke:#008000;" x="57.707136" xlink:href="#m7fefb51472" y="87.535204"/>
     <use style="fill:#008000;stroke:#008000;" x="57.742848" xlink:href="#m7fefb51472" y="77.398395"/>
     <use style="fill:#008000;stroke:#008000;" x="57.77856" xlink:href="#m7fefb51472" y="88.720796"/>
     <use style="fill:#008000;stroke:#008000;" x="57.814272" xlink:href="#m7fefb51472" y="111.365599"/>
     <use style="fill:#008000;stroke:#008000;" x="57.849984" xlink:href="#m7fefb51472" y="126.304055"/>
     <use style="fill:#008000;stroke:#008000;" x="57.885696" xlink:href="#m7fefb51472" y="105.319081"/>
     <use style="fill:#008000;stroke:#008000;" x="57.921408" xlink:href="#m7fefb51472" y="96.012185"/>
     <use style="fill:#008000;stroke:#008000;" x="57.95712" xlink:href="#m7fefb51472" y="100.695273"/>
     <use style="fill:#008000;stroke:#008000;" x="58.31424" xlink:href="#m7fefb51472" y="119.190504"/>
     <use style="fill:#008000;stroke:#008000;" x="58.67136" xlink:href="#m7fefb51472" y="139.227005"/>
     <use style="fill:#008000;stroke:#008000;" x="59.02848" xlink:href="#m7fefb51472" y="130.275787"/>
     <use style="fill:#008000;stroke:#008000;" x="59.3856" xlink:href="#m7fefb51472" y="136.144467"/>
     <use style="fill:#008000;stroke:#008000;" x="59.74272" xlink:href="#m7fefb51472" y="120.316816"/>
     <use style="fill:#008000;stroke:#008000;" x="60.09984" xlink:href="#m7fefb51472" y="123.932871"/>
     <use style="fill:#008000;stroke:#008000;" x="60.45696" xlink:href="#m7fefb51472" y="135.551671"/>
     <use style="fill:#008000;stroke:#008000;" x="60.81408" xlink:href="#m7fefb51472" y="134.958875"/>
     <use style="fill:#008000;stroke:#008000;" x="61.1712" xlink:href="#m7fefb51472" y="129.505153"/>
     <use style="fill:#008000;stroke:#008000;" x="75.456" xlink:href="#m7fefb51472" y="109.587211"/>
     <use style="fill:#008000;stroke:#008000;" x="93.312" xlink:href="#m7fefb51472" y="131.639218"/>
     <use style="fill:#008000;stroke:#008000;" x="111.168" xlink:href="#m7fefb51472" y="126.600453"/>
     <use style="fill:#008000;stroke:#008000;" x="129.024" xlink:href="#m7fefb51472" y="132.232014"/>
     <use style="fill:#008000;stroke:#008000;" x="146.88" xlink:href="#m7fefb51472" y="128.319561"/>
     <use style="fill:#008000;stroke:#008000;" x="164.736" xlink:href="#m7fefb51472" y="178.055136"/>
     <use style="fill:#008000;stroke:#008000;" x="182.592" xlink:href="#m7fefb51472" y="155.943849"/>
     <use style="fill:#008000;stroke:#008000;" x="200.448" xlink:href="#m7fefb51472" y="185.761482"/>
     <use style="fill:#008000;stroke:#008000;" x="218.304" xlink:href="#m7fefb51472" y="173.787005"/>
     <use style="fill:#008000;stroke:#008000;" x="236.16" xlink:href="#m7fefb51472" y="187.48059"/>
     <use style="fill:#008000;stroke:#008000;" x="254.016" xlink:href="#m7fefb51472" y="144.799286"/>
     <use style="fill:#008000;stroke:#008000;" x="271.872" xlink:href="#m7fefb51472" y="186.235719"/>
     <use style="fill:#008000;stroke:#008000;" x="289.728" xlink:href="#m7fefb51472" y="158.018635"/>
     <use style="fill:#008000;stroke:#008000;" x="307.584" xlink:href="#m7fefb51472" y="161.397571"/>
     <use style="fill:#008000;stroke:#008000;" x="325.44" xlink:href="#m7fefb51472" y="204.612391"/>
     <use style="fill:#008000;stroke:#008000;" x="343.296" xlink:href="#m7fefb51472" y="198.150916"/>
     <use style="fill:#008000;stroke:#008000;" x="361.152" xlink:href="#m7fefb51472" y="190.622408"/>
     <use style="fill:#008000;stroke:#008000;" x="379.008" xlink:href="#m7fefb51472" y="215.282717"/>
     <use style="fill:#008000;stroke:#008000;" x="396.864" xlink:href="#m7fefb51472" y="209.05836"/>
     <use style="fill:#008000;stroke:#008000;" x="414.72" xlink:href="#m7fefb51472" y="194.65342"/>
    </g>
   </g>
   <g id="line2d_17">
    <path clip-path="url(#pade54dd2c2)" d="M 57.635712 58.725324 
L 57.671424 83.85987 
L 57.707136 86.112494 
L 57.742848 58.903163 
L 57.77856 83.148515 
L 57.814272 160.034141 
L 57.849984 181.315513 
L 57.885696 73.960178 
L 57.921408 62.22282 
L 57.95712 73.011705 
L 58.31424 89.017194 
L 58.67136 143.910093 
L 59.02848 118.36059 
L 59.3856 170.526628 
L 59.74272 143.080178 
L 60.09984 115.930127 
L 60.45696 117.886353 
L 60.81408 109.350093 
L 61.1712 110.417125 
L 75.456 95.537949 
L 93.312 180.663437 
L 111.168 181.967588 
L 129.024 266.559561 
L 146.88 197.735959 
L 164.736 271.894724 
L 182.592 235.378497 
L 200.448 257.667623 
L 218.304 239.172391 
L 236.16 248.301448 
L 254.016 189.673935 
L 271.872 217.71318 
L 289.728 225.834484 
L 307.584 237.571842 
L 325.44 267.804432 
L 343.296 225.775204 
L 361.152 210.777468 
L 379.008 213.682168 
L 396.864 239.172391 
L 414.72 295.488 
" style="fill:none;stroke:#ff0000;stroke-linecap:square;stroke-width:1.5;"/>
    <defs>
     <path d="M 0 3 
C 0.795609 3 1.55874 2.683901 2.12132 2.12132 
C 2.683901 1.55874 3 0.795609 3 0 
C 3 -0.795609 2.683901 -1.55874 2.12132 -2.12132 
C 1.55874 -2.683901 0.795609 -3 0 -3 
C -0.795609 -3 -1.55874 -2.683901 -2.12132 -2.12132 
C -2.683901 -1.55874 -3 -0.795609 -3 0 
C -3 0.795609 -2.683901 1.55874 -2.12132 2.12132 
C -1.55874 2.683901 -0.795609 3 0 3 
z
" id="mcd94b52b4c" style="stroke:#ff0000;"/>
    </defs>
    <g clip-path="url(#pade54dd2c2)">
     <use style="fill:#ff0000;stroke:#ff0000;" x="57.635712" xlink:href="#mcd94b52b4c" y="58.725324"/>
     <use style="fill:#ff0000;stroke:#ff0000;" x="57.671424" xlink:href="#mcd94b52b4c" y="83.85987"/>
     <use style="fill:#ff0000;stroke:#ff0000;" x="57.707136" xlink:href="#mcd94b52b4c" y="86.112494"/>
     <use style="fill:#ff0000;stroke:#ff0000;" x="57.742848" xlink:href="#mcd94b52b4c" y="58.903163"/>
     <use style="fill:#ff0000;stroke:#ff0000;" x="57.77856" xlink:href="#mcd94b52b4c" y="83.148515"/>
     <use style="fill:#ff0000;stroke:#ff0000;" x="57.814272" xlink:href="#mcd94b52b4c" y="160.034141"/>
     <use style="fill:#ff0000;stroke:#ff0000;" x="57.849984" xlink:href="#mcd94b52b4c" y="181.315513"/>
     <use style="fill:#ff0000;stroke:#ff0000;" x="57.885696" xlink:href="#mcd94b52b4c" y="73.960178"/>
     <use style="fill:#ff0000;stroke:#ff0000;" x="57.921408" xlink:href="#mcd94b52b4c" y="62.22282"/>
     <use style="fill:#ff0000;stroke:#ff0000;" x="57.95712" xlink:href="#mcd94b52b4c" y="73.011705"/>
     <use style="fill:#ff0000;stroke:#ff0000;" x="58.31424" xlink:href="#mcd94b52b4c" y="89.017194"/>
     <use style="fill:#ff0000;stroke:#ff0000;" x="58.67136" xlink:href="#mcd94b52b4c" y="143.910093"/>
     <use style="fill:#ff0000;stroke:#ff0000;" x="59.02848" xlink:href="#mcd94b52b4c" y="118.36059"/>
     <use style="fill:#ff0000;stroke:#ff0000;" x="59.3856" xlink:href="#mcd94b52b4c" y="170.526628"/>
     <use style="fill:#ff0000;stroke:#ff0000;" x="59.74272" xlink:href="#mcd94b52b4c" y="143.080178"/>
     <use style="fill:#ff0000;stroke:#ff0000;" x="60.09984" xlink:href="#mcd94b52b4c" y="115.930127"/>
     <use style="fill:#ff0000;stroke:#ff0000;" x="60.45696" xlink:href="#mcd94b52b4c" y="117.886353"/>
     <use style="fill:#ff0000;stroke:#ff0000;" x="60.81408" xlink:href="#mcd94b52b4c" y="109.350093"/>
     <use style="fill:#ff0000;stroke:#ff0000;" x="61.1712" xlink:href="#mcd94b52b4c" y="110.417125"/>
     <use style="fill:#ff0000;stroke:#ff0000;" x="75.456" xlink:href="#mcd94b52b4c" y="95.537949"/>
     <use style="fill:#ff0000;stroke:#ff0000;" x="93.312" xlink:href="#mcd94b52b4c" y="180.663437"/>
     <use style="fill:#ff0000;stroke:#ff0000;" x="111.168" xlink:href="#mcd94b52b4c" y="181.967588"/>
     <use style="fill:#ff0000;stroke:#ff0000;" x="129.024" xlink:href="#mcd94b52b4c" y="266.559561"/>
     <use style="fill:#ff0000;stroke:#ff0000;" x="146.88" xlink:href="#mcd94b52b4c" y="197.735959"/>
     <use style="fill:#ff0000;stroke:#ff0000;" x="164.736" xlink:href="#mcd94b52b4c" y="271.894724"/>
     <use style="fill:#ff0000;stroke:#ff0000;" x="182.592" xlink:href="#mcd94b52b4c" y="235.378497"/>
     <use style="fill:#ff0000;stroke:#ff0000;" x="200.448" xlink:href="#mcd94b52b4c" y="257.667623"/>
     <use style="fill:#ff0000;stroke:#ff0000;" x="218.304" xlink:href="#mcd94b52b4c" y="239.172391"/>
     <use style="fill:#ff0000;stroke:#ff0000;" x="236.16" xlink:href="#mcd94b52b4c" y="248.301448"/>
     <use style="fill:#ff0000;stroke:#ff0000;" x="254.016" xlink:href="#mcd94b52b4c" y="189.673935"/>
     <use style="fill:#ff0000;stroke:#ff0000;" x="271.872" xlink:href="#mcd94b52b4c" y="217.71318"/>
     <use style="fill:#ff0000;stroke:#ff0000;" x="289.728" xlink:href="#mcd94b52b4c" y="225.834484"/>
     <use style="fill:#ff0000;stroke:#ff0000;" x="307.584" xlink:href="#mcd94b52b4c" y="237.571842"/>
     <use style="fill:#ff0000;stroke:#ff0000;" x="325.44" xlink:href="#mcd94b52b4c" y="267.804432"/>
     <use style="fill:#ff0000;stroke:#ff0000;" x="343.296" xlink:href="#mcd94b52b4c" y="225.775204"/>
     <use style="fill:#ff0000;stroke:#ff0000;" x="361.152" xlink:href="#mcd94b52b4c" y="210.777468"/>
     <use style="fill:#ff0000;stroke:#ff0000;" x="379.008" xlink:href="#mcd94b52b4c" y="213.682168"/>
     <use style="fill:#ff0000;stroke:#ff0000;" x="396.864" xlink:href="#mcd94b52b4c" y="239.172391"/>
     <use style="fill:#ff0000;stroke:#ff0000;" x="414.72" xlink:href="#mcd94b52b4c" y="295.488"/>
    </g>
   </g>
   <g id="line2d_18">
    <path clip-path="url(#pade54dd2c2)" d="M 57.635712 96.190024 
L 57.671424 145.214244 
L 57.707136 88.542957 
L 57.742848 62.697057 
L 57.77856 89.135753 
L 57.814272 131.817057 
L 57.849984 127.786045 
L 57.885696 105.971156 
L 57.921408 92.277571 
L 57.95712 107.690264 
L 58.31424 106.623232 
L 58.67136 127.311808 
L 59.02848 124.762786 
L 59.3856 139.582683 
L 59.74272 130.809304 
L 60.09984 112.55119 
L 60.45696 120.376096 
L 60.81408 126.541173 
L 61.1712 128.675238 
L 75.456 93.700281 
L 93.312 145.154964 
L 111.168 130.750024 
L 129.024 147.289029 
L 146.88 148.415341 
L 164.736 168.570401 
L 182.592 162.405324 
L 200.448 171.119424 
L 218.304 155.291774 
L 236.16 168.74824 
L 254.016 167.562648 
L 271.872 180.604158 
L 289.728 169.222477 
L 307.584 186.769235 
L 325.44 193.408549 
L 343.296 200.40354 
L 361.152 187.006353 
L 379.008 205.145907 
L 396.864 205.383026 
L 414.72 204.138154 
" style="fill:none;stroke:#0000ff;stroke-linecap:square;stroke-width:1.5;"/>
    <defs>
     <path d="M -3 0 
L 3 0 
M 0 3 
L 0 -3 
" id="m165478f000" style="stroke:#0000ff;"/>
    </defs>
    <g clip-path="url(#pade54dd2c2)">
     <use style="fill:#0000ff;stroke:#0000ff;" x="57.635712" xlink:href="#m165478f000" y="96.190024"/>
     <use style="fill:#0000ff;stroke:#0000ff;" x="57.671424" xlink:href="#m165478f000" y="145.214244"/>
     <use style="fill:#0000ff;stroke:#0000ff;" x="57.707136" xlink:href="#m165478f000" y="88.542957"/>
     <use style="fill:#0000ff;stroke:#0000ff;" x="57.742848" xlink:href="#m165478f000" y="62.697057"/>
     <use style="fill:#0000ff;stroke:#0000ff;" x="57.77856" xlink:href="#m165478f000" y="89.135753"/>
     <use style="fill:#0000ff;stroke:#0000ff;" x="57.814272" xlink:href="#m165478f000" y="131.817057"/>
     <use style="fill:#0000ff;stroke:#0000ff;" x="57.849984" xlink:href="#m165478f000" y="127.786045"/>
     <use style="fill:#0000ff;stroke:#0000ff;" x="57.885696" xlink:href="#m165478f000" y="105.971156"/>
     <use style="fill:#0000ff;stroke:#0000ff;" x="57.921408" xlink:href="#m165478f000" y="92.277571"/>
     <use style="fill:#0000ff;stroke:#0000ff;" x="57.95712" xlink:href="#m165478f000" y="107.690264"/>
     <use style="fill:#0000ff;stroke:#0000ff;" x="58.31424" xlink:href="#m165478f000" y="106.623232"/>
     <use style="fill:#0000ff;stroke:#0000ff;" x="58.67136" xlink:href="#m165478f000" y="127.311808"/>
     <use style="fill:#0000ff;stroke:#0000ff;" x="59.02848" xlink:href="#m165478f000" y="124.762786"/>
     <use style="fill:#0000ff;stroke:#0000ff;" x="59.3856" xlink:href="#m165478f000" y="139.582683"/>
     <use style="fill:#0000ff;stroke:#0000ff;" x="59.74272" xlink:href="#m165478f000" y="130.809304"/>
     <use style="fill:#0000ff;stroke:#0000ff;" x="60.09984" xlink:href="#m165478f000" y="112.55119"/>
     <use style="fill:#0000ff;stroke:#0000ff;" x="60.45696" xlink:href="#m165478f000" y="120.376096"/>
     <use style="fill:#0000ff;stroke:#0000ff;" x="60.81408" xlink:href="#m165478f000" y="126.541173"/>
     <use style="fill:#0000ff;stroke:#0000ff;" x="61.1712" xlink:href="#m165478f000" y="128.675238"/>
     <use style="fill:#0000ff;stroke:#0000ff;" x="75.456" xlink:href="#m165478f000" y="93.700281"/>
     <use style="fill:#0000ff;stroke:#0000ff;" x="93.312" xlink:href="#m165478f000" y="145.154964"/>
     <use style="fill:#0000ff;stroke:#0000ff;" x="111.168" xlink:href="#m165478f000" y="130.750024"/>
     <use style="fill:#0000ff;stroke:#0000ff;" x="129.024" xlink:href="#m165478f000" y="147.289029"/>
     <use style="fill:#0000ff;stroke:#0000ff;" x="146.88" xlink:href="#m165478f000" y="148.415341"/>
     <use style="fill:#0000ff;stroke:#0000ff;" x="164.736" xlink:href="#m165478f000" y="168.570401"/>
     <use style="fill:#0000ff;stroke:#0000ff;" x="182.592" xlink:href="#m165478f000" y="162.405324"/>
     <use style="fill:#0000ff;stroke:#0000ff;" x="200.448" xlink:href="#m165478f000" y="171.119424"/>
     <use style="fill:#0000ff;stroke:#0000ff;" x="218.304" xlink:href="#m165478f000" y="155.291774"/>
     <use style="fill:#0000ff;stroke:#0000ff;" x="236.16" xlink:href="#m165478f000" y="168.74824"/>
     <use style="fill:#0000ff;stroke:#0000ff;" x="254.016" xlink:href="#m165478f000" y="167.562648"/>
     <use style="fill:#0000ff;stroke:#0000ff;" x="271.872" xlink:href="#m165478f000" y="180.604158"/>
     <use style="fill:#0000ff;stroke:#0000ff;" x="289.728" xlink:href="#m165478f000" y="169.222477"/>
     <use style="fill:#0000ff;stroke:#0000ff;" x="307.584" xlink:href="#m165478f000" y="186.769235"/>
     <use style="fill:#0000ff;stroke:#0000ff;" x="325.44" xlink:href="#m165478f000" y="193.408549"/>
     <use style="fill:#0000ff;stroke:#0000ff;" x="343.296" xlink:href="#m165478f000" y="200.40354"/>
     <use style="fill:#0000ff;stroke:#0000ff;" x="361.152" xlink:href="#m165478f000" y="187.006353"/>
     <use style="fill:#0000ff;stroke:#0000ff;" x="379.008" xlink:href="#m165478f000" y="205.145907"/>
     <use style="fill:#0000ff;stroke:#0000ff;" x="396.864" xlink:href="#m165478f000" y="205.383026"/>
     <use style="fill:#0000ff;stroke:#0000ff;" x="414.72" xlink:href="#m165478f000" y="204.138154"/>
    </g>
   </g>
   <g id="line2d_19">
    <path clip-path="url(#pade54dd2c2)" d="M 57.635712 96.664261 
L 57.671424 140.531156 
L 57.707136 87.950161 
L 57.742848 53.568 
L 57.77856 65.305358 
L 57.814272 103.362854 
L 57.849984 79.47318 
L 57.885696 58.369647 
L 57.921408 57.065496 
L 57.95712 62.282099 
L 58.31424 59.140281 
L 58.67136 68.328617 
L 59.02848 71.174038 
L 59.3856 71.174038 
L 59.74272 71.174038 
L 60.09984 71.174038 
L 60.45696 71.174038 
L 60.81408 71.174038 
L 61.1712 71.174038 
L 75.456 71.174038 
L 93.312 71.174038 
L 111.168 71.174038 
L 129.024 71.174038 
L 146.88 71.174038 
L 164.736 71.174038 
L 182.592 71.174038 
L 200.448 71.174038 
L 218.304 71.174038 
L 236.16 71.174038 
L 254.016 71.174038 
L 271.872 71.174038 
L 289.728 71.174038 
L 307.584 71.174038 
L 325.44 71.174038 
L 343.296 71.174038 
L 361.152 71.174038 
L 379.008 71.174038 
L 396.864 71.174038 
L 414.72 71.174038 
" style="fill:none;stroke:#000000;stroke-linecap:square;stroke-width:1.5;"/>
    <defs>
     <path d="M -3 3 
L 3 3 
L 3 -3 
L -3 -3 
z
" id="m05dbd8256e" style="stroke:#000000;stroke-linejoin:miter;"/>
    </defs>
    <g clip-path="url(#pade54dd2c2)">
     <use style="stroke:#000000;stroke-linejoin:miter;" x="57.635712" xlink:href="#m05dbd8256e" y="96.664261"/>
     <use style="stroke:#000000;stroke-linejoin:miter;" x="57.671424" xlink:href="#m05dbd8256e" y="140.531156"/>
     <use style="stroke:#000000;stroke-linejoin:miter;" x="57.707136" xlink:href="#m05dbd8256e" y="87.950161"/>
     <use style="stroke:#000000;stroke-linejoin:miter;" x="57.742848" xlink:href="#m05dbd8256e" y="53.568"/>
     <use style="stroke:#000000;stroke-linejoin:miter;" x="57.77856" xlink:href="#m05dbd8256e" y="65.305358"/>
     <use style="stroke:#000000;stroke-linejoin:miter;" x="57.814272" xlink:href="#m05dbd8256e" y="103.362854"/>
     <use style="stroke:#000000;stroke-linejoin:miter;" x="57.849984" xlink:href="#m05dbd8256e" y="79.47318"/>
     <use style="stroke:#000000;stroke-linejoin:miter;" x="57.885696" xlink:href="#m05dbd8256e" y="58.369647"/>
     <use style="stroke:#000000;stroke-linejoin:miter;" x="57.921408" xlink:href="#m05dbd8256e" y="57.065496"/>
     <use style="stroke:#000000;stroke-linejoin:miter;" x="57.95712" xlink:href="#m05dbd8256e" y="62.282099"/>
     <use style="stroke:#000000;stroke-linejoin:miter;" x="58.31424" xlink:href="#m05dbd8256e" y="59.140281"/>
     <use style="stroke:#000000;stroke-linejoin:miter;" x="58.67136" xlink:href="#m05dbd8256e" y="68.328617"/>
     <use style="stroke:#000000;stroke-linejoin:miter;" x="59.02848" xlink:href="#m05dbd8256e" y="71.174038"/>
     <use style="stroke:#000000;stroke-linejoin:miter;" x="59.3856" xlink:href="#m05dbd8256e" y="71.174038"/>
     <use style="stroke:#000000;stroke-linejoin:miter;" x="59.74272" xlink:href="#m05dbd8256e" y="71.174038"/>
     <use style="stroke:#000000;stroke-linejoin:miter;" x="60.09984" xlink:href="#m05dbd8256e" y="71.174038"/>
     <use style="stroke:#000000;stroke-linejoin:miter;" x="60.45696" xlink:href="#m05dbd8256e" y="71.174038"/>
     <use style="stroke:#000000;stroke-linejoin:miter;" x="60.81408" xlink:href="#m05dbd8256e" y="71.174038"/>
     <use style="stroke:#000000;stroke-linejoin:miter;" x="61.1712" xlink:href="#m05dbd8256e" y="71.174038"/>
     <use style="stroke:#000000;stroke-linejoin:miter;" x="75.456" xlink:href="#m05dbd8256e" y="71.174038"/>
     <use style="stroke:#000000;stroke-linejoin:miter;" x="93.312" xlink:href="#m05dbd8256e" y="71.174038"/>
     <use style="stroke:#000000;stroke-linejoin:miter;" x="111.168" xlink:href="#m05dbd8256e" y="71.174038"/>
     <use style="stroke:#000000;stroke-linejoin:miter;" x="129.024" xlink:href="#m05dbd8256e" y="71.174038"/>
     <use style="stroke:#000000;stroke-linejoin:miter;" x="146.88" xlink:href="#m05dbd8256e" y="71.174038"/>
     <use style="stroke:#000000;stroke-linejoin:miter;" x="164.736" xlink:href="#m05dbd8256e" y="71.174038"/>
     <use style="stroke:#000000;stroke-linejoin:miter;" x="182.592" xlink:href="#m05dbd8256e" y="71.174038"/>
     <use style="stroke:#000000;stroke-linejoin:miter;" x="200.448" xlink:href="#m05dbd8256e" y="71.174038"/>
     <use style="stroke:#000000;stroke-linejoin:miter;" x="218.304" xlink:href="#m05dbd8256e" y="71.174038"/>
     <use style="stroke:#000000;stroke-linejoin:miter;" x="236.16" xlink:href="#m05dbd8256e" y="71.174038"/>
     <use style="stroke:#000000;stroke-linejoin:miter;" x="254.016" xlink:href="#m05dbd8256e" y="71.174038"/>
     <use style="stroke:#000000;stroke-linejoin:miter;" x="271.872" xlink:href="#m05dbd8256e" y="71.174038"/>
     <use style="stroke:#000000;stroke-linejoin:miter;" x="289.728" xlink:href="#m05dbd8256e" y="71.174038"/>
     <use style="stroke:#000000;stroke-linejoin:miter;" x="307.584" xlink:href="#m05dbd8256e" y="71.174038"/>
     <use style="stroke:#000000;stroke-linejoin:miter;" x="325.44" xlink:href="#m05dbd8256e" y="71.174038"/>
     <use style="stroke:#000000;stroke-linejoin:miter;" x="343.296" xlink:href="#m05dbd8256e" y="71.174038"/>
     <use style="stroke:#000000;stroke-linejoin:miter;" x="361.152" xlink:href="#m05dbd8256e" y="71.174038"/>
     <use style="stroke:#000000;stroke-linejoin:miter;" x="379.008" xlink:href="#m05dbd8256e" y="71.174038"/>
     <use style="stroke:#000000;stroke-linejoin:miter;" x="396.864" xlink:href="#m05dbd8256e" y="71.174038"/>
     <use style="stroke:#000000;stroke-linejoin:miter;" x="414.72" xlink:href="#m05dbd8256e" y="71.174038"/>
    </g>
   </g>
   <g id="patch_3">
    <path d="M 57.6 307.584 
L 57.6 41.472 
" style="fill:none;stroke:#000000;stroke-linecap:square;stroke-linejoin:miter;stroke-width:0.8;"/>
   </g>
   <g id="patch_4">
    <path d="M 414.72 307.584 
L 414.72 41.472 
" style="fill:none;stroke:#000000;stroke-linecap:square;stroke-linejoin:miter;stroke-width:0.8;"/>
   </g>
   <g id="patch_5">
    <path d="M 57.6 307.584 
L 414.72 307.584 
" style="fill:none;stroke:#000000;stroke-linecap:square;stroke-linejoin:miter;stroke-width:0.8;"/>
   </g>
   <g id="patch_6">
    <path d="M 57.6 41.472 
L 414.72 41.472 
" style="fill:none;stroke:#000000;stroke-linecap:square;stroke-linejoin:miter;stroke-width:0.8;"/>
   </g>
   <g id="text_18">
    <!-- abinit: size vs f1 -->
    <defs>
     <path d="M 34.28125 27.484375 
Q 23.390625 27.484375 19.1875 25 
Q 14.984375 22.515625 14.984375 16.5 
Q 14.984375 11.71875 18.140625 8.90625 
Q 21.296875 6.109375 26.703125 6.109375 
Q 34.1875 6.109375 38.703125 11.40625 
Q 43.21875 16.703125 43.21875 25.484375 
L 43.21875 27.484375 
z
M 52.203125 31.203125 
L 52.203125 0 
L 43.21875 0 
L 43.21875 8.296875 
Q 40.140625 3.328125 35.546875 0.953125 
Q 30.953125 -1.421875 24.3125 -1.421875 
Q 15.921875 -1.421875 10.953125 3.296875 
Q 6 8.015625 6 15.921875 
Q 6 25.140625 12.171875 29.828125 
Q 18.359375 34.515625 30.609375 34.515625 
L 43.21875 34.515625 
L 43.21875 35.40625 
Q 43.21875 41.609375 39.140625 45 
Q 35.0625 48.390625 27.6875 48.390625 
Q 23 48.390625 18.546875 47.265625 
Q 14.109375 46.140625 10.015625 43.890625 
L 10.015625 52.203125 
Q 14.9375 54.109375 19.578125 55.046875 
Q 24.21875 56 28.609375 56 
Q 40.484375 56 46.34375 49.84375 
Q 52.203125 43.703125 52.203125 31.203125 
z
" id="DejaVuSans-97"/>
     <path d="M 48.6875 27.296875 
Q 48.6875 37.203125 44.609375 42.84375 
Q 40.53125 48.484375 33.40625 48.484375 
Q 26.265625 48.484375 22.1875 42.84375 
Q 18.109375 37.203125 18.109375 27.296875 
Q 18.109375 17.390625 22.1875 11.75 
Q 26.265625 6.109375 33.40625 6.109375 
Q 40.53125 6.109375 44.609375 11.75 
Q 48.6875 17.390625 48.6875 27.296875 
z
M 18.109375 46.390625 
Q 20.953125 51.265625 25.265625 53.625 
Q 29.59375 56 35.59375 56 
Q 45.5625 56 51.78125 48.09375 
Q 58.015625 40.1875 58.015625 27.296875 
Q 58.015625 14.40625 51.78125 6.484375 
Q 45.5625 -1.421875 35.59375 -1.421875 
Q 29.59375 -1.421875 25.265625 0.953125 
Q 20.953125 3.328125 18.109375 8.203125 
L 18.109375 0 
L 9.078125 0 
L 9.078125 75.984375 
L 18.109375 75.984375 
z
" id="DejaVuSans-98"/>
     <path d="M 54.890625 33.015625 
L 54.890625 0 
L 45.90625 0 
L 45.90625 32.71875 
Q 45.90625 40.484375 42.875 44.328125 
Q 39.84375 48.1875 33.796875 48.1875 
Q 26.515625 48.1875 22.3125 43.546875 
Q 18.109375 38.921875 18.109375 30.90625 
L 18.109375 0 
L 9.078125 0 
L 9.078125 54.6875 
L 18.109375 54.6875 
L 18.109375 46.1875 
Q 21.34375 51.125 25.703125 53.5625 
Q 30.078125 56 35.796875 56 
Q 45.21875 56 50.046875 50.171875 
Q 54.890625 44.34375 54.890625 33.015625 
z
" id="DejaVuSans-110"/>
     <path d="M 18.3125 70.21875 
L 18.3125 54.6875 
L 36.8125 54.6875 
L 36.8125 47.703125 
L 18.3125 47.703125 
L 18.3125 18.015625 
Q 18.3125 11.328125 20.140625 9.421875 
Q 21.96875 7.515625 27.59375 7.515625 
L 36.8125 7.515625 
L 36.8125 0 
L 27.59375 0 
Q 17.1875 0 13.234375 3.875 
Q 9.28125 7.765625 9.28125 18.015625 
L 9.28125 47.703125 
L 2.6875 47.703125 
L 2.6875 54.6875 
L 9.28125 54.6875 
L 9.28125 70.21875 
z
" id="DejaVuSans-116"/>
     <path d="M 11.71875 12.40625 
L 22.015625 12.40625 
L 22.015625 0 
L 11.71875 0 
z
M 11.71875 51.703125 
L 22.015625 51.703125 
L 22.015625 39.3125 
L 11.71875 39.3125 
z
" id="DejaVuSans-58"/>
     <path id="DejaVuSans-32"/>
     <path d="M 2.984375 54.6875 
L 12.5 54.6875 
L 29.59375 8.796875 
L 46.6875 54.6875 
L 56.203125 54.6875 
L 35.6875 0 
L 23.484375 0 
z
" id="DejaVuSans-118"/>
    </defs>
    <g transform="translate(187.20375 35.472)scale(0.12 -0.12)">
     <use xlink:href="#DejaVuSans-97"/>
     <use x="61.279297" xlink:href="#DejaVuSans-98"/>
     <use x="124.755859" xlink:href="#DejaVuSans-105"/>
     <use x="152.539062" xlink:href="#DejaVuSans-110"/>
     <use x="215.917969" xlink:href="#DejaVuSans-105"/>
     <use x="243.701172" xlink:href="#DejaVuSans-116"/>
     <use x="282.910156" xlink:href="#DejaVuSans-58"/>
     <use x="316.601562" xlink:href="#DejaVuSans-32"/>
     <use x="348.388672" xlink:href="#DejaVuSans-115"/>
     <use x="400.488281" xlink:href="#DejaVuSans-105"/>
     <use x="428.271484" xlink:href="#DejaVuSans-122"/>
     <use x="480.761719" xlink:href="#DejaVuSans-101"/>
     <use x="542.285156" xlink:href="#DejaVuSans-32"/>
     <use x="574.072266" xlink:href="#DejaVuSans-118"/>
     <use x="633.251953" xlink:href="#DejaVuSans-115"/>
     <use x="685.351562" xlink:href="#DejaVuSans-32"/>
     <use x="717.138672" xlink:href="#DejaVuSans-102"/>
     <use x="752.34375" xlink:href="#DejaVuSans-49"/>
    </g>
   </g>
   <g id="legend_1">
    <g id="patch_7">
     <path d="M 64.6 302.584 
L 123.46875 302.584 
Q 125.46875 302.584 125.46875 300.584 
L 125.46875 242.8715 
Q 125.46875 240.8715 123.46875 240.8715 
L 64.6 240.8715 
Q 62.6 240.8715 62.6 242.8715 
L 62.6 300.584 
Q 62.6 302.584 64.6 302.584 
z
" style="fill:#ffffff;opacity:0.8;stroke:#cccccc;stroke-linejoin:miter;"/>
    </g>
    <g id="line2d_20">
     <path d="M 66.6 248.969937 
L 86.6 248.969937 
" style="fill:none;stroke:#008000;stroke-linecap:square;stroke-width:1.5;"/>
    </g>
    <g id="line2d_21">
     <g>
      <use style="fill:#008000;stroke:#008000;" x="76.6" xlink:href="#m7fefb51472" y="248.969937"/>
     </g>
    </g>
    <g id="text_19">
     <!-- CART -->
     <defs>
      <path d="M 64.40625 67.28125 
L 64.40625 56.890625 
Q 59.421875 61.53125 53.78125 63.8125 
Q 48.140625 66.109375 41.796875 66.109375 
Q 29.296875 66.109375 22.65625 58.46875 
Q 16.015625 50.828125 16.015625 36.375 
Q 16.015625 21.96875 22.65625 14.328125 
Q 29.296875 6.6875 41.796875 6.6875 
Q 48.140625 6.6875 53.78125 8.984375 
Q 59.421875 11.28125 64.40625 15.921875 
L 64.40625 5.609375 
Q 59.234375 2.09375 53.4375 0.328125 
Q 47.65625 -1.421875 41.21875 -1.421875 
Q 24.65625 -1.421875 15.125 8.703125 
Q 5.609375 18.84375 5.609375 36.375 
Q 5.609375 53.953125 15.125 64.078125 
Q 24.65625 74.21875 41.21875 74.21875 
Q 47.75 74.21875 53.53125 72.484375 
Q 59.328125 70.75 64.40625 67.28125 
z
" id="DejaVuSans-67"/>
      <path d="M 34.1875 63.1875 
L 20.796875 26.90625 
L 47.609375 26.90625 
z
M 28.609375 72.90625 
L 39.796875 72.90625 
L 67.578125 0 
L 57.328125 0 
L 50.6875 18.703125 
L 17.828125 18.703125 
L 11.1875 0 
L 0.78125 0 
z
" id="DejaVuSans-65"/>
      <path d="M 44.390625 34.1875 
Q 47.5625 33.109375 50.5625 29.59375 
Q 53.5625 26.078125 56.59375 19.921875 
L 66.609375 0 
L 56 0 
L 46.6875 18.703125 
Q 43.0625 26.03125 39.671875 28.421875 
Q 36.28125 30.8125 30.421875 30.8125 
L 19.671875 30.8125 
L 19.671875 0 
L 9.8125 0 
L 9.8125 72.90625 
L 32.078125 72.90625 
Q 44.578125 72.90625 50.734375 67.671875 
Q 56.890625 62.453125 56.890625 51.90625 
Q 56.890625 45.015625 53.6875 40.46875 
Q 50.484375 35.9375 44.390625 34.1875 
z
M 19.671875 64.796875 
L 19.671875 38.921875 
L 32.078125 38.921875 
Q 39.203125 38.921875 42.84375 42.21875 
Q 46.484375 45.515625 46.484375 51.90625 
Q 46.484375 58.296875 42.84375 61.546875 
Q 39.203125 64.796875 32.078125 64.796875 
z
" id="DejaVuSans-82"/>
      <path d="M -0.296875 72.90625 
L 61.375 72.90625 
L 61.375 64.59375 
L 35.5 64.59375 
L 35.5 0 
L 25.59375 0 
L 25.59375 64.59375 
L -0.296875 64.59375 
z
" id="DejaVuSans-84"/>
     </defs>
     <g transform="translate(94.6 252.469937)scale(0.1 -0.1)">
      <use xlink:href="#DejaVuSans-67"/>
      <use x="69.824219" xlink:href="#DejaVuSans-65"/>
      <use x="138.232422" xlink:href="#DejaVuSans-82"/>
      <use x="207.605469" xlink:href="#DejaVuSans-84"/>
     </g>
    </g>
    <g id="line2d_22">
     <path d="M 66.6 263.648062 
L 86.6 263.648062 
" style="fill:none;stroke:#ff0000;stroke-linecap:square;stroke-width:1.5;"/>
    </g>
    <g id="line2d_23">
     <g>
      <use style="fill:#ff0000;stroke:#ff0000;" x="76.6" xlink:href="#mcd94b52b4c" y="263.648062"/>
     </g>
    </g>
    <g id="text_20">
     <!-- FFT -->
     <defs>
      <path d="M 9.8125 72.90625 
L 51.703125 72.90625 
L 51.703125 64.59375 
L 19.671875 64.59375 
L 19.671875 43.109375 
L 48.578125 43.109375 
L 48.578125 34.8125 
L 19.671875 34.8125 
L 19.671875 0 
L 9.8125 0 
z
" id="DejaVuSans-70"/>
     </defs>
     <g transform="translate(94.6 267.148062)scale(0.1 -0.1)">
      <use xlink:href="#DejaVuSans-70"/>
      <use x="57.519531" xlink:href="#DejaVuSans-70"/>
      <use x="115.023438" xlink:href="#DejaVuSans-84"/>
     </g>
    </g>
    <g id="line2d_24">
     <path d="M 66.6 278.326187 
L 86.6 278.326187 
" style="fill:none;stroke:#0000ff;stroke-linecap:square;stroke-width:1.5;"/>
    </g>
    <g id="line2d_25">
     <g>
      <use style="fill:#0000ff;stroke:#0000ff;" x="76.6" xlink:href="#m165478f000" y="278.326187"/>
     </g>
    </g>
    <g id="text_21">
     <!-- RF -->
     <g transform="translate(94.6 281.826187)scale(0.1 -0.1)">
      <use xlink:href="#DejaVuSans-82"/>
      <use x="69.482422" xlink:href="#DejaVuSans-70"/>
     </g>
    </g>
    <g id="line2d_26">
     <path d="M 66.6 293.004312 
L 86.6 293.004312 
" style="fill:none;stroke:#000000;stroke-linecap:square;stroke-width:1.5;"/>
    </g>
    <g id="line2d_27">
     <g>
      <use style="stroke:#000000;stroke-linejoin:miter;" x="76.6" xlink:href="#m05dbd8256e" y="293.004312"/>
     </g>
    </g>
    <g id="text_22">
     <!-- VFDT -->
     <defs>
      <path d="M 28.609375 0 
L 0.78125 72.90625 
L 11.078125 72.90625 
L 34.1875 11.53125 
L 57.328125 72.90625 
L 67.578125 72.90625 
L 39.796875 0 
z
" id="DejaVuSans-86"/>
      <path d="M 19.671875 64.796875 
L 19.671875 8.109375 
L 31.59375 8.109375 
Q 46.6875 8.109375 53.6875 14.9375 
Q 60.6875 21.78125 60.6875 36.53125 
Q 60.6875 51.171875 53.6875 57.984375 
Q 46.6875 64.796875 31.59375 64.796875 
z
M 9.8125 72.90625 
L 30.078125 72.90625 
Q 51.265625 72.90625 61.171875 64.09375 
Q 71.09375 55.28125 71.09375 36.53125 
Q 71.09375 17.671875 61.125 8.828125 
Q 51.171875 0 30.078125 0 
L 9.8125 0 
z
" id="DejaVuSans-68"/>
     </defs>
     <g transform="translate(94.6 296.504312)scale(0.1 -0.1)">
      <use xlink:href="#DejaVuSans-86"/>
      <use x="68.408203" xlink:href="#DejaVuSans-70"/>
      <use x="125.927734" xlink:href="#DejaVuSans-68"/>
      <use x="202.929688" xlink:href="#DejaVuSans-84"/>
     </g>
    </g>
   </g>
  </g>
 </g>
 <defs>
  <clipPath id="pade54dd2c2">
   <rect height="266.112" width="357.12" x="57.6" y="41.472"/>
  </clipPath>
 </defs>
</svg>
