<?xml version="1.0" encoding="utf-8" standalone="no"?>
<!DOCTYPE svg PUBLIC "-//W3C//DTD SVG 1.1//EN"
  "http://www.w3.org/Graphics/SVG/1.1/DTD/svg11.dtd">
<!-- Created with matplotlib (https://matplotlib.org/) -->
<svg height="345.6pt" version="1.1" viewBox="0 0 460.8 345.6" width="460.8pt" xmlns="http://www.w3.org/2000/svg" xmlns:xlink="http://www.w3.org/1999/xlink">
 <defs>
  <style type="text/css">
*{stroke-linecap:butt;stroke-linejoin:round;}
  </style>
 </defs>
 <g id="figure_1">
  <g id="patch_1">
   <path d="M 0 345.6 
L 460.8 345.6 
L 460.8 0 
L 0 0 
z
" style="fill:#ffffff;"/>
  </g>
  <g id="axes_1">
   <g id="patch_2">
    <path d="M 57.6 307.584 
L 414.72 307.584 
L 414.72 41.472 
L 57.6 41.472 
z
" style="fill:#ffffff;"/>
   </g>
   <g id="matplotlib.axis_1">
    <g id="xtick_1">
     <g id="line2d_1">
      <defs>
       <path d="M 0 0 
L 0 3.5 
" id="m775997e977" style="stroke:#000000;stroke-width:0.8;"/>
      </defs>
      <g>
       <use style="stroke:#000000;stroke-width:0.8;" x="57.6" xlink:href="#m775997e977" y="307.584"/>
      </g>
     </g>
     <g id="text_1">
      <!-- 0 -->
      <defs>
       <path d="M 31.78125 66.40625 
Q 24.171875 66.40625 20.328125 58.90625 
Q 16.5 51.421875 16.5 36.375 
Q 16.5 21.390625 20.328125 13.890625 
Q 24.171875 6.390625 31.78125 6.390625 
Q 39.453125 6.390625 43.28125 13.890625 
Q 47.125 21.390625 47.125 36.375 
Q 47.125 51.421875 43.28125 58.90625 
Q 39.453125 66.40625 31.78125 66.40625 
z
M 31.78125 74.21875 
Q 44.046875 74.21875 50.515625 64.515625 
Q 56.984375 54.828125 56.984375 36.375 
Q 56.984375 17.96875 50.515625 8.265625 
Q 44.046875 -1.421875 31.78125 -1.421875 
Q 19.53125 -1.421875 13.0625 8.265625 
Q 6.59375 17.96875 6.59375 36.375 
Q 6.59375 54.828125 13.0625 64.515625 
Q 19.53125 74.21875 31.78125 74.21875 
z
" id="DejaVuSans-48"/>
      </defs>
      <g transform="translate(54.41875 322.182437)scale(0.1 -0.1)">
       <use xlink:href="#DejaVuSans-48"/>
      </g>
     </g>
    </g>
    <g id="xtick_2">
     <g id="line2d_2">
      <g>
       <use style="stroke:#000000;stroke-width:0.8;" x="129.024" xlink:href="#m775997e977" y="307.584"/>
      </g>
     </g>
     <g id="text_2">
      <!-- 20 -->
      <defs>
       <path d="M 19.1875 8.296875 
L 53.609375 8.296875 
L 53.609375 0 
L 7.328125 0 
L 7.328125 8.296875 
Q 12.9375 14.109375 22.625 23.890625 
Q 32.328125 33.6875 34.8125 36.53125 
Q 39.546875 41.84375 41.421875 45.53125 
Q 43.3125 49.21875 43.3125 52.78125 
Q 43.3125 58.59375 39.234375 62.25 
Q 35.15625 65.921875 28.609375 65.921875 
Q 23.96875 65.921875 18.8125 64.3125 
Q 13.671875 62.703125 7.8125 59.421875 
L 7.8125 69.390625 
Q 13.765625 71.78125 18.9375 73 
Q 24.125 74.21875 28.421875 74.21875 
Q 39.75 74.21875 46.484375 68.546875 
Q 53.21875 62.890625 53.21875 53.421875 
Q 53.21875 48.921875 51.53125 44.890625 
Q 49.859375 40.875 45.40625 35.40625 
Q 44.1875 33.984375 37.640625 27.21875 
Q 31.109375 20.453125 19.1875 8.296875 
z
" id="DejaVuSans-50"/>
      </defs>
      <g transform="translate(122.6615 322.182437)scale(0.1 -0.1)">
       <use xlink:href="#DejaVuSans-50"/>
       <use x="63.623047" xlink:href="#DejaVuSans-48"/>
      </g>
     </g>
    </g>
    <g id="xtick_3">
     <g id="line2d_3">
      <g>
       <use style="stroke:#000000;stroke-width:0.8;" x="200.448" xlink:href="#m775997e977" y="307.584"/>
      </g>
     </g>
     <g id="text_3">
      <!-- 40 -->
      <defs>
       <path d="M 37.796875 64.3125 
L 12.890625 25.390625 
L 37.796875 25.390625 
z
M 35.203125 72.90625 
L 47.609375 72.90625 
L 47.609375 25.390625 
L 58.015625 25.390625 
L 58.015625 17.1875 
L 47.609375 17.1875 
L 47.609375 0 
L 37.796875 0 
L 37.796875 17.1875 
L 4.890625 17.1875 
L 4.890625 26.703125 
z
" id="DejaVuSans-52"/>
      </defs>
      <g transform="translate(194.0855 322.182437)scale(0.1 -0.1)">
       <use xlink:href="#DejaVuSans-52"/>
       <use x="63.623047" xlink:href="#DejaVuSans-48"/>
      </g>
     </g>
    </g>
    <g id="xtick_4">
     <g id="line2d_4">
      <g>
       <use style="stroke:#000000;stroke-width:0.8;" x="271.872" xlink:href="#m775997e977" y="307.584"/>
      </g>
     </g>
     <g id="text_4">
      <!-- 60 -->
      <defs>
       <path d="M 33.015625 40.375 
Q 26.375 40.375 22.484375 35.828125 
Q 18.609375 31.296875 18.609375 23.390625 
Q 18.609375 15.53125 22.484375 10.953125 
Q 26.375 6.390625 33.015625 6.390625 
Q 39.65625 6.390625 43.53125 10.953125 
Q 47.40625 15.53125 47.40625 23.390625 
Q 47.40625 31.296875 43.53125 35.828125 
Q 39.65625 40.375 33.015625 40.375 
z
M 52.59375 71.296875 
L 52.59375 62.3125 
Q 48.875 64.0625 45.09375 64.984375 
Q 41.3125 65.921875 37.59375 65.921875 
Q 27.828125 65.921875 22.671875 59.328125 
Q 17.53125 52.734375 16.796875 39.40625 
Q 19.671875 43.65625 24.015625 45.921875 
Q 28.375 48.1875 33.59375 48.1875 
Q 44.578125 48.1875 50.953125 41.515625 
Q 57.328125 34.859375 57.328125 23.390625 
Q 57.328125 12.15625 50.6875 5.359375 
Q 44.046875 -1.421875 33.015625 -1.421875 
Q 20.359375 -1.421875 13.671875 8.265625 
Q 6.984375 17.96875 6.984375 36.375 
Q 6.984375 53.65625 15.1875 63.9375 
Q 23.390625 74.21875 37.203125 74.21875 
Q 40.921875 74.21875 44.703125 73.484375 
Q 48.484375 72.75 52.59375 71.296875 
z
" id="DejaVuSans-54"/>
      </defs>
      <g transform="translate(265.5095 322.182437)scale(0.1 -0.1)">
       <use xlink:href="#DejaVuSans-54"/>
       <use x="63.623047" xlink:href="#DejaVuSans-48"/>
      </g>
     </g>
    </g>
    <g id="xtick_5">
     <g id="line2d_5">
      <g>
       <use style="stroke:#000000;stroke-width:0.8;" x="343.296" xlink:href="#m775997e977" y="307.584"/>
      </g>
     </g>
     <g id="text_5">
      <!-- 80 -->
      <defs>
       <path d="M 31.78125 34.625 
Q 24.75 34.625 20.71875 30.859375 
Q 16.703125 27.09375 16.703125 20.515625 
Q 16.703125 13.921875 20.71875 10.15625 
Q 24.75 6.390625 31.78125 6.390625 
Q 38.8125 6.390625 42.859375 10.171875 
Q 46.921875 13.96875 46.921875 20.515625 
Q 46.921875 27.09375 42.890625 30.859375 
Q 38.875 34.625 31.78125 34.625 
z
M 21.921875 38.8125 
Q 15.578125 40.375 12.03125 44.71875 
Q 8.5 49.078125 8.5 55.328125 
Q 8.5 64.0625 14.71875 69.140625 
Q 20.953125 74.21875 31.78125 74.21875 
Q 42.671875 74.21875 48.875 69.140625 
Q 55.078125 64.0625 55.078125 55.328125 
Q 55.078125 49.078125 51.53125 44.71875 
Q 48 40.375 41.703125 38.8125 
Q 48.828125 37.15625 52.796875 32.3125 
Q 56.78125 27.484375 56.78125 20.515625 
Q 56.78125 9.90625 50.3125 4.234375 
Q 43.84375 -1.421875 31.78125 -1.421875 
Q 19.734375 -1.421875 13.25 4.234375 
Q 6.78125 9.90625 6.78125 20.515625 
Q 6.78125 27.484375 10.78125 32.3125 
Q 14.796875 37.15625 21.921875 38.8125 
z
M 18.3125 54.390625 
Q 18.3125 48.734375 21.84375 45.5625 
Q 25.390625 42.390625 31.78125 42.390625 
Q 38.140625 42.390625 41.71875 45.5625 
Q 45.3125 48.734375 45.3125 54.390625 
Q 45.3125 60.0625 41.71875 63.234375 
Q 38.140625 66.40625 31.78125 66.40625 
Q 25.390625 66.40625 21.84375 63.234375 
Q 18.3125 60.0625 18.3125 54.390625 
z
" id="DejaVuSans-56"/>
      </defs>
      <g transform="translate(336.9335 322.182437)scale(0.1 -0.1)">
       <use xlink:href="#DejaVuSans-56"/>
       <use x="63.623047" xlink:href="#DejaVuSans-48"/>
      </g>
     </g>
    </g>
    <g id="xtick_6">
     <g id="line2d_6">
      <g>
       <use style="stroke:#000000;stroke-width:0.8;" x="414.72" xlink:href="#m775997e977" y="307.584"/>
      </g>
     </g>
     <g id="text_6">
      <!-- 100 -->
      <defs>
       <path d="M 12.40625 8.296875 
L 28.515625 8.296875 
L 28.515625 63.921875 
L 10.984375 60.40625 
L 10.984375 69.390625 
L 28.421875 72.90625 
L 38.28125 72.90625 
L 38.28125 8.296875 
L 54.390625 8.296875 
L 54.390625 0 
L 12.40625 0 
z
" id="DejaVuSans-49"/>
      </defs>
      <g transform="translate(405.17625 322.182437)scale(0.1 -0.1)">
       <use xlink:href="#DejaVuSans-49"/>
       <use x="63.623047" xlink:href="#DejaVuSans-48"/>
       <use x="127.246094" xlink:href="#DejaVuSans-48"/>
      </g>
     </g>
    </g>
    <g id="text_7">
     <!-- size -->
     <defs>
      <path d="M 44.28125 53.078125 
L 44.28125 44.578125 
Q 40.484375 46.53125 36.375 47.5 
Q 32.28125 48.484375 27.875 48.484375 
Q 21.1875 48.484375 17.84375 46.4375 
Q 14.5 44.390625 14.5 40.28125 
Q 14.5 37.15625 16.890625 35.375 
Q 19.28125 33.59375 26.515625 31.984375 
L 29.59375 31.296875 
Q 39.15625 29.25 43.1875 25.515625 
Q 47.21875 21.78125 47.21875 15.09375 
Q 47.21875 7.46875 41.1875 3.015625 
Q 35.15625 -1.421875 24.609375 -1.421875 
Q 20.21875 -1.421875 15.453125 -0.5625 
Q 10.6875 0.296875 5.421875 2 
L 5.421875 11.28125 
Q 10.40625 8.6875 15.234375 7.390625 
Q 20.0625 6.109375 24.8125 6.109375 
Q 31.15625 6.109375 34.5625 8.28125 
Q 37.984375 10.453125 37.984375 14.40625 
Q 37.984375 18.0625 35.515625 20.015625 
Q 33.0625 21.96875 24.703125 23.78125 
L 21.578125 24.515625 
Q 13.234375 26.265625 9.515625 29.90625 
Q 5.8125 33.546875 5.8125 39.890625 
Q 5.8125 47.609375 11.28125 51.796875 
Q 16.75 56 26.8125 56 
Q 31.78125 56 36.171875 55.265625 
Q 40.578125 54.546875 44.28125 53.078125 
z
" id="DejaVuSans-115"/>
      <path d="M 9.421875 54.6875 
L 18.40625 54.6875 
L 18.40625 0 
L 9.421875 0 
z
M 9.421875 75.984375 
L 18.40625 75.984375 
L 18.40625 64.59375 
L 9.421875 64.59375 
z
" id="DejaVuSans-105"/>
      <path d="M 5.515625 54.6875 
L 48.1875 54.6875 
L 48.1875 46.484375 
L 14.40625 7.171875 
L 48.1875 7.171875 
L 48.1875 0 
L 4.296875 0 
L 4.296875 8.203125 
L 38.09375 47.515625 
L 5.515625 47.515625 
z
" id="DejaVuSans-122"/>
      <path d="M 56.203125 29.59375 
L 56.203125 25.203125 
L 14.890625 25.203125 
Q 15.484375 15.921875 20.484375 11.0625 
Q 25.484375 6.203125 34.421875 6.203125 
Q 39.59375 6.203125 44.453125 7.46875 
Q 49.3125 8.734375 54.109375 11.28125 
L 54.109375 2.78125 
Q 49.265625 0.734375 44.1875 -0.34375 
Q 39.109375 -1.421875 33.890625 -1.421875 
Q 20.796875 -1.421875 13.15625 6.1875 
Q 5.515625 13.8125 5.515625 26.8125 
Q 5.515625 40.234375 12.765625 48.109375 
Q 20.015625 56 32.328125 56 
Q 43.359375 56 49.78125 48.890625 
Q 56.203125 41.796875 56.203125 29.59375 
z
M 47.21875 32.234375 
Q 47.125 39.59375 43.09375 43.984375 
Q 39.0625 48.390625 32.421875 48.390625 
Q 24.90625 48.390625 20.390625 44.140625 
Q 15.875 39.890625 15.1875 32.171875 
z
" id="DejaVuSans-101"/>
     </defs>
     <g transform="translate(226.465469 335.860562)scale(0.1 -0.1)">
      <use xlink:href="#DejaVuSans-115"/>
      <use x="52.099609" xlink:href="#DejaVuSans-105"/>
      <use x="79.882812" xlink:href="#DejaVuSans-122"/>
      <use x="132.373047" xlink:href="#DejaVuSans-101"/>
     </g>
    </g>
   </g>
   <g id="matplotlib.axis_2">
    <g id="ytick_1">
     <g id="line2d_7">
      <defs>
       <path d="M 0 0 
L -3.5 0 
" id="m41bdc7518e" style="stroke:#000000;stroke-width:0.8;"/>
      </defs>
      <g>
       <use style="stroke:#000000;stroke-width:0.8;" x="57.6" xlink:href="#m41bdc7518e" y="295.504536"/>
      </g>
     </g>
     <g id="text_8">
      <!-- 0 -->
      <g transform="translate(44.2375 299.303755)scale(0.1 -0.1)">
       <use xlink:href="#DejaVuSans-48"/>
      </g>
     </g>
    </g>
    <g id="ytick_2">
     <g id="line2d_8">
      <g>
       <use style="stroke:#000000;stroke-width:0.8;" x="57.6" xlink:href="#m41bdc7518e" y="265.439029"/>
      </g>
     </g>
     <g id="text_9">
      <!-- 1000 -->
      <g transform="translate(25.15 269.238247)scale(0.1 -0.1)">
       <use xlink:href="#DejaVuSans-49"/>
       <use x="63.623047" xlink:href="#DejaVuSans-48"/>
       <use x="127.246094" xlink:href="#DejaVuSans-48"/>
       <use x="190.869141" xlink:href="#DejaVuSans-48"/>
      </g>
     </g>
    </g>
    <g id="ytick_3">
     <g id="line2d_9">
      <g>
       <use style="stroke:#000000;stroke-width:0.8;" x="57.6" xlink:href="#m41bdc7518e" y="235.373521"/>
      </g>
     </g>
     <g id="text_10">
      <!-- 2000 -->
      <g transform="translate(25.15 239.17274)scale(0.1 -0.1)">
       <use xlink:href="#DejaVuSans-50"/>
       <use x="63.623047" xlink:href="#DejaVuSans-48"/>
       <use x="127.246094" xlink:href="#DejaVuSans-48"/>
       <use x="190.869141" xlink:href="#DejaVuSans-48"/>
      </g>
     </g>
    </g>
    <g id="ytick_4">
     <g id="line2d_10">
      <g>
       <use style="stroke:#000000;stroke-width:0.8;" x="57.6" xlink:href="#m41bdc7518e" y="205.308014"/>
      </g>
     </g>
     <g id="text_11">
      <!-- 3000 -->
      <defs>
       <path d="M 40.578125 39.3125 
Q 47.65625 37.796875 51.625 33 
Q 55.609375 28.21875 55.609375 21.1875 
Q 55.609375 10.40625 48.1875 4.484375 
Q 40.765625 -1.421875 27.09375 -1.421875 
Q 22.515625 -1.421875 17.65625 -0.515625 
Q 12.796875 0.390625 7.625 2.203125 
L 7.625 11.71875 
Q 11.71875 9.328125 16.59375 8.109375 
Q 21.484375 6.890625 26.8125 6.890625 
Q 36.078125 6.890625 40.9375 10.546875 
Q 45.796875 14.203125 45.796875 21.1875 
Q 45.796875 27.640625 41.28125 31.265625 
Q 36.765625 34.90625 28.71875 34.90625 
L 20.21875 34.90625 
L 20.21875 43.015625 
L 29.109375 43.015625 
Q 36.375 43.015625 40.234375 45.921875 
Q 44.09375 48.828125 44.09375 54.296875 
Q 44.09375 59.90625 40.109375 62.90625 
Q 36.140625 65.921875 28.71875 65.921875 
Q 24.65625 65.921875 20.015625 65.03125 
Q 15.375 64.15625 9.8125 62.3125 
L 9.8125 71.09375 
Q 15.4375 72.65625 20.34375 73.4375 
Q 25.25 74.21875 29.59375 74.21875 
Q 40.828125 74.21875 47.359375 69.109375 
Q 53.90625 64.015625 53.90625 55.328125 
Q 53.90625 49.265625 50.4375 45.09375 
Q 46.96875 40.921875 40.578125 39.3125 
z
" id="DejaVuSans-51"/>
      </defs>
      <g transform="translate(25.15 209.107233)scale(0.1 -0.1)">
       <use xlink:href="#DejaVuSans-51"/>
       <use x="63.623047" xlink:href="#DejaVuSans-48"/>
       <use x="127.246094" xlink:href="#DejaVuSans-48"/>
       <use x="190.869141" xlink:href="#DejaVuSans-48"/>
      </g>
     </g>
    </g>
    <g id="ytick_5">
     <g id="line2d_11">
      <g>
       <use style="stroke:#000000;stroke-width:0.8;" x="57.6" xlink:href="#m41bdc7518e" y="175.242507"/>
      </g>
     </g>
     <g id="text_12">
      <!-- 4000 -->
      <g transform="translate(25.15 179.041726)scale(0.1 -0.1)">
       <use xlink:href="#DejaVuSans-52"/>
       <use x="63.623047" xlink:href="#DejaVuSans-48"/>
       <use x="127.246094" xlink:href="#DejaVuSans-48"/>
       <use x="190.869141" xlink:href="#DejaVuSans-48"/>
      </g>
     </g>
    </g>
    <g id="ytick_6">
     <g id="line2d_12">
      <g>
       <use style="stroke:#000000;stroke-width:0.8;" x="57.6" xlink:href="#m41bdc7518e" y="145.176999"/>
      </g>
     </g>
     <g id="text_13">
      <!-- 5000 -->
      <defs>
       <path d="M 10.796875 72.90625 
L 49.515625 72.90625 
L 49.515625 64.59375 
L 19.828125 64.59375 
L 19.828125 46.734375 
Q 21.96875 47.46875 24.109375 47.828125 
Q 26.265625 48.1875 28.421875 48.1875 
Q 40.625 48.1875 47.75 41.5 
Q 54.890625 34.8125 54.890625 23.390625 
Q 54.890625 11.625 47.5625 5.09375 
Q 40.234375 -1.421875 26.90625 -1.421875 
Q 22.3125 -1.421875 17.546875 -0.640625 
Q 12.796875 0.140625 7.71875 1.703125 
L 7.71875 11.625 
Q 12.109375 9.234375 16.796875 8.0625 
Q 21.484375 6.890625 26.703125 6.890625 
Q 35.15625 6.890625 40.078125 11.328125 
Q 45.015625 15.765625 45.015625 23.390625 
Q 45.015625 31 40.078125 35.4375 
Q 35.15625 39.890625 26.703125 39.890625 
Q 22.75 39.890625 18.8125 39.015625 
Q 14.890625 38.140625 10.796875 36.28125 
z
" id="DejaVuSans-53"/>
      </defs>
      <g transform="translate(25.15 148.976218)scale(0.1 -0.1)">
       <use xlink:href="#DejaVuSans-53"/>
       <use x="63.623047" xlink:href="#DejaVuSans-48"/>
       <use x="127.246094" xlink:href="#DejaVuSans-48"/>
       <use x="190.869141" xlink:href="#DejaVuSans-48"/>
      </g>
     </g>
    </g>
    <g id="ytick_7">
     <g id="line2d_13">
      <g>
       <use style="stroke:#000000;stroke-width:0.8;" x="57.6" xlink:href="#m41bdc7518e" y="115.111492"/>
      </g>
     </g>
     <g id="text_14">
      <!-- 6000 -->
      <g transform="translate(25.15 118.910711)scale(0.1 -0.1)">
       <use xlink:href="#DejaVuSans-54"/>
       <use x="63.623047" xlink:href="#DejaVuSans-48"/>
       <use x="127.246094" xlink:href="#DejaVuSans-48"/>
       <use x="190.869141" xlink:href="#DejaVuSans-48"/>
      </g>
     </g>
    </g>
    <g id="ytick_8">
     <g id="line2d_14">
      <g>
       <use style="stroke:#000000;stroke-width:0.8;" x="57.6" xlink:href="#m41bdc7518e" y="85.045985"/>
      </g>
     </g>
     <g id="text_15">
      <!-- 7000 -->
      <defs>
       <path d="M 8.203125 72.90625 
L 55.078125 72.90625 
L 55.078125 68.703125 
L 28.609375 0 
L 18.3125 0 
L 43.21875 64.59375 
L 8.203125 64.59375 
z
" id="DejaVuSans-55"/>
      </defs>
      <g transform="translate(25.15 88.845204)scale(0.1 -0.1)">
       <use xlink:href="#DejaVuSans-55"/>
       <use x="63.623047" xlink:href="#DejaVuSans-48"/>
       <use x="127.246094" xlink:href="#DejaVuSans-48"/>
       <use x="190.869141" xlink:href="#DejaVuSans-48"/>
      </g>
     </g>
    </g>
    <g id="ytick_9">
     <g id="line2d_15">
      <g>
       <use style="stroke:#000000;stroke-width:0.8;" x="57.6" xlink:href="#m41bdc7518e" y="54.980478"/>
      </g>
     </g>
     <g id="text_16">
      <!-- 8000 -->
      <g transform="translate(25.15 58.779696)scale(0.1 -0.1)">
       <use xlink:href="#DejaVuSans-56"/>
       <use x="63.623047" xlink:href="#DejaVuSans-48"/>
       <use x="127.246094" xlink:href="#DejaVuSans-48"/>
       <use x="190.869141" xlink:href="#DejaVuSans-48"/>
      </g>
     </g>
    </g>
    <g id="text_17">
     <!-- time -->
     <defs>
      <path d="M 18.3125 70.21875 
L 18.3125 54.6875 
L 36.8125 54.6875 
L 36.8125 47.703125 
L 18.3125 47.703125 
L 18.3125 18.015625 
Q 18.3125 11.328125 20.140625 9.421875 
Q 21.96875 7.515625 27.59375 7.515625 
L 36.8125 7.515625 
L 36.8125 0 
L 27.59375 0 
Q 17.1875 0 13.234375 3.875 
Q 9.28125 7.765625 9.28125 18.015625 
L 9.28125 47.703125 
L 2.6875 47.703125 
L 2.6875 54.6875 
L 9.28125 54.6875 
L 9.28125 70.21875 
z
" id="DejaVuSans-116"/>
      <path d="M 52 44.1875 
Q 55.375 50.25 60.0625 53.125 
Q 64.75 56 71.09375 56 
Q 79.640625 56 84.28125 50.015625 
Q 88.921875 44.046875 88.921875 33.015625 
L 88.921875 0 
L 79.890625 0 
L 79.890625 32.71875 
Q 79.890625 40.578125 77.09375 44.375 
Q 74.3125 48.1875 68.609375 48.1875 
Q 61.625 48.1875 57.5625 43.546875 
Q 53.515625 38.921875 53.515625 30.90625 
L 53.515625 0 
L 44.484375 0 
L 44.484375 32.71875 
Q 44.484375 40.625 41.703125 44.40625 
Q 38.921875 48.1875 33.109375 48.1875 
Q 26.21875 48.1875 22.15625 43.53125 
Q 18.109375 38.875 18.109375 30.90625 
L 18.109375 0 
L 9.078125 0 
L 9.078125 54.6875 
L 18.109375 54.6875 
L 18.109375 46.1875 
Q 21.1875 51.21875 25.484375 53.609375 
Q 29.78125 56 35.6875 56 
Q 41.65625 56 45.828125 52.96875 
Q 50 49.953125 52 44.1875 
z
" id="DejaVuSans-109"/>
     </defs>
     <g transform="translate(19.070312 185.824094)rotate(-90)scale(0.1 -0.1)">
      <use xlink:href="#DejaVuSans-116"/>
      <use x="39.208984" xlink:href="#DejaVuSans-105"/>
      <use x="66.992188" xlink:href="#DejaVuSans-109"/>
      <use x="164.404297" xlink:href="#DejaVuSans-101"/>
     </g>
    </g>
   </g>
   <g id="line2d_16">
    <path clip-path="url(#p5683a99950)" d="M 57.635712 288.769562 
L 57.671424 288.992347 
L 57.707136 289.215133 
L 57.742848 289.045864 
L 57.77856 288.650803 
L 57.814272 288.952661 
L 57.849984 289.656494 
L 57.885696 289.023615 
L 57.921408 288.994452 
L 57.95712 289.020609 
L 58.31424 288.973707 
L 58.67136 289.250009 
L 59.02848 289.354937 
L 59.3856 290.234654 
L 59.74272 290.018182 
L 60.09984 290.299595 
L 60.45696 289.654089 
L 60.81408 289.724442 
L 61.1712 289.757214 
L 75.456 289.794495 
L 93.312 289.526611 
L 111.168 289.156805 
L 129.024 288.65381 
L 146.88 288.914177 
L 164.736 289.404245 
L 182.592 289.561187 
L 200.448 288.919589 
L 218.304 288.393743 
L 236.16 288.446959 
L 254.016 288.384122 
L 271.872 288.505286 
L 289.728 288.176369 
L 307.584 287.80025 
L 325.44 288.164644 
L 343.296 287.863688 
L 361.152 288.102408 
L 379.008 286.885056 
L 396.864 287.392562 
L 414.72 288.063022 
" style="fill:none;stroke:#008000;stroke-linecap:square;stroke-width:1.5;"/>
    <defs>
     <path d="M -3 3 
L 3 -3 
M -3 -3 
L 3 3 
" id="m341be46687" style="stroke:#008000;"/>
    </defs>
    <g clip-path="url(#p5683a99950)">
     <use style="fill:#008000;stroke:#008000;" x="57.635712" xlink:href="#m341be46687" y="288.769562"/>
     <use style="fill:#008000;stroke:#008000;" x="57.671424" xlink:href="#m341be46687" y="288.992347"/>
     <use style="fill:#008000;stroke:#008000;" x="57.707136" xlink:href="#m341be46687" y="289.215133"/>
     <use style="fill:#008000;stroke:#008000;" x="57.742848" xlink:href="#m341be46687" y="289.045864"/>
     <use style="fill:#008000;stroke:#008000;" x="57.77856" xlink:href="#m341be46687" y="288.650803"/>
     <use style="fill:#008000;stroke:#008000;" x="57.814272" xlink:href="#m341be46687" y="288.952661"/>
     <use style="fill:#008000;stroke:#008000;" x="57.849984" xlink:href="#m341be46687" y="289.656494"/>
     <use style="fill:#008000;stroke:#008000;" x="57.885696" xlink:href="#m341be46687" y="289.023615"/>
     <use style="fill:#008000;stroke:#008000;" x="57.921408" xlink:href="#m341be46687" y="288.994452"/>
     <use style="fill:#008000;stroke:#008000;" x="57.95712" xlink:href="#m341be46687" y="289.020609"/>
     <use style="fill:#008000;stroke:#008000;" x="58.31424" xlink:href="#m341be46687" y="288.973707"/>
     <use style="fill:#008000;stroke:#008000;" x="58.67136" xlink:href="#m341be46687" y="289.250009"/>
     <use style="fill:#008000;stroke:#008000;" x="59.02848" xlink:href="#m341be46687" y="289.354937"/>
     <use style="fill:#008000;stroke:#008000;" x="59.3856" xlink:href="#m341be46687" y="290.234654"/>
     <use style="fill:#008000;stroke:#008000;" x="59.74272" xlink:href="#m341be46687" y="290.018182"/>
     <use style="fill:#008000;stroke:#008000;" x="60.09984" xlink:href="#m341be46687" y="290.299595"/>
     <use style="fill:#008000;stroke:#008000;" x="60.45696" xlink:href="#m341be46687" y="289.654089"/>
     <use style="fill:#008000;stroke:#008000;" x="60.81408" xlink:href="#m341be46687" y="289.724442"/>
     <use style="fill:#008000;stroke:#008000;" x="61.1712" xlink:href="#m341be46687" y="289.757214"/>
     <use style="fill:#008000;stroke:#008000;" x="75.456" xlink:href="#m341be46687" y="289.794495"/>
     <use style="fill:#008000;stroke:#008000;" x="93.312" xlink:href="#m341be46687" y="289.526611"/>
     <use style="fill:#008000;stroke:#008000;" x="111.168" xlink:href="#m341be46687" y="289.156805"/>
     <use style="fill:#008000;stroke:#008000;" x="129.024" xlink:href="#m341be46687" y="288.65381"/>
     <use style="fill:#008000;stroke:#008000;" x="146.88" xlink:href="#m341be46687" y="288.914177"/>
     <use style="fill:#008000;stroke:#008000;" x="164.736" xlink:href="#m341be46687" y="289.404245"/>
     <use style="fill:#008000;stroke:#008000;" x="182.592" xlink:href="#m341be46687" y="289.561187"/>
     <use style="fill:#008000;stroke:#008000;" x="200.448" xlink:href="#m341be46687" y="288.919589"/>
     <use style="fill:#008000;stroke:#008000;" x="218.304" xlink:href="#m341be46687" y="288.393743"/>
     <use style="fill:#008000;stroke:#008000;" x="236.16" xlink:href="#m341be46687" y="288.446959"/>
     <use style="fill:#008000;stroke:#008000;" x="254.016" xlink:href="#m341be46687" y="288.384122"/>
     <use style="fill:#008000;stroke:#008000;" x="271.872" xlink:href="#m341be46687" y="288.505286"/>
     <use style="fill:#008000;stroke:#008000;" x="289.728" xlink:href="#m341be46687" y="288.176369"/>
     <use style="fill:#008000;stroke:#008000;" x="307.584" xlink:href="#m341be46687" y="287.80025"/>
     <use style="fill:#008000;stroke:#008000;" x="325.44" xlink:href="#m341be46687" y="288.164644"/>
     <use style="fill:#008000;stroke:#008000;" x="343.296" xlink:href="#m341be46687" y="287.863688"/>
     <use style="fill:#008000;stroke:#008000;" x="361.152" xlink:href="#m341be46687" y="288.102408"/>
     <use style="fill:#008000;stroke:#008000;" x="379.008" xlink:href="#m341be46687" y="286.885056"/>
     <use style="fill:#008000;stroke:#008000;" x="396.864" xlink:href="#m341be46687" y="287.392562"/>
     <use style="fill:#008000;stroke:#008000;" x="414.72" xlink:href="#m341be46687" y="288.063022"/>
    </g>
   </g>
   <g id="line2d_17">
    <path clip-path="url(#p5683a99950)" d="M 57.635712 295.474771 
L 57.671424 295.467255 
L 57.707136 295.452523 
L 57.742848 295.441398 
L 57.77856 295.431778 
L 57.814272 295.415843 
L 57.849984 295.399908 
L 57.885696 295.395098 
L 57.921408 295.381267 
L 57.95712 295.375254 
L 58.31424 295.255293 
L 58.67136 295.125711 
L 59.02848 295.011762 
L 59.3856 294.879775 
L 59.74272 294.755304 
L 60.09984 294.568597 
L 60.45696 294.51478 
L 60.81408 294.282073 
L 61.1712 294.279968 
L 75.456 289.247904 
L 93.312 281.89809 
L 111.168 272.640319 
L 129.024 261.485415 
L 146.88 249.780612 
L 164.736 237.000967 
L 182.592 223.948929 
L 200.448 210.764904 
L 218.304 195.586032 
L 236.16 184.213453 
L 254.016 169.685198 
L 271.872 157.904631 
L 289.728 145.0856 
L 307.584 129.377575 
L 325.44 118.619536 
L 343.296 105.920767 
L 361.152 91.642658 
L 379.008 75.993561 
L 396.864 63.441813 
L 414.72 53.568 
" style="fill:none;stroke:#ff0000;stroke-linecap:square;stroke-width:1.5;"/>
    <defs>
     <path d="M 0 3 
C 0.795609 3 1.55874 2.683901 2.12132 2.12132 
C 2.683901 1.55874 3 0.795609 3 0 
C 3 -0.795609 2.683901 -1.55874 2.12132 -2.12132 
C 1.55874 -2.683901 0.795609 -3 0 -3 
C -0.795609 -3 -1.55874 -2.683901 -2.12132 -2.12132 
C -2.683901 -1.55874 -3 -0.795609 -3 0 
C -3 0.795609 -2.683901 1.55874 -2.12132 2.12132 
C -1.55874 2.683901 -0.795609 3 0 3 
z
" id="mfad36d0939" style="stroke:#ff0000;"/>
    </defs>
    <g clip-path="url(#p5683a99950)">
     <use style="fill:#ff0000;stroke:#ff0000;" x="57.635712" xlink:href="#mfad36d0939" y="295.474771"/>
     <use style="fill:#ff0000;stroke:#ff0000;" x="57.671424" xlink:href="#mfad36d0939" y="295.467255"/>
     <use style="fill:#ff0000;stroke:#ff0000;" x="57.707136" xlink:href="#mfad36d0939" y="295.452523"/>
     <use style="fill:#ff0000;stroke:#ff0000;" x="57.742848" xlink:href="#mfad36d0939" y="295.441398"/>
     <use style="fill:#ff0000;stroke:#ff0000;" x="57.77856" xlink:href="#mfad36d0939" y="295.431778"/>
     <use style="fill:#ff0000;stroke:#ff0000;" x="57.814272" xlink:href="#mfad36d0939" y="295.415843"/>
     <use style="fill:#ff0000;stroke:#ff0000;" x="57.849984" xlink:href="#mfad36d0939" y="295.399908"/>
     <use style="fill:#ff0000;stroke:#ff0000;" x="57.885696" xlink:href="#mfad36d0939" y="295.395098"/>
     <use style="fill:#ff0000;stroke:#ff0000;" x="57.921408" xlink:href="#mfad36d0939" y="295.381267"/>
     <use style="fill:#ff0000;stroke:#ff0000;" x="57.95712" xlink:href="#mfad36d0939" y="295.375254"/>
     <use style="fill:#ff0000;stroke:#ff0000;" x="58.31424" xlink:href="#mfad36d0939" y="295.255293"/>
     <use style="fill:#ff0000;stroke:#ff0000;" x="58.67136" xlink:href="#mfad36d0939" y="295.125711"/>
     <use style="fill:#ff0000;stroke:#ff0000;" x="59.02848" xlink:href="#mfad36d0939" y="295.011762"/>
     <use style="fill:#ff0000;stroke:#ff0000;" x="59.3856" xlink:href="#mfad36d0939" y="294.879775"/>
     <use style="fill:#ff0000;stroke:#ff0000;" x="59.74272" xlink:href="#mfad36d0939" y="294.755304"/>
     <use style="fill:#ff0000;stroke:#ff0000;" x="60.09984" xlink:href="#mfad36d0939" y="294.568597"/>
     <use style="fill:#ff0000;stroke:#ff0000;" x="60.45696" xlink:href="#mfad36d0939" y="294.51478"/>
     <use style="fill:#ff0000;stroke:#ff0000;" x="60.81408" xlink:href="#mfad36d0939" y="294.282073"/>
     <use style="fill:#ff0000;stroke:#ff0000;" x="61.1712" xlink:href="#mfad36d0939" y="294.279968"/>
     <use style="fill:#ff0000;stroke:#ff0000;" x="75.456" xlink:href="#mfad36d0939" y="289.247904"/>
     <use style="fill:#ff0000;stroke:#ff0000;" x="93.312" xlink:href="#mfad36d0939" y="281.89809"/>
     <use style="fill:#ff0000;stroke:#ff0000;" x="111.168" xlink:href="#mfad36d0939" y="272.640319"/>
     <use style="fill:#ff0000;stroke:#ff0000;" x="129.024" xlink:href="#mfad36d0939" y="261.485415"/>
     <use style="fill:#ff0000;stroke:#ff0000;" x="146.88" xlink:href="#mfad36d0939" y="249.780612"/>
     <use style="fill:#ff0000;stroke:#ff0000;" x="164.736" xlink:href="#mfad36d0939" y="237.000967"/>
     <use style="fill:#ff0000;stroke:#ff0000;" x="182.592" xlink:href="#mfad36d0939" y="223.948929"/>
     <use style="fill:#ff0000;stroke:#ff0000;" x="200.448" xlink:href="#mfad36d0939" y="210.764904"/>
     <use style="fill:#ff0000;stroke:#ff0000;" x="218.304" xlink:href="#mfad36d0939" y="195.586032"/>
     <use style="fill:#ff0000;stroke:#ff0000;" x="236.16" xlink:href="#mfad36d0939" y="184.213453"/>
     <use style="fill:#ff0000;stroke:#ff0000;" x="254.016" xlink:href="#mfad36d0939" y="169.685198"/>
     <use style="fill:#ff0000;stroke:#ff0000;" x="271.872" xlink:href="#mfad36d0939" y="157.904631"/>
     <use style="fill:#ff0000;stroke:#ff0000;" x="289.728" xlink:href="#mfad36d0939" y="145.0856"/>
     <use style="fill:#ff0000;stroke:#ff0000;" x="307.584" xlink:href="#mfad36d0939" y="129.377575"/>
     <use style="fill:#ff0000;stroke:#ff0000;" x="325.44" xlink:href="#mfad36d0939" y="118.619536"/>
     <use style="fill:#ff0000;stroke:#ff0000;" x="343.296" xlink:href="#mfad36d0939" y="105.920767"/>
     <use style="fill:#ff0000;stroke:#ff0000;" x="361.152" xlink:href="#mfad36d0939" y="91.642658"/>
     <use style="fill:#ff0000;stroke:#ff0000;" x="379.008" xlink:href="#mfad36d0939" y="75.993561"/>
     <use style="fill:#ff0000;stroke:#ff0000;" x="396.864" xlink:href="#mfad36d0939" y="63.441813"/>
     <use style="fill:#ff0000;stroke:#ff0000;" x="414.72" xlink:href="#mfad36d0939" y="53.568"/>
    </g>
   </g>
   <g id="line2d_18">
    <path clip-path="url(#p5683a99950)" d="M 57.635712 290.188654 
L 57.671424 289.931594 
L 57.707136 290.285164 
L 57.742848 290.213608 
L 57.77856 290.072901 
L 57.814272 290.059071 
L 57.849984 290.100562 
L 57.885696 290.261713 
L 57.921408 290.216314 
L 57.95712 290.176627 
L 58.31424 290.111085 
L 58.67136 290.194967 
L 59.02848 290.342589 
L 59.3856 290.111686 
L 59.74272 290.109882 
L 60.09984 290.087333 
L 60.45696 290.179935 
L 60.81408 290.259308 
L 61.1712 290.099359 
L 75.456 289.649278 
L 93.312 289.296911 
L 111.168 289.027824 
L 129.024 288.652908 
L 146.88 288.203428 
L 164.736 287.911192 
L 182.592 287.55251 
L 200.448 287.099423 
L 218.304 286.971945 
L 236.16 286.260896 
L 254.016 285.960241 
L 271.872 285.611782 
L 289.728 285.266329 
L 307.584 284.902236 
L 325.44 284.570914 
L 343.296 284.27537 
L 361.152 283.945551 
L 379.008 283.495771 
L 396.864 283.230593 
L 414.72 282.214379 
" style="fill:none;stroke:#0000ff;stroke-linecap:square;stroke-width:1.5;"/>
    <defs>
     <path d="M -3 0 
L 3 0 
M 0 3 
L 0 -3 
" id="m400968c3db" style="stroke:#0000ff;"/>
    </defs>
    <g clip-path="url(#p5683a99950)">
     <use style="fill:#0000ff;stroke:#0000ff;" x="57.635712" xlink:href="#m400968c3db" y="290.188654"/>
     <use style="fill:#0000ff;stroke:#0000ff;" x="57.671424" xlink:href="#m400968c3db" y="289.931594"/>
     <use style="fill:#0000ff;stroke:#0000ff;" x="57.707136" xlink:href="#m400968c3db" y="290.285164"/>
     <use style="fill:#0000ff;stroke:#0000ff;" x="57.742848" xlink:href="#m400968c3db" y="290.213608"/>
     <use style="fill:#0000ff;stroke:#0000ff;" x="57.77856" xlink:href="#m400968c3db" y="290.072901"/>
     <use style="fill:#0000ff;stroke:#0000ff;" x="57.814272" xlink:href="#m400968c3db" y="290.059071"/>
     <use style="fill:#0000ff;stroke:#0000ff;" x="57.849984" xlink:href="#m400968c3db" y="290.100562"/>
     <use style="fill:#0000ff;stroke:#0000ff;" x="57.885696" xlink:href="#m400968c3db" y="290.261713"/>
     <use style="fill:#0000ff;stroke:#0000ff;" x="57.921408" xlink:href="#m400968c3db" y="290.216314"/>
     <use style="fill:#0000ff;stroke:#0000ff;" x="57.95712" xlink:href="#m400968c3db" y="290.176627"/>
     <use style="fill:#0000ff;stroke:#0000ff;" x="58.31424" xlink:href="#m400968c3db" y="290.111085"/>
     <use style="fill:#0000ff;stroke:#0000ff;" x="58.67136" xlink:href="#m400968c3db" y="290.194967"/>
     <use style="fill:#0000ff;stroke:#0000ff;" x="59.02848" xlink:href="#m400968c3db" y="290.342589"/>
     <use style="fill:#0000ff;stroke:#0000ff;" x="59.3856" xlink:href="#m400968c3db" y="290.111686"/>
     <use style="fill:#0000ff;stroke:#0000ff;" x="59.74272" xlink:href="#m400968c3db" y="290.109882"/>
     <use style="fill:#0000ff;stroke:#0000ff;" x="60.09984" xlink:href="#m400968c3db" y="290.087333"/>
     <use style="fill:#0000ff;stroke:#0000ff;" x="60.45696" xlink:href="#m400968c3db" y="290.179935"/>
     <use style="fill:#0000ff;stroke:#0000ff;" x="60.81408" xlink:href="#m400968c3db" y="290.259308"/>
     <use style="fill:#0000ff;stroke:#0000ff;" x="61.1712" xlink:href="#m400968c3db" y="290.099359"/>
     <use style="fill:#0000ff;stroke:#0000ff;" x="75.456" xlink:href="#m400968c3db" y="289.649278"/>
     <use style="fill:#0000ff;stroke:#0000ff;" x="93.312" xlink:href="#m400968c3db" y="289.296911"/>
     <use style="fill:#0000ff;stroke:#0000ff;" x="111.168" xlink:href="#m400968c3db" y="289.027824"/>
     <use style="fill:#0000ff;stroke:#0000ff;" x="129.024" xlink:href="#m400968c3db" y="288.652908"/>
     <use style="fill:#0000ff;stroke:#0000ff;" x="146.88" xlink:href="#m400968c3db" y="288.203428"/>
     <use style="fill:#0000ff;stroke:#0000ff;" x="164.736" xlink:href="#m400968c3db" y="287.911192"/>
     <use style="fill:#0000ff;stroke:#0000ff;" x="182.592" xlink:href="#m400968c3db" y="287.55251"/>
     <use style="fill:#0000ff;stroke:#0000ff;" x="200.448" xlink:href="#m400968c3db" y="287.099423"/>
     <use style="fill:#0000ff;stroke:#0000ff;" x="218.304" xlink:href="#m400968c3db" y="286.971945"/>
     <use style="fill:#0000ff;stroke:#0000ff;" x="236.16" xlink:href="#m400968c3db" y="286.260896"/>
     <use style="fill:#0000ff;stroke:#0000ff;" x="254.016" xlink:href="#m400968c3db" y="285.960241"/>
     <use style="fill:#0000ff;stroke:#0000ff;" x="271.872" xlink:href="#m400968c3db" y="285.611782"/>
     <use style="fill:#0000ff;stroke:#0000ff;" x="289.728" xlink:href="#m400968c3db" y="285.266329"/>
     <use style="fill:#0000ff;stroke:#0000ff;" x="307.584" xlink:href="#m400968c3db" y="284.902236"/>
     <use style="fill:#0000ff;stroke:#0000ff;" x="325.44" xlink:href="#m400968c3db" y="284.570914"/>
     <use style="fill:#0000ff;stroke:#0000ff;" x="343.296" xlink:href="#m400968c3db" y="284.27537"/>
     <use style="fill:#0000ff;stroke:#0000ff;" x="361.152" xlink:href="#m400968c3db" y="283.945551"/>
     <use style="fill:#0000ff;stroke:#0000ff;" x="379.008" xlink:href="#m400968c3db" y="283.495771"/>
     <use style="fill:#0000ff;stroke:#0000ff;" x="396.864" xlink:href="#m400968c3db" y="283.230593"/>
     <use style="fill:#0000ff;stroke:#0000ff;" x="414.72" xlink:href="#m400968c3db" y="282.214379"/>
    </g>
   </g>
   <g id="line2d_19">
    <path clip-path="url(#p5683a99950)" d="M 57.635712 295.483791 
L 57.671424 295.488 
L 57.707136 295.481085 
L 57.742848 295.475072 
L 57.77856 295.469359 
L 57.814272 295.458836 
L 57.849984 295.12992 
L 57.885696 295.128417 
L 57.921408 295.117593 
L 57.95712 295.105867 
L 58.31424 294.957945 
L 58.67136 294.39572 
L 59.02848 294.001862 
L 59.3856 293.523219 
L 59.74272 293.393637 
L 60.09984 293.054197 
L 60.45696 292.952576 
L 60.81408 292.704235 
L 61.1712 292.583973 
L 75.456 285.944607 
L 93.312 283.317483 
L 111.168 283.39896 
L 129.024 283.211652 
L 146.88 283.276293 
L 164.736 283.276894 
L 182.592 283.209848 
L 200.448 283.277496 
L 218.304 283.134384 
L 236.16 283.177979 
L 254.016 283.218266 
L 271.872 283.343339 
L 289.728 283.299744 
L 307.584 283.199025 
L 325.44 283.05922 
L 343.296 283.021939 
L 361.152 282.791336 
L 379.008 282.967821 
L 396.864 283.081769 
L 414.72 282.841546 
" style="fill:none;stroke:#000000;stroke-linecap:square;stroke-width:1.5;"/>
    <defs>
     <path d="M -3 3 
L 3 3 
L 3 -3 
L -3 -3 
z
" id="m35c14be633" style="stroke:#000000;stroke-linejoin:miter;"/>
    </defs>
    <g clip-path="url(#p5683a99950)">
     <use style="stroke:#000000;stroke-linejoin:miter;" x="57.635712" xlink:href="#m35c14be633" y="295.483791"/>
     <use style="stroke:#000000;stroke-linejoin:miter;" x="57.671424" xlink:href="#m35c14be633" y="295.488"/>
     <use style="stroke:#000000;stroke-linejoin:miter;" x="57.707136" xlink:href="#m35c14be633" y="295.481085"/>
     <use style="stroke:#000000;stroke-linejoin:miter;" x="57.742848" xlink:href="#m35c14be633" y="295.475072"/>
     <use style="stroke:#000000;stroke-linejoin:miter;" x="57.77856" xlink:href="#m35c14be633" y="295.469359"/>
     <use style="stroke:#000000;stroke-linejoin:miter;" x="57.814272" xlink:href="#m35c14be633" y="295.458836"/>
     <use style="stroke:#000000;stroke-linejoin:miter;" x="57.849984" xlink:href="#m35c14be633" y="295.12992"/>
     <use style="stroke:#000000;stroke-linejoin:miter;" x="57.885696" xlink:href="#m35c14be633" y="295.128417"/>
     <use style="stroke:#000000;stroke-linejoin:miter;" x="57.921408" xlink:href="#m35c14be633" y="295.117593"/>
     <use style="stroke:#000000;stroke-linejoin:miter;" x="57.95712" xlink:href="#m35c14be633" y="295.105867"/>
     <use style="stroke:#000000;stroke-linejoin:miter;" x="58.31424" xlink:href="#m35c14be633" y="294.957945"/>
     <use style="stroke:#000000;stroke-linejoin:miter;" x="58.67136" xlink:href="#m35c14be633" y="294.39572"/>
     <use style="stroke:#000000;stroke-linejoin:miter;" x="59.02848" xlink:href="#m35c14be633" y="294.001862"/>
     <use style="stroke:#000000;stroke-linejoin:miter;" x="59.3856" xlink:href="#m35c14be633" y="293.523219"/>
     <use style="stroke:#000000;stroke-linejoin:miter;" x="59.74272" xlink:href="#m35c14be633" y="293.393637"/>
     <use style="stroke:#000000;stroke-linejoin:miter;" x="60.09984" xlink:href="#m35c14be633" y="293.054197"/>
     <use style="stroke:#000000;stroke-linejoin:miter;" x="60.45696" xlink:href="#m35c14be633" y="292.952576"/>
     <use style="stroke:#000000;stroke-linejoin:miter;" x="60.81408" xlink:href="#m35c14be633" y="292.704235"/>
     <use style="stroke:#000000;stroke-linejoin:miter;" x="61.1712" xlink:href="#m35c14be633" y="292.583973"/>
     <use style="stroke:#000000;stroke-linejoin:miter;" x="75.456" xlink:href="#m35c14be633" y="285.944607"/>
     <use style="stroke:#000000;stroke-linejoin:miter;" x="93.312" xlink:href="#m35c14be633" y="283.317483"/>
     <use style="stroke:#000000;stroke-linejoin:miter;" x="111.168" xlink:href="#m35c14be633" y="283.39896"/>
     <use style="stroke:#000000;stroke-linejoin:miter;" x="129.024" xlink:href="#m35c14be633" y="283.211652"/>
     <use style="stroke:#000000;stroke-linejoin:miter;" x="146.88" xlink:href="#m35c14be633" y="283.276293"/>
     <use style="stroke:#000000;stroke-linejoin:miter;" x="164.736" xlink:href="#m35c14be633" y="283.276894"/>
     <use style="stroke:#000000;stroke-linejoin:miter;" x="182.592" xlink:href="#m35c14be633" y="283.209848"/>
     <use style="stroke:#000000;stroke-linejoin:miter;" x="200.448" xlink:href="#m35c14be633" y="283.277496"/>
     <use style="stroke:#000000;stroke-linejoin:miter;" x="218.304" xlink:href="#m35c14be633" y="283.134384"/>
     <use style="stroke:#000000;stroke-linejoin:miter;" x="236.16" xlink:href="#m35c14be633" y="283.177979"/>
     <use style="stroke:#000000;stroke-linejoin:miter;" x="254.016" xlink:href="#m35c14be633" y="283.218266"/>
     <use style="stroke:#000000;stroke-linejoin:miter;" x="271.872" xlink:href="#m35c14be633" y="283.343339"/>
     <use style="stroke:#000000;stroke-linejoin:miter;" x="289.728" xlink:href="#m35c14be633" y="283.299744"/>
     <use style="stroke:#000000;stroke-linejoin:miter;" x="307.584" xlink:href="#m35c14be633" y="283.199025"/>
     <use style="stroke:#000000;stroke-linejoin:miter;" x="325.44" xlink:href="#m35c14be633" y="283.05922"/>
     <use style="stroke:#000000;stroke-linejoin:miter;" x="343.296" xlink:href="#m35c14be633" y="283.021939"/>
     <use style="stroke:#000000;stroke-linejoin:miter;" x="361.152" xlink:href="#m35c14be633" y="282.791336"/>
     <use style="stroke:#000000;stroke-linejoin:miter;" x="379.008" xlink:href="#m35c14be633" y="282.967821"/>
     <use style="stroke:#000000;stroke-linejoin:miter;" x="396.864" xlink:href="#m35c14be633" y="283.081769"/>
     <use style="stroke:#000000;stroke-linejoin:miter;" x="414.72" xlink:href="#m35c14be633" y="282.841546"/>
    </g>
   </g>
   <g id="patch_3">
    <path d="M 57.6 307.584 
L 57.6 41.472 
" style="fill:none;stroke:#000000;stroke-linecap:square;stroke-linejoin:miter;stroke-width:0.8;"/>
   </g>
   <g id="patch_4">
    <path d="M 414.72 307.584 
L 414.72 41.472 
" style="fill:none;stroke:#000000;stroke-linecap:square;stroke-linejoin:miter;stroke-width:0.8;"/>
   </g>
   <g id="patch_5">
    <path d="M 57.6 307.584 
L 414.72 307.584 
" style="fill:none;stroke:#000000;stroke-linecap:square;stroke-linejoin:miter;stroke-width:0.8;"/>
   </g>
   <g id="patch_6">
    <path d="M 57.6 41.472 
L 414.72 41.472 
" style="fill:none;stroke:#000000;stroke-linecap:square;stroke-linejoin:miter;stroke-width:0.8;"/>
   </g>
   <g id="text_18">
    <!-- lammps: size vs time -->
    <defs>
     <path d="M 9.421875 75.984375 
L 18.40625 75.984375 
L 18.40625 0 
L 9.421875 0 
z
" id="DejaVuSans-108"/>
     <path d="M 34.28125 27.484375 
Q 23.390625 27.484375 19.1875 25 
Q 14.984375 22.515625 14.984375 16.5 
Q 14.984375 11.71875 18.140625 8.90625 
Q 21.296875 6.109375 26.703125 6.109375 
Q 34.1875 6.109375 38.703125 11.40625 
Q 43.21875 16.703125 43.21875 25.484375 
L 43.21875 27.484375 
z
M 52.203125 31.203125 
L 52.203125 0 
L 43.21875 0 
L 43.21875 8.296875 
Q 40.140625 3.328125 35.546875 0.953125 
Q 30.953125 -1.421875 24.3125 -1.421875 
Q 15.921875 -1.421875 10.953125 3.296875 
Q 6 8.015625 6 15.921875 
Q 6 25.140625 12.171875 29.828125 
Q 18.359375 34.515625 30.609375 34.515625 
L 43.21875 34.515625 
L 43.21875 35.40625 
Q 43.21875 41.609375 39.140625 45 
Q 35.0625 48.390625 27.6875 48.390625 
Q 23 48.390625 18.546875 47.265625 
Q 14.109375 46.140625 10.015625 43.890625 
L 10.015625 52.203125 
Q 14.9375 54.109375 19.578125 55.046875 
Q 24.21875 56 28.609375 56 
Q 40.484375 56 46.34375 49.84375 
Q 52.203125 43.703125 52.203125 31.203125 
z
" id="DejaVuSans-97"/>
     <path d="M 18.109375 8.203125 
L 18.109375 -20.796875 
L 9.078125 -20.796875 
L 9.078125 54.6875 
L 18.109375 54.6875 
L 18.109375 46.390625 
Q 20.953125 51.265625 25.265625 53.625 
Q 29.59375 56 35.59375 56 
Q 45.5625 56 51.78125 48.09375 
Q 58.015625 40.1875 58.015625 27.296875 
Q 58.015625 14.40625 51.78125 6.484375 
Q 45.5625 -1.421875 35.59375 -1.421875 
Q 29.59375 -1.421875 25.265625 0.953125 
Q 20.953125 3.328125 18.109375 8.203125 
z
M 48.6875 27.296875 
Q 48.6875 37.203125 44.609375 42.84375 
Q 40.53125 48.484375 33.40625 48.484375 
Q 26.265625 48.484375 22.1875 42.84375 
Q 18.109375 37.203125 18.109375 27.296875 
Q 18.109375 17.390625 22.1875 11.75 
Q 26.265625 6.109375 33.40625 6.109375 
Q 40.53125 6.109375 44.609375 11.75 
Q 48.6875 17.390625 48.6875 27.296875 
z
" id="DejaVuSans-112"/>
     <path d="M 11.71875 12.40625 
L 22.015625 12.40625 
L 22.015625 0 
L 11.71875 0 
z
M 11.71875 51.703125 
L 22.015625 51.703125 
L 22.015625 39.3125 
L 11.71875 39.3125 
z
" id="DejaVuSans-58"/>
     <path id="DejaVuSans-32"/>
     <path d="M 2.984375 54.6875 
L 12.5 54.6875 
L 29.59375 8.796875 
L 46.6875 54.6875 
L 56.203125 54.6875 
L 35.6875 0 
L 23.484375 0 
z
" id="DejaVuSans-118"/>
    </defs>
    <g transform="translate(172.585312 35.472)scale(0.12 -0.12)">
     <use xlink:href="#DejaVuSans-108"/>
     <use x="27.783203" xlink:href="#DejaVuSans-97"/>
     <use x="89.0625" xlink:href="#DejaVuSans-109"/>
     <use x="186.474609" xlink:href="#DejaVuSans-109"/>
     <use x="283.886719" xlink:href="#DejaVuSans-112"/>
     <use x="347.363281" xlink:href="#DejaVuSans-115"/>
     <use x="399.462891" xlink:href="#DejaVuSans-58"/>
     <use x="433.154297" xlink:href="#DejaVuSans-32"/>
     <use x="464.941406" xlink:href="#DejaVuSans-115"/>
     <use x="517.041016" xlink:href="#DejaVuSans-105"/>
     <use x="544.824219" xlink:href="#DejaVuSans-122"/>
     <use x="597.314453" xlink:href="#DejaVuSans-101"/>
     <use x="658.837891" xlink:href="#DejaVuSans-32"/>
     <use x="690.625" xlink:href="#DejaVuSans-118"/>
     <use x="749.804688" xlink:href="#DejaVuSans-115"/>
     <use x="801.904297" xlink:href="#DejaVuSans-32"/>
     <use x="833.691406" xlink:href="#DejaVuSans-116"/>
     <use x="872.900391" xlink:href="#DejaVuSans-105"/>
     <use x="900.683594" xlink:href="#DejaVuSans-109"/>
     <use x="998.095703" xlink:href="#DejaVuSans-101"/>
    </g>
   </g>
   <g id="legend_1">
    <g id="patch_7">
     <path d="M 64.6 108.1845 
L 123.46875 108.1845 
Q 125.46875 108.1845 125.46875 106.1845 
L 125.46875 48.472 
Q 125.46875 46.472 123.46875 46.472 
L 64.6 46.472 
Q 62.6 46.472 62.6 48.472 
L 62.6 106.1845 
Q 62.6 108.1845 64.6 108.1845 
z
" style="fill:#ffffff;opacity:0.8;stroke:#cccccc;stroke-linejoin:miter;"/>
    </g>
    <g id="line2d_20">
     <path d="M 66.6 54.570438 
L 86.6 54.570438 
" style="fill:none;stroke:#008000;stroke-linecap:square;stroke-width:1.5;"/>
    </g>
    <g id="line2d_21">
     <g>
      <use style="fill:#008000;stroke:#008000;" x="76.6" xlink:href="#m341be46687" y="54.570438"/>
     </g>
    </g>
    <g id="text_19">
     <!-- CART -->
     <defs>
      <path d="M 64.40625 67.28125 
L 64.40625 56.890625 
Q 59.421875 61.53125 53.78125 63.8125 
Q 48.140625 66.109375 41.796875 66.109375 
Q 29.296875 66.109375 22.65625 58.46875 
Q 16.015625 50.828125 16.015625 36.375 
Q 16.015625 21.96875 22.65625 14.328125 
Q 29.296875 6.6875 41.796875 6.6875 
Q 48.140625 6.6875 53.78125 8.984375 
Q 59.421875 11.28125 64.40625 15.921875 
L 64.40625 5.609375 
Q 59.234375 2.09375 53.4375 0.328125 
Q 47.65625 -1.421875 41.21875 -1.421875 
Q 24.65625 -1.421875 15.125 8.703125 
Q 5.609375 18.84375 5.609375 36.375 
Q 5.609375 53.953125 15.125 64.078125 
Q 24.65625 74.21875 41.21875 74.21875 
Q 47.75 74.21875 53.53125 72.484375 
Q 59.328125 70.75 64.40625 67.28125 
z
" id="DejaVuSans-67"/>
      <path d="M 34.1875 63.1875 
L 20.796875 26.90625 
L 47.609375 26.90625 
z
M 28.609375 72.90625 
L 39.796875 72.90625 
L 67.578125 0 
L 57.328125 0 
L 50.6875 18.703125 
L 17.828125 18.703125 
L 11.1875 0 
L 0.78125 0 
z
" id="DejaVuSans-65"/>
      <path d="M 44.390625 34.1875 
Q 47.5625 33.109375 50.5625 29.59375 
Q 53.5625 26.078125 56.59375 19.921875 
L 66.609375 0 
L 56 0 
L 46.6875 18.703125 
Q 43.0625 26.03125 39.671875 28.421875 
Q 36.28125 30.8125 30.421875 30.8125 
L 19.671875 30.8125 
L 19.671875 0 
L 9.8125 0 
L 9.8125 72.90625 
L 32.078125 72.90625 
Q 44.578125 72.90625 50.734375 67.671875 
Q 56.890625 62.453125 56.890625 51.90625 
Q 56.890625 45.015625 53.6875 40.46875 
Q 50.484375 35.9375 44.390625 34.1875 
z
M 19.671875 64.796875 
L 19.671875 38.921875 
L 32.078125 38.921875 
Q 39.203125 38.921875 42.84375 42.21875 
Q 46.484375 45.515625 46.484375 51.90625 
Q 46.484375 58.296875 42.84375 61.546875 
Q 39.203125 64.796875 32.078125 64.796875 
z
" id="DejaVuSans-82"/>
      <path d="M -0.296875 72.90625 
L 61.375 72.90625 
L 61.375 64.59375 
L 35.5 64.59375 
L 35.5 0 
L 25.59375 0 
L 25.59375 64.59375 
L -0.296875 64.59375 
z
" id="DejaVuSans-84"/>
     </defs>
     <g transform="translate(94.6 58.070438)scale(0.1 -0.1)">
      <use xlink:href="#DejaVuSans-67"/>
      <use x="69.824219" xlink:href="#DejaVuSans-65"/>
      <use x="138.232422" xlink:href="#DejaVuSans-82"/>
      <use x="207.605469" xlink:href="#DejaVuSans-84"/>
     </g>
    </g>
    <g id="line2d_22">
     <path d="M 66.6 69.248563 
L 86.6 69.248563 
" style="fill:none;stroke:#ff0000;stroke-linecap:square;stroke-width:1.5;"/>
    </g>
    <g id="line2d_23">
     <g>
      <use style="fill:#ff0000;stroke:#ff0000;" x="76.6" xlink:href="#mfad36d0939" y="69.248563"/>
     </g>
    </g>
    <g id="text_20">
     <!-- FFT -->
     <defs>
      <path d="M 9.8125 72.90625 
L 51.703125 72.90625 
L 51.703125 64.59375 
L 19.671875 64.59375 
L 19.671875 43.109375 
L 48.578125 43.109375 
L 48.578125 34.8125 
L 19.671875 34.8125 
L 19.671875 0 
L 9.8125 0 
z
" id="DejaVuSans-70"/>
     </defs>
     <g transform="translate(94.6 72.748563)scale(0.1 -0.1)">
      <use xlink:href="#DejaVuSans-70"/>
      <use x="57.519531" xlink:href="#DejaVuSans-70"/>
      <use x="115.023438" xlink:href="#DejaVuSans-84"/>
     </g>
    </g>
    <g id="line2d_24">
     <path d="M 66.6 83.926688 
L 86.6 83.926688 
" style="fill:none;stroke:#0000ff;stroke-linecap:square;stroke-width:1.5;"/>
    </g>
    <g id="line2d_25">
     <g>
      <use style="fill:#0000ff;stroke:#0000ff;" x="76.6" xlink:href="#m400968c3db" y="83.926688"/>
     </g>
    </g>
    <g id="text_21">
     <!-- RF -->
     <g transform="translate(94.6 87.426688)scale(0.1 -0.1)">
      <use xlink:href="#DejaVuSans-82"/>
      <use x="69.482422" xlink:href="#DejaVuSans-70"/>
     </g>
    </g>
    <g id="line2d_26">
     <path d="M 66.6 98.604813 
L 86.6 98.604813 
" style="fill:none;stroke:#000000;stroke-linecap:square;stroke-width:1.5;"/>
    </g>
    <g id="line2d_27">
     <g>
      <use style="stroke:#000000;stroke-linejoin:miter;" x="76.6" xlink:href="#m35c14be633" y="98.604813"/>
     </g>
    </g>
    <g id="text_22">
     <!-- VFDT -->
     <defs>
      <path d="M 28.609375 0 
L 0.78125 72.90625 
L 11.078125 72.90625 
L 34.1875 11.53125 
L 57.328125 72.90625 
L 67.578125 72.90625 
L 39.796875 0 
z
" id="DejaVuSans-86"/>
      <path d="M 19.671875 64.796875 
L 19.671875 8.109375 
L 31.59375 8.109375 
Q 46.6875 8.109375 53.6875 14.9375 
Q 60.6875 21.78125 60.6875 36.53125 
Q 60.6875 51.171875 53.6875 57.984375 
Q 46.6875 64.796875 31.59375 64.796875 
z
M 9.8125 72.90625 
L 30.078125 72.90625 
Q 51.265625 72.90625 61.171875 64.09375 
Q 71.09375 55.28125 71.09375 36.53125 
Q 71.09375 17.671875 61.125 8.828125 
Q 51.171875 0 30.078125 0 
L 9.8125 0 
z
" id="DejaVuSans-68"/>
     </defs>
     <g transform="translate(94.6 102.104813)scale(0.1 -0.1)">
      <use xlink:href="#DejaVuSans-86"/>
      <use x="68.408203" xlink:href="#DejaVuSans-70"/>
      <use x="125.927734" xlink:href="#DejaVuSans-68"/>
      <use x="202.929688" xlink:href="#DejaVuSans-84"/>
     </g>
    </g>
   </g>
  </g>
 </g>
 <defs>
  <clipPath id="p5683a99950">
   <rect height="266.112" width="357.12" x="57.6" y="41.472"/>
  </clipPath>
 </defs>
</svg>
