<?xml version="1.0" encoding="utf-8" standalone="no"?>
<!DOCTYPE svg PUBLIC "-//W3C//DTD SVG 1.1//EN"
  "http://www.w3.org/Graphics/SVG/1.1/DTD/svg11.dtd">
<!-- Created with matplotlib (https://matplotlib.org/) -->
<svg height="345.6pt" version="1.1" viewBox="0 0 460.8 345.6" width="460.8pt" xmlns="http://www.w3.org/2000/svg" xmlns:xlink="http://www.w3.org/1999/xlink">
 <defs>
  <style type="text/css">
*{stroke-linecap:butt;stroke-linejoin:round;}
  </style>
 </defs>
 <g id="figure_1">
  <g id="patch_1">
   <path d="M 0 345.6 
L 460.8 345.6 
L 460.8 0 
L 0 0 
z
" style="fill:#ffffff;"/>
  </g>
  <g id="axes_1">
   <g id="patch_2">
    <path d="M 57.6 307.584 
L 414.72 307.584 
L 414.72 41.472 
L 57.6 41.472 
z
" style="fill:#ffffff;"/>
   </g>
   <g id="matplotlib.axis_1">
    <g id="xtick_1">
     <g id="line2d_1">
      <defs>
       <path d="M 0 0 
L 0 3.5 
" id="m006a891f75" style="stroke:#000000;stroke-width:0.8;"/>
      </defs>
      <g>
       <use style="stroke:#000000;stroke-width:0.8;" x="57.6" xlink:href="#m006a891f75" y="307.584"/>
      </g>
     </g>
     <g id="text_1">
      <!-- 0 -->
      <defs>
       <path d="M 31.78125 66.40625 
Q 24.171875 66.40625 20.328125 58.90625 
Q 16.5 51.421875 16.5 36.375 
Q 16.5 21.390625 20.328125 13.890625 
Q 24.171875 6.390625 31.78125 6.390625 
Q 39.453125 6.390625 43.28125 13.890625 
Q 47.125 21.390625 47.125 36.375 
Q 47.125 51.421875 43.28125 58.90625 
Q 39.453125 66.40625 31.78125 66.40625 
z
M 31.78125 74.21875 
Q 44.046875 74.21875 50.515625 64.515625 
Q 56.984375 54.828125 56.984375 36.375 
Q 56.984375 17.96875 50.515625 8.265625 
Q 44.046875 -1.421875 31.78125 -1.421875 
Q 19.53125 -1.421875 13.0625 8.265625 
Q 6.59375 17.96875 6.59375 36.375 
Q 6.59375 54.828125 13.0625 64.515625 
Q 19.53125 74.21875 31.78125 74.21875 
z
" id="DejaVuSans-48"/>
      </defs>
      <g transform="translate(54.41875 322.182437)scale(0.1 -0.1)">
       <use xlink:href="#DejaVuSans-48"/>
      </g>
     </g>
    </g>
    <g id="xtick_2">
     <g id="line2d_2">
      <g>
       <use style="stroke:#000000;stroke-width:0.8;" x="129.024" xlink:href="#m006a891f75" y="307.584"/>
      </g>
     </g>
     <g id="text_2">
      <!-- 20 -->
      <defs>
       <path d="M 19.1875 8.296875 
L 53.609375 8.296875 
L 53.609375 0 
L 7.328125 0 
L 7.328125 8.296875 
Q 12.9375 14.109375 22.625 23.890625 
Q 32.328125 33.6875 34.8125 36.53125 
Q 39.546875 41.84375 41.421875 45.53125 
Q 43.3125 49.21875 43.3125 52.78125 
Q 43.3125 58.59375 39.234375 62.25 
Q 35.15625 65.921875 28.609375 65.921875 
Q 23.96875 65.921875 18.8125 64.3125 
Q 13.671875 62.703125 7.8125 59.421875 
L 7.8125 69.390625 
Q 13.765625 71.78125 18.9375 73 
Q 24.125 74.21875 28.421875 74.21875 
Q 39.75 74.21875 46.484375 68.546875 
Q 53.21875 62.890625 53.21875 53.421875 
Q 53.21875 48.921875 51.53125 44.890625 
Q 49.859375 40.875 45.40625 35.40625 
Q 44.1875 33.984375 37.640625 27.21875 
Q 31.109375 20.453125 19.1875 8.296875 
z
" id="DejaVuSans-50"/>
      </defs>
      <g transform="translate(122.6615 322.182437)scale(0.1 -0.1)">
       <use xlink:href="#DejaVuSans-50"/>
       <use x="63.623047" xlink:href="#DejaVuSans-48"/>
      </g>
     </g>
    </g>
    <g id="xtick_3">
     <g id="line2d_3">
      <g>
       <use style="stroke:#000000;stroke-width:0.8;" x="200.448" xlink:href="#m006a891f75" y="307.584"/>
      </g>
     </g>
     <g id="text_3">
      <!-- 40 -->
      <defs>
       <path d="M 37.796875 64.3125 
L 12.890625 25.390625 
L 37.796875 25.390625 
z
M 35.203125 72.90625 
L 47.609375 72.90625 
L 47.609375 25.390625 
L 58.015625 25.390625 
L 58.015625 17.1875 
L 47.609375 17.1875 
L 47.609375 0 
L 37.796875 0 
L 37.796875 17.1875 
L 4.890625 17.1875 
L 4.890625 26.703125 
z
" id="DejaVuSans-52"/>
      </defs>
      <g transform="translate(194.0855 322.182437)scale(0.1 -0.1)">
       <use xlink:href="#DejaVuSans-52"/>
       <use x="63.623047" xlink:href="#DejaVuSans-48"/>
      </g>
     </g>
    </g>
    <g id="xtick_4">
     <g id="line2d_4">
      <g>
       <use style="stroke:#000000;stroke-width:0.8;" x="271.872" xlink:href="#m006a891f75" y="307.584"/>
      </g>
     </g>
     <g id="text_4">
      <!-- 60 -->
      <defs>
       <path d="M 33.015625 40.375 
Q 26.375 40.375 22.484375 35.828125 
Q 18.609375 31.296875 18.609375 23.390625 
Q 18.609375 15.53125 22.484375 10.953125 
Q 26.375 6.390625 33.015625 6.390625 
Q 39.65625 6.390625 43.53125 10.953125 
Q 47.40625 15.53125 47.40625 23.390625 
Q 47.40625 31.296875 43.53125 35.828125 
Q 39.65625 40.375 33.015625 40.375 
z
M 52.59375 71.296875 
L 52.59375 62.3125 
Q 48.875 64.0625 45.09375 64.984375 
Q 41.3125 65.921875 37.59375 65.921875 
Q 27.828125 65.921875 22.671875 59.328125 
Q 17.53125 52.734375 16.796875 39.40625 
Q 19.671875 43.65625 24.015625 45.921875 
Q 28.375 48.1875 33.59375 48.1875 
Q 44.578125 48.1875 50.953125 41.515625 
Q 57.328125 34.859375 57.328125 23.390625 
Q 57.328125 12.15625 50.6875 5.359375 
Q 44.046875 -1.421875 33.015625 -1.421875 
Q 20.359375 -1.421875 13.671875 8.265625 
Q 6.984375 17.96875 6.984375 36.375 
Q 6.984375 53.65625 15.1875 63.9375 
Q 23.390625 74.21875 37.203125 74.21875 
Q 40.921875 74.21875 44.703125 73.484375 
Q 48.484375 72.75 52.59375 71.296875 
z
" id="DejaVuSans-54"/>
      </defs>
      <g transform="translate(265.5095 322.182437)scale(0.1 -0.1)">
       <use xlink:href="#DejaVuSans-54"/>
       <use x="63.623047" xlink:href="#DejaVuSans-48"/>
      </g>
     </g>
    </g>
    <g id="xtick_5">
     <g id="line2d_5">
      <g>
       <use style="stroke:#000000;stroke-width:0.8;" x="343.296" xlink:href="#m006a891f75" y="307.584"/>
      </g>
     </g>
     <g id="text_5">
      <!-- 80 -->
      <defs>
       <path d="M 31.78125 34.625 
Q 24.75 34.625 20.71875 30.859375 
Q 16.703125 27.09375 16.703125 20.515625 
Q 16.703125 13.921875 20.71875 10.15625 
Q 24.75 6.390625 31.78125 6.390625 
Q 38.8125 6.390625 42.859375 10.171875 
Q 46.921875 13.96875 46.921875 20.515625 
Q 46.921875 27.09375 42.890625 30.859375 
Q 38.875 34.625 31.78125 34.625 
z
M 21.921875 38.8125 
Q 15.578125 40.375 12.03125 44.71875 
Q 8.5 49.078125 8.5 55.328125 
Q 8.5 64.0625 14.71875 69.140625 
Q 20.953125 74.21875 31.78125 74.21875 
Q 42.671875 74.21875 48.875 69.140625 
Q 55.078125 64.0625 55.078125 55.328125 
Q 55.078125 49.078125 51.53125 44.71875 
Q 48 40.375 41.703125 38.8125 
Q 48.828125 37.15625 52.796875 32.3125 
Q 56.78125 27.484375 56.78125 20.515625 
Q 56.78125 9.90625 50.3125 4.234375 
Q 43.84375 -1.421875 31.78125 -1.421875 
Q 19.734375 -1.421875 13.25 4.234375 
Q 6.78125 9.90625 6.78125 20.515625 
Q 6.78125 27.484375 10.78125 32.3125 
Q 14.796875 37.15625 21.921875 38.8125 
z
M 18.3125 54.390625 
Q 18.3125 48.734375 21.84375 45.5625 
Q 25.390625 42.390625 31.78125 42.390625 
Q 38.140625 42.390625 41.71875 45.5625 
Q 45.3125 48.734375 45.3125 54.390625 
Q 45.3125 60.0625 41.71875 63.234375 
Q 38.140625 66.40625 31.78125 66.40625 
Q 25.390625 66.40625 21.84375 63.234375 
Q 18.3125 60.0625 18.3125 54.390625 
z
" id="DejaVuSans-56"/>
      </defs>
      <g transform="translate(336.9335 322.182437)scale(0.1 -0.1)">
       <use xlink:href="#DejaVuSans-56"/>
       <use x="63.623047" xlink:href="#DejaVuSans-48"/>
      </g>
     </g>
    </g>
    <g id="xtick_6">
     <g id="line2d_6">
      <g>
       <use style="stroke:#000000;stroke-width:0.8;" x="414.72" xlink:href="#m006a891f75" y="307.584"/>
      </g>
     </g>
     <g id="text_6">
      <!-- 100 -->
      <defs>
       <path d="M 12.40625 8.296875 
L 28.515625 8.296875 
L 28.515625 63.921875 
L 10.984375 60.40625 
L 10.984375 69.390625 
L 28.421875 72.90625 
L 38.28125 72.90625 
L 38.28125 8.296875 
L 54.390625 8.296875 
L 54.390625 0 
L 12.40625 0 
z
" id="DejaVuSans-49"/>
      </defs>
      <g transform="translate(405.17625 322.182437)scale(0.1 -0.1)">
       <use xlink:href="#DejaVuSans-49"/>
       <use x="63.623047" xlink:href="#DejaVuSans-48"/>
       <use x="127.246094" xlink:href="#DejaVuSans-48"/>
      </g>
     </g>
    </g>
    <g id="text_7">
     <!-- size -->
     <defs>
      <path d="M 44.28125 53.078125 
L 44.28125 44.578125 
Q 40.484375 46.53125 36.375 47.5 
Q 32.28125 48.484375 27.875 48.484375 
Q 21.1875 48.484375 17.84375 46.4375 
Q 14.5 44.390625 14.5 40.28125 
Q 14.5 37.15625 16.890625 35.375 
Q 19.28125 33.59375 26.515625 31.984375 
L 29.59375 31.296875 
Q 39.15625 29.25 43.1875 25.515625 
Q 47.21875 21.78125 47.21875 15.09375 
Q 47.21875 7.46875 41.1875 3.015625 
Q 35.15625 -1.421875 24.609375 -1.421875 
Q 20.21875 -1.421875 15.453125 -0.5625 
Q 10.6875 0.296875 5.421875 2 
L 5.421875 11.28125 
Q 10.40625 8.6875 15.234375 7.390625 
Q 20.0625 6.109375 24.8125 6.109375 
Q 31.15625 6.109375 34.5625 8.28125 
Q 37.984375 10.453125 37.984375 14.40625 
Q 37.984375 18.0625 35.515625 20.015625 
Q 33.0625 21.96875 24.703125 23.78125 
L 21.578125 24.515625 
Q 13.234375 26.265625 9.515625 29.90625 
Q 5.8125 33.546875 5.8125 39.890625 
Q 5.8125 47.609375 11.28125 51.796875 
Q 16.75 56 26.8125 56 
Q 31.78125 56 36.171875 55.265625 
Q 40.578125 54.546875 44.28125 53.078125 
z
" id="DejaVuSans-115"/>
      <path d="M 9.421875 54.6875 
L 18.40625 54.6875 
L 18.40625 0 
L 9.421875 0 
z
M 9.421875 75.984375 
L 18.40625 75.984375 
L 18.40625 64.59375 
L 9.421875 64.59375 
z
" id="DejaVuSans-105"/>
      <path d="M 5.515625 54.6875 
L 48.1875 54.6875 
L 48.1875 46.484375 
L 14.40625 7.171875 
L 48.1875 7.171875 
L 48.1875 0 
L 4.296875 0 
L 4.296875 8.203125 
L 38.09375 47.515625 
L 5.515625 47.515625 
z
" id="DejaVuSans-122"/>
      <path d="M 56.203125 29.59375 
L 56.203125 25.203125 
L 14.890625 25.203125 
Q 15.484375 15.921875 20.484375 11.0625 
Q 25.484375 6.203125 34.421875 6.203125 
Q 39.59375 6.203125 44.453125 7.46875 
Q 49.3125 8.734375 54.109375 11.28125 
L 54.109375 2.78125 
Q 49.265625 0.734375 44.1875 -0.34375 
Q 39.109375 -1.421875 33.890625 -1.421875 
Q 20.796875 -1.421875 13.15625 6.1875 
Q 5.515625 13.8125 5.515625 26.8125 
Q 5.515625 40.234375 12.765625 48.109375 
Q 20.015625 56 32.328125 56 
Q 43.359375 56 49.78125 48.890625 
Q 56.203125 41.796875 56.203125 29.59375 
z
M 47.21875 32.234375 
Q 47.125 39.59375 43.09375 43.984375 
Q 39.0625 48.390625 32.421875 48.390625 
Q 24.90625 48.390625 20.390625 44.140625 
Q 15.875 39.890625 15.1875 32.171875 
z
" id="DejaVuSans-101"/>
     </defs>
     <g transform="translate(226.465469 335.860562)scale(0.1 -0.1)">
      <use xlink:href="#DejaVuSans-115"/>
      <use x="52.099609" xlink:href="#DejaVuSans-105"/>
      <use x="79.882812" xlink:href="#DejaVuSans-122"/>
      <use x="132.373047" xlink:href="#DejaVuSans-101"/>
     </g>
    </g>
   </g>
   <g id="matplotlib.axis_2">
    <g id="ytick_1">
     <g id="line2d_7">
      <defs>
       <path d="M 0 0 
L -3.5 0 
" id="mcf7494e646" style="stroke:#000000;stroke-width:0.8;"/>
      </defs>
      <g>
       <use style="stroke:#000000;stroke-width:0.8;" x="57.6" xlink:href="#mcf7494e646" y="295.50616"/>
      </g>
     </g>
     <g id="text_8">
      <!-- 0 -->
      <g transform="translate(44.2375 299.305379)scale(0.1 -0.1)">
       <use xlink:href="#DejaVuSans-48"/>
      </g>
     </g>
    </g>
    <g id="ytick_2">
     <g id="line2d_8">
      <g>
       <use style="stroke:#000000;stroke-width:0.8;" x="57.6" xlink:href="#mcf7494e646" y="243.619277"/>
      </g>
     </g>
     <g id="text_9">
      <!-- 1000 -->
      <g transform="translate(25.15 247.418496)scale(0.1 -0.1)">
       <use xlink:href="#DejaVuSans-49"/>
       <use x="63.623047" xlink:href="#DejaVuSans-48"/>
       <use x="127.246094" xlink:href="#DejaVuSans-48"/>
       <use x="190.869141" xlink:href="#DejaVuSans-48"/>
      </g>
     </g>
    </g>
    <g id="ytick_3">
     <g id="line2d_9">
      <g>
       <use style="stroke:#000000;stroke-width:0.8;" x="57.6" xlink:href="#mcf7494e646" y="191.732393"/>
      </g>
     </g>
     <g id="text_10">
      <!-- 2000 -->
      <g transform="translate(25.15 195.531612)scale(0.1 -0.1)">
       <use xlink:href="#DejaVuSans-50"/>
       <use x="63.623047" xlink:href="#DejaVuSans-48"/>
       <use x="127.246094" xlink:href="#DejaVuSans-48"/>
       <use x="190.869141" xlink:href="#DejaVuSans-48"/>
      </g>
     </g>
    </g>
    <g id="ytick_4">
     <g id="line2d_10">
      <g>
       <use style="stroke:#000000;stroke-width:0.8;" x="57.6" xlink:href="#mcf7494e646" y="139.84551"/>
      </g>
     </g>
     <g id="text_11">
      <!-- 3000 -->
      <defs>
       <path d="M 40.578125 39.3125 
Q 47.65625 37.796875 51.625 33 
Q 55.609375 28.21875 55.609375 21.1875 
Q 55.609375 10.40625 48.1875 4.484375 
Q 40.765625 -1.421875 27.09375 -1.421875 
Q 22.515625 -1.421875 17.65625 -0.515625 
Q 12.796875 0.390625 7.625 2.203125 
L 7.625 11.71875 
Q 11.71875 9.328125 16.59375 8.109375 
Q 21.484375 6.890625 26.8125 6.890625 
Q 36.078125 6.890625 40.9375 10.546875 
Q 45.796875 14.203125 45.796875 21.1875 
Q 45.796875 27.640625 41.28125 31.265625 
Q 36.765625 34.90625 28.71875 34.90625 
L 20.21875 34.90625 
L 20.21875 43.015625 
L 29.109375 43.015625 
Q 36.375 43.015625 40.234375 45.921875 
Q 44.09375 48.828125 44.09375 54.296875 
Q 44.09375 59.90625 40.109375 62.90625 
Q 36.140625 65.921875 28.71875 65.921875 
Q 24.65625 65.921875 20.015625 65.03125 
Q 15.375 64.15625 9.8125 62.3125 
L 9.8125 71.09375 
Q 15.4375 72.65625 20.34375 73.4375 
Q 25.25 74.21875 29.59375 74.21875 
Q 40.828125 74.21875 47.359375 69.109375 
Q 53.90625 64.015625 53.90625 55.328125 
Q 53.90625 49.265625 50.4375 45.09375 
Q 46.96875 40.921875 40.578125 39.3125 
z
" id="DejaVuSans-51"/>
      </defs>
      <g transform="translate(25.15 143.644729)scale(0.1 -0.1)">
       <use xlink:href="#DejaVuSans-51"/>
       <use x="63.623047" xlink:href="#DejaVuSans-48"/>
       <use x="127.246094" xlink:href="#DejaVuSans-48"/>
       <use x="190.869141" xlink:href="#DejaVuSans-48"/>
      </g>
     </g>
    </g>
    <g id="ytick_5">
     <g id="line2d_11">
      <g>
       <use style="stroke:#000000;stroke-width:0.8;" x="57.6" xlink:href="#mcf7494e646" y="87.958626"/>
      </g>
     </g>
     <g id="text_12">
      <!-- 4000 -->
      <g transform="translate(25.15 91.757845)scale(0.1 -0.1)">
       <use xlink:href="#DejaVuSans-52"/>
       <use x="63.623047" xlink:href="#DejaVuSans-48"/>
       <use x="127.246094" xlink:href="#DejaVuSans-48"/>
       <use x="190.869141" xlink:href="#DejaVuSans-48"/>
      </g>
     </g>
    </g>
    <g id="text_13">
     <!-- time -->
     <defs>
      <path d="M 18.3125 70.21875 
L 18.3125 54.6875 
L 36.8125 54.6875 
L 36.8125 47.703125 
L 18.3125 47.703125 
L 18.3125 18.015625 
Q 18.3125 11.328125 20.140625 9.421875 
Q 21.96875 7.515625 27.59375 7.515625 
L 36.8125 7.515625 
L 36.8125 0 
L 27.59375 0 
Q 17.1875 0 13.234375 3.875 
Q 9.28125 7.765625 9.28125 18.015625 
L 9.28125 47.703125 
L 2.6875 47.703125 
L 2.6875 54.6875 
L 9.28125 54.6875 
L 9.28125 70.21875 
z
" id="DejaVuSans-116"/>
      <path d="M 52 44.1875 
Q 55.375 50.25 60.0625 53.125 
Q 64.75 56 71.09375 56 
Q 79.640625 56 84.28125 50.015625 
Q 88.921875 44.046875 88.921875 33.015625 
L 88.921875 0 
L 79.890625 0 
L 79.890625 32.71875 
Q 79.890625 40.578125 77.09375 44.375 
Q 74.3125 48.1875 68.609375 48.1875 
Q 61.625 48.1875 57.5625 43.546875 
Q 53.515625 38.921875 53.515625 30.90625 
L 53.515625 0 
L 44.484375 0 
L 44.484375 32.71875 
Q 44.484375 40.625 41.703125 44.40625 
Q 38.921875 48.1875 33.109375 48.1875 
Q 26.21875 48.1875 22.15625 43.53125 
Q 18.109375 38.875 18.109375 30.90625 
L 18.109375 0 
L 9.078125 0 
L 9.078125 54.6875 
L 18.109375 54.6875 
L 18.109375 46.1875 
Q 21.1875 51.21875 25.484375 53.609375 
Q 29.78125 56 35.6875 56 
Q 41.65625 56 45.828125 52.96875 
Q 50 49.953125 52 44.1875 
z
" id="DejaVuSans-109"/>
     </defs>
     <g transform="translate(19.070312 185.824094)rotate(-90)scale(0.1 -0.1)">
      <use xlink:href="#DejaVuSans-116"/>
      <use x="39.208984" xlink:href="#DejaVuSans-105"/>
      <use x="66.992188" xlink:href="#DejaVuSans-109"/>
      <use x="164.404297" xlink:href="#DejaVuSans-101"/>
     </g>
    </g>
   </g>
   <g id="line2d_12">
    <path clip-path="url(#pdc9b2098da)" d="M 57.635712 289.873839 
L 57.671424 289.338367 
L 57.707136 289.970868 
L 57.742848 290.10733 
L 57.77856 290.438887 
L 57.814272 290.28634 
L 57.849984 290.299831 
L 57.885696 290.247944 
L 57.921408 289.98799 
L 57.95712 289.437471 
L 58.31424 289.487282 
L 58.67136 289.619075 
L 59.02848 289.783556 
L 59.3856 289.596763 
L 59.74272 290.030538 
L 60.09984 290.098509 
L 60.45696 290.253132 
L 60.81408 289.897188 
L 61.1712 290.002519 
L 75.456 290.045066 
L 93.312 289.137045 
L 111.168 289.19464 
L 129.024 288.898366 
L 146.88 289.487801 
L 164.736 288.921196 
L 182.592 288.757752 
L 200.448 289.103838 
L 218.304 289.20813 
L 236.16 288.660724 
L 254.016 288.657611 
L 271.872 288.533082 
L 289.728 288.242516 
L 307.584 288.141336 
L 325.44 288.208789 
L 343.296 287.830015 
L 361.152 288.295959 
L 379.008 287.312703 
L 396.864 287.908883 
L 414.72 287.474071 
" style="fill:none;stroke:#008000;stroke-linecap:square;stroke-width:1.5;"/>
    <defs>
     <path d="M -3 3 
L 3 -3 
M -3 -3 
L 3 3 
" id="m93e93f9ff2" style="stroke:#008000;"/>
    </defs>
    <g clip-path="url(#pdc9b2098da)">
     <use style="fill:#008000;stroke:#008000;" x="57.635712" xlink:href="#m93e93f9ff2" y="289.873839"/>
     <use style="fill:#008000;stroke:#008000;" x="57.671424" xlink:href="#m93e93f9ff2" y="289.338367"/>
     <use style="fill:#008000;stroke:#008000;" x="57.707136" xlink:href="#m93e93f9ff2" y="289.970868"/>
     <use style="fill:#008000;stroke:#008000;" x="57.742848" xlink:href="#m93e93f9ff2" y="290.10733"/>
     <use style="fill:#008000;stroke:#008000;" x="57.77856" xlink:href="#m93e93f9ff2" y="290.438887"/>
     <use style="fill:#008000;stroke:#008000;" x="57.814272" xlink:href="#m93e93f9ff2" y="290.28634"/>
     <use style="fill:#008000;stroke:#008000;" x="57.849984" xlink:href="#m93e93f9ff2" y="290.299831"/>
     <use style="fill:#008000;stroke:#008000;" x="57.885696" xlink:href="#m93e93f9ff2" y="290.247944"/>
     <use style="fill:#008000;stroke:#008000;" x="57.921408" xlink:href="#m93e93f9ff2" y="289.98799"/>
     <use style="fill:#008000;stroke:#008000;" x="57.95712" xlink:href="#m93e93f9ff2" y="289.437471"/>
     <use style="fill:#008000;stroke:#008000;" x="58.31424" xlink:href="#m93e93f9ff2" y="289.487282"/>
     <use style="fill:#008000;stroke:#008000;" x="58.67136" xlink:href="#m93e93f9ff2" y="289.619075"/>
     <use style="fill:#008000;stroke:#008000;" x="59.02848" xlink:href="#m93e93f9ff2" y="289.783556"/>
     <use style="fill:#008000;stroke:#008000;" x="59.3856" xlink:href="#m93e93f9ff2" y="289.596763"/>
     <use style="fill:#008000;stroke:#008000;" x="59.74272" xlink:href="#m93e93f9ff2" y="290.030538"/>
     <use style="fill:#008000;stroke:#008000;" x="60.09984" xlink:href="#m93e93f9ff2" y="290.098509"/>
     <use style="fill:#008000;stroke:#008000;" x="60.45696" xlink:href="#m93e93f9ff2" y="290.253132"/>
     <use style="fill:#008000;stroke:#008000;" x="60.81408" xlink:href="#m93e93f9ff2" y="289.897188"/>
     <use style="fill:#008000;stroke:#008000;" x="61.1712" xlink:href="#m93e93f9ff2" y="290.002519"/>
     <use style="fill:#008000;stroke:#008000;" x="75.456" xlink:href="#m93e93f9ff2" y="290.045066"/>
     <use style="fill:#008000;stroke:#008000;" x="93.312" xlink:href="#m93e93f9ff2" y="289.137045"/>
     <use style="fill:#008000;stroke:#008000;" x="111.168" xlink:href="#m93e93f9ff2" y="289.19464"/>
     <use style="fill:#008000;stroke:#008000;" x="129.024" xlink:href="#m93e93f9ff2" y="288.898366"/>
     <use style="fill:#008000;stroke:#008000;" x="146.88" xlink:href="#m93e93f9ff2" y="289.487801"/>
     <use style="fill:#008000;stroke:#008000;" x="164.736" xlink:href="#m93e93f9ff2" y="288.921196"/>
     <use style="fill:#008000;stroke:#008000;" x="182.592" xlink:href="#m93e93f9ff2" y="288.757752"/>
     <use style="fill:#008000;stroke:#008000;" x="200.448" xlink:href="#m93e93f9ff2" y="289.103838"/>
     <use style="fill:#008000;stroke:#008000;" x="218.304" xlink:href="#m93e93f9ff2" y="289.20813"/>
     <use style="fill:#008000;stroke:#008000;" x="236.16" xlink:href="#m93e93f9ff2" y="288.660724"/>
     <use style="fill:#008000;stroke:#008000;" x="254.016" xlink:href="#m93e93f9ff2" y="288.657611"/>
     <use style="fill:#008000;stroke:#008000;" x="271.872" xlink:href="#m93e93f9ff2" y="288.533082"/>
     <use style="fill:#008000;stroke:#008000;" x="289.728" xlink:href="#m93e93f9ff2" y="288.242516"/>
     <use style="fill:#008000;stroke:#008000;" x="307.584" xlink:href="#m93e93f9ff2" y="288.141336"/>
     <use style="fill:#008000;stroke:#008000;" x="325.44" xlink:href="#m93e93f9ff2" y="288.208789"/>
     <use style="fill:#008000;stroke:#008000;" x="343.296" xlink:href="#m93e93f9ff2" y="287.830015"/>
     <use style="fill:#008000;stroke:#008000;" x="361.152" xlink:href="#m93e93f9ff2" y="288.295959"/>
     <use style="fill:#008000;stroke:#008000;" x="379.008" xlink:href="#m93e93f9ff2" y="287.312703"/>
     <use style="fill:#008000;stroke:#008000;" x="396.864" xlink:href="#m93e93f9ff2" y="287.908883"/>
     <use style="fill:#008000;stroke:#008000;" x="414.72" xlink:href="#m93e93f9ff2" y="287.474071"/>
    </g>
   </g>
   <g id="line2d_13">
    <path clip-path="url(#pdc9b2098da)" d="M 57.635712 295.46517 
L 57.671424 295.459981 
L 57.707136 295.450123 
L 57.742848 295.430924 
L 57.77856 295.417434 
L 57.814272 295.407056 
L 57.849984 295.386821 
L 57.885696 295.381113 
L 57.921408 295.370217 
L 57.95712 295.352056 
L 58.31424 295.232198 
L 58.67136 295.097811 
L 59.02848 295.003377 
L 59.3856 294.868471 
L 59.74272 294.73564 
L 60.09984 294.606961 
L 60.45696 294.496442 
L 60.81408 294.328847 
L 61.1712 294.203281 
L 75.456 289.167659 
L 93.312 281.182267 
L 111.168 272.758951 
L 129.024 264.365728 
L 146.88 257.077178 
L 164.736 245.165506 
L 182.592 232.791522 
L 200.448 217.287202 
L 218.304 204.401614 
L 236.16 188.210312 
L 254.016 173.286087 
L 271.872 163.383995 
L 289.728 151.824635 
L 307.584 137.69895 
L 325.44 122.230432 
L 343.296 106.604697 
L 361.152 96.691708 
L 379.008 84.279846 
L 396.864 66.592645 
L 414.72 53.568 
" style="fill:none;stroke:#ff0000;stroke-linecap:square;stroke-width:1.5;"/>
    <defs>
     <path d="M 0 3 
C 0.795609 3 1.55874 2.683901 2.12132 2.12132 
C 2.683901 1.55874 3 0.795609 3 0 
C 3 -0.795609 2.683901 -1.55874 2.12132 -2.12132 
C 1.55874 -2.683901 0.795609 -3 0 -3 
C -0.795609 -3 -1.55874 -2.683901 -2.12132 -2.12132 
C -2.683901 -1.55874 -3 -0.795609 -3 0 
C -3 0.795609 -2.683901 1.55874 -2.12132 2.12132 
C -1.55874 2.683901 -0.795609 3 0 3 
z
" id="mf46fbf4b0a" style="stroke:#ff0000;"/>
    </defs>
    <g clip-path="url(#pdc9b2098da)">
     <use style="fill:#ff0000;stroke:#ff0000;" x="57.635712" xlink:href="#mf46fbf4b0a" y="295.46517"/>
     <use style="fill:#ff0000;stroke:#ff0000;" x="57.671424" xlink:href="#mf46fbf4b0a" y="295.459981"/>
     <use style="fill:#ff0000;stroke:#ff0000;" x="57.707136" xlink:href="#mf46fbf4b0a" y="295.450123"/>
     <use style="fill:#ff0000;stroke:#ff0000;" x="57.742848" xlink:href="#mf46fbf4b0a" y="295.430924"/>
     <use style="fill:#ff0000;stroke:#ff0000;" x="57.77856" xlink:href="#mf46fbf4b0a" y="295.417434"/>
     <use style="fill:#ff0000;stroke:#ff0000;" x="57.814272" xlink:href="#mf46fbf4b0a" y="295.407056"/>
     <use style="fill:#ff0000;stroke:#ff0000;" x="57.849984" xlink:href="#mf46fbf4b0a" y="295.386821"/>
     <use style="fill:#ff0000;stroke:#ff0000;" x="57.885696" xlink:href="#mf46fbf4b0a" y="295.381113"/>
     <use style="fill:#ff0000;stroke:#ff0000;" x="57.921408" xlink:href="#mf46fbf4b0a" y="295.370217"/>
     <use style="fill:#ff0000;stroke:#ff0000;" x="57.95712" xlink:href="#mf46fbf4b0a" y="295.352056"/>
     <use style="fill:#ff0000;stroke:#ff0000;" x="58.31424" xlink:href="#mf46fbf4b0a" y="295.232198"/>
     <use style="fill:#ff0000;stroke:#ff0000;" x="58.67136" xlink:href="#mf46fbf4b0a" y="295.097811"/>
     <use style="fill:#ff0000;stroke:#ff0000;" x="59.02848" xlink:href="#mf46fbf4b0a" y="295.003377"/>
     <use style="fill:#ff0000;stroke:#ff0000;" x="59.3856" xlink:href="#mf46fbf4b0a" y="294.868471"/>
     <use style="fill:#ff0000;stroke:#ff0000;" x="59.74272" xlink:href="#mf46fbf4b0a" y="294.73564"/>
     <use style="fill:#ff0000;stroke:#ff0000;" x="60.09984" xlink:href="#mf46fbf4b0a" y="294.606961"/>
     <use style="fill:#ff0000;stroke:#ff0000;" x="60.45696" xlink:href="#mf46fbf4b0a" y="294.496442"/>
     <use style="fill:#ff0000;stroke:#ff0000;" x="60.81408" xlink:href="#mf46fbf4b0a" y="294.328847"/>
     <use style="fill:#ff0000;stroke:#ff0000;" x="61.1712" xlink:href="#mf46fbf4b0a" y="294.203281"/>
     <use style="fill:#ff0000;stroke:#ff0000;" x="75.456" xlink:href="#mf46fbf4b0a" y="289.167659"/>
     <use style="fill:#ff0000;stroke:#ff0000;" x="93.312" xlink:href="#mf46fbf4b0a" y="281.182267"/>
     <use style="fill:#ff0000;stroke:#ff0000;" x="111.168" xlink:href="#mf46fbf4b0a" y="272.758951"/>
     <use style="fill:#ff0000;stroke:#ff0000;" x="129.024" xlink:href="#mf46fbf4b0a" y="264.365728"/>
     <use style="fill:#ff0000;stroke:#ff0000;" x="146.88" xlink:href="#mf46fbf4b0a" y="257.077178"/>
     <use style="fill:#ff0000;stroke:#ff0000;" x="164.736" xlink:href="#mf46fbf4b0a" y="245.165506"/>
     <use style="fill:#ff0000;stroke:#ff0000;" x="182.592" xlink:href="#mf46fbf4b0a" y="232.791522"/>
     <use style="fill:#ff0000;stroke:#ff0000;" x="200.448" xlink:href="#mf46fbf4b0a" y="217.287202"/>
     <use style="fill:#ff0000;stroke:#ff0000;" x="218.304" xlink:href="#mf46fbf4b0a" y="204.401614"/>
     <use style="fill:#ff0000;stroke:#ff0000;" x="236.16" xlink:href="#mf46fbf4b0a" y="188.210312"/>
     <use style="fill:#ff0000;stroke:#ff0000;" x="254.016" xlink:href="#mf46fbf4b0a" y="173.286087"/>
     <use style="fill:#ff0000;stroke:#ff0000;" x="271.872" xlink:href="#mf46fbf4b0a" y="163.383995"/>
     <use style="fill:#ff0000;stroke:#ff0000;" x="289.728" xlink:href="#mf46fbf4b0a" y="151.824635"/>
     <use style="fill:#ff0000;stroke:#ff0000;" x="307.584" xlink:href="#mf46fbf4b0a" y="137.69895"/>
     <use style="fill:#ff0000;stroke:#ff0000;" x="325.44" xlink:href="#mf46fbf4b0a" y="122.230432"/>
     <use style="fill:#ff0000;stroke:#ff0000;" x="343.296" xlink:href="#mf46fbf4b0a" y="106.604697"/>
     <use style="fill:#ff0000;stroke:#ff0000;" x="361.152" xlink:href="#mf46fbf4b0a" y="96.691708"/>
     <use style="fill:#ff0000;stroke:#ff0000;" x="379.008" xlink:href="#mf46fbf4b0a" y="84.279846"/>
     <use style="fill:#ff0000;stroke:#ff0000;" x="396.864" xlink:href="#mf46fbf4b0a" y="66.592645"/>
     <use style="fill:#ff0000;stroke:#ff0000;" x="414.72" xlink:href="#mf46fbf4b0a" y="53.568"/>
    </g>
   </g>
   <g id="line2d_14">
    <path clip-path="url(#pdc9b2098da)" d="M 57.635712 290.017566 
L 57.671424 289.294263 
L 57.707136 289.109027 
L 57.742848 289.598839 
L 57.77856 289.739971 
L 57.814272 289.522565 
L 57.849984 289.482612 
L 57.885696 289.610254 
L 57.921408 289.464971 
L 57.95712 289.206055 
L 58.31424 289.992141 
L 58.67136 289.939217 
L 59.02848 289.328508 
L 59.3856 288.896809 
L 59.74272 288.932092 
L 60.09984 289.228366 
L 60.45696 289.684971 
L 60.81408 289.52464 
L 61.1712 289.454593 
L 75.456 288.964262 
L 93.312 288.586007 
L 111.168 288.041713 
L 129.024 286.933928 
L 146.88 286.746098 
L 164.736 285.87803 
L 182.592 285.526756 
L 200.448 284.831472 
L 218.304 284.564254 
L 236.16 283.949395 
L 254.016 283.403026 
L 271.872 283.289394 
L 289.728 282.596704 
L 307.584 281.949674 
L 325.44 281.698542 
L 343.296 280.895852 
L 361.152 280.519672 
L 379.008 280.686748 
L 396.864 280.09835 
L 414.72 279.279575 
" style="fill:none;stroke:#0000ff;stroke-linecap:square;stroke-width:1.5;"/>
    <defs>
     <path d="M -3 0 
L 3 0 
M 0 3 
L 0 -3 
" id="m113c9e104a" style="stroke:#0000ff;"/>
    </defs>
    <g clip-path="url(#pdc9b2098da)">
     <use style="fill:#0000ff;stroke:#0000ff;" x="57.635712" xlink:href="#m113c9e104a" y="290.017566"/>
     <use style="fill:#0000ff;stroke:#0000ff;" x="57.671424" xlink:href="#m113c9e104a" y="289.294263"/>
     <use style="fill:#0000ff;stroke:#0000ff;" x="57.707136" xlink:href="#m113c9e104a" y="289.109027"/>
     <use style="fill:#0000ff;stroke:#0000ff;" x="57.742848" xlink:href="#m113c9e104a" y="289.598839"/>
     <use style="fill:#0000ff;stroke:#0000ff;" x="57.77856" xlink:href="#m113c9e104a" y="289.739971"/>
     <use style="fill:#0000ff;stroke:#0000ff;" x="57.814272" xlink:href="#m113c9e104a" y="289.522565"/>
     <use style="fill:#0000ff;stroke:#0000ff;" x="57.849984" xlink:href="#m113c9e104a" y="289.482612"/>
     <use style="fill:#0000ff;stroke:#0000ff;" x="57.885696" xlink:href="#m113c9e104a" y="289.610254"/>
     <use style="fill:#0000ff;stroke:#0000ff;" x="57.921408" xlink:href="#m113c9e104a" y="289.464971"/>
     <use style="fill:#0000ff;stroke:#0000ff;" x="57.95712" xlink:href="#m113c9e104a" y="289.206055"/>
     <use style="fill:#0000ff;stroke:#0000ff;" x="58.31424" xlink:href="#m113c9e104a" y="289.992141"/>
     <use style="fill:#0000ff;stroke:#0000ff;" x="58.67136" xlink:href="#m113c9e104a" y="289.939217"/>
     <use style="fill:#0000ff;stroke:#0000ff;" x="59.02848" xlink:href="#m113c9e104a" y="289.328508"/>
     <use style="fill:#0000ff;stroke:#0000ff;" x="59.3856" xlink:href="#m113c9e104a" y="288.896809"/>
     <use style="fill:#0000ff;stroke:#0000ff;" x="59.74272" xlink:href="#m113c9e104a" y="288.932092"/>
     <use style="fill:#0000ff;stroke:#0000ff;" x="60.09984" xlink:href="#m113c9e104a" y="289.228366"/>
     <use style="fill:#0000ff;stroke:#0000ff;" x="60.45696" xlink:href="#m113c9e104a" y="289.684971"/>
     <use style="fill:#0000ff;stroke:#0000ff;" x="60.81408" xlink:href="#m113c9e104a" y="289.52464"/>
     <use style="fill:#0000ff;stroke:#0000ff;" x="61.1712" xlink:href="#m113c9e104a" y="289.454593"/>
     <use style="fill:#0000ff;stroke:#0000ff;" x="75.456" xlink:href="#m113c9e104a" y="288.964262"/>
     <use style="fill:#0000ff;stroke:#0000ff;" x="93.312" xlink:href="#m113c9e104a" y="288.586007"/>
     <use style="fill:#0000ff;stroke:#0000ff;" x="111.168" xlink:href="#m113c9e104a" y="288.041713"/>
     <use style="fill:#0000ff;stroke:#0000ff;" x="129.024" xlink:href="#m113c9e104a" y="286.933928"/>
     <use style="fill:#0000ff;stroke:#0000ff;" x="146.88" xlink:href="#m113c9e104a" y="286.746098"/>
     <use style="fill:#0000ff;stroke:#0000ff;" x="164.736" xlink:href="#m113c9e104a" y="285.87803"/>
     <use style="fill:#0000ff;stroke:#0000ff;" x="182.592" xlink:href="#m113c9e104a" y="285.526756"/>
     <use style="fill:#0000ff;stroke:#0000ff;" x="200.448" xlink:href="#m113c9e104a" y="284.831472"/>
     <use style="fill:#0000ff;stroke:#0000ff;" x="218.304" xlink:href="#m113c9e104a" y="284.564254"/>
     <use style="fill:#0000ff;stroke:#0000ff;" x="236.16" xlink:href="#m113c9e104a" y="283.949395"/>
     <use style="fill:#0000ff;stroke:#0000ff;" x="254.016" xlink:href="#m113c9e104a" y="283.403026"/>
     <use style="fill:#0000ff;stroke:#0000ff;" x="271.872" xlink:href="#m113c9e104a" y="283.289394"/>
     <use style="fill:#0000ff;stroke:#0000ff;" x="289.728" xlink:href="#m113c9e104a" y="282.596704"/>
     <use style="fill:#0000ff;stroke:#0000ff;" x="307.584" xlink:href="#m113c9e104a" y="281.949674"/>
     <use style="fill:#0000ff;stroke:#0000ff;" x="325.44" xlink:href="#m113c9e104a" y="281.698542"/>
     <use style="fill:#0000ff;stroke:#0000ff;" x="343.296" xlink:href="#m113c9e104a" y="280.895852"/>
     <use style="fill:#0000ff;stroke:#0000ff;" x="361.152" xlink:href="#m113c9e104a" y="280.519672"/>
     <use style="fill:#0000ff;stroke:#0000ff;" x="379.008" xlink:href="#m113c9e104a" y="280.686748"/>
     <use style="fill:#0000ff;stroke:#0000ff;" x="396.864" xlink:href="#m113c9e104a" y="280.09835"/>
     <use style="fill:#0000ff;stroke:#0000ff;" x="414.72" xlink:href="#m113c9e104a" y="279.279575"/>
    </g>
   </g>
   <g id="line2d_15">
    <path clip-path="url(#pdc9b2098da)" d="M 57.635712 295.488 
L 57.671424 295.426255 
L 57.707136 295.422104 
L 57.742848 295.413802 
L 57.77856 295.195877 
L 57.814272 295.195877 
L 57.849984 295.124792 
L 57.885696 294.966018 
L 57.921408 294.95149 
L 57.95712 294.930216 
L 58.31424 294.644319 
L 58.67136 294.472055 
L 59.02848 294.340262 
L 59.3856 294.108328 
L 59.74272 293.915309 
L 60.09984 293.597761 
L 60.45696 293.378798 
L 60.81408 293.049316 
L 61.1712 292.757193 
L 75.456 269.336492 
L 93.312 264.2687 
L 111.168 260.253693 
L 129.024 255.775855 
L 146.88 251.171413 
L 164.736 246.038243 
L 182.592 243.540409 
L 200.448 238.467428 
L 218.304 235.191809 
L 236.16 229.527837 
L 254.016 223.424902 
L 271.872 219.073668 
L 289.728 218.19211 
L 307.584 214.438612 
L 325.44 211.274031 
L 343.296 207.485251 
L 361.152 202.194865 
L 379.008 198.644245 
L 396.864 197.076742 
L 414.72 192.171356 
" style="fill:none;stroke:#000000;stroke-linecap:square;stroke-width:1.5;"/>
    <defs>
     <path d="M -3 3 
L 3 3 
L 3 -3 
L -3 -3 
z
" id="m01c41ca4ab" style="stroke:#000000;stroke-linejoin:miter;"/>
    </defs>
    <g clip-path="url(#pdc9b2098da)">
     <use style="stroke:#000000;stroke-linejoin:miter;" x="57.635712" xlink:href="#m01c41ca4ab" y="295.488"/>
     <use style="stroke:#000000;stroke-linejoin:miter;" x="57.671424" xlink:href="#m01c41ca4ab" y="295.426255"/>
     <use style="stroke:#000000;stroke-linejoin:miter;" x="57.707136" xlink:href="#m01c41ca4ab" y="295.422104"/>
     <use style="stroke:#000000;stroke-linejoin:miter;" x="57.742848" xlink:href="#m01c41ca4ab" y="295.413802"/>
     <use style="stroke:#000000;stroke-linejoin:miter;" x="57.77856" xlink:href="#m01c41ca4ab" y="295.195877"/>
     <use style="stroke:#000000;stroke-linejoin:miter;" x="57.814272" xlink:href="#m01c41ca4ab" y="295.195877"/>
     <use style="stroke:#000000;stroke-linejoin:miter;" x="57.849984" xlink:href="#m01c41ca4ab" y="295.124792"/>
     <use style="stroke:#000000;stroke-linejoin:miter;" x="57.885696" xlink:href="#m01c41ca4ab" y="294.966018"/>
     <use style="stroke:#000000;stroke-linejoin:miter;" x="57.921408" xlink:href="#m01c41ca4ab" y="294.95149"/>
     <use style="stroke:#000000;stroke-linejoin:miter;" x="57.95712" xlink:href="#m01c41ca4ab" y="294.930216"/>
     <use style="stroke:#000000;stroke-linejoin:miter;" x="58.31424" xlink:href="#m01c41ca4ab" y="294.644319"/>
     <use style="stroke:#000000;stroke-linejoin:miter;" x="58.67136" xlink:href="#m01c41ca4ab" y="294.472055"/>
     <use style="stroke:#000000;stroke-linejoin:miter;" x="59.02848" xlink:href="#m01c41ca4ab" y="294.340262"/>
     <use style="stroke:#000000;stroke-linejoin:miter;" x="59.3856" xlink:href="#m01c41ca4ab" y="294.108328"/>
     <use style="stroke:#000000;stroke-linejoin:miter;" x="59.74272" xlink:href="#m01c41ca4ab" y="293.915309"/>
     <use style="stroke:#000000;stroke-linejoin:miter;" x="60.09984" xlink:href="#m01c41ca4ab" y="293.597761"/>
     <use style="stroke:#000000;stroke-linejoin:miter;" x="60.45696" xlink:href="#m01c41ca4ab" y="293.378798"/>
     <use style="stroke:#000000;stroke-linejoin:miter;" x="60.81408" xlink:href="#m01c41ca4ab" y="293.049316"/>
     <use style="stroke:#000000;stroke-linejoin:miter;" x="61.1712" xlink:href="#m01c41ca4ab" y="292.757193"/>
     <use style="stroke:#000000;stroke-linejoin:miter;" x="75.456" xlink:href="#m01c41ca4ab" y="269.336492"/>
     <use style="stroke:#000000;stroke-linejoin:miter;" x="93.312" xlink:href="#m01c41ca4ab" y="264.2687"/>
     <use style="stroke:#000000;stroke-linejoin:miter;" x="111.168" xlink:href="#m01c41ca4ab" y="260.253693"/>
     <use style="stroke:#000000;stroke-linejoin:miter;" x="129.024" xlink:href="#m01c41ca4ab" y="255.775855"/>
     <use style="stroke:#000000;stroke-linejoin:miter;" x="146.88" xlink:href="#m01c41ca4ab" y="251.171413"/>
     <use style="stroke:#000000;stroke-linejoin:miter;" x="164.736" xlink:href="#m01c41ca4ab" y="246.038243"/>
     <use style="stroke:#000000;stroke-linejoin:miter;" x="182.592" xlink:href="#m01c41ca4ab" y="243.540409"/>
     <use style="stroke:#000000;stroke-linejoin:miter;" x="200.448" xlink:href="#m01c41ca4ab" y="238.467428"/>
     <use style="stroke:#000000;stroke-linejoin:miter;" x="218.304" xlink:href="#m01c41ca4ab" y="235.191809"/>
     <use style="stroke:#000000;stroke-linejoin:miter;" x="236.16" xlink:href="#m01c41ca4ab" y="229.527837"/>
     <use style="stroke:#000000;stroke-linejoin:miter;" x="254.016" xlink:href="#m01c41ca4ab" y="223.424902"/>
     <use style="stroke:#000000;stroke-linejoin:miter;" x="271.872" xlink:href="#m01c41ca4ab" y="219.073668"/>
     <use style="stroke:#000000;stroke-linejoin:miter;" x="289.728" xlink:href="#m01c41ca4ab" y="218.19211"/>
     <use style="stroke:#000000;stroke-linejoin:miter;" x="307.584" xlink:href="#m01c41ca4ab" y="214.438612"/>
     <use style="stroke:#000000;stroke-linejoin:miter;" x="325.44" xlink:href="#m01c41ca4ab" y="211.274031"/>
     <use style="stroke:#000000;stroke-linejoin:miter;" x="343.296" xlink:href="#m01c41ca4ab" y="207.485251"/>
     <use style="stroke:#000000;stroke-linejoin:miter;" x="361.152" xlink:href="#m01c41ca4ab" y="202.194865"/>
     <use style="stroke:#000000;stroke-linejoin:miter;" x="379.008" xlink:href="#m01c41ca4ab" y="198.644245"/>
     <use style="stroke:#000000;stroke-linejoin:miter;" x="396.864" xlink:href="#m01c41ca4ab" y="197.076742"/>
     <use style="stroke:#000000;stroke-linejoin:miter;" x="414.72" xlink:href="#m01c41ca4ab" y="192.171356"/>
    </g>
   </g>
   <g id="patch_3">
    <path d="M 57.6 307.584 
L 57.6 41.472 
" style="fill:none;stroke:#000000;stroke-linecap:square;stroke-linejoin:miter;stroke-width:0.8;"/>
   </g>
   <g id="patch_4">
    <path d="M 414.72 307.584 
L 414.72 41.472 
" style="fill:none;stroke:#000000;stroke-linecap:square;stroke-linejoin:miter;stroke-width:0.8;"/>
   </g>
   <g id="patch_5">
    <path d="M 57.6 307.584 
L 414.72 307.584 
" style="fill:none;stroke:#000000;stroke-linecap:square;stroke-linejoin:miter;stroke-width:0.8;"/>
   </g>
   <g id="patch_6">
    <path d="M 57.6 41.472 
L 414.72 41.472 
" style="fill:none;stroke:#000000;stroke-linecap:square;stroke-linejoin:miter;stroke-width:0.8;"/>
   </g>
   <g id="text_14">
    <!-- libmesh: size vs time -->
    <defs>
     <path d="M 9.421875 75.984375 
L 18.40625 75.984375 
L 18.40625 0 
L 9.421875 0 
z
" id="DejaVuSans-108"/>
     <path d="M 48.6875 27.296875 
Q 48.6875 37.203125 44.609375 42.84375 
Q 40.53125 48.484375 33.40625 48.484375 
Q 26.265625 48.484375 22.1875 42.84375 
Q 18.109375 37.203125 18.109375 27.296875 
Q 18.109375 17.390625 22.1875 11.75 
Q 26.265625 6.109375 33.40625 6.109375 
Q 40.53125 6.109375 44.609375 11.75 
Q 48.6875 17.390625 48.6875 27.296875 
z
M 18.109375 46.390625 
Q 20.953125 51.265625 25.265625 53.625 
Q 29.59375 56 35.59375 56 
Q 45.5625 56 51.78125 48.09375 
Q 58.015625 40.1875 58.015625 27.296875 
Q 58.015625 14.40625 51.78125 6.484375 
Q 45.5625 -1.421875 35.59375 -1.421875 
Q 29.59375 -1.421875 25.265625 0.953125 
Q 20.953125 3.328125 18.109375 8.203125 
L 18.109375 0 
L 9.078125 0 
L 9.078125 75.984375 
L 18.109375 75.984375 
z
" id="DejaVuSans-98"/>
     <path d="M 54.890625 33.015625 
L 54.890625 0 
L 45.90625 0 
L 45.90625 32.71875 
Q 45.90625 40.484375 42.875 44.328125 
Q 39.84375 48.1875 33.796875 48.1875 
Q 26.515625 48.1875 22.3125 43.546875 
Q 18.109375 38.921875 18.109375 30.90625 
L 18.109375 0 
L 9.078125 0 
L 9.078125 75.984375 
L 18.109375 75.984375 
L 18.109375 46.1875 
Q 21.34375 51.125 25.703125 53.5625 
Q 30.078125 56 35.796875 56 
Q 45.21875 56 50.046875 50.171875 
Q 54.890625 44.34375 54.890625 33.015625 
z
" id="DejaVuSans-104"/>
     <path d="M 11.71875 12.40625 
L 22.015625 12.40625 
L 22.015625 0 
L 11.71875 0 
z
M 11.71875 51.703125 
L 22.015625 51.703125 
L 22.015625 39.3125 
L 11.71875 39.3125 
z
" id="DejaVuSans-58"/>
     <path id="DejaVuSans-32"/>
     <path d="M 2.984375 54.6875 
L 12.5 54.6875 
L 29.59375 8.796875 
L 46.6875 54.6875 
L 56.203125 54.6875 
L 35.6875 0 
L 23.484375 0 
z
" id="DejaVuSans-118"/>
    </defs>
    <g transform="translate(172.945312 35.472)scale(0.12 -0.12)">
     <use xlink:href="#DejaVuSans-108"/>
     <use x="27.783203" xlink:href="#DejaVuSans-105"/>
     <use x="55.566406" xlink:href="#DejaVuSans-98"/>
     <use x="119.042969" xlink:href="#DejaVuSans-109"/>
     <use x="216.455078" xlink:href="#DejaVuSans-101"/>
     <use x="277.978516" xlink:href="#DejaVuSans-115"/>
     <use x="330.078125" xlink:href="#DejaVuSans-104"/>
     <use x="393.457031" xlink:href="#DejaVuSans-58"/>
     <use x="427.148438" xlink:href="#DejaVuSans-32"/>
     <use x="458.935547" xlink:href="#DejaVuSans-115"/>
     <use x="511.035156" xlink:href="#DejaVuSans-105"/>
     <use x="538.818359" xlink:href="#DejaVuSans-122"/>
     <use x="591.308594" xlink:href="#DejaVuSans-101"/>
     <use x="652.832031" xlink:href="#DejaVuSans-32"/>
     <use x="684.619141" xlink:href="#DejaVuSans-118"/>
     <use x="743.798828" xlink:href="#DejaVuSans-115"/>
     <use x="795.898438" xlink:href="#DejaVuSans-32"/>
     <use x="827.685547" xlink:href="#DejaVuSans-116"/>
     <use x="866.894531" xlink:href="#DejaVuSans-105"/>
     <use x="894.677734" xlink:href="#DejaVuSans-109"/>
     <use x="992.089844" xlink:href="#DejaVuSans-101"/>
    </g>
   </g>
   <g id="legend_1">
    <g id="patch_7">
     <path d="M 64.6 108.1845 
L 123.46875 108.1845 
Q 125.46875 108.1845 125.46875 106.1845 
L 125.46875 48.472 
Q 125.46875 46.472 123.46875 46.472 
L 64.6 46.472 
Q 62.6 46.472 62.6 48.472 
L 62.6 106.1845 
Q 62.6 108.1845 64.6 108.1845 
z
" style="fill:#ffffff;opacity:0.8;stroke:#cccccc;stroke-linejoin:miter;"/>
    </g>
    <g id="line2d_16">
     <path d="M 66.6 54.570438 
L 86.6 54.570438 
" style="fill:none;stroke:#008000;stroke-linecap:square;stroke-width:1.5;"/>
    </g>
    <g id="line2d_17">
     <g>
      <use style="fill:#008000;stroke:#008000;" x="76.6" xlink:href="#m93e93f9ff2" y="54.570438"/>
     </g>
    </g>
    <g id="text_15">
     <!-- CART -->
     <defs>
      <path d="M 64.40625 67.28125 
L 64.40625 56.890625 
Q 59.421875 61.53125 53.78125 63.8125 
Q 48.140625 66.109375 41.796875 66.109375 
Q 29.296875 66.109375 22.65625 58.46875 
Q 16.015625 50.828125 16.015625 36.375 
Q 16.015625 21.96875 22.65625 14.328125 
Q 29.296875 6.6875 41.796875 6.6875 
Q 48.140625 6.6875 53.78125 8.984375 
Q 59.421875 11.28125 64.40625 15.921875 
L 64.40625 5.609375 
Q 59.234375 2.09375 53.4375 0.328125 
Q 47.65625 -1.421875 41.21875 -1.421875 
Q 24.65625 -1.421875 15.125 8.703125 
Q 5.609375 18.84375 5.609375 36.375 
Q 5.609375 53.953125 15.125 64.078125 
Q 24.65625 74.21875 41.21875 74.21875 
Q 47.75 74.21875 53.53125 72.484375 
Q 59.328125 70.75 64.40625 67.28125 
z
" id="DejaVuSans-67"/>
      <path d="M 34.1875 63.1875 
L 20.796875 26.90625 
L 47.609375 26.90625 
z
M 28.609375 72.90625 
L 39.796875 72.90625 
L 67.578125 0 
L 57.328125 0 
L 50.6875 18.703125 
L 17.828125 18.703125 
L 11.1875 0 
L 0.78125 0 
z
" id="DejaVuSans-65"/>
      <path d="M 44.390625 34.1875 
Q 47.5625 33.109375 50.5625 29.59375 
Q 53.5625 26.078125 56.59375 19.921875 
L 66.609375 0 
L 56 0 
L 46.6875 18.703125 
Q 43.0625 26.03125 39.671875 28.421875 
Q 36.28125 30.8125 30.421875 30.8125 
L 19.671875 30.8125 
L 19.671875 0 
L 9.8125 0 
L 9.8125 72.90625 
L 32.078125 72.90625 
Q 44.578125 72.90625 50.734375 67.671875 
Q 56.890625 62.453125 56.890625 51.90625 
Q 56.890625 45.015625 53.6875 40.46875 
Q 50.484375 35.9375 44.390625 34.1875 
z
M 19.671875 64.796875 
L 19.671875 38.921875 
L 32.078125 38.921875 
Q 39.203125 38.921875 42.84375 42.21875 
Q 46.484375 45.515625 46.484375 51.90625 
Q 46.484375 58.296875 42.84375 61.546875 
Q 39.203125 64.796875 32.078125 64.796875 
z
" id="DejaVuSans-82"/>
      <path d="M -0.296875 72.90625 
L 61.375 72.90625 
L 61.375 64.59375 
L 35.5 64.59375 
L 35.5 0 
L 25.59375 0 
L 25.59375 64.59375 
L -0.296875 64.59375 
z
" id="DejaVuSans-84"/>
     </defs>
     <g transform="translate(94.6 58.070438)scale(0.1 -0.1)">
      <use xlink:href="#DejaVuSans-67"/>
      <use x="69.824219" xlink:href="#DejaVuSans-65"/>
      <use x="138.232422" xlink:href="#DejaVuSans-82"/>
      <use x="207.605469" xlink:href="#DejaVuSans-84"/>
     </g>
    </g>
    <g id="line2d_18">
     <path d="M 66.6 69.248563 
L 86.6 69.248563 
" style="fill:none;stroke:#ff0000;stroke-linecap:square;stroke-width:1.5;"/>
    </g>
    <g id="line2d_19">
     <g>
      <use style="fill:#ff0000;stroke:#ff0000;" x="76.6" xlink:href="#mf46fbf4b0a" y="69.248563"/>
     </g>
    </g>
    <g id="text_16">
     <!-- FFT -->
     <defs>
      <path d="M 9.8125 72.90625 
L 51.703125 72.90625 
L 51.703125 64.59375 
L 19.671875 64.59375 
L 19.671875 43.109375 
L 48.578125 43.109375 
L 48.578125 34.8125 
L 19.671875 34.8125 
L 19.671875 0 
L 9.8125 0 
z
" id="DejaVuSans-70"/>
     </defs>
     <g transform="translate(94.6 72.748563)scale(0.1 -0.1)">
      <use xlink:href="#DejaVuSans-70"/>
      <use x="57.519531" xlink:href="#DejaVuSans-70"/>
      <use x="115.023438" xlink:href="#DejaVuSans-84"/>
     </g>
    </g>
    <g id="line2d_20">
     <path d="M 66.6 83.926688 
L 86.6 83.926688 
" style="fill:none;stroke:#0000ff;stroke-linecap:square;stroke-width:1.5;"/>
    </g>
    <g id="line2d_21">
     <g>
      <use style="fill:#0000ff;stroke:#0000ff;" x="76.6" xlink:href="#m113c9e104a" y="83.926688"/>
     </g>
    </g>
    <g id="text_17">
     <!-- RF -->
     <g transform="translate(94.6 87.426688)scale(0.1 -0.1)">
      <use xlink:href="#DejaVuSans-82"/>
      <use x="69.482422" xlink:href="#DejaVuSans-70"/>
     </g>
    </g>
    <g id="line2d_22">
     <path d="M 66.6 98.604813 
L 86.6 98.604813 
" style="fill:none;stroke:#000000;stroke-linecap:square;stroke-width:1.5;"/>
    </g>
    <g id="line2d_23">
     <g>
      <use style="stroke:#000000;stroke-linejoin:miter;" x="76.6" xlink:href="#m01c41ca4ab" y="98.604813"/>
     </g>
    </g>
    <g id="text_18">
     <!-- VFDT -->
     <defs>
      <path d="M 28.609375 0 
L 0.78125 72.90625 
L 11.078125 72.90625 
L 34.1875 11.53125 
L 57.328125 72.90625 
L 67.578125 72.90625 
L 39.796875 0 
z
" id="DejaVuSans-86"/>
      <path d="M 19.671875 64.796875 
L 19.671875 8.109375 
L 31.59375 8.109375 
Q 46.6875 8.109375 53.6875 14.9375 
Q 60.6875 21.78125 60.6875 36.53125 
Q 60.6875 51.171875 53.6875 57.984375 
Q 46.6875 64.796875 31.59375 64.796875 
z
M 9.8125 72.90625 
L 30.078125 72.90625 
Q 51.265625 72.90625 61.171875 64.09375 
Q 71.09375 55.28125 71.09375 36.53125 
Q 71.09375 17.671875 61.125 8.828125 
Q 51.171875 0 30.078125 0 
L 9.8125 0 
z
" id="DejaVuSans-68"/>
     </defs>
     <g transform="translate(94.6 102.104813)scale(0.1 -0.1)">
      <use xlink:href="#DejaVuSans-86"/>
      <use x="68.408203" xlink:href="#DejaVuSans-70"/>
      <use x="125.927734" xlink:href="#DejaVuSans-68"/>
      <use x="202.929688" xlink:href="#DejaVuSans-84"/>
     </g>
    </g>
   </g>
  </g>
 </g>
 <defs>
  <clipPath id="pdc9b2098da">
   <rect height="266.112" width="357.12" x="57.6" y="41.472"/>
  </clipPath>
 </defs>
</svg>
