<?xml version="1.0" encoding="utf-8" standalone="no"?>
<!DOCTYPE svg PUBLIC "-//W3C//DTD SVG 1.1//EN"
  "http://www.w3.org/Graphics/SVG/1.1/DTD/svg11.dtd">
<!-- Created with matplotlib (https://matplotlib.org/) -->
<svg height="345.6pt" version="1.1" viewBox="0 0 460.8 345.6" width="460.8pt" xmlns="http://www.w3.org/2000/svg" xmlns:xlink="http://www.w3.org/1999/xlink">
 <defs>
  <style type="text/css">
*{stroke-linecap:butt;stroke-linejoin:round;}
  </style>
 </defs>
 <g id="figure_1">
  <g id="patch_1">
   <path d="M 0 345.6 
L 460.8 345.6 
L 460.8 0 
L 0 0 
z
" style="fill:#ffffff;"/>
  </g>
  <g id="axes_1">
   <g id="patch_2">
    <path d="M 57.6 307.584 
L 414.72 307.584 
L 414.72 41.472 
L 57.6 41.472 
z
" style="fill:#ffffff;"/>
   </g>
   <g id="matplotlib.axis_1">
    <g id="xtick_1">
     <g id="line2d_1">
      <defs>
       <path d="M 0 0 
L 0 3.5 
" id="med7d964e6b" style="stroke:#000000;stroke-width:0.8;"/>
      </defs>
      <g>
       <use style="stroke:#000000;stroke-width:0.8;" x="57.6" xlink:href="#med7d964e6b" y="307.584"/>
      </g>
     </g>
     <g id="text_1">
      <!-- 0 -->
      <defs>
       <path d="M 31.78125 66.40625 
Q 24.171875 66.40625 20.328125 58.90625 
Q 16.5 51.421875 16.5 36.375 
Q 16.5 21.390625 20.328125 13.890625 
Q 24.171875 6.390625 31.78125 6.390625 
Q 39.453125 6.390625 43.28125 13.890625 
Q 47.125 21.390625 47.125 36.375 
Q 47.125 51.421875 43.28125 58.90625 
Q 39.453125 66.40625 31.78125 66.40625 
z
M 31.78125 74.21875 
Q 44.046875 74.21875 50.515625 64.515625 
Q 56.984375 54.828125 56.984375 36.375 
Q 56.984375 17.96875 50.515625 8.265625 
Q 44.046875 -1.421875 31.78125 -1.421875 
Q 19.53125 -1.421875 13.0625 8.265625 
Q 6.59375 17.96875 6.59375 36.375 
Q 6.59375 54.828125 13.0625 64.515625 
Q 19.53125 74.21875 31.78125 74.21875 
z
" id="DejaVuSans-48"/>
      </defs>
      <g transform="translate(54.41875 322.182437)scale(0.1 -0.1)">
       <use xlink:href="#DejaVuSans-48"/>
      </g>
     </g>
    </g>
    <g id="xtick_2">
     <g id="line2d_2">
      <g>
       <use style="stroke:#000000;stroke-width:0.8;" x="129.024" xlink:href="#med7d964e6b" y="307.584"/>
      </g>
     </g>
     <g id="text_2">
      <!-- 20 -->
      <defs>
       <path d="M 19.1875 8.296875 
L 53.609375 8.296875 
L 53.609375 0 
L 7.328125 0 
L 7.328125 8.296875 
Q 12.9375 14.109375 22.625 23.890625 
Q 32.328125 33.6875 34.8125 36.53125 
Q 39.546875 41.84375 41.421875 45.53125 
Q 43.3125 49.21875 43.3125 52.78125 
Q 43.3125 58.59375 39.234375 62.25 
Q 35.15625 65.921875 28.609375 65.921875 
Q 23.96875 65.921875 18.8125 64.3125 
Q 13.671875 62.703125 7.8125 59.421875 
L 7.8125 69.390625 
Q 13.765625 71.78125 18.9375 73 
Q 24.125 74.21875 28.421875 74.21875 
Q 39.75 74.21875 46.484375 68.546875 
Q 53.21875 62.890625 53.21875 53.421875 
Q 53.21875 48.921875 51.53125 44.890625 
Q 49.859375 40.875 45.40625 35.40625 
Q 44.1875 33.984375 37.640625 27.21875 
Q 31.109375 20.453125 19.1875 8.296875 
z
" id="DejaVuSans-50"/>
      </defs>
      <g transform="translate(122.6615 322.182437)scale(0.1 -0.1)">
       <use xlink:href="#DejaVuSans-50"/>
       <use x="63.623047" xlink:href="#DejaVuSans-48"/>
      </g>
     </g>
    </g>
    <g id="xtick_3">
     <g id="line2d_3">
      <g>
       <use style="stroke:#000000;stroke-width:0.8;" x="200.448" xlink:href="#med7d964e6b" y="307.584"/>
      </g>
     </g>
     <g id="text_3">
      <!-- 40 -->
      <defs>
       <path d="M 37.796875 64.3125 
L 12.890625 25.390625 
L 37.796875 25.390625 
z
M 35.203125 72.90625 
L 47.609375 72.90625 
L 47.609375 25.390625 
L 58.015625 25.390625 
L 58.015625 17.1875 
L 47.609375 17.1875 
L 47.609375 0 
L 37.796875 0 
L 37.796875 17.1875 
L 4.890625 17.1875 
L 4.890625 26.703125 
z
" id="DejaVuSans-52"/>
      </defs>
      <g transform="translate(194.0855 322.182437)scale(0.1 -0.1)">
       <use xlink:href="#DejaVuSans-52"/>
       <use x="63.623047" xlink:href="#DejaVuSans-48"/>
      </g>
     </g>
    </g>
    <g id="xtick_4">
     <g id="line2d_4">
      <g>
       <use style="stroke:#000000;stroke-width:0.8;" x="271.872" xlink:href="#med7d964e6b" y="307.584"/>
      </g>
     </g>
     <g id="text_4">
      <!-- 60 -->
      <defs>
       <path d="M 33.015625 40.375 
Q 26.375 40.375 22.484375 35.828125 
Q 18.609375 31.296875 18.609375 23.390625 
Q 18.609375 15.53125 22.484375 10.953125 
Q 26.375 6.390625 33.015625 6.390625 
Q 39.65625 6.390625 43.53125 10.953125 
Q 47.40625 15.53125 47.40625 23.390625 
Q 47.40625 31.296875 43.53125 35.828125 
Q 39.65625 40.375 33.015625 40.375 
z
M 52.59375 71.296875 
L 52.59375 62.3125 
Q 48.875 64.0625 45.09375 64.984375 
Q 41.3125 65.921875 37.59375 65.921875 
Q 27.828125 65.921875 22.671875 59.328125 
Q 17.53125 52.734375 16.796875 39.40625 
Q 19.671875 43.65625 24.015625 45.921875 
Q 28.375 48.1875 33.59375 48.1875 
Q 44.578125 48.1875 50.953125 41.515625 
Q 57.328125 34.859375 57.328125 23.390625 
Q 57.328125 12.15625 50.6875 5.359375 
Q 44.046875 -1.421875 33.015625 -1.421875 
Q 20.359375 -1.421875 13.671875 8.265625 
Q 6.984375 17.96875 6.984375 36.375 
Q 6.984375 53.65625 15.1875 63.9375 
Q 23.390625 74.21875 37.203125 74.21875 
Q 40.921875 74.21875 44.703125 73.484375 
Q 48.484375 72.75 52.59375 71.296875 
z
" id="DejaVuSans-54"/>
      </defs>
      <g transform="translate(265.5095 322.182437)scale(0.1 -0.1)">
       <use xlink:href="#DejaVuSans-54"/>
       <use x="63.623047" xlink:href="#DejaVuSans-48"/>
      </g>
     </g>
    </g>
    <g id="xtick_5">
     <g id="line2d_5">
      <g>
       <use style="stroke:#000000;stroke-width:0.8;" x="343.296" xlink:href="#med7d964e6b" y="307.584"/>
      </g>
     </g>
     <g id="text_5">
      <!-- 80 -->
      <defs>
       <path d="M 31.78125 34.625 
Q 24.75 34.625 20.71875 30.859375 
Q 16.703125 27.09375 16.703125 20.515625 
Q 16.703125 13.921875 20.71875 10.15625 
Q 24.75 6.390625 31.78125 6.390625 
Q 38.8125 6.390625 42.859375 10.171875 
Q 46.921875 13.96875 46.921875 20.515625 
Q 46.921875 27.09375 42.890625 30.859375 
Q 38.875 34.625 31.78125 34.625 
z
M 21.921875 38.8125 
Q 15.578125 40.375 12.03125 44.71875 
Q 8.5 49.078125 8.5 55.328125 
Q 8.5 64.0625 14.71875 69.140625 
Q 20.953125 74.21875 31.78125 74.21875 
Q 42.671875 74.21875 48.875 69.140625 
Q 55.078125 64.0625 55.078125 55.328125 
Q 55.078125 49.078125 51.53125 44.71875 
Q 48 40.375 41.703125 38.8125 
Q 48.828125 37.15625 52.796875 32.3125 
Q 56.78125 27.484375 56.78125 20.515625 
Q 56.78125 9.90625 50.3125 4.234375 
Q 43.84375 -1.421875 31.78125 -1.421875 
Q 19.734375 -1.421875 13.25 4.234375 
Q 6.78125 9.90625 6.78125 20.515625 
Q 6.78125 27.484375 10.78125 32.3125 
Q 14.796875 37.15625 21.921875 38.8125 
z
M 18.3125 54.390625 
Q 18.3125 48.734375 21.84375 45.5625 
Q 25.390625 42.390625 31.78125 42.390625 
Q 38.140625 42.390625 41.71875 45.5625 
Q 45.3125 48.734375 45.3125 54.390625 
Q 45.3125 60.0625 41.71875 63.234375 
Q 38.140625 66.40625 31.78125 66.40625 
Q 25.390625 66.40625 21.84375 63.234375 
Q 18.3125 60.0625 18.3125 54.390625 
z
" id="DejaVuSans-56"/>
      </defs>
      <g transform="translate(336.9335 322.182437)scale(0.1 -0.1)">
       <use xlink:href="#DejaVuSans-56"/>
       <use x="63.623047" xlink:href="#DejaVuSans-48"/>
      </g>
     </g>
    </g>
    <g id="xtick_6">
     <g id="line2d_6">
      <g>
       <use style="stroke:#000000;stroke-width:0.8;" x="414.72" xlink:href="#med7d964e6b" y="307.584"/>
      </g>
     </g>
     <g id="text_6">
      <!-- 100 -->
      <defs>
       <path d="M 12.40625 8.296875 
L 28.515625 8.296875 
L 28.515625 63.921875 
L 10.984375 60.40625 
L 10.984375 69.390625 
L 28.421875 72.90625 
L 38.28125 72.90625 
L 38.28125 8.296875 
L 54.390625 8.296875 
L 54.390625 0 
L 12.40625 0 
z
" id="DejaVuSans-49"/>
      </defs>
      <g transform="translate(405.17625 322.182437)scale(0.1 -0.1)">
       <use xlink:href="#DejaVuSans-49"/>
       <use x="63.623047" xlink:href="#DejaVuSans-48"/>
       <use x="127.246094" xlink:href="#DejaVuSans-48"/>
      </g>
     </g>
    </g>
    <g id="text_7">
     <!-- size -->
     <defs>
      <path d="M 44.28125 53.078125 
L 44.28125 44.578125 
Q 40.484375 46.53125 36.375 47.5 
Q 32.28125 48.484375 27.875 48.484375 
Q 21.1875 48.484375 17.84375 46.4375 
Q 14.5 44.390625 14.5 40.28125 
Q 14.5 37.15625 16.890625 35.375 
Q 19.28125 33.59375 26.515625 31.984375 
L 29.59375 31.296875 
Q 39.15625 29.25 43.1875 25.515625 
Q 47.21875 21.78125 47.21875 15.09375 
Q 47.21875 7.46875 41.1875 3.015625 
Q 35.15625 -1.421875 24.609375 -1.421875 
Q 20.21875 -1.421875 15.453125 -0.5625 
Q 10.6875 0.296875 5.421875 2 
L 5.421875 11.28125 
Q 10.40625 8.6875 15.234375 7.390625 
Q 20.0625 6.109375 24.8125 6.109375 
Q 31.15625 6.109375 34.5625 8.28125 
Q 37.984375 10.453125 37.984375 14.40625 
Q 37.984375 18.0625 35.515625 20.015625 
Q 33.0625 21.96875 24.703125 23.78125 
L 21.578125 24.515625 
Q 13.234375 26.265625 9.515625 29.90625 
Q 5.8125 33.546875 5.8125 39.890625 
Q 5.8125 47.609375 11.28125 51.796875 
Q 16.75 56 26.8125 56 
Q 31.78125 56 36.171875 55.265625 
Q 40.578125 54.546875 44.28125 53.078125 
z
" id="DejaVuSans-115"/>
      <path d="M 9.421875 54.6875 
L 18.40625 54.6875 
L 18.40625 0 
L 9.421875 0 
z
M 9.421875 75.984375 
L 18.40625 75.984375 
L 18.40625 64.59375 
L 9.421875 64.59375 
z
" id="DejaVuSans-105"/>
      <path d="M 5.515625 54.6875 
L 48.1875 54.6875 
L 48.1875 46.484375 
L 14.40625 7.171875 
L 48.1875 7.171875 
L 48.1875 0 
L 4.296875 0 
L 4.296875 8.203125 
L 38.09375 47.515625 
L 5.515625 47.515625 
z
" id="DejaVuSans-122"/>
      <path d="M 56.203125 29.59375 
L 56.203125 25.203125 
L 14.890625 25.203125 
Q 15.484375 15.921875 20.484375 11.0625 
Q 25.484375 6.203125 34.421875 6.203125 
Q 39.59375 6.203125 44.453125 7.46875 
Q 49.3125 8.734375 54.109375 11.28125 
L 54.109375 2.78125 
Q 49.265625 0.734375 44.1875 -0.34375 
Q 39.109375 -1.421875 33.890625 -1.421875 
Q 20.796875 -1.421875 13.15625 6.1875 
Q 5.515625 13.8125 5.515625 26.8125 
Q 5.515625 40.234375 12.765625 48.109375 
Q 20.015625 56 32.328125 56 
Q 43.359375 56 49.78125 48.890625 
Q 56.203125 41.796875 56.203125 29.59375 
z
M 47.21875 32.234375 
Q 47.125 39.59375 43.09375 43.984375 
Q 39.0625 48.390625 32.421875 48.390625 
Q 24.90625 48.390625 20.390625 44.140625 
Q 15.875 39.890625 15.1875 32.171875 
z
" id="DejaVuSans-101"/>
     </defs>
     <g transform="translate(226.465469 335.860562)scale(0.1 -0.1)">
      <use xlink:href="#DejaVuSans-115"/>
      <use x="52.099609" xlink:href="#DejaVuSans-105"/>
      <use x="79.882812" xlink:href="#DejaVuSans-122"/>
      <use x="132.373047" xlink:href="#DejaVuSans-101"/>
     </g>
    </g>
   </g>
   <g id="matplotlib.axis_2">
    <g id="ytick_1">
     <g id="line2d_7">
      <defs>
       <path d="M 0 0 
L -3.5 0 
" id="me9b4d1bc33" style="stroke:#000000;stroke-width:0.8;"/>
      </defs>
      <g>
       <use style="stroke:#000000;stroke-width:0.8;" x="57.6" xlink:href="#me9b4d1bc33" y="287.344776"/>
      </g>
     </g>
     <g id="text_8">
      <!-- 40 -->
      <g transform="translate(37.875 291.143994)scale(0.1 -0.1)">
       <use xlink:href="#DejaVuSans-52"/>
       <use x="63.623047" xlink:href="#DejaVuSans-48"/>
      </g>
     </g>
    </g>
    <g id="ytick_2">
     <g id="line2d_8">
      <g>
       <use style="stroke:#000000;stroke-width:0.8;" x="57.6" xlink:href="#me9b4d1bc33" y="248.38198"/>
      </g>
     </g>
     <g id="text_9">
      <!-- 50 -->
      <defs>
       <path d="M 10.796875 72.90625 
L 49.515625 72.90625 
L 49.515625 64.59375 
L 19.828125 64.59375 
L 19.828125 46.734375 
Q 21.96875 47.46875 24.109375 47.828125 
Q 26.265625 48.1875 28.421875 48.1875 
Q 40.625 48.1875 47.75 41.5 
Q 54.890625 34.8125 54.890625 23.390625 
Q 54.890625 11.625 47.5625 5.09375 
Q 40.234375 -1.421875 26.90625 -1.421875 
Q 22.3125 -1.421875 17.546875 -0.640625 
Q 12.796875 0.140625 7.71875 1.703125 
L 7.71875 11.625 
Q 12.109375 9.234375 16.796875 8.0625 
Q 21.484375 6.890625 26.703125 6.890625 
Q 35.15625 6.890625 40.078125 11.328125 
Q 45.015625 15.765625 45.015625 23.390625 
Q 45.015625 31 40.078125 35.4375 
Q 35.15625 39.890625 26.703125 39.890625 
Q 22.75 39.890625 18.8125 39.015625 
Q 14.890625 38.140625 10.796875 36.28125 
z
" id="DejaVuSans-53"/>
      </defs>
      <g transform="translate(37.875 252.181198)scale(0.1 -0.1)">
       <use xlink:href="#DejaVuSans-53"/>
       <use x="63.623047" xlink:href="#DejaVuSans-48"/>
      </g>
     </g>
    </g>
    <g id="ytick_3">
     <g id="line2d_9">
      <g>
       <use style="stroke:#000000;stroke-width:0.8;" x="57.6" xlink:href="#me9b4d1bc33" y="209.419184"/>
      </g>
     </g>
     <g id="text_10">
      <!-- 60 -->
      <g transform="translate(37.875 213.218403)scale(0.1 -0.1)">
       <use xlink:href="#DejaVuSans-54"/>
       <use x="63.623047" xlink:href="#DejaVuSans-48"/>
      </g>
     </g>
    </g>
    <g id="ytick_4">
     <g id="line2d_10">
      <g>
       <use style="stroke:#000000;stroke-width:0.8;" x="57.6" xlink:href="#me9b4d1bc33" y="170.456388"/>
      </g>
     </g>
     <g id="text_11">
      <!-- 70 -->
      <defs>
       <path d="M 8.203125 72.90625 
L 55.078125 72.90625 
L 55.078125 68.703125 
L 28.609375 0 
L 18.3125 0 
L 43.21875 64.59375 
L 8.203125 64.59375 
z
" id="DejaVuSans-55"/>
      </defs>
      <g transform="translate(37.875 174.255607)scale(0.1 -0.1)">
       <use xlink:href="#DejaVuSans-55"/>
       <use x="63.623047" xlink:href="#DejaVuSans-48"/>
      </g>
     </g>
    </g>
    <g id="ytick_5">
     <g id="line2d_11">
      <g>
       <use style="stroke:#000000;stroke-width:0.8;" x="57.6" xlink:href="#me9b4d1bc33" y="131.493592"/>
      </g>
     </g>
     <g id="text_12">
      <!-- 80 -->
      <g transform="translate(37.875 135.292811)scale(0.1 -0.1)">
       <use xlink:href="#DejaVuSans-56"/>
       <use x="63.623047" xlink:href="#DejaVuSans-48"/>
      </g>
     </g>
    </g>
    <g id="ytick_6">
     <g id="line2d_12">
      <g>
       <use style="stroke:#000000;stroke-width:0.8;" x="57.6" xlink:href="#me9b4d1bc33" y="92.530796"/>
      </g>
     </g>
     <g id="text_13">
      <!-- 90 -->
      <defs>
       <path d="M 10.984375 1.515625 
L 10.984375 10.5 
Q 14.703125 8.734375 18.5 7.8125 
Q 22.3125 6.890625 25.984375 6.890625 
Q 35.75 6.890625 40.890625 13.453125 
Q 46.046875 20.015625 46.78125 33.40625 
Q 43.953125 29.203125 39.59375 26.953125 
Q 35.25 24.703125 29.984375 24.703125 
Q 19.046875 24.703125 12.671875 31.3125 
Q 6.296875 37.9375 6.296875 49.421875 
Q 6.296875 60.640625 12.9375 67.421875 
Q 19.578125 74.21875 30.609375 74.21875 
Q 43.265625 74.21875 49.921875 64.515625 
Q 56.59375 54.828125 56.59375 36.375 
Q 56.59375 19.140625 48.40625 8.859375 
Q 40.234375 -1.421875 26.421875 -1.421875 
Q 22.703125 -1.421875 18.890625 -0.6875 
Q 15.09375 0.046875 10.984375 1.515625 
z
M 30.609375 32.421875 
Q 37.25 32.421875 41.125 36.953125 
Q 45.015625 41.5 45.015625 49.421875 
Q 45.015625 57.28125 41.125 61.84375 
Q 37.25 66.40625 30.609375 66.40625 
Q 23.96875 66.40625 20.09375 61.84375 
Q 16.21875 57.28125 16.21875 49.421875 
Q 16.21875 41.5 20.09375 36.953125 
Q 23.96875 32.421875 30.609375 32.421875 
z
" id="DejaVuSans-57"/>
      </defs>
      <g transform="translate(37.875 96.330015)scale(0.1 -0.1)">
       <use xlink:href="#DejaVuSans-57"/>
       <use x="63.623047" xlink:href="#DejaVuSans-48"/>
      </g>
     </g>
    </g>
    <g id="ytick_7">
     <g id="line2d_13">
      <g>
       <use style="stroke:#000000;stroke-width:0.8;" x="57.6" xlink:href="#me9b4d1bc33" y="53.568"/>
      </g>
     </g>
     <g id="text_14">
      <!-- 100 -->
      <g transform="translate(31.5125 57.367219)scale(0.1 -0.1)">
       <use xlink:href="#DejaVuSans-49"/>
       <use x="63.623047" xlink:href="#DejaVuSans-48"/>
       <use x="127.246094" xlink:href="#DejaVuSans-48"/>
      </g>
     </g>
    </g>
    <g id="text_15">
     <!-- recall -->
     <defs>
      <path d="M 41.109375 46.296875 
Q 39.59375 47.171875 37.8125 47.578125 
Q 36.03125 48 33.890625 48 
Q 26.265625 48 22.1875 43.046875 
Q 18.109375 38.09375 18.109375 28.8125 
L 18.109375 0 
L 9.078125 0 
L 9.078125 54.6875 
L 18.109375 54.6875 
L 18.109375 46.1875 
Q 20.953125 51.171875 25.484375 53.578125 
Q 30.03125 56 36.53125 56 
Q 37.453125 56 38.578125 55.875 
Q 39.703125 55.765625 41.0625 55.515625 
z
" id="DejaVuSans-114"/>
      <path d="M 48.78125 52.59375 
L 48.78125 44.1875 
Q 44.96875 46.296875 41.140625 47.34375 
Q 37.3125 48.390625 33.40625 48.390625 
Q 24.65625 48.390625 19.8125 42.84375 
Q 14.984375 37.3125 14.984375 27.296875 
Q 14.984375 17.28125 19.8125 11.734375 
Q 24.65625 6.203125 33.40625 6.203125 
Q 37.3125 6.203125 41.140625 7.25 
Q 44.96875 8.296875 48.78125 10.40625 
L 48.78125 2.09375 
Q 45.015625 0.34375 40.984375 -0.53125 
Q 36.96875 -1.421875 32.421875 -1.421875 
Q 20.0625 -1.421875 12.78125 6.34375 
Q 5.515625 14.109375 5.515625 27.296875 
Q 5.515625 40.671875 12.859375 48.328125 
Q 20.21875 56 33.015625 56 
Q 37.15625 56 41.109375 55.140625 
Q 45.0625 54.296875 48.78125 52.59375 
z
" id="DejaVuSans-99"/>
      <path d="M 34.28125 27.484375 
Q 23.390625 27.484375 19.1875 25 
Q 14.984375 22.515625 14.984375 16.5 
Q 14.984375 11.71875 18.140625 8.90625 
Q 21.296875 6.109375 26.703125 6.109375 
Q 34.1875 6.109375 38.703125 11.40625 
Q 43.21875 16.703125 43.21875 25.484375 
L 43.21875 27.484375 
z
M 52.203125 31.203125 
L 52.203125 0 
L 43.21875 0 
L 43.21875 8.296875 
Q 40.140625 3.328125 35.546875 0.953125 
Q 30.953125 -1.421875 24.3125 -1.421875 
Q 15.921875 -1.421875 10.953125 3.296875 
Q 6 8.015625 6 15.921875 
Q 6 25.140625 12.171875 29.828125 
Q 18.359375 34.515625 30.609375 34.515625 
L 43.21875 34.515625 
L 43.21875 35.40625 
Q 43.21875 41.609375 39.140625 45 
Q 35.0625 48.390625 27.6875 48.390625 
Q 23 48.390625 18.546875 47.265625 
Q 14.109375 46.140625 10.015625 43.890625 
L 10.015625 52.203125 
Q 14.9375 54.109375 19.578125 55.046875 
Q 24.21875 56 28.609375 56 
Q 40.484375 56 46.34375 49.84375 
Q 52.203125 43.703125 52.203125 31.203125 
z
" id="DejaVuSans-97"/>
      <path d="M 9.421875 75.984375 
L 18.40625 75.984375 
L 18.40625 0 
L 9.421875 0 
z
" id="DejaVuSans-108"/>
     </defs>
     <g transform="translate(25.432812 188.249875)rotate(-90)scale(0.1 -0.1)">
      <use xlink:href="#DejaVuSans-114"/>
      <use x="41.082031" xlink:href="#DejaVuSans-101"/>
      <use x="102.605469" xlink:href="#DejaVuSans-99"/>
      <use x="157.585938" xlink:href="#DejaVuSans-97"/>
      <use x="218.865234" xlink:href="#DejaVuSans-108"/>
      <use x="246.648438" xlink:href="#DejaVuSans-108"/>
     </g>
    </g>
   </g>
   <g id="line2d_14">
    <path clip-path="url(#p8d21843353)" d="M 57.635712 53.568 
L 57.671424 53.568 
L 57.707136 57.074652 
L 57.742848 92.219094 
L 57.77856 117.233209 
L 57.814272 191.730074 
L 57.849984 208.484077 
L 57.885696 173.846151 
L 57.921408 116.765655 
L 57.95712 103.362453 
L 58.31424 121.246377 
L 58.67136 98.219364 
L 59.02848 83.997944 
L 59.3856 81.036771 
L 59.74272 76.867752 
L 60.09984 70.828519 
L 60.45696 67.555644 
L 60.81408 53.568 
L 61.1712 53.568 
L 75.456 53.568 
L 93.312 211.990728 
L 111.168 53.568 
L 129.024 232.64101 
L 146.88 65.568541 
L 164.736 242.654449 
L 182.592 95.024415 
L 200.448 266.694494 
L 218.304 105.972961 
L 236.16 261.941033 
L 254.016 149.416478 
L 271.872 248.498868 
L 289.728 125.805024 
L 307.584 248.771608 
L 325.44 157.481777 
L 343.296 264.122949 
L 361.152 167.456253 
L 379.008 262.018958 
L 396.864 136.675644 
L 414.72 262.252735 
" style="fill:none;stroke:#008000;stroke-linecap:square;stroke-width:1.5;"/>
    <defs>
     <path d="M -3 3 
L 3 -3 
M -3 -3 
L 3 3 
" id="mf251134d49" style="stroke:#008000;"/>
    </defs>
    <g clip-path="url(#p8d21843353)">
     <use style="fill:#008000;stroke:#008000;" x="57.635712" xlink:href="#mf251134d49" y="53.568"/>
     <use style="fill:#008000;stroke:#008000;" x="57.671424" xlink:href="#mf251134d49" y="53.568"/>
     <use style="fill:#008000;stroke:#008000;" x="57.707136" xlink:href="#mf251134d49" y="57.074652"/>
     <use style="fill:#008000;stroke:#008000;" x="57.742848" xlink:href="#mf251134d49" y="92.219094"/>
     <use style="fill:#008000;stroke:#008000;" x="57.77856" xlink:href="#mf251134d49" y="117.233209"/>
     <use style="fill:#008000;stroke:#008000;" x="57.814272" xlink:href="#mf251134d49" y="191.730074"/>
     <use style="fill:#008000;stroke:#008000;" x="57.849984" xlink:href="#mf251134d49" y="208.484077"/>
     <use style="fill:#008000;stroke:#008000;" x="57.885696" xlink:href="#mf251134d49" y="173.846151"/>
     <use style="fill:#008000;stroke:#008000;" x="57.921408" xlink:href="#mf251134d49" y="116.765655"/>
     <use style="fill:#008000;stroke:#008000;" x="57.95712" xlink:href="#mf251134d49" y="103.362453"/>
     <use style="fill:#008000;stroke:#008000;" x="58.31424" xlink:href="#mf251134d49" y="121.246377"/>
     <use style="fill:#008000;stroke:#008000;" x="58.67136" xlink:href="#mf251134d49" y="98.219364"/>
     <use style="fill:#008000;stroke:#008000;" x="59.02848" xlink:href="#mf251134d49" y="83.997944"/>
     <use style="fill:#008000;stroke:#008000;" x="59.3856" xlink:href="#mf251134d49" y="81.036771"/>
     <use style="fill:#008000;stroke:#008000;" x="59.74272" xlink:href="#mf251134d49" y="76.867752"/>
     <use style="fill:#008000;stroke:#008000;" x="60.09984" xlink:href="#mf251134d49" y="70.828519"/>
     <use style="fill:#008000;stroke:#008000;" x="60.45696" xlink:href="#mf251134d49" y="67.555644"/>
     <use style="fill:#008000;stroke:#008000;" x="60.81408" xlink:href="#mf251134d49" y="53.568"/>
     <use style="fill:#008000;stroke:#008000;" x="61.1712" xlink:href="#mf251134d49" y="53.568"/>
     <use style="fill:#008000;stroke:#008000;" x="75.456" xlink:href="#mf251134d49" y="53.568"/>
     <use style="fill:#008000;stroke:#008000;" x="93.312" xlink:href="#mf251134d49" y="211.990728"/>
     <use style="fill:#008000;stroke:#008000;" x="111.168" xlink:href="#mf251134d49" y="53.568"/>
     <use style="fill:#008000;stroke:#008000;" x="129.024" xlink:href="#mf251134d49" y="232.64101"/>
     <use style="fill:#008000;stroke:#008000;" x="146.88" xlink:href="#mf251134d49" y="65.568541"/>
     <use style="fill:#008000;stroke:#008000;" x="164.736" xlink:href="#mf251134d49" y="242.654449"/>
     <use style="fill:#008000;stroke:#008000;" x="182.592" xlink:href="#mf251134d49" y="95.024415"/>
     <use style="fill:#008000;stroke:#008000;" x="200.448" xlink:href="#mf251134d49" y="266.694494"/>
     <use style="fill:#008000;stroke:#008000;" x="218.304" xlink:href="#mf251134d49" y="105.972961"/>
     <use style="fill:#008000;stroke:#008000;" x="236.16" xlink:href="#mf251134d49" y="261.941033"/>
     <use style="fill:#008000;stroke:#008000;" x="254.016" xlink:href="#mf251134d49" y="149.416478"/>
     <use style="fill:#008000;stroke:#008000;" x="271.872" xlink:href="#mf251134d49" y="248.498868"/>
     <use style="fill:#008000;stroke:#008000;" x="289.728" xlink:href="#mf251134d49" y="125.805024"/>
     <use style="fill:#008000;stroke:#008000;" x="307.584" xlink:href="#mf251134d49" y="248.771608"/>
     <use style="fill:#008000;stroke:#008000;" x="325.44" xlink:href="#mf251134d49" y="157.481777"/>
     <use style="fill:#008000;stroke:#008000;" x="343.296" xlink:href="#mf251134d49" y="264.122949"/>
     <use style="fill:#008000;stroke:#008000;" x="361.152" xlink:href="#mf251134d49" y="167.456253"/>
     <use style="fill:#008000;stroke:#008000;" x="379.008" xlink:href="#mf251134d49" y="262.018958"/>
     <use style="fill:#008000;stroke:#008000;" x="396.864" xlink:href="#mf251134d49" y="136.675644"/>
     <use style="fill:#008000;stroke:#008000;" x="414.72" xlink:href="#mf251134d49" y="262.252735"/>
    </g>
   </g>
   <g id="line2d_15">
    <path clip-path="url(#p8d21843353)" d="M 57.635712 53.568 
L 57.671424 53.568 
L 57.707136 90.699545 
L 57.742848 221.887278 
L 57.77856 250.135306 
L 57.814272 234.082634 
L 57.849984 281.227617 
L 57.885696 267.629601 
L 57.921408 190.054674 
L 57.95712 273.668834 
L 58.31424 116.648767 
L 58.67136 53.568 
L 59.02848 64.399657 
L 59.3856 60.737154 
L 59.74272 54.658958 
L 60.09984 55.555103 
L 60.45696 53.801777 
L 60.81408 53.568 
L 61.1712 53.568 
L 75.456 56.568135 
L 93.312 223.796455 
L 111.168 55.710954 
L 129.024 216.666264 
L 146.88 60.347526 
L 164.736 218.614404 
L 182.592 53.918665 
L 200.448 225.822521 
L 218.304 73.984505 
L 236.16 242.693411 
L 254.016 62.256703 
L 271.872 240.043941 
L 289.728 72.542882 
L 307.584 236.693141 
L 325.44 94.089308 
L 343.296 241.329714 
L 361.152 103.245565 
L 379.008 236.96588 
L 396.864 90.816433 
L 414.72 240.589421 
" style="fill:none;stroke:#ff0000;stroke-linecap:square;stroke-width:1.5;"/>
    <defs>
     <path d="M 0 3 
C 0.795609 3 1.55874 2.683901 2.12132 2.12132 
C 2.683901 1.55874 3 0.795609 3 0 
C 3 -0.795609 2.683901 -1.55874 2.12132 -2.12132 
C 1.55874 -2.683901 0.795609 -3 0 -3 
C -0.795609 -3 -1.55874 -2.683901 -2.12132 -2.12132 
C -2.683901 -1.55874 -3 -0.795609 -3 0 
C -3 0.795609 -2.683901 1.55874 -2.12132 2.12132 
C -1.55874 2.683901 -0.795609 3 0 3 
z
" id="m7b3ad66b40" style="stroke:#ff0000;"/>
    </defs>
    <g clip-path="url(#p8d21843353)">
     <use style="fill:#ff0000;stroke:#ff0000;" x="57.635712" xlink:href="#m7b3ad66b40" y="53.568"/>
     <use style="fill:#ff0000;stroke:#ff0000;" x="57.671424" xlink:href="#m7b3ad66b40" y="53.568"/>
     <use style="fill:#ff0000;stroke:#ff0000;" x="57.707136" xlink:href="#m7b3ad66b40" y="90.699545"/>
     <use style="fill:#ff0000;stroke:#ff0000;" x="57.742848" xlink:href="#m7b3ad66b40" y="221.887278"/>
     <use style="fill:#ff0000;stroke:#ff0000;" x="57.77856" xlink:href="#m7b3ad66b40" y="250.135306"/>
     <use style="fill:#ff0000;stroke:#ff0000;" x="57.814272" xlink:href="#m7b3ad66b40" y="234.082634"/>
     <use style="fill:#ff0000;stroke:#ff0000;" x="57.849984" xlink:href="#m7b3ad66b40" y="281.227617"/>
     <use style="fill:#ff0000;stroke:#ff0000;" x="57.885696" xlink:href="#m7b3ad66b40" y="267.629601"/>
     <use style="fill:#ff0000;stroke:#ff0000;" x="57.921408" xlink:href="#m7b3ad66b40" y="190.054674"/>
     <use style="fill:#ff0000;stroke:#ff0000;" x="57.95712" xlink:href="#m7b3ad66b40" y="273.668834"/>
     <use style="fill:#ff0000;stroke:#ff0000;" x="58.31424" xlink:href="#m7b3ad66b40" y="116.648767"/>
     <use style="fill:#ff0000;stroke:#ff0000;" x="58.67136" xlink:href="#m7b3ad66b40" y="53.568"/>
     <use style="fill:#ff0000;stroke:#ff0000;" x="59.02848" xlink:href="#m7b3ad66b40" y="64.399657"/>
     <use style="fill:#ff0000;stroke:#ff0000;" x="59.3856" xlink:href="#m7b3ad66b40" y="60.737154"/>
     <use style="fill:#ff0000;stroke:#ff0000;" x="59.74272" xlink:href="#m7b3ad66b40" y="54.658958"/>
     <use style="fill:#ff0000;stroke:#ff0000;" x="60.09984" xlink:href="#m7b3ad66b40" y="55.555103"/>
     <use style="fill:#ff0000;stroke:#ff0000;" x="60.45696" xlink:href="#m7b3ad66b40" y="53.801777"/>
     <use style="fill:#ff0000;stroke:#ff0000;" x="60.81408" xlink:href="#m7b3ad66b40" y="53.568"/>
     <use style="fill:#ff0000;stroke:#ff0000;" x="61.1712" xlink:href="#m7b3ad66b40" y="53.568"/>
     <use style="fill:#ff0000;stroke:#ff0000;" x="75.456" xlink:href="#m7b3ad66b40" y="56.568135"/>
     <use style="fill:#ff0000;stroke:#ff0000;" x="93.312" xlink:href="#m7b3ad66b40" y="223.796455"/>
     <use style="fill:#ff0000;stroke:#ff0000;" x="111.168" xlink:href="#m7b3ad66b40" y="55.710954"/>
     <use style="fill:#ff0000;stroke:#ff0000;" x="129.024" xlink:href="#m7b3ad66b40" y="216.666264"/>
     <use style="fill:#ff0000;stroke:#ff0000;" x="146.88" xlink:href="#m7b3ad66b40" y="60.347526"/>
     <use style="fill:#ff0000;stroke:#ff0000;" x="164.736" xlink:href="#m7b3ad66b40" y="218.614404"/>
     <use style="fill:#ff0000;stroke:#ff0000;" x="182.592" xlink:href="#m7b3ad66b40" y="53.918665"/>
     <use style="fill:#ff0000;stroke:#ff0000;" x="200.448" xlink:href="#m7b3ad66b40" y="225.822521"/>
     <use style="fill:#ff0000;stroke:#ff0000;" x="218.304" xlink:href="#m7b3ad66b40" y="73.984505"/>
     <use style="fill:#ff0000;stroke:#ff0000;" x="236.16" xlink:href="#m7b3ad66b40" y="242.693411"/>
     <use style="fill:#ff0000;stroke:#ff0000;" x="254.016" xlink:href="#m7b3ad66b40" y="62.256703"/>
     <use style="fill:#ff0000;stroke:#ff0000;" x="271.872" xlink:href="#m7b3ad66b40" y="240.043941"/>
     <use style="fill:#ff0000;stroke:#ff0000;" x="289.728" xlink:href="#m7b3ad66b40" y="72.542882"/>
     <use style="fill:#ff0000;stroke:#ff0000;" x="307.584" xlink:href="#m7b3ad66b40" y="236.693141"/>
     <use style="fill:#ff0000;stroke:#ff0000;" x="325.44" xlink:href="#m7b3ad66b40" y="94.089308"/>
     <use style="fill:#ff0000;stroke:#ff0000;" x="343.296" xlink:href="#m7b3ad66b40" y="241.329714"/>
     <use style="fill:#ff0000;stroke:#ff0000;" x="361.152" xlink:href="#m7b3ad66b40" y="103.245565"/>
     <use style="fill:#ff0000;stroke:#ff0000;" x="379.008" xlink:href="#m7b3ad66b40" y="236.96588"/>
     <use style="fill:#ff0000;stroke:#ff0000;" x="396.864" xlink:href="#m7b3ad66b40" y="90.816433"/>
     <use style="fill:#ff0000;stroke:#ff0000;" x="414.72" xlink:href="#m7b3ad66b40" y="240.589421"/>
    </g>
   </g>
   <g id="line2d_16">
    <path clip-path="url(#p8d21843353)" d="M 57.635712 53.568 
L 57.671424 53.568 
L 57.707136 56.256433 
L 57.742848 75.270277 
L 57.77856 93.504866 
L 57.814272 119.493051 
L 57.849984 161.455982 
L 57.885696 125.415396 
L 57.921408 104.959928 
L 57.95712 92.686647 
L 58.31424 78.348338 
L 58.67136 56.685024 
L 59.02848 53.568 
L 59.3856 53.568 
L 59.74272 53.568 
L 60.09984 53.568 
L 60.45696 53.568 
L 60.81408 53.568 
L 61.1712 53.568 
L 75.456 53.568 
L 93.312 223.250976 
L 111.168 53.568 
L 129.024 247.563761 
L 146.88 54.074516 
L 164.736 256.758981 
L 182.592 57.308428 
L 200.448 237.51136 
L 218.304 66.581574 
L 236.16 265.447684 
L 254.016 76.55605 
L 271.872 280.29251 
L 289.728 79.322408 
L 307.584 278.850886 
L 325.44 84.972014 
L 343.296 266.382791 
L 361.152 79.361371 
L 379.008 271.019364 
L 396.864 96.466038 
L 414.72 287.96818 
" style="fill:none;stroke:#0000ff;stroke-linecap:square;stroke-width:1.5;"/>
    <defs>
     <path d="M -3 0 
L 3 0 
M 0 3 
L 0 -3 
" id="m2e7e1f51b1" style="stroke:#0000ff;"/>
    </defs>
    <g clip-path="url(#p8d21843353)">
     <use style="fill:#0000ff;stroke:#0000ff;" x="57.635712" xlink:href="#m2e7e1f51b1" y="53.568"/>
     <use style="fill:#0000ff;stroke:#0000ff;" x="57.671424" xlink:href="#m2e7e1f51b1" y="53.568"/>
     <use style="fill:#0000ff;stroke:#0000ff;" x="57.707136" xlink:href="#m2e7e1f51b1" y="56.256433"/>
     <use style="fill:#0000ff;stroke:#0000ff;" x="57.742848" xlink:href="#m2e7e1f51b1" y="75.270277"/>
     <use style="fill:#0000ff;stroke:#0000ff;" x="57.77856" xlink:href="#m2e7e1f51b1" y="93.504866"/>
     <use style="fill:#0000ff;stroke:#0000ff;" x="57.814272" xlink:href="#m2e7e1f51b1" y="119.493051"/>
     <use style="fill:#0000ff;stroke:#0000ff;" x="57.849984" xlink:href="#m2e7e1f51b1" y="161.455982"/>
     <use style="fill:#0000ff;stroke:#0000ff;" x="57.885696" xlink:href="#m2e7e1f51b1" y="125.415396"/>
     <use style="fill:#0000ff;stroke:#0000ff;" x="57.921408" xlink:href="#m2e7e1f51b1" y="104.959928"/>
     <use style="fill:#0000ff;stroke:#0000ff;" x="57.95712" xlink:href="#m2e7e1f51b1" y="92.686647"/>
     <use style="fill:#0000ff;stroke:#0000ff;" x="58.31424" xlink:href="#m2e7e1f51b1" y="78.348338"/>
     <use style="fill:#0000ff;stroke:#0000ff;" x="58.67136" xlink:href="#m2e7e1f51b1" y="56.685024"/>
     <use style="fill:#0000ff;stroke:#0000ff;" x="59.02848" xlink:href="#m2e7e1f51b1" y="53.568"/>
     <use style="fill:#0000ff;stroke:#0000ff;" x="59.3856" xlink:href="#m2e7e1f51b1" y="53.568"/>
     <use style="fill:#0000ff;stroke:#0000ff;" x="59.74272" xlink:href="#m2e7e1f51b1" y="53.568"/>
     <use style="fill:#0000ff;stroke:#0000ff;" x="60.09984" xlink:href="#m2e7e1f51b1" y="53.568"/>
     <use style="fill:#0000ff;stroke:#0000ff;" x="60.45696" xlink:href="#m2e7e1f51b1" y="53.568"/>
     <use style="fill:#0000ff;stroke:#0000ff;" x="60.81408" xlink:href="#m2e7e1f51b1" y="53.568"/>
     <use style="fill:#0000ff;stroke:#0000ff;" x="61.1712" xlink:href="#m2e7e1f51b1" y="53.568"/>
     <use style="fill:#0000ff;stroke:#0000ff;" x="75.456" xlink:href="#m2e7e1f51b1" y="53.568"/>
     <use style="fill:#0000ff;stroke:#0000ff;" x="93.312" xlink:href="#m2e7e1f51b1" y="223.250976"/>
     <use style="fill:#0000ff;stroke:#0000ff;" x="111.168" xlink:href="#m2e7e1f51b1" y="53.568"/>
     <use style="fill:#0000ff;stroke:#0000ff;" x="129.024" xlink:href="#m2e7e1f51b1" y="247.563761"/>
     <use style="fill:#0000ff;stroke:#0000ff;" x="146.88" xlink:href="#m2e7e1f51b1" y="54.074516"/>
     <use style="fill:#0000ff;stroke:#0000ff;" x="164.736" xlink:href="#m2e7e1f51b1" y="256.758981"/>
     <use style="fill:#0000ff;stroke:#0000ff;" x="182.592" xlink:href="#m2e7e1f51b1" y="57.308428"/>
     <use style="fill:#0000ff;stroke:#0000ff;" x="200.448" xlink:href="#m2e7e1f51b1" y="237.51136"/>
     <use style="fill:#0000ff;stroke:#0000ff;" x="218.304" xlink:href="#m2e7e1f51b1" y="66.581574"/>
     <use style="fill:#0000ff;stroke:#0000ff;" x="236.16" xlink:href="#m2e7e1f51b1" y="265.447684"/>
     <use style="fill:#0000ff;stroke:#0000ff;" x="254.016" xlink:href="#m2e7e1f51b1" y="76.55605"/>
     <use style="fill:#0000ff;stroke:#0000ff;" x="271.872" xlink:href="#m2e7e1f51b1" y="280.29251"/>
     <use style="fill:#0000ff;stroke:#0000ff;" x="289.728" xlink:href="#m2e7e1f51b1" y="79.322408"/>
     <use style="fill:#0000ff;stroke:#0000ff;" x="307.584" xlink:href="#m2e7e1f51b1" y="278.850886"/>
     <use style="fill:#0000ff;stroke:#0000ff;" x="325.44" xlink:href="#m2e7e1f51b1" y="84.972014"/>
     <use style="fill:#0000ff;stroke:#0000ff;" x="343.296" xlink:href="#m2e7e1f51b1" y="266.382791"/>
     <use style="fill:#0000ff;stroke:#0000ff;" x="361.152" xlink:href="#m2e7e1f51b1" y="79.361371"/>
     <use style="fill:#0000ff;stroke:#0000ff;" x="379.008" xlink:href="#m2e7e1f51b1" y="271.019364"/>
     <use style="fill:#0000ff;stroke:#0000ff;" x="396.864" xlink:href="#m2e7e1f51b1" y="96.466038"/>
     <use style="fill:#0000ff;stroke:#0000ff;" x="414.72" xlink:href="#m2e7e1f51b1" y="287.96818"/>
    </g>
   </g>
   <g id="line2d_17">
    <path clip-path="url(#p8d21843353)" d="M 57.635712 53.568 
L 57.671424 53.568 
L 57.707136 53.568 
L 57.742848 53.568 
L 57.77856 189.353344 
L 57.814272 197.652419 
L 57.849984 168.235508 
L 57.885696 177.547617 
L 57.921408 125.532284 
L 57.95712 130.324708 
L 58.31424 97.362183 
L 58.67136 92.219094 
L 59.02848 79.63411 
L 59.3856 76.322273 
L 59.74272 75.815756 
L 60.09984 75.30924 
L 60.45696 75.30924 
L 60.81408 74.062431 
L 61.1712 73.750728 
L 75.456 68.880379 
L 93.312 216.861078 
L 111.168 66.581574 
L 129.024 219.432622 
L 146.88 64.048992 
L 164.736 246.511766 
L 182.592 67.08809 
L 200.448 210.276365 
L 218.304 69.698598 
L 236.16 242.8103 
L 254.016 69.386895 
L 271.872 265.369759 
L 289.728 66.776388 
L 307.584 292.059274 
L 325.44 68.023197 
L 343.296 291.085204 
L 361.152 65.724392 
L 379.008 275.266309 
L 396.864 67.36083 
L 414.72 295.488 
" style="fill:none;stroke:#000000;stroke-linecap:square;stroke-width:1.5;"/>
    <defs>
     <path d="M -3 3 
L 3 3 
L 3 -3 
L -3 -3 
z
" id="m7d357f276c" style="stroke:#000000;stroke-linejoin:miter;"/>
    </defs>
    <g clip-path="url(#p8d21843353)">
     <use style="stroke:#000000;stroke-linejoin:miter;" x="57.635712" xlink:href="#m7d357f276c" y="53.568"/>
     <use style="stroke:#000000;stroke-linejoin:miter;" x="57.671424" xlink:href="#m7d357f276c" y="53.568"/>
     <use style="stroke:#000000;stroke-linejoin:miter;" x="57.707136" xlink:href="#m7d357f276c" y="53.568"/>
     <use style="stroke:#000000;stroke-linejoin:miter;" x="57.742848" xlink:href="#m7d357f276c" y="53.568"/>
     <use style="stroke:#000000;stroke-linejoin:miter;" x="57.77856" xlink:href="#m7d357f276c" y="189.353344"/>
     <use style="stroke:#000000;stroke-linejoin:miter;" x="57.814272" xlink:href="#m7d357f276c" y="197.652419"/>
     <use style="stroke:#000000;stroke-linejoin:miter;" x="57.849984" xlink:href="#m7d357f276c" y="168.235508"/>
     <use style="stroke:#000000;stroke-linejoin:miter;" x="57.885696" xlink:href="#m7d357f276c" y="177.547617"/>
     <use style="stroke:#000000;stroke-linejoin:miter;" x="57.921408" xlink:href="#m7d357f276c" y="125.532284"/>
     <use style="stroke:#000000;stroke-linejoin:miter;" x="57.95712" xlink:href="#m7d357f276c" y="130.324708"/>
     <use style="stroke:#000000;stroke-linejoin:miter;" x="58.31424" xlink:href="#m7d357f276c" y="97.362183"/>
     <use style="stroke:#000000;stroke-linejoin:miter;" x="58.67136" xlink:href="#m7d357f276c" y="92.219094"/>
     <use style="stroke:#000000;stroke-linejoin:miter;" x="59.02848" xlink:href="#m7d357f276c" y="79.63411"/>
     <use style="stroke:#000000;stroke-linejoin:miter;" x="59.3856" xlink:href="#m7d357f276c" y="76.322273"/>
     <use style="stroke:#000000;stroke-linejoin:miter;" x="59.74272" xlink:href="#m7d357f276c" y="75.815756"/>
     <use style="stroke:#000000;stroke-linejoin:miter;" x="60.09984" xlink:href="#m7d357f276c" y="75.30924"/>
     <use style="stroke:#000000;stroke-linejoin:miter;" x="60.45696" xlink:href="#m7d357f276c" y="75.30924"/>
     <use style="stroke:#000000;stroke-linejoin:miter;" x="60.81408" xlink:href="#m7d357f276c" y="74.062431"/>
     <use style="stroke:#000000;stroke-linejoin:miter;" x="61.1712" xlink:href="#m7d357f276c" y="73.750728"/>
     <use style="stroke:#000000;stroke-linejoin:miter;" x="75.456" xlink:href="#m7d357f276c" y="68.880379"/>
     <use style="stroke:#000000;stroke-linejoin:miter;" x="93.312" xlink:href="#m7d357f276c" y="216.861078"/>
     <use style="stroke:#000000;stroke-linejoin:miter;" x="111.168" xlink:href="#m7d357f276c" y="66.581574"/>
     <use style="stroke:#000000;stroke-linejoin:miter;" x="129.024" xlink:href="#m7d357f276c" y="219.432622"/>
     <use style="stroke:#000000;stroke-linejoin:miter;" x="146.88" xlink:href="#m7d357f276c" y="64.048992"/>
     <use style="stroke:#000000;stroke-linejoin:miter;" x="164.736" xlink:href="#m7d357f276c" y="246.511766"/>
     <use style="stroke:#000000;stroke-linejoin:miter;" x="182.592" xlink:href="#m7d357f276c" y="67.08809"/>
     <use style="stroke:#000000;stroke-linejoin:miter;" x="200.448" xlink:href="#m7d357f276c" y="210.276365"/>
     <use style="stroke:#000000;stroke-linejoin:miter;" x="218.304" xlink:href="#m7d357f276c" y="69.698598"/>
     <use style="stroke:#000000;stroke-linejoin:miter;" x="236.16" xlink:href="#m7d357f276c" y="242.8103"/>
     <use style="stroke:#000000;stroke-linejoin:miter;" x="254.016" xlink:href="#m7d357f276c" y="69.386895"/>
     <use style="stroke:#000000;stroke-linejoin:miter;" x="271.872" xlink:href="#m7d357f276c" y="265.369759"/>
     <use style="stroke:#000000;stroke-linejoin:miter;" x="289.728" xlink:href="#m7d357f276c" y="66.776388"/>
     <use style="stroke:#000000;stroke-linejoin:miter;" x="307.584" xlink:href="#m7d357f276c" y="292.059274"/>
     <use style="stroke:#000000;stroke-linejoin:miter;" x="325.44" xlink:href="#m7d357f276c" y="68.023197"/>
     <use style="stroke:#000000;stroke-linejoin:miter;" x="343.296" xlink:href="#m7d357f276c" y="291.085204"/>
     <use style="stroke:#000000;stroke-linejoin:miter;" x="361.152" xlink:href="#m7d357f276c" y="65.724392"/>
     <use style="stroke:#000000;stroke-linejoin:miter;" x="379.008" xlink:href="#m7d357f276c" y="275.266309"/>
     <use style="stroke:#000000;stroke-linejoin:miter;" x="396.864" xlink:href="#m7d357f276c" y="67.36083"/>
     <use style="stroke:#000000;stroke-linejoin:miter;" x="414.72" xlink:href="#m7d357f276c" y="295.488"/>
    </g>
   </g>
   <g id="patch_3">
    <path d="M 57.6 307.584 
L 57.6 41.472 
" style="fill:none;stroke:#000000;stroke-linecap:square;stroke-linejoin:miter;stroke-width:0.8;"/>
   </g>
   <g id="patch_4">
    <path d="M 414.72 307.584 
L 414.72 41.472 
" style="fill:none;stroke:#000000;stroke-linecap:square;stroke-linejoin:miter;stroke-width:0.8;"/>
   </g>
   <g id="patch_5">
    <path d="M 57.6 307.584 
L 414.72 307.584 
" style="fill:none;stroke:#000000;stroke-linecap:square;stroke-linejoin:miter;stroke-width:0.8;"/>
   </g>
   <g id="patch_6">
    <path d="M 57.6 41.472 
L 414.72 41.472 
" style="fill:none;stroke:#000000;stroke-linecap:square;stroke-linejoin:miter;stroke-width:0.8;"/>
   </g>
   <g id="text_16">
    <!-- libmesh: size vs recall -->
    <defs>
     <path d="M 48.6875 27.296875 
Q 48.6875 37.203125 44.609375 42.84375 
Q 40.53125 48.484375 33.40625 48.484375 
Q 26.265625 48.484375 22.1875 42.84375 
Q 18.109375 37.203125 18.109375 27.296875 
Q 18.109375 17.390625 22.1875 11.75 
Q 26.265625 6.109375 33.40625 6.109375 
Q 40.53125 6.109375 44.609375 11.75 
Q 48.6875 17.390625 48.6875 27.296875 
z
M 18.109375 46.390625 
Q 20.953125 51.265625 25.265625 53.625 
Q 29.59375 56 35.59375 56 
Q 45.5625 56 51.78125 48.09375 
Q 58.015625 40.1875 58.015625 27.296875 
Q 58.015625 14.40625 51.78125 6.484375 
Q 45.5625 -1.421875 35.59375 -1.421875 
Q 29.59375 -1.421875 25.265625 0.953125 
Q 20.953125 3.328125 18.109375 8.203125 
L 18.109375 0 
L 9.078125 0 
L 9.078125 75.984375 
L 18.109375 75.984375 
z
" id="DejaVuSans-98"/>
     <path d="M 52 44.1875 
Q 55.375 50.25 60.0625 53.125 
Q 64.75 56 71.09375 56 
Q 79.640625 56 84.28125 50.015625 
Q 88.921875 44.046875 88.921875 33.015625 
L 88.921875 0 
L 79.890625 0 
L 79.890625 32.71875 
Q 79.890625 40.578125 77.09375 44.375 
Q 74.3125 48.1875 68.609375 48.1875 
Q 61.625 48.1875 57.5625 43.546875 
Q 53.515625 38.921875 53.515625 30.90625 
L 53.515625 0 
L 44.484375 0 
L 44.484375 32.71875 
Q 44.484375 40.625 41.703125 44.40625 
Q 38.921875 48.1875 33.109375 48.1875 
Q 26.21875 48.1875 22.15625 43.53125 
Q 18.109375 38.875 18.109375 30.90625 
L 18.109375 0 
L 9.078125 0 
L 9.078125 54.6875 
L 18.109375 54.6875 
L 18.109375 46.1875 
Q 21.1875 51.21875 25.484375 53.609375 
Q 29.78125 56 35.6875 56 
Q 41.65625 56 45.828125 52.96875 
Q 50 49.953125 52 44.1875 
z
" id="DejaVuSans-109"/>
     <path d="M 54.890625 33.015625 
L 54.890625 0 
L 45.90625 0 
L 45.90625 32.71875 
Q 45.90625 40.484375 42.875 44.328125 
Q 39.84375 48.1875 33.796875 48.1875 
Q 26.515625 48.1875 22.3125 43.546875 
Q 18.109375 38.921875 18.109375 30.90625 
L 18.109375 0 
L 9.078125 0 
L 9.078125 75.984375 
L 18.109375 75.984375 
L 18.109375 46.1875 
Q 21.34375 51.125 25.703125 53.5625 
Q 30.078125 56 35.796875 56 
Q 45.21875 56 50.046875 50.171875 
Q 54.890625 44.34375 54.890625 33.015625 
z
" id="DejaVuSans-104"/>
     <path d="M 11.71875 12.40625 
L 22.015625 12.40625 
L 22.015625 0 
L 11.71875 0 
z
M 11.71875 51.703125 
L 22.015625 51.703125 
L 22.015625 39.3125 
L 11.71875 39.3125 
z
" id="DejaVuSans-58"/>
     <path id="DejaVuSans-32"/>
     <path d="M 2.984375 54.6875 
L 12.5 54.6875 
L 29.59375 8.796875 
L 46.6875 54.6875 
L 56.203125 54.6875 
L 35.6875 0 
L 23.484375 0 
z
" id="DejaVuSans-118"/>
    </defs>
    <g transform="translate(170.034375 35.472)scale(0.12 -0.12)">
     <use xlink:href="#DejaVuSans-108"/>
     <use x="27.783203" xlink:href="#DejaVuSans-105"/>
     <use x="55.566406" xlink:href="#DejaVuSans-98"/>
     <use x="119.042969" xlink:href="#DejaVuSans-109"/>
     <use x="216.455078" xlink:href="#DejaVuSans-101"/>
     <use x="277.978516" xlink:href="#DejaVuSans-115"/>
     <use x="330.078125" xlink:href="#DejaVuSans-104"/>
     <use x="393.457031" xlink:href="#DejaVuSans-58"/>
     <use x="427.148438" xlink:href="#DejaVuSans-32"/>
     <use x="458.935547" xlink:href="#DejaVuSans-115"/>
     <use x="511.035156" xlink:href="#DejaVuSans-105"/>
     <use x="538.818359" xlink:href="#DejaVuSans-122"/>
     <use x="591.308594" xlink:href="#DejaVuSans-101"/>
     <use x="652.832031" xlink:href="#DejaVuSans-32"/>
     <use x="684.619141" xlink:href="#DejaVuSans-118"/>
     <use x="743.798828" xlink:href="#DejaVuSans-115"/>
     <use x="795.898438" xlink:href="#DejaVuSans-32"/>
     <use x="827.685547" xlink:href="#DejaVuSans-114"/>
     <use x="868.767578" xlink:href="#DejaVuSans-101"/>
     <use x="930.291016" xlink:href="#DejaVuSans-99"/>
     <use x="985.271484" xlink:href="#DejaVuSans-97"/>
     <use x="1046.550781" xlink:href="#DejaVuSans-108"/>
     <use x="1074.333984" xlink:href="#DejaVuSans-108"/>
    </g>
   </g>
   <g id="legend_1">
    <g id="patch_7">
     <path d="M 64.6 302.584 
L 123.46875 302.584 
Q 125.46875 302.584 125.46875 300.584 
L 125.46875 242.8715 
Q 125.46875 240.8715 123.46875 240.8715 
L 64.6 240.8715 
Q 62.6 240.8715 62.6 242.8715 
L 62.6 300.584 
Q 62.6 302.584 64.6 302.584 
z
" style="fill:#ffffff;opacity:0.8;stroke:#cccccc;stroke-linejoin:miter;"/>
    </g>
    <g id="line2d_18">
     <path d="M 66.6 248.969937 
L 86.6 248.969937 
" style="fill:none;stroke:#008000;stroke-linecap:square;stroke-width:1.5;"/>
    </g>
    <g id="line2d_19">
     <g>
      <use style="fill:#008000;stroke:#008000;" x="76.6" xlink:href="#mf251134d49" y="248.969937"/>
     </g>
    </g>
    <g id="text_17">
     <!-- CART -->
     <defs>
      <path d="M 64.40625 67.28125 
L 64.40625 56.890625 
Q 59.421875 61.53125 53.78125 63.8125 
Q 48.140625 66.109375 41.796875 66.109375 
Q 29.296875 66.109375 22.65625 58.46875 
Q 16.015625 50.828125 16.015625 36.375 
Q 16.015625 21.96875 22.65625 14.328125 
Q 29.296875 6.6875 41.796875 6.6875 
Q 48.140625 6.6875 53.78125 8.984375 
Q 59.421875 11.28125 64.40625 15.921875 
L 64.40625 5.609375 
Q 59.234375 2.09375 53.4375 0.328125 
Q 47.65625 -1.421875 41.21875 -1.421875 
Q 24.65625 -1.421875 15.125 8.703125 
Q 5.609375 18.84375 5.609375 36.375 
Q 5.609375 53.953125 15.125 64.078125 
Q 24.65625 74.21875 41.21875 74.21875 
Q 47.75 74.21875 53.53125 72.484375 
Q 59.328125 70.75 64.40625 67.28125 
z
" id="DejaVuSans-67"/>
      <path d="M 34.1875 63.1875 
L 20.796875 26.90625 
L 47.609375 26.90625 
z
M 28.609375 72.90625 
L 39.796875 72.90625 
L 67.578125 0 
L 57.328125 0 
L 50.6875 18.703125 
L 17.828125 18.703125 
L 11.1875 0 
L 0.78125 0 
z
" id="DejaVuSans-65"/>
      <path d="M 44.390625 34.1875 
Q 47.5625 33.109375 50.5625 29.59375 
Q 53.5625 26.078125 56.59375 19.921875 
L 66.609375 0 
L 56 0 
L 46.6875 18.703125 
Q 43.0625 26.03125 39.671875 28.421875 
Q 36.28125 30.8125 30.421875 30.8125 
L 19.671875 30.8125 
L 19.671875 0 
L 9.8125 0 
L 9.8125 72.90625 
L 32.078125 72.90625 
Q 44.578125 72.90625 50.734375 67.671875 
Q 56.890625 62.453125 56.890625 51.90625 
Q 56.890625 45.015625 53.6875 40.46875 
Q 50.484375 35.9375 44.390625 34.1875 
z
M 19.671875 64.796875 
L 19.671875 38.921875 
L 32.078125 38.921875 
Q 39.203125 38.921875 42.84375 42.21875 
Q 46.484375 45.515625 46.484375 51.90625 
Q 46.484375 58.296875 42.84375 61.546875 
Q 39.203125 64.796875 32.078125 64.796875 
z
" id="DejaVuSans-82"/>
      <path d="M -0.296875 72.90625 
L 61.375 72.90625 
L 61.375 64.59375 
L 35.5 64.59375 
L 35.5 0 
L 25.59375 0 
L 25.59375 64.59375 
L -0.296875 64.59375 
z
" id="DejaVuSans-84"/>
     </defs>
     <g transform="translate(94.6 252.469937)scale(0.1 -0.1)">
      <use xlink:href="#DejaVuSans-67"/>
      <use x="69.824219" xlink:href="#DejaVuSans-65"/>
      <use x="138.232422" xlink:href="#DejaVuSans-82"/>
      <use x="207.605469" xlink:href="#DejaVuSans-84"/>
     </g>
    </g>
    <g id="line2d_20">
     <path d="M 66.6 263.648062 
L 86.6 263.648062 
" style="fill:none;stroke:#ff0000;stroke-linecap:square;stroke-width:1.5;"/>
    </g>
    <g id="line2d_21">
     <g>
      <use style="fill:#ff0000;stroke:#ff0000;" x="76.6" xlink:href="#m7b3ad66b40" y="263.648062"/>
     </g>
    </g>
    <g id="text_18">
     <!-- FFT -->
     <defs>
      <path d="M 9.8125 72.90625 
L 51.703125 72.90625 
L 51.703125 64.59375 
L 19.671875 64.59375 
L 19.671875 43.109375 
L 48.578125 43.109375 
L 48.578125 34.8125 
L 19.671875 34.8125 
L 19.671875 0 
L 9.8125 0 
z
" id="DejaVuSans-70"/>
     </defs>
     <g transform="translate(94.6 267.148062)scale(0.1 -0.1)">
      <use xlink:href="#DejaVuSans-70"/>
      <use x="57.519531" xlink:href="#DejaVuSans-70"/>
      <use x="115.023438" xlink:href="#DejaVuSans-84"/>
     </g>
    </g>
    <g id="line2d_22">
     <path d="M 66.6 278.326187 
L 86.6 278.326187 
" style="fill:none;stroke:#0000ff;stroke-linecap:square;stroke-width:1.5;"/>
    </g>
    <g id="line2d_23">
     <g>
      <use style="fill:#0000ff;stroke:#0000ff;" x="76.6" xlink:href="#m2e7e1f51b1" y="278.326187"/>
     </g>
    </g>
    <g id="text_19">
     <!-- RF -->
     <g transform="translate(94.6 281.826187)scale(0.1 -0.1)">
      <use xlink:href="#DejaVuSans-82"/>
      <use x="69.482422" xlink:href="#DejaVuSans-70"/>
     </g>
    </g>
    <g id="line2d_24">
     <path d="M 66.6 293.004312 
L 86.6 293.004312 
" style="fill:none;stroke:#000000;stroke-linecap:square;stroke-width:1.5;"/>
    </g>
    <g id="line2d_25">
     <g>
      <use style="stroke:#000000;stroke-linejoin:miter;" x="76.6" xlink:href="#m7d357f276c" y="293.004312"/>
     </g>
    </g>
    <g id="text_20">
     <!-- VFDT -->
     <defs>
      <path d="M 28.609375 0 
L 0.78125 72.90625 
L 11.078125 72.90625 
L 34.1875 11.53125 
L 57.328125 72.90625 
L 67.578125 72.90625 
L 39.796875 0 
z
" id="DejaVuSans-86"/>
      <path d="M 19.671875 64.796875 
L 19.671875 8.109375 
L 31.59375 8.109375 
Q 46.6875 8.109375 53.6875 14.9375 
Q 60.6875 21.78125 60.6875 36.53125 
Q 60.6875 51.171875 53.6875 57.984375 
Q 46.6875 64.796875 31.59375 64.796875 
z
M 9.8125 72.90625 
L 30.078125 72.90625 
Q 51.265625 72.90625 61.171875 64.09375 
Q 71.09375 55.28125 71.09375 36.53125 
Q 71.09375 17.671875 61.125 8.828125 
Q 51.171875 0 30.078125 0 
L 9.8125 0 
z
" id="DejaVuSans-68"/>
     </defs>
     <g transform="translate(94.6 296.504312)scale(0.1 -0.1)">
      <use xlink:href="#DejaVuSans-86"/>
      <use x="68.408203" xlink:href="#DejaVuSans-70"/>
      <use x="125.927734" xlink:href="#DejaVuSans-68"/>
      <use x="202.929688" xlink:href="#DejaVuSans-84"/>
     </g>
    </g>
   </g>
  </g>
 </g>
 <defs>
  <clipPath id="p8d21843353">
   <rect height="266.112" width="357.12" x="57.6" y="41.472"/>
  </clipPath>
 </defs>
</svg>
