<?xml version="1.0" encoding="utf-8" standalone="no"?>
<!DOCTYPE svg PUBLIC "-//W3C//DTD SVG 1.1//EN"
  "http://www.w3.org/Graphics/SVG/1.1/DTD/svg11.dtd">
<!-- Created with matplotlib (https://matplotlib.org/) -->
<svg height="345.6pt" version="1.1" viewBox="0 0 460.8 345.6" width="460.8pt" xmlns="http://www.w3.org/2000/svg" xmlns:xlink="http://www.w3.org/1999/xlink">
 <defs>
  <style type="text/css">
*{stroke-linecap:butt;stroke-linejoin:round;}
  </style>
 </defs>
 <g id="figure_1">
  <g id="patch_1">
   <path d="M 0 345.6 
L 460.8 345.6 
L 460.8 0 
L 0 0 
z
" style="fill:#ffffff;"/>
  </g>
  <g id="axes_1">
   <g id="patch_2">
    <path d="M 57.6 307.584 
L 414.72 307.584 
L 414.72 41.472 
L 57.6 41.472 
z
" style="fill:#ffffff;"/>
   </g>
   <g id="matplotlib.axis_1">
    <g id="xtick_1">
     <g id="line2d_1">
      <defs>
       <path d="M 0 0 
L 0 3.5 
" id="m6e8cac33dd" style="stroke:#000000;stroke-width:0.8;"/>
      </defs>
      <g>
       <use style="stroke:#000000;stroke-width:0.8;" x="57.6" xlink:href="#m6e8cac33dd" y="307.584"/>
      </g>
     </g>
     <g id="text_1">
      <!-- 0 -->
      <defs>
       <path d="M 31.78125 66.40625 
Q 24.171875 66.40625 20.328125 58.90625 
Q 16.5 51.421875 16.5 36.375 
Q 16.5 21.390625 20.328125 13.890625 
Q 24.171875 6.390625 31.78125 6.390625 
Q 39.453125 6.390625 43.28125 13.890625 
Q 47.125 21.390625 47.125 36.375 
Q 47.125 51.421875 43.28125 58.90625 
Q 39.453125 66.40625 31.78125 66.40625 
z
M 31.78125 74.21875 
Q 44.046875 74.21875 50.515625 64.515625 
Q 56.984375 54.828125 56.984375 36.375 
Q 56.984375 17.96875 50.515625 8.265625 
Q 44.046875 -1.421875 31.78125 -1.421875 
Q 19.53125 -1.421875 13.0625 8.265625 
Q 6.59375 17.96875 6.59375 36.375 
Q 6.59375 54.828125 13.0625 64.515625 
Q 19.53125 74.21875 31.78125 74.21875 
z
" id="DejaVuSans-48"/>
      </defs>
      <g transform="translate(54.41875 322.182437)scale(0.1 -0.1)">
       <use xlink:href="#DejaVuSans-48"/>
      </g>
     </g>
    </g>
    <g id="xtick_2">
     <g id="line2d_2">
      <g>
       <use style="stroke:#000000;stroke-width:0.8;" x="129.024" xlink:href="#m6e8cac33dd" y="307.584"/>
      </g>
     </g>
     <g id="text_2">
      <!-- 20 -->
      <defs>
       <path d="M 19.1875 8.296875 
L 53.609375 8.296875 
L 53.609375 0 
L 7.328125 0 
L 7.328125 8.296875 
Q 12.9375 14.109375 22.625 23.890625 
Q 32.328125 33.6875 34.8125 36.53125 
Q 39.546875 41.84375 41.421875 45.53125 
Q 43.3125 49.21875 43.3125 52.78125 
Q 43.3125 58.59375 39.234375 62.25 
Q 35.15625 65.921875 28.609375 65.921875 
Q 23.96875 65.921875 18.8125 64.3125 
Q 13.671875 62.703125 7.8125 59.421875 
L 7.8125 69.390625 
Q 13.765625 71.78125 18.9375 73 
Q 24.125 74.21875 28.421875 74.21875 
Q 39.75 74.21875 46.484375 68.546875 
Q 53.21875 62.890625 53.21875 53.421875 
Q 53.21875 48.921875 51.53125 44.890625 
Q 49.859375 40.875 45.40625 35.40625 
Q 44.1875 33.984375 37.640625 27.21875 
Q 31.109375 20.453125 19.1875 8.296875 
z
" id="DejaVuSans-50"/>
      </defs>
      <g transform="translate(122.6615 322.182437)scale(0.1 -0.1)">
       <use xlink:href="#DejaVuSans-50"/>
       <use x="63.623047" xlink:href="#DejaVuSans-48"/>
      </g>
     </g>
    </g>
    <g id="xtick_3">
     <g id="line2d_3">
      <g>
       <use style="stroke:#000000;stroke-width:0.8;" x="200.448" xlink:href="#m6e8cac33dd" y="307.584"/>
      </g>
     </g>
     <g id="text_3">
      <!-- 40 -->
      <defs>
       <path d="M 37.796875 64.3125 
L 12.890625 25.390625 
L 37.796875 25.390625 
z
M 35.203125 72.90625 
L 47.609375 72.90625 
L 47.609375 25.390625 
L 58.015625 25.390625 
L 58.015625 17.1875 
L 47.609375 17.1875 
L 47.609375 0 
L 37.796875 0 
L 37.796875 17.1875 
L 4.890625 17.1875 
L 4.890625 26.703125 
z
" id="DejaVuSans-52"/>
      </defs>
      <g transform="translate(194.0855 322.182437)scale(0.1 -0.1)">
       <use xlink:href="#DejaVuSans-52"/>
       <use x="63.623047" xlink:href="#DejaVuSans-48"/>
      </g>
     </g>
    </g>
    <g id="xtick_4">
     <g id="line2d_4">
      <g>
       <use style="stroke:#000000;stroke-width:0.8;" x="271.872" xlink:href="#m6e8cac33dd" y="307.584"/>
      </g>
     </g>
     <g id="text_4">
      <!-- 60 -->
      <defs>
       <path d="M 33.015625 40.375 
Q 26.375 40.375 22.484375 35.828125 
Q 18.609375 31.296875 18.609375 23.390625 
Q 18.609375 15.53125 22.484375 10.953125 
Q 26.375 6.390625 33.015625 6.390625 
Q 39.65625 6.390625 43.53125 10.953125 
Q 47.40625 15.53125 47.40625 23.390625 
Q 47.40625 31.296875 43.53125 35.828125 
Q 39.65625 40.375 33.015625 40.375 
z
M 52.59375 71.296875 
L 52.59375 62.3125 
Q 48.875 64.0625 45.09375 64.984375 
Q 41.3125 65.921875 37.59375 65.921875 
Q 27.828125 65.921875 22.671875 59.328125 
Q 17.53125 52.734375 16.796875 39.40625 
Q 19.671875 43.65625 24.015625 45.921875 
Q 28.375 48.1875 33.59375 48.1875 
Q 44.578125 48.1875 50.953125 41.515625 
Q 57.328125 34.859375 57.328125 23.390625 
Q 57.328125 12.15625 50.6875 5.359375 
Q 44.046875 -1.421875 33.015625 -1.421875 
Q 20.359375 -1.421875 13.671875 8.265625 
Q 6.984375 17.96875 6.984375 36.375 
Q 6.984375 53.65625 15.1875 63.9375 
Q 23.390625 74.21875 37.203125 74.21875 
Q 40.921875 74.21875 44.703125 73.484375 
Q 48.484375 72.75 52.59375 71.296875 
z
" id="DejaVuSans-54"/>
      </defs>
      <g transform="translate(265.5095 322.182437)scale(0.1 -0.1)">
       <use xlink:href="#DejaVuSans-54"/>
       <use x="63.623047" xlink:href="#DejaVuSans-48"/>
      </g>
     </g>
    </g>
    <g id="xtick_5">
     <g id="line2d_5">
      <g>
       <use style="stroke:#000000;stroke-width:0.8;" x="343.296" xlink:href="#m6e8cac33dd" y="307.584"/>
      </g>
     </g>
     <g id="text_5">
      <!-- 80 -->
      <defs>
       <path d="M 31.78125 34.625 
Q 24.75 34.625 20.71875 30.859375 
Q 16.703125 27.09375 16.703125 20.515625 
Q 16.703125 13.921875 20.71875 10.15625 
Q 24.75 6.390625 31.78125 6.390625 
Q 38.8125 6.390625 42.859375 10.171875 
Q 46.921875 13.96875 46.921875 20.515625 
Q 46.921875 27.09375 42.890625 30.859375 
Q 38.875 34.625 31.78125 34.625 
z
M 21.921875 38.8125 
Q 15.578125 40.375 12.03125 44.71875 
Q 8.5 49.078125 8.5 55.328125 
Q 8.5 64.0625 14.71875 69.140625 
Q 20.953125 74.21875 31.78125 74.21875 
Q 42.671875 74.21875 48.875 69.140625 
Q 55.078125 64.0625 55.078125 55.328125 
Q 55.078125 49.078125 51.53125 44.71875 
Q 48 40.375 41.703125 38.8125 
Q 48.828125 37.15625 52.796875 32.3125 
Q 56.78125 27.484375 56.78125 20.515625 
Q 56.78125 9.90625 50.3125 4.234375 
Q 43.84375 -1.421875 31.78125 -1.421875 
Q 19.734375 -1.421875 13.25 4.234375 
Q 6.78125 9.90625 6.78125 20.515625 
Q 6.78125 27.484375 10.78125 32.3125 
Q 14.796875 37.15625 21.921875 38.8125 
z
M 18.3125 54.390625 
Q 18.3125 48.734375 21.84375 45.5625 
Q 25.390625 42.390625 31.78125 42.390625 
Q 38.140625 42.390625 41.71875 45.5625 
Q 45.3125 48.734375 45.3125 54.390625 
Q 45.3125 60.0625 41.71875 63.234375 
Q 38.140625 66.40625 31.78125 66.40625 
Q 25.390625 66.40625 21.84375 63.234375 
Q 18.3125 60.0625 18.3125 54.390625 
z
" id="DejaVuSans-56"/>
      </defs>
      <g transform="translate(336.9335 322.182437)scale(0.1 -0.1)">
       <use xlink:href="#DejaVuSans-56"/>
       <use x="63.623047" xlink:href="#DejaVuSans-48"/>
      </g>
     </g>
    </g>
    <g id="xtick_6">
     <g id="line2d_6">
      <g>
       <use style="stroke:#000000;stroke-width:0.8;" x="414.72" xlink:href="#m6e8cac33dd" y="307.584"/>
      </g>
     </g>
     <g id="text_6">
      <!-- 100 -->
      <defs>
       <path d="M 12.40625 8.296875 
L 28.515625 8.296875 
L 28.515625 63.921875 
L 10.984375 60.40625 
L 10.984375 69.390625 
L 28.421875 72.90625 
L 38.28125 72.90625 
L 38.28125 8.296875 
L 54.390625 8.296875 
L 54.390625 0 
L 12.40625 0 
z
" id="DejaVuSans-49"/>
      </defs>
      <g transform="translate(405.17625 322.182437)scale(0.1 -0.1)">
       <use xlink:href="#DejaVuSans-49"/>
       <use x="63.623047" xlink:href="#DejaVuSans-48"/>
       <use x="127.246094" xlink:href="#DejaVuSans-48"/>
      </g>
     </g>
    </g>
    <g id="text_7">
     <!-- loc -->
     <defs>
      <path d="M 9.421875 75.984375 
L 18.40625 75.984375 
L 18.40625 0 
L 9.421875 0 
z
" id="DejaVuSans-108"/>
      <path d="M 30.609375 48.390625 
Q 23.390625 48.390625 19.1875 42.75 
Q 14.984375 37.109375 14.984375 27.296875 
Q 14.984375 17.484375 19.15625 11.84375 
Q 23.34375 6.203125 30.609375 6.203125 
Q 37.796875 6.203125 41.984375 11.859375 
Q 46.1875 17.53125 46.1875 27.296875 
Q 46.1875 37.015625 41.984375 42.703125 
Q 37.796875 48.390625 30.609375 48.390625 
z
M 30.609375 56 
Q 42.328125 56 49.015625 48.375 
Q 55.71875 40.765625 55.71875 27.296875 
Q 55.71875 13.875 49.015625 6.21875 
Q 42.328125 -1.421875 30.609375 -1.421875 
Q 18.84375 -1.421875 12.171875 6.21875 
Q 5.515625 13.875 5.515625 27.296875 
Q 5.515625 40.765625 12.171875 48.375 
Q 18.84375 56 30.609375 56 
z
" id="DejaVuSans-111"/>
      <path d="M 48.78125 52.59375 
L 48.78125 44.1875 
Q 44.96875 46.296875 41.140625 47.34375 
Q 37.3125 48.390625 33.40625 48.390625 
Q 24.65625 48.390625 19.8125 42.84375 
Q 14.984375 37.3125 14.984375 27.296875 
Q 14.984375 17.28125 19.8125 11.734375 
Q 24.65625 6.203125 33.40625 6.203125 
Q 37.3125 6.203125 41.140625 7.25 
Q 44.96875 8.296875 48.78125 10.40625 
L 48.78125 2.09375 
Q 45.015625 0.34375 40.984375 -0.53125 
Q 36.96875 -1.421875 32.421875 -1.421875 
Q 20.0625 -1.421875 12.78125 6.34375 
Q 5.515625 14.109375 5.515625 27.296875 
Q 5.515625 40.671875 12.859375 48.328125 
Q 20.21875 56 33.015625 56 
Q 37.15625 56 41.109375 55.140625 
Q 45.0625 54.296875 48.78125 52.59375 
z
" id="DejaVuSans-99"/>
     </defs>
     <g transform="translate(228.962344 335.860562)scale(0.1 -0.1)">
      <use xlink:href="#DejaVuSans-108"/>
      <use x="27.783203" xlink:href="#DejaVuSans-111"/>
      <use x="88.964844" xlink:href="#DejaVuSans-99"/>
     </g>
    </g>
   </g>
   <g id="matplotlib.axis_2">
    <g id="ytick_1">
     <g id="line2d_7">
      <defs>
       <path d="M 0 0 
L -3.5 0 
" id="mcc3cfa921a" style="stroke:#000000;stroke-width:0.8;"/>
      </defs>
      <g>
       <use style="stroke:#000000;stroke-width:0.8;" x="57.6" xlink:href="#mcc3cfa921a" y="295.488"/>
      </g>
     </g>
     <g id="text_8">
      <!-- 0 -->
      <g transform="translate(44.2375 299.287219)scale(0.1 -0.1)">
       <use xlink:href="#DejaVuSans-48"/>
      </g>
     </g>
    </g>
    <g id="ytick_2">
     <g id="line2d_8">
      <g>
       <use style="stroke:#000000;stroke-width:0.8;" x="57.6" xlink:href="#mcc3cfa921a" y="258.593079"/>
      </g>
     </g>
     <g id="text_9">
      <!-- 10 -->
      <g transform="translate(37.875 262.392297)scale(0.1 -0.1)">
       <use xlink:href="#DejaVuSans-49"/>
       <use x="63.623047" xlink:href="#DejaVuSans-48"/>
      </g>
     </g>
    </g>
    <g id="ytick_3">
     <g id="line2d_9">
      <g>
       <use style="stroke:#000000;stroke-width:0.8;" x="57.6" xlink:href="#mcc3cfa921a" y="221.698157"/>
      </g>
     </g>
     <g id="text_10">
      <!-- 20 -->
      <g transform="translate(37.875 225.497376)scale(0.1 -0.1)">
       <use xlink:href="#DejaVuSans-50"/>
       <use x="63.623047" xlink:href="#DejaVuSans-48"/>
      </g>
     </g>
    </g>
    <g id="ytick_4">
     <g id="line2d_10">
      <g>
       <use style="stroke:#000000;stroke-width:0.8;" x="57.6" xlink:href="#mcc3cfa921a" y="184.803236"/>
      </g>
     </g>
     <g id="text_11">
      <!-- 30 -->
      <defs>
       <path d="M 40.578125 39.3125 
Q 47.65625 37.796875 51.625 33 
Q 55.609375 28.21875 55.609375 21.1875 
Q 55.609375 10.40625 48.1875 4.484375 
Q 40.765625 -1.421875 27.09375 -1.421875 
Q 22.515625 -1.421875 17.65625 -0.515625 
Q 12.796875 0.390625 7.625 2.203125 
L 7.625 11.71875 
Q 11.71875 9.328125 16.59375 8.109375 
Q 21.484375 6.890625 26.8125 6.890625 
Q 36.078125 6.890625 40.9375 10.546875 
Q 45.796875 14.203125 45.796875 21.1875 
Q 45.796875 27.640625 41.28125 31.265625 
Q 36.765625 34.90625 28.71875 34.90625 
L 20.21875 34.90625 
L 20.21875 43.015625 
L 29.109375 43.015625 
Q 36.375 43.015625 40.234375 45.921875 
Q 44.09375 48.828125 44.09375 54.296875 
Q 44.09375 59.90625 40.109375 62.90625 
Q 36.140625 65.921875 28.71875 65.921875 
Q 24.65625 65.921875 20.015625 65.03125 
Q 15.375 64.15625 9.8125 62.3125 
L 9.8125 71.09375 
Q 15.4375 72.65625 20.34375 73.4375 
Q 25.25 74.21875 29.59375 74.21875 
Q 40.828125 74.21875 47.359375 69.109375 
Q 53.90625 64.015625 53.90625 55.328125 
Q 53.90625 49.265625 50.4375 45.09375 
Q 46.96875 40.921875 40.578125 39.3125 
z
" id="DejaVuSans-51"/>
      </defs>
      <g transform="translate(37.875 188.602454)scale(0.1 -0.1)">
       <use xlink:href="#DejaVuSans-51"/>
       <use x="63.623047" xlink:href="#DejaVuSans-48"/>
      </g>
     </g>
    </g>
    <g id="ytick_5">
     <g id="line2d_11">
      <g>
       <use style="stroke:#000000;stroke-width:0.8;" x="57.6" xlink:href="#mcc3cfa921a" y="147.908314"/>
      </g>
     </g>
     <g id="text_12">
      <!-- 40 -->
      <g transform="translate(37.875 151.707533)scale(0.1 -0.1)">
       <use xlink:href="#DejaVuSans-52"/>
       <use x="63.623047" xlink:href="#DejaVuSans-48"/>
      </g>
     </g>
    </g>
    <g id="ytick_6">
     <g id="line2d_12">
      <g>
       <use style="stroke:#000000;stroke-width:0.8;" x="57.6" xlink:href="#mcc3cfa921a" y="111.013393"/>
      </g>
     </g>
     <g id="text_13">
      <!-- 50 -->
      <defs>
       <path d="M 10.796875 72.90625 
L 49.515625 72.90625 
L 49.515625 64.59375 
L 19.828125 64.59375 
L 19.828125 46.734375 
Q 21.96875 47.46875 24.109375 47.828125 
Q 26.265625 48.1875 28.421875 48.1875 
Q 40.625 48.1875 47.75 41.5 
Q 54.890625 34.8125 54.890625 23.390625 
Q 54.890625 11.625 47.5625 5.09375 
Q 40.234375 -1.421875 26.90625 -1.421875 
Q 22.3125 -1.421875 17.546875 -0.640625 
Q 12.796875 0.140625 7.71875 1.703125 
L 7.71875 11.625 
Q 12.109375 9.234375 16.796875 8.0625 
Q 21.484375 6.890625 26.703125 6.890625 
Q 35.15625 6.890625 40.078125 11.328125 
Q 45.015625 15.765625 45.015625 23.390625 
Q 45.015625 31 40.078125 35.4375 
Q 35.15625 39.890625 26.703125 39.890625 
Q 22.75 39.890625 18.8125 39.015625 
Q 14.890625 38.140625 10.796875 36.28125 
z
" id="DejaVuSans-53"/>
      </defs>
      <g transform="translate(37.875 114.812611)scale(0.1 -0.1)">
       <use xlink:href="#DejaVuSans-53"/>
       <use x="63.623047" xlink:href="#DejaVuSans-48"/>
      </g>
     </g>
    </g>
    <g id="ytick_7">
     <g id="line2d_13">
      <g>
       <use style="stroke:#000000;stroke-width:0.8;" x="57.6" xlink:href="#mcc3cfa921a" y="74.118471"/>
      </g>
     </g>
     <g id="text_14">
      <!-- 60 -->
      <g transform="translate(37.875 77.91769)scale(0.1 -0.1)">
       <use xlink:href="#DejaVuSans-54"/>
       <use x="63.623047" xlink:href="#DejaVuSans-48"/>
      </g>
     </g>
    </g>
    <g id="text_15">
     <!-- f1-score -->
     <defs>
      <path d="M 37.109375 75.984375 
L 37.109375 68.5 
L 28.515625 68.5 
Q 23.6875 68.5 21.796875 66.546875 
Q 19.921875 64.59375 19.921875 59.515625 
L 19.921875 54.6875 
L 34.71875 54.6875 
L 34.71875 47.703125 
L 19.921875 47.703125 
L 19.921875 0 
L 10.890625 0 
L 10.890625 47.703125 
L 2.296875 47.703125 
L 2.296875 54.6875 
L 10.890625 54.6875 
L 10.890625 58.5 
Q 10.890625 67.625 15.140625 71.796875 
Q 19.390625 75.984375 28.609375 75.984375 
z
" id="DejaVuSans-102"/>
      <path d="M 4.890625 31.390625 
L 31.203125 31.390625 
L 31.203125 23.390625 
L 4.890625 23.390625 
z
" id="DejaVuSans-45"/>
      <path d="M 44.28125 53.078125 
L 44.28125 44.578125 
Q 40.484375 46.53125 36.375 47.5 
Q 32.28125 48.484375 27.875 48.484375 
Q 21.1875 48.484375 17.84375 46.4375 
Q 14.5 44.390625 14.5 40.28125 
Q 14.5 37.15625 16.890625 35.375 
Q 19.28125 33.59375 26.515625 31.984375 
L 29.59375 31.296875 
Q 39.15625 29.25 43.1875 25.515625 
Q 47.21875 21.78125 47.21875 15.09375 
Q 47.21875 7.46875 41.1875 3.015625 
Q 35.15625 -1.421875 24.609375 -1.421875 
Q 20.21875 -1.421875 15.453125 -0.5625 
Q 10.6875 0.296875 5.421875 2 
L 5.421875 11.28125 
Q 10.40625 8.6875 15.234375 7.390625 
Q 20.0625 6.109375 24.8125 6.109375 
Q 31.15625 6.109375 34.5625 8.28125 
Q 37.984375 10.453125 37.984375 14.40625 
Q 37.984375 18.0625 35.515625 20.015625 
Q 33.0625 21.96875 24.703125 23.78125 
L 21.578125 24.515625 
Q 13.234375 26.265625 9.515625 29.90625 
Q 5.8125 33.546875 5.8125 39.890625 
Q 5.8125 47.609375 11.28125 51.796875 
Q 16.75 56 26.8125 56 
Q 31.78125 56 36.171875 55.265625 
Q 40.578125 54.546875 44.28125 53.078125 
z
" id="DejaVuSans-115"/>
      <path d="M 41.109375 46.296875 
Q 39.59375 47.171875 37.8125 47.578125 
Q 36.03125 48 33.890625 48 
Q 26.265625 48 22.1875 43.046875 
Q 18.109375 38.09375 18.109375 28.8125 
L 18.109375 0 
L 9.078125 0 
L 9.078125 54.6875 
L 18.109375 54.6875 
L 18.109375 46.1875 
Q 20.953125 51.171875 25.484375 53.578125 
Q 30.03125 56 36.53125 56 
Q 37.453125 56 38.578125 55.875 
Q 39.703125 55.765625 41.0625 55.515625 
z
" id="DejaVuSans-114"/>
      <path d="M 56.203125 29.59375 
L 56.203125 25.203125 
L 14.890625 25.203125 
Q 15.484375 15.921875 20.484375 11.0625 
Q 25.484375 6.203125 34.421875 6.203125 
Q 39.59375 6.203125 44.453125 7.46875 
Q 49.3125 8.734375 54.109375 11.28125 
L 54.109375 2.78125 
Q 49.265625 0.734375 44.1875 -0.34375 
Q 39.109375 -1.421875 33.890625 -1.421875 
Q 20.796875 -1.421875 13.15625 6.1875 
Q 5.515625 13.8125 5.515625 26.8125 
Q 5.515625 40.234375 12.765625 48.109375 
Q 20.015625 56 32.328125 56 
Q 43.359375 56 49.78125 48.890625 
Q 56.203125 41.796875 56.203125 29.59375 
z
M 47.21875 32.234375 
Q 47.125 39.59375 43.09375 43.984375 
Q 39.0625 48.390625 32.421875 48.390625 
Q 24.90625 48.390625 20.390625 44.140625 
Q 15.875 39.890625 15.1875 32.171875 
z
" id="DejaVuSans-101"/>
     </defs>
     <g transform="translate(31.795312 194.817062)rotate(-90)scale(0.1 -0.1)">
      <use xlink:href="#DejaVuSans-102"/>
      <use x="35.205078" xlink:href="#DejaVuSans-49"/>
      <use x="98.828125" xlink:href="#DejaVuSans-45"/>
      <use x="134.912109" xlink:href="#DejaVuSans-115"/>
      <use x="187.011719" xlink:href="#DejaVuSans-99"/>
      <use x="241.992188" xlink:href="#DejaVuSans-111"/>
      <use x="303.173828" xlink:href="#DejaVuSans-114"/>
      <use x="344.255859" xlink:href="#DejaVuSans-101"/>
     </g>
    </g>
   </g>
   <g id="line2d_14">
    <path clip-path="url(#p7e5b6b0c7e)" d="M 57.635712 53.568 
L 57.671424 295.488 
L 57.707136 53.568 
L 57.742848 53.568 
L 57.77856 53.568 
L 57.814272 53.568 
L 57.814272 295.488 
L 57.849984 53.568 
L 57.885696 53.568 
L 57.885696 53.568 
L 58.278528 133.224135 
L 58.67136 111.566817 
L 59.099904 96.993323 
L 59.457024 117.322424 
L 60.135552 145.952883 
L 60.778368 106.438422 
L 61.278336 130.899755 
L 61.992576 100.682815 
L 62.528256 118.724431 
L 75.063168 78.361387 
L 93.811968 194.691075 
L 110.596608 74.671895 
L 129.024 245.237117 
L 145.80864 242.469998 
L 164.057472 143.702293 
L 180.949248 228.228558 
L 199.19808 140.935174 
L 215.839872 110.865813 
L 234.55296 139.533167 
L 251.908992 184.508076 
L 270.336384 166.503355 
L 286.799616 155.766932 
L 305.941248 149.162741 
L 323.047296 153.221183 
L 342.510336 166.687829 
L 359.223552 148.830687 
L 378.1152 218.820353 
L 395.25696 184.544971 
L 414.72 167.757782 
" style="fill:none;stroke:#008000;stroke-linecap:square;stroke-width:1.5;"/>
    <defs>
     <path d="M -3 3 
L 3 -3 
M -3 -3 
L 3 3 
" id="m6aa8ffa0a3" style="stroke:#008000;"/>
    </defs>
    <g clip-path="url(#p7e5b6b0c7e)">
     <use style="fill:#008000;stroke:#008000;" x="57.635712" xlink:href="#m6aa8ffa0a3" y="53.568"/>
     <use style="fill:#008000;stroke:#008000;" x="57.671424" xlink:href="#m6aa8ffa0a3" y="295.488"/>
     <use style="fill:#008000;stroke:#008000;" x="57.707136" xlink:href="#m6aa8ffa0a3" y="53.568"/>
     <use style="fill:#008000;stroke:#008000;" x="57.742848" xlink:href="#m6aa8ffa0a3" y="53.568"/>
     <use style="fill:#008000;stroke:#008000;" x="57.77856" xlink:href="#m6aa8ffa0a3" y="53.568"/>
     <use style="fill:#008000;stroke:#008000;" x="57.814272" xlink:href="#m6aa8ffa0a3" y="53.568"/>
     <use style="fill:#008000;stroke:#008000;" x="57.814272" xlink:href="#m6aa8ffa0a3" y="295.488"/>
     <use style="fill:#008000;stroke:#008000;" x="57.849984" xlink:href="#m6aa8ffa0a3" y="53.568"/>
     <use style="fill:#008000;stroke:#008000;" x="57.885696" xlink:href="#m6aa8ffa0a3" y="53.568"/>
     <use style="fill:#008000;stroke:#008000;" x="57.885696" xlink:href="#m6aa8ffa0a3" y="53.568"/>
     <use style="fill:#008000;stroke:#008000;" x="58.278528" xlink:href="#m6aa8ffa0a3" y="133.224135"/>
     <use style="fill:#008000;stroke:#008000;" x="58.67136" xlink:href="#m6aa8ffa0a3" y="111.566817"/>
     <use style="fill:#008000;stroke:#008000;" x="59.099904" xlink:href="#m6aa8ffa0a3" y="96.993323"/>
     <use style="fill:#008000;stroke:#008000;" x="59.457024" xlink:href="#m6aa8ffa0a3" y="117.322424"/>
     <use style="fill:#008000;stroke:#008000;" x="60.135552" xlink:href="#m6aa8ffa0a3" y="145.952883"/>
     <use style="fill:#008000;stroke:#008000;" x="60.778368" xlink:href="#m6aa8ffa0a3" y="106.438422"/>
     <use style="fill:#008000;stroke:#008000;" x="61.278336" xlink:href="#m6aa8ffa0a3" y="130.899755"/>
     <use style="fill:#008000;stroke:#008000;" x="61.992576" xlink:href="#m6aa8ffa0a3" y="100.682815"/>
     <use style="fill:#008000;stroke:#008000;" x="62.528256" xlink:href="#m6aa8ffa0a3" y="118.724431"/>
     <use style="fill:#008000;stroke:#008000;" x="75.063168" xlink:href="#m6aa8ffa0a3" y="78.361387"/>
     <use style="fill:#008000;stroke:#008000;" x="93.811968" xlink:href="#m6aa8ffa0a3" y="194.691075"/>
     <use style="fill:#008000;stroke:#008000;" x="110.596608" xlink:href="#m6aa8ffa0a3" y="74.671895"/>
     <use style="fill:#008000;stroke:#008000;" x="129.024" xlink:href="#m6aa8ffa0a3" y="245.237117"/>
     <use style="fill:#008000;stroke:#008000;" x="145.80864" xlink:href="#m6aa8ffa0a3" y="242.469998"/>
     <use style="fill:#008000;stroke:#008000;" x="164.057472" xlink:href="#m6aa8ffa0a3" y="143.702293"/>
     <use style="fill:#008000;stroke:#008000;" x="180.949248" xlink:href="#m6aa8ffa0a3" y="228.228558"/>
     <use style="fill:#008000;stroke:#008000;" x="199.19808" xlink:href="#m6aa8ffa0a3" y="140.935174"/>
     <use style="fill:#008000;stroke:#008000;" x="215.839872" xlink:href="#m6aa8ffa0a3" y="110.865813"/>
     <use style="fill:#008000;stroke:#008000;" x="234.55296" xlink:href="#m6aa8ffa0a3" y="139.533167"/>
     <use style="fill:#008000;stroke:#008000;" x="251.908992" xlink:href="#m6aa8ffa0a3" y="184.508076"/>
     <use style="fill:#008000;stroke:#008000;" x="270.336384" xlink:href="#m6aa8ffa0a3" y="166.503355"/>
     <use style="fill:#008000;stroke:#008000;" x="286.799616" xlink:href="#m6aa8ffa0a3" y="155.766932"/>
     <use style="fill:#008000;stroke:#008000;" x="305.941248" xlink:href="#m6aa8ffa0a3" y="149.162741"/>
     <use style="fill:#008000;stroke:#008000;" x="323.047296" xlink:href="#m6aa8ffa0a3" y="153.221183"/>
     <use style="fill:#008000;stroke:#008000;" x="342.510336" xlink:href="#m6aa8ffa0a3" y="166.687829"/>
     <use style="fill:#008000;stroke:#008000;" x="359.223552" xlink:href="#m6aa8ffa0a3" y="148.830687"/>
     <use style="fill:#008000;stroke:#008000;" x="378.1152" xlink:href="#m6aa8ffa0a3" y="218.820353"/>
     <use style="fill:#008000;stroke:#008000;" x="395.25696" xlink:href="#m6aa8ffa0a3" y="184.544971"/>
     <use style="fill:#008000;stroke:#008000;" x="414.72" xlink:href="#m6aa8ffa0a3" y="167.757782"/>
    </g>
   </g>
   <g id="line2d_15">
    <path clip-path="url(#p7e5b6b0c7e)" d="M 57.635712 90.204657 
L 57.671424 101.752767 
L 57.707136 87.990962 
L 57.742848 81.82951 
L 57.77856 81.82951 
L 57.814272 74.081576 
L 57.814272 195.428973 
L 57.849984 66.518117 
L 57.885696 68.694918 
L 57.885696 80.021659 
L 58.278528 87.622013 
L 58.67136 83.231517 
L 59.099904 131.08423 
L 59.457024 127.800582 
L 60.135552 113.928092 
L 60.778368 74.893265 
L 61.278336 120.938127 
L 61.992576 72.16304 
L 62.528256 93.488305 
L 75.063168 101.162449 
L 93.811968 117.433109 
L 110.596608 97.694326 
L 129.024 180.818584 
L 145.80864 145.915988 
L 164.057472 251.583043 
L 180.949248 226.974131 
L 199.19808 162.887652 
L 215.839872 168.86463 
L 234.55296 182.073011 
L 251.908992 181.593377 
L 270.336384 176.870828 
L 286.799616 176.132929 
L 305.941248 129.645328 
L 323.047296 268.517812 
L 342.510336 175.91156 
L 359.223552 168.163626 
L 378.1152 182.552645 
L 395.25696 176.059139 
L 414.72 279.180445 
" style="fill:none;stroke:#ff0000;stroke-linecap:square;stroke-width:1.5;"/>
    <defs>
     <path d="M 0 3 
C 0.795609 3 1.55874 2.683901 2.12132 2.12132 
C 2.683901 1.55874 3 0.795609 3 0 
C 3 -0.795609 2.683901 -1.55874 2.12132 -2.12132 
C 1.55874 -2.683901 0.795609 -3 0 -3 
C -0.795609 -3 -1.55874 -2.683901 -2.12132 -2.12132 
C -2.683901 -1.55874 -3 -0.795609 -3 0 
C -3 0.795609 -2.683901 1.55874 -2.12132 2.12132 
C -1.55874 2.683901 -0.795609 3 0 3 
z
" id="m6158bb9038" style="stroke:#ff0000;"/>
    </defs>
    <g clip-path="url(#p7e5b6b0c7e)">
     <use style="fill:#ff0000;stroke:#ff0000;" x="57.635712" xlink:href="#m6158bb9038" y="90.204657"/>
     <use style="fill:#ff0000;stroke:#ff0000;" x="57.671424" xlink:href="#m6158bb9038" y="101.752767"/>
     <use style="fill:#ff0000;stroke:#ff0000;" x="57.707136" xlink:href="#m6158bb9038" y="87.990962"/>
     <use style="fill:#ff0000;stroke:#ff0000;" x="57.742848" xlink:href="#m6158bb9038" y="81.82951"/>
     <use style="fill:#ff0000;stroke:#ff0000;" x="57.77856" xlink:href="#m6158bb9038" y="81.82951"/>
     <use style="fill:#ff0000;stroke:#ff0000;" x="57.814272" xlink:href="#m6158bb9038" y="74.081576"/>
     <use style="fill:#ff0000;stroke:#ff0000;" x="57.814272" xlink:href="#m6158bb9038" y="195.428973"/>
     <use style="fill:#ff0000;stroke:#ff0000;" x="57.849984" xlink:href="#m6158bb9038" y="66.518117"/>
     <use style="fill:#ff0000;stroke:#ff0000;" x="57.885696" xlink:href="#m6158bb9038" y="68.694918"/>
     <use style="fill:#ff0000;stroke:#ff0000;" x="57.885696" xlink:href="#m6158bb9038" y="80.021659"/>
     <use style="fill:#ff0000;stroke:#ff0000;" x="58.278528" xlink:href="#m6158bb9038" y="87.622013"/>
     <use style="fill:#ff0000;stroke:#ff0000;" x="58.67136" xlink:href="#m6158bb9038" y="83.231517"/>
     <use style="fill:#ff0000;stroke:#ff0000;" x="59.099904" xlink:href="#m6158bb9038" y="131.08423"/>
     <use style="fill:#ff0000;stroke:#ff0000;" x="59.457024" xlink:href="#m6158bb9038" y="127.800582"/>
     <use style="fill:#ff0000;stroke:#ff0000;" x="60.135552" xlink:href="#m6158bb9038" y="113.928092"/>
     <use style="fill:#ff0000;stroke:#ff0000;" x="60.778368" xlink:href="#m6158bb9038" y="74.893265"/>
     <use style="fill:#ff0000;stroke:#ff0000;" x="61.278336" xlink:href="#m6158bb9038" y="120.938127"/>
     <use style="fill:#ff0000;stroke:#ff0000;" x="61.992576" xlink:href="#m6158bb9038" y="72.16304"/>
     <use style="fill:#ff0000;stroke:#ff0000;" x="62.528256" xlink:href="#m6158bb9038" y="93.488305"/>
     <use style="fill:#ff0000;stroke:#ff0000;" x="75.063168" xlink:href="#m6158bb9038" y="101.162449"/>
     <use style="fill:#ff0000;stroke:#ff0000;" x="93.811968" xlink:href="#m6158bb9038" y="117.433109"/>
     <use style="fill:#ff0000;stroke:#ff0000;" x="110.596608" xlink:href="#m6158bb9038" y="97.694326"/>
     <use style="fill:#ff0000;stroke:#ff0000;" x="129.024" xlink:href="#m6158bb9038" y="180.818584"/>
     <use style="fill:#ff0000;stroke:#ff0000;" x="145.80864" xlink:href="#m6158bb9038" y="145.915988"/>
     <use style="fill:#ff0000;stroke:#ff0000;" x="164.057472" xlink:href="#m6158bb9038" y="251.583043"/>
     <use style="fill:#ff0000;stroke:#ff0000;" x="180.949248" xlink:href="#m6158bb9038" y="226.974131"/>
     <use style="fill:#ff0000;stroke:#ff0000;" x="199.19808" xlink:href="#m6158bb9038" y="162.887652"/>
     <use style="fill:#ff0000;stroke:#ff0000;" x="215.839872" xlink:href="#m6158bb9038" y="168.86463"/>
     <use style="fill:#ff0000;stroke:#ff0000;" x="234.55296" xlink:href="#m6158bb9038" y="182.073011"/>
     <use style="fill:#ff0000;stroke:#ff0000;" x="251.908992" xlink:href="#m6158bb9038" y="181.593377"/>
     <use style="fill:#ff0000;stroke:#ff0000;" x="270.336384" xlink:href="#m6158bb9038" y="176.870828"/>
     <use style="fill:#ff0000;stroke:#ff0000;" x="286.799616" xlink:href="#m6158bb9038" y="176.132929"/>
     <use style="fill:#ff0000;stroke:#ff0000;" x="305.941248" xlink:href="#m6158bb9038" y="129.645328"/>
     <use style="fill:#ff0000;stroke:#ff0000;" x="323.047296" xlink:href="#m6158bb9038" y="268.517812"/>
     <use style="fill:#ff0000;stroke:#ff0000;" x="342.510336" xlink:href="#m6158bb9038" y="175.91156"/>
     <use style="fill:#ff0000;stroke:#ff0000;" x="359.223552" xlink:href="#m6158bb9038" y="168.163626"/>
     <use style="fill:#ff0000;stroke:#ff0000;" x="378.1152" xlink:href="#m6158bb9038" y="182.552645"/>
     <use style="fill:#ff0000;stroke:#ff0000;" x="395.25696" xlink:href="#m6158bb9038" y="176.059139"/>
     <use style="fill:#ff0000;stroke:#ff0000;" x="414.72" xlink:href="#m6158bb9038" y="279.180445"/>
    </g>
   </g>
   <g id="line2d_16">
    <path clip-path="url(#p7e5b6b0c7e)" d="M 57.635712 53.568 
L 57.671424 295.488 
L 57.707136 53.568 
L 57.742848 53.568 
L 57.77856 53.568 
L 57.814272 53.568 
L 57.814272 295.488 
L 57.849984 53.568 
L 57.885696 53.568 
L 57.885696 53.568 
L 58.278528 53.78937 
L 58.67136 85.334527 
L 59.099904 94.632048 
L 59.457024 122.229449 
L 60.135552 115.994207 
L 60.778368 99.575967 
L 61.278336 113.116403 
L 61.992576 109.72207 
L 62.528256 116.178682 
L 75.063168 77.660384 
L 93.811968 165.101348 
L 110.596608 136.360204 
L 129.024 178.567994 
L 145.80864 182.405066 
L 164.057472 197.347509 
L 180.949248 183.216754 
L 199.19808 179.711736 
L 215.839872 163.477971 
L 234.55296 182.552645 
L 251.908992 173.550285 
L 270.336384 181.925432 
L 286.799616 182.81091 
L 305.941248 186.500402 
L 323.047296 197.531984 
L 342.510336 183.954652 
L 359.223552 198.860201 
L 378.1152 202.586588 
L 395.25696 206.42366 
L 414.72 189.747155 
" style="fill:none;stroke:#0000ff;stroke-linecap:square;stroke-width:1.5;"/>
    <defs>
     <path d="M -3 0 
L 3 0 
M 0 3 
L 0 -3 
" id="mab37a1374a" style="stroke:#0000ff;"/>
    </defs>
    <g clip-path="url(#p7e5b6b0c7e)">
     <use style="fill:#0000ff;stroke:#0000ff;" x="57.635712" xlink:href="#mab37a1374a" y="53.568"/>
     <use style="fill:#0000ff;stroke:#0000ff;" x="57.671424" xlink:href="#mab37a1374a" y="295.488"/>
     <use style="fill:#0000ff;stroke:#0000ff;" x="57.707136" xlink:href="#mab37a1374a" y="53.568"/>
     <use style="fill:#0000ff;stroke:#0000ff;" x="57.742848" xlink:href="#mab37a1374a" y="53.568"/>
     <use style="fill:#0000ff;stroke:#0000ff;" x="57.77856" xlink:href="#mab37a1374a" y="53.568"/>
     <use style="fill:#0000ff;stroke:#0000ff;" x="57.814272" xlink:href="#mab37a1374a" y="53.568"/>
     <use style="fill:#0000ff;stroke:#0000ff;" x="57.814272" xlink:href="#mab37a1374a" y="295.488"/>
     <use style="fill:#0000ff;stroke:#0000ff;" x="57.849984" xlink:href="#mab37a1374a" y="53.568"/>
     <use style="fill:#0000ff;stroke:#0000ff;" x="57.885696" xlink:href="#mab37a1374a" y="53.568"/>
     <use style="fill:#0000ff;stroke:#0000ff;" x="57.885696" xlink:href="#mab37a1374a" y="53.568"/>
     <use style="fill:#0000ff;stroke:#0000ff;" x="58.278528" xlink:href="#mab37a1374a" y="53.78937"/>
     <use style="fill:#0000ff;stroke:#0000ff;" x="58.67136" xlink:href="#mab37a1374a" y="85.334527"/>
     <use style="fill:#0000ff;stroke:#0000ff;" x="59.099904" xlink:href="#mab37a1374a" y="94.632048"/>
     <use style="fill:#0000ff;stroke:#0000ff;" x="59.457024" xlink:href="#mab37a1374a" y="122.229449"/>
     <use style="fill:#0000ff;stroke:#0000ff;" x="60.135552" xlink:href="#mab37a1374a" y="115.994207"/>
     <use style="fill:#0000ff;stroke:#0000ff;" x="60.778368" xlink:href="#mab37a1374a" y="99.575967"/>
     <use style="fill:#0000ff;stroke:#0000ff;" x="61.278336" xlink:href="#mab37a1374a" y="113.116403"/>
     <use style="fill:#0000ff;stroke:#0000ff;" x="61.992576" xlink:href="#mab37a1374a" y="109.72207"/>
     <use style="fill:#0000ff;stroke:#0000ff;" x="62.528256" xlink:href="#mab37a1374a" y="116.178682"/>
     <use style="fill:#0000ff;stroke:#0000ff;" x="75.063168" xlink:href="#mab37a1374a" y="77.660384"/>
     <use style="fill:#0000ff;stroke:#0000ff;" x="93.811968" xlink:href="#mab37a1374a" y="165.101348"/>
     <use style="fill:#0000ff;stroke:#0000ff;" x="110.596608" xlink:href="#mab37a1374a" y="136.360204"/>
     <use style="fill:#0000ff;stroke:#0000ff;" x="129.024" xlink:href="#mab37a1374a" y="178.567994"/>
     <use style="fill:#0000ff;stroke:#0000ff;" x="145.80864" xlink:href="#mab37a1374a" y="182.405066"/>
     <use style="fill:#0000ff;stroke:#0000ff;" x="164.057472" xlink:href="#mab37a1374a" y="197.347509"/>
     <use style="fill:#0000ff;stroke:#0000ff;" x="180.949248" xlink:href="#mab37a1374a" y="183.216754"/>
     <use style="fill:#0000ff;stroke:#0000ff;" x="199.19808" xlink:href="#mab37a1374a" y="179.711736"/>
     <use style="fill:#0000ff;stroke:#0000ff;" x="215.839872" xlink:href="#mab37a1374a" y="163.477971"/>
     <use style="fill:#0000ff;stroke:#0000ff;" x="234.55296" xlink:href="#mab37a1374a" y="182.552645"/>
     <use style="fill:#0000ff;stroke:#0000ff;" x="251.908992" xlink:href="#mab37a1374a" y="173.550285"/>
     <use style="fill:#0000ff;stroke:#0000ff;" x="270.336384" xlink:href="#mab37a1374a" y="181.925432"/>
     <use style="fill:#0000ff;stroke:#0000ff;" x="286.799616" xlink:href="#mab37a1374a" y="182.81091"/>
     <use style="fill:#0000ff;stroke:#0000ff;" x="305.941248" xlink:href="#mab37a1374a" y="186.500402"/>
     <use style="fill:#0000ff;stroke:#0000ff;" x="323.047296" xlink:href="#mab37a1374a" y="197.531984"/>
     <use style="fill:#0000ff;stroke:#0000ff;" x="342.510336" xlink:href="#mab37a1374a" y="183.954652"/>
     <use style="fill:#0000ff;stroke:#0000ff;" x="359.223552" xlink:href="#mab37a1374a" y="198.860201"/>
     <use style="fill:#0000ff;stroke:#0000ff;" x="378.1152" xlink:href="#mab37a1374a" y="202.586588"/>
     <use style="fill:#0000ff;stroke:#0000ff;" x="395.25696" xlink:href="#mab37a1374a" y="206.42366"/>
     <use style="fill:#0000ff;stroke:#0000ff;" x="414.72" xlink:href="#mab37a1374a" y="189.747155"/>
    </g>
   </g>
   <g id="line2d_17">
    <path clip-path="url(#p7e5b6b0c7e)" d="M 57.635712 53.568 
L 57.671424 295.488 
L 57.707136 53.568 
L 57.742848 53.568 
L 57.77856 53.568 
L 57.814272 53.568 
L 57.814272 295.488 
L 57.849984 53.568 
L 57.885696 53.568 
L 57.885696 53.568 
L 58.278528 53.568 
L 58.67136 53.568 
L 59.099904 120.679862 
L 59.457024 121.71292 
L 60.135552 128.68606 
L 60.778368 86.55206 
L 61.278336 95.406841 
L 61.992576 107.39769 
L 62.528256 110.01723 
L 75.063168 90.315342 
L 93.811968 115.772838 
L 110.596608 118.171007 
L 129.024 122.192554 
L 145.80864 125.365517 
L 164.057472 125.771361 
L 180.949248 128.280216 
L 199.19808 127.837477 
L 215.839872 126.915104 
L 234.55296 127.468528 
L 251.908992 127.542318 
L 270.336384 130.678386 
L 286.799616 129.460853 
L 305.941248 130.124962 
L 323.047296 129.202589 
L 342.510336 135.290251 
L 359.223552 136.397099 
L 378.1152 135.400936 
L 395.25696 136.470889 
L 414.72 136.101939 
" style="fill:none;stroke:#000000;stroke-linecap:square;stroke-width:1.5;"/>
    <defs>
     <path d="M -3 3 
L 3 3 
L 3 -3 
L -3 -3 
z
" id="ma5a616abee" style="stroke:#000000;stroke-linejoin:miter;"/>
    </defs>
    <g clip-path="url(#p7e5b6b0c7e)">
     <use style="stroke:#000000;stroke-linejoin:miter;" x="57.635712" xlink:href="#ma5a616abee" y="53.568"/>
     <use style="stroke:#000000;stroke-linejoin:miter;" x="57.671424" xlink:href="#ma5a616abee" y="295.488"/>
     <use style="stroke:#000000;stroke-linejoin:miter;" x="57.707136" xlink:href="#ma5a616abee" y="53.568"/>
     <use style="stroke:#000000;stroke-linejoin:miter;" x="57.742848" xlink:href="#ma5a616abee" y="53.568"/>
     <use style="stroke:#000000;stroke-linejoin:miter;" x="57.77856" xlink:href="#ma5a616abee" y="53.568"/>
     <use style="stroke:#000000;stroke-linejoin:miter;" x="57.814272" xlink:href="#ma5a616abee" y="53.568"/>
     <use style="stroke:#000000;stroke-linejoin:miter;" x="57.814272" xlink:href="#ma5a616abee" y="295.488"/>
     <use style="stroke:#000000;stroke-linejoin:miter;" x="57.849984" xlink:href="#ma5a616abee" y="53.568"/>
     <use style="stroke:#000000;stroke-linejoin:miter;" x="57.885696" xlink:href="#ma5a616abee" y="53.568"/>
     <use style="stroke:#000000;stroke-linejoin:miter;" x="57.885696" xlink:href="#ma5a616abee" y="53.568"/>
     <use style="stroke:#000000;stroke-linejoin:miter;" x="58.278528" xlink:href="#ma5a616abee" y="53.568"/>
     <use style="stroke:#000000;stroke-linejoin:miter;" x="58.67136" xlink:href="#ma5a616abee" y="53.568"/>
     <use style="stroke:#000000;stroke-linejoin:miter;" x="59.099904" xlink:href="#ma5a616abee" y="120.679862"/>
     <use style="stroke:#000000;stroke-linejoin:miter;" x="59.457024" xlink:href="#ma5a616abee" y="121.71292"/>
     <use style="stroke:#000000;stroke-linejoin:miter;" x="60.135552" xlink:href="#ma5a616abee" y="128.68606"/>
     <use style="stroke:#000000;stroke-linejoin:miter;" x="60.778368" xlink:href="#ma5a616abee" y="86.55206"/>
     <use style="stroke:#000000;stroke-linejoin:miter;" x="61.278336" xlink:href="#ma5a616abee" y="95.406841"/>
     <use style="stroke:#000000;stroke-linejoin:miter;" x="61.992576" xlink:href="#ma5a616abee" y="107.39769"/>
     <use style="stroke:#000000;stroke-linejoin:miter;" x="62.528256" xlink:href="#ma5a616abee" y="110.01723"/>
     <use style="stroke:#000000;stroke-linejoin:miter;" x="75.063168" xlink:href="#ma5a616abee" y="90.315342"/>
     <use style="stroke:#000000;stroke-linejoin:miter;" x="93.811968" xlink:href="#ma5a616abee" y="115.772838"/>
     <use style="stroke:#000000;stroke-linejoin:miter;" x="110.596608" xlink:href="#ma5a616abee" y="118.171007"/>
     <use style="stroke:#000000;stroke-linejoin:miter;" x="129.024" xlink:href="#ma5a616abee" y="122.192554"/>
     <use style="stroke:#000000;stroke-linejoin:miter;" x="145.80864" xlink:href="#ma5a616abee" y="125.365517"/>
     <use style="stroke:#000000;stroke-linejoin:miter;" x="164.057472" xlink:href="#ma5a616abee" y="125.771361"/>
     <use style="stroke:#000000;stroke-linejoin:miter;" x="180.949248" xlink:href="#ma5a616abee" y="128.280216"/>
     <use style="stroke:#000000;stroke-linejoin:miter;" x="199.19808" xlink:href="#ma5a616abee" y="127.837477"/>
     <use style="stroke:#000000;stroke-linejoin:miter;" x="215.839872" xlink:href="#ma5a616abee" y="126.915104"/>
     <use style="stroke:#000000;stroke-linejoin:miter;" x="234.55296" xlink:href="#ma5a616abee" y="127.468528"/>
     <use style="stroke:#000000;stroke-linejoin:miter;" x="251.908992" xlink:href="#ma5a616abee" y="127.542318"/>
     <use style="stroke:#000000;stroke-linejoin:miter;" x="270.336384" xlink:href="#ma5a616abee" y="130.678386"/>
     <use style="stroke:#000000;stroke-linejoin:miter;" x="286.799616" xlink:href="#ma5a616abee" y="129.460853"/>
     <use style="stroke:#000000;stroke-linejoin:miter;" x="305.941248" xlink:href="#ma5a616abee" y="130.124962"/>
     <use style="stroke:#000000;stroke-linejoin:miter;" x="323.047296" xlink:href="#ma5a616abee" y="129.202589"/>
     <use style="stroke:#000000;stroke-linejoin:miter;" x="342.510336" xlink:href="#ma5a616abee" y="135.290251"/>
     <use style="stroke:#000000;stroke-linejoin:miter;" x="359.223552" xlink:href="#ma5a616abee" y="136.397099"/>
     <use style="stroke:#000000;stroke-linejoin:miter;" x="378.1152" xlink:href="#ma5a616abee" y="135.400936"/>
     <use style="stroke:#000000;stroke-linejoin:miter;" x="395.25696" xlink:href="#ma5a616abee" y="136.470889"/>
     <use style="stroke:#000000;stroke-linejoin:miter;" x="414.72" xlink:href="#ma5a616abee" y="136.101939"/>
    </g>
   </g>
   <g id="patch_3">
    <path d="M 57.6 307.584 
L 57.6 41.472 
" style="fill:none;stroke:#000000;stroke-linecap:square;stroke-linejoin:miter;stroke-width:0.8;"/>
   </g>
   <g id="patch_4">
    <path d="M 414.72 307.584 
L 414.72 41.472 
" style="fill:none;stroke:#000000;stroke-linecap:square;stroke-linejoin:miter;stroke-width:0.8;"/>
   </g>
   <g id="patch_5">
    <path d="M 57.6 307.584 
L 414.72 307.584 
" style="fill:none;stroke:#000000;stroke-linecap:square;stroke-linejoin:miter;stroke-width:0.8;"/>
   </g>
   <g id="patch_6">
    <path d="M 57.6 41.472 
L 414.72 41.472 
" style="fill:none;stroke:#000000;stroke-linecap:square;stroke-linejoin:miter;stroke-width:0.8;"/>
   </g>
   <g id="text_16">
    <!-- loc vs f1-score -->
    <defs>
     <path id="DejaVuSans-32"/>
     <path d="M 2.984375 54.6875 
L 12.5 54.6875 
L 29.59375 8.796875 
L 46.6875 54.6875 
L 56.203125 54.6875 
L 35.6875 0 
L 23.484375 0 
z
" id="DejaVuSans-118"/>
    </defs>
    <g transform="translate(192.685313 35.472)scale(0.12 -0.12)">
     <use xlink:href="#DejaVuSans-108"/>
     <use x="27.783203" xlink:href="#DejaVuSans-111"/>
     <use x="88.964844" xlink:href="#DejaVuSans-99"/>
     <use x="143.945312" xlink:href="#DejaVuSans-32"/>
     <use x="175.732422" xlink:href="#DejaVuSans-118"/>
     <use x="234.912109" xlink:href="#DejaVuSans-115"/>
     <use x="287.011719" xlink:href="#DejaVuSans-32"/>
     <use x="318.798828" xlink:href="#DejaVuSans-102"/>
     <use x="354.003906" xlink:href="#DejaVuSans-49"/>
     <use x="417.626953" xlink:href="#DejaVuSans-45"/>
     <use x="453.710938" xlink:href="#DejaVuSans-115"/>
     <use x="505.810547" xlink:href="#DejaVuSans-99"/>
     <use x="560.791016" xlink:href="#DejaVuSans-111"/>
     <use x="621.972656" xlink:href="#DejaVuSans-114"/>
     <use x="663.054688" xlink:href="#DejaVuSans-101"/>
    </g>
   </g>
   <g id="legend_1">
    <g id="patch_7">
     <path d="M 348.85125 108.1845 
L 407.72 108.1845 
Q 409.72 108.1845 409.72 106.1845 
L 409.72 48.472 
Q 409.72 46.472 407.72 46.472 
L 348.85125 46.472 
Q 346.85125 46.472 346.85125 48.472 
L 346.85125 106.1845 
Q 346.85125 108.1845 348.85125 108.1845 
z
" style="fill:#ffffff;opacity:0.8;stroke:#cccccc;stroke-linejoin:miter;"/>
    </g>
    <g id="line2d_18">
     <path d="M 350.85125 54.570438 
L 370.85125 54.570438 
" style="fill:none;stroke:#008000;stroke-linecap:square;stroke-width:1.5;"/>
    </g>
    <g id="line2d_19">
     <g>
      <use style="fill:#008000;stroke:#008000;" x="360.85125" xlink:href="#m6aa8ffa0a3" y="54.570438"/>
     </g>
    </g>
    <g id="text_17">
     <!-- CART -->
     <defs>
      <path d="M 64.40625 67.28125 
L 64.40625 56.890625 
Q 59.421875 61.53125 53.78125 63.8125 
Q 48.140625 66.109375 41.796875 66.109375 
Q 29.296875 66.109375 22.65625 58.46875 
Q 16.015625 50.828125 16.015625 36.375 
Q 16.015625 21.96875 22.65625 14.328125 
Q 29.296875 6.6875 41.796875 6.6875 
Q 48.140625 6.6875 53.78125 8.984375 
Q 59.421875 11.28125 64.40625 15.921875 
L 64.40625 5.609375 
Q 59.234375 2.09375 53.4375 0.328125 
Q 47.65625 -1.421875 41.21875 -1.421875 
Q 24.65625 -1.421875 15.125 8.703125 
Q 5.609375 18.84375 5.609375 36.375 
Q 5.609375 53.953125 15.125 64.078125 
Q 24.65625 74.21875 41.21875 74.21875 
Q 47.75 74.21875 53.53125 72.484375 
Q 59.328125 70.75 64.40625 67.28125 
z
" id="DejaVuSans-67"/>
      <path d="M 34.1875 63.1875 
L 20.796875 26.90625 
L 47.609375 26.90625 
z
M 28.609375 72.90625 
L 39.796875 72.90625 
L 67.578125 0 
L 57.328125 0 
L 50.6875 18.703125 
L 17.828125 18.703125 
L 11.1875 0 
L 0.78125 0 
z
" id="DejaVuSans-65"/>
      <path d="M 44.390625 34.1875 
Q 47.5625 33.109375 50.5625 29.59375 
Q 53.5625 26.078125 56.59375 19.921875 
L 66.609375 0 
L 56 0 
L 46.6875 18.703125 
Q 43.0625 26.03125 39.671875 28.421875 
Q 36.28125 30.8125 30.421875 30.8125 
L 19.671875 30.8125 
L 19.671875 0 
L 9.8125 0 
L 9.8125 72.90625 
L 32.078125 72.90625 
Q 44.578125 72.90625 50.734375 67.671875 
Q 56.890625 62.453125 56.890625 51.90625 
Q 56.890625 45.015625 53.6875 40.46875 
Q 50.484375 35.9375 44.390625 34.1875 
z
M 19.671875 64.796875 
L 19.671875 38.921875 
L 32.078125 38.921875 
Q 39.203125 38.921875 42.84375 42.21875 
Q 46.484375 45.515625 46.484375 51.90625 
Q 46.484375 58.296875 42.84375 61.546875 
Q 39.203125 64.796875 32.078125 64.796875 
z
" id="DejaVuSans-82"/>
      <path d="M -0.296875 72.90625 
L 61.375 72.90625 
L 61.375 64.59375 
L 35.5 64.59375 
L 35.5 0 
L 25.59375 0 
L 25.59375 64.59375 
L -0.296875 64.59375 
z
" id="DejaVuSans-84"/>
     </defs>
     <g transform="translate(378.85125 58.070438)scale(0.1 -0.1)">
      <use xlink:href="#DejaVuSans-67"/>
      <use x="69.824219" xlink:href="#DejaVuSans-65"/>
      <use x="138.232422" xlink:href="#DejaVuSans-82"/>
      <use x="207.605469" xlink:href="#DejaVuSans-84"/>
     </g>
    </g>
    <g id="line2d_20">
     <path d="M 350.85125 69.248563 
L 370.85125 69.248563 
" style="fill:none;stroke:#ff0000;stroke-linecap:square;stroke-width:1.5;"/>
    </g>
    <g id="line2d_21">
     <g>
      <use style="fill:#ff0000;stroke:#ff0000;" x="360.85125" xlink:href="#m6158bb9038" y="69.248563"/>
     </g>
    </g>
    <g id="text_18">
     <!-- FFT -->
     <defs>
      <path d="M 9.8125 72.90625 
L 51.703125 72.90625 
L 51.703125 64.59375 
L 19.671875 64.59375 
L 19.671875 43.109375 
L 48.578125 43.109375 
L 48.578125 34.8125 
L 19.671875 34.8125 
L 19.671875 0 
L 9.8125 0 
z
" id="DejaVuSans-70"/>
     </defs>
     <g transform="translate(378.85125 72.748563)scale(0.1 -0.1)">
      <use xlink:href="#DejaVuSans-70"/>
      <use x="57.519531" xlink:href="#DejaVuSans-70"/>
      <use x="115.023438" xlink:href="#DejaVuSans-84"/>
     </g>
    </g>
    <g id="line2d_22">
     <path d="M 350.85125 83.926688 
L 370.85125 83.926688 
" style="fill:none;stroke:#0000ff;stroke-linecap:square;stroke-width:1.5;"/>
    </g>
    <g id="line2d_23">
     <g>
      <use style="fill:#0000ff;stroke:#0000ff;" x="360.85125" xlink:href="#mab37a1374a" y="83.926688"/>
     </g>
    </g>
    <g id="text_19">
     <!-- RF -->
     <g transform="translate(378.85125 87.426688)scale(0.1 -0.1)">
      <use xlink:href="#DejaVuSans-82"/>
      <use x="69.482422" xlink:href="#DejaVuSans-70"/>
     </g>
    </g>
    <g id="line2d_24">
     <path d="M 350.85125 98.604813 
L 370.85125 98.604813 
" style="fill:none;stroke:#000000;stroke-linecap:square;stroke-width:1.5;"/>
    </g>
    <g id="line2d_25">
     <g>
      <use style="stroke:#000000;stroke-linejoin:miter;" x="360.85125" xlink:href="#ma5a616abee" y="98.604813"/>
     </g>
    </g>
    <g id="text_20">
     <!-- VFDT -->
     <defs>
      <path d="M 28.609375 0 
L 0.78125 72.90625 
L 11.078125 72.90625 
L 34.1875 11.53125 
L 57.328125 72.90625 
L 67.578125 72.90625 
L 39.796875 0 
z
" id="DejaVuSans-86"/>
      <path d="M 19.671875 64.796875 
L 19.671875 8.109375 
L 31.59375 8.109375 
Q 46.6875 8.109375 53.6875 14.9375 
Q 60.6875 21.78125 60.6875 36.53125 
Q 60.6875 51.171875 53.6875 57.984375 
Q 46.6875 64.796875 31.59375 64.796875 
z
M 9.8125 72.90625 
L 30.078125 72.90625 
Q 51.265625 72.90625 61.171875 64.09375 
Q 71.09375 55.28125 71.09375 36.53125 
Q 71.09375 17.671875 61.125 8.828125 
Q 51.171875 0 30.078125 0 
L 9.8125 0 
z
" id="DejaVuSans-68"/>
     </defs>
     <g transform="translate(378.85125 102.104813)scale(0.1 -0.1)">
      <use xlink:href="#DejaVuSans-86"/>
      <use x="68.408203" xlink:href="#DejaVuSans-70"/>
      <use x="125.927734" xlink:href="#DejaVuSans-68"/>
      <use x="202.929688" xlink:href="#DejaVuSans-84"/>
     </g>
    </g>
   </g>
  </g>
 </g>
 <defs>
  <clipPath id="p7e5b6b0c7e">
   <rect height="266.112" width="357.12" x="57.6" y="41.472"/>
  </clipPath>
 </defs>
</svg>
