<?xml version="1.0" encoding="utf-8" standalone="no"?>
<!DOCTYPE svg PUBLIC "-//W3C//DTD SVG 1.1//EN"
  "http://www.w3.org/Graphics/SVG/1.1/DTD/svg11.dtd">
<!-- Created with matplotlib (https://matplotlib.org/) -->
<svg height="345.6pt" version="1.1" viewBox="0 0 460.8 345.6" width="460.8pt" xmlns="http://www.w3.org/2000/svg" xmlns:xlink="http://www.w3.org/1999/xlink">
 <defs>
  <style type="text/css">
*{stroke-linecap:butt;stroke-linejoin:round;}
  </style>
 </defs>
 <g id="figure_1">
  <g id="patch_1">
   <path d="M 0 345.6 
L 460.8 345.6 
L 460.8 0 
L 0 0 
z
" style="fill:#ffffff;"/>
  </g>
  <g id="axes_1">
   <g id="patch_2">
    <path d="M 57.6 307.584 
L 414.72 307.584 
L 414.72 41.472 
L 57.6 41.472 
z
" style="fill:#ffffff;"/>
   </g>
   <g id="matplotlib.axis_1">
    <g id="xtick_1">
     <g id="line2d_1">
      <defs>
       <path d="M 0 0 
L 0 3.5 
" id="mcea645acb1" style="stroke:#000000;stroke-width:0.8;"/>
      </defs>
      <g>
       <use style="stroke:#000000;stroke-width:0.8;" x="57.6" xlink:href="#mcea645acb1" y="307.584"/>
      </g>
     </g>
     <g id="text_1">
      <!-- 0 -->
      <defs>
       <path d="M 31.78125 66.40625 
Q 24.171875 66.40625 20.328125 58.90625 
Q 16.5 51.421875 16.5 36.375 
Q 16.5 21.390625 20.328125 13.890625 
Q 24.171875 6.390625 31.78125 6.390625 
Q 39.453125 6.390625 43.28125 13.890625 
Q 47.125 21.390625 47.125 36.375 
Q 47.125 51.421875 43.28125 58.90625 
Q 39.453125 66.40625 31.78125 66.40625 
z
M 31.78125 74.21875 
Q 44.046875 74.21875 50.515625 64.515625 
Q 56.984375 54.828125 56.984375 36.375 
Q 56.984375 17.96875 50.515625 8.265625 
Q 44.046875 -1.421875 31.78125 -1.421875 
Q 19.53125 -1.421875 13.0625 8.265625 
Q 6.59375 17.96875 6.59375 36.375 
Q 6.59375 54.828125 13.0625 64.515625 
Q 19.53125 74.21875 31.78125 74.21875 
z
" id="DejaVuSans-48"/>
      </defs>
      <g transform="translate(54.41875 322.182437)scale(0.1 -0.1)">
       <use xlink:href="#DejaVuSans-48"/>
      </g>
     </g>
    </g>
    <g id="xtick_2">
     <g id="line2d_2">
      <g>
       <use style="stroke:#000000;stroke-width:0.8;" x="129.024" xlink:href="#mcea645acb1" y="307.584"/>
      </g>
     </g>
     <g id="text_2">
      <!-- 20 -->
      <defs>
       <path d="M 19.1875 8.296875 
L 53.609375 8.296875 
L 53.609375 0 
L 7.328125 0 
L 7.328125 8.296875 
Q 12.9375 14.109375 22.625 23.890625 
Q 32.328125 33.6875 34.8125 36.53125 
Q 39.546875 41.84375 41.421875 45.53125 
Q 43.3125 49.21875 43.3125 52.78125 
Q 43.3125 58.59375 39.234375 62.25 
Q 35.15625 65.921875 28.609375 65.921875 
Q 23.96875 65.921875 18.8125 64.3125 
Q 13.671875 62.703125 7.8125 59.421875 
L 7.8125 69.390625 
Q 13.765625 71.78125 18.9375 73 
Q 24.125 74.21875 28.421875 74.21875 
Q 39.75 74.21875 46.484375 68.546875 
Q 53.21875 62.890625 53.21875 53.421875 
Q 53.21875 48.921875 51.53125 44.890625 
Q 49.859375 40.875 45.40625 35.40625 
Q 44.1875 33.984375 37.640625 27.21875 
Q 31.109375 20.453125 19.1875 8.296875 
z
" id="DejaVuSans-50"/>
      </defs>
      <g transform="translate(122.6615 322.182437)scale(0.1 -0.1)">
       <use xlink:href="#DejaVuSans-50"/>
       <use x="63.623047" xlink:href="#DejaVuSans-48"/>
      </g>
     </g>
    </g>
    <g id="xtick_3">
     <g id="line2d_3">
      <g>
       <use style="stroke:#000000;stroke-width:0.8;" x="200.448" xlink:href="#mcea645acb1" y="307.584"/>
      </g>
     </g>
     <g id="text_3">
      <!-- 40 -->
      <defs>
       <path d="M 37.796875 64.3125 
L 12.890625 25.390625 
L 37.796875 25.390625 
z
M 35.203125 72.90625 
L 47.609375 72.90625 
L 47.609375 25.390625 
L 58.015625 25.390625 
L 58.015625 17.1875 
L 47.609375 17.1875 
L 47.609375 0 
L 37.796875 0 
L 37.796875 17.1875 
L 4.890625 17.1875 
L 4.890625 26.703125 
z
" id="DejaVuSans-52"/>
      </defs>
      <g transform="translate(194.0855 322.182437)scale(0.1 -0.1)">
       <use xlink:href="#DejaVuSans-52"/>
       <use x="63.623047" xlink:href="#DejaVuSans-48"/>
      </g>
     </g>
    </g>
    <g id="xtick_4">
     <g id="line2d_4">
      <g>
       <use style="stroke:#000000;stroke-width:0.8;" x="271.872" xlink:href="#mcea645acb1" y="307.584"/>
      </g>
     </g>
     <g id="text_4">
      <!-- 60 -->
      <defs>
       <path d="M 33.015625 40.375 
Q 26.375 40.375 22.484375 35.828125 
Q 18.609375 31.296875 18.609375 23.390625 
Q 18.609375 15.53125 22.484375 10.953125 
Q 26.375 6.390625 33.015625 6.390625 
Q 39.65625 6.390625 43.53125 10.953125 
Q 47.40625 15.53125 47.40625 23.390625 
Q 47.40625 31.296875 43.53125 35.828125 
Q 39.65625 40.375 33.015625 40.375 
z
M 52.59375 71.296875 
L 52.59375 62.3125 
Q 48.875 64.0625 45.09375 64.984375 
Q 41.3125 65.921875 37.59375 65.921875 
Q 27.828125 65.921875 22.671875 59.328125 
Q 17.53125 52.734375 16.796875 39.40625 
Q 19.671875 43.65625 24.015625 45.921875 
Q 28.375 48.1875 33.59375 48.1875 
Q 44.578125 48.1875 50.953125 41.515625 
Q 57.328125 34.859375 57.328125 23.390625 
Q 57.328125 12.15625 50.6875 5.359375 
Q 44.046875 -1.421875 33.015625 -1.421875 
Q 20.359375 -1.421875 13.671875 8.265625 
Q 6.984375 17.96875 6.984375 36.375 
Q 6.984375 53.65625 15.1875 63.9375 
Q 23.390625 74.21875 37.203125 74.21875 
Q 40.921875 74.21875 44.703125 73.484375 
Q 48.484375 72.75 52.59375 71.296875 
z
" id="DejaVuSans-54"/>
      </defs>
      <g transform="translate(265.5095 322.182437)scale(0.1 -0.1)">
       <use xlink:href="#DejaVuSans-54"/>
       <use x="63.623047" xlink:href="#DejaVuSans-48"/>
      </g>
     </g>
    </g>
    <g id="xtick_5">
     <g id="line2d_5">
      <g>
       <use style="stroke:#000000;stroke-width:0.8;" x="343.296" xlink:href="#mcea645acb1" y="307.584"/>
      </g>
     </g>
     <g id="text_5">
      <!-- 80 -->
      <defs>
       <path d="M 31.78125 34.625 
Q 24.75 34.625 20.71875 30.859375 
Q 16.703125 27.09375 16.703125 20.515625 
Q 16.703125 13.921875 20.71875 10.15625 
Q 24.75 6.390625 31.78125 6.390625 
Q 38.8125 6.390625 42.859375 10.171875 
Q 46.921875 13.96875 46.921875 20.515625 
Q 46.921875 27.09375 42.890625 30.859375 
Q 38.875 34.625 31.78125 34.625 
z
M 21.921875 38.8125 
Q 15.578125 40.375 12.03125 44.71875 
Q 8.5 49.078125 8.5 55.328125 
Q 8.5 64.0625 14.71875 69.140625 
Q 20.953125 74.21875 31.78125 74.21875 
Q 42.671875 74.21875 48.875 69.140625 
Q 55.078125 64.0625 55.078125 55.328125 
Q 55.078125 49.078125 51.53125 44.71875 
Q 48 40.375 41.703125 38.8125 
Q 48.828125 37.15625 52.796875 32.3125 
Q 56.78125 27.484375 56.78125 20.515625 
Q 56.78125 9.90625 50.3125 4.234375 
Q 43.84375 -1.421875 31.78125 -1.421875 
Q 19.734375 -1.421875 13.25 4.234375 
Q 6.78125 9.90625 6.78125 20.515625 
Q 6.78125 27.484375 10.78125 32.3125 
Q 14.796875 37.15625 21.921875 38.8125 
z
M 18.3125 54.390625 
Q 18.3125 48.734375 21.84375 45.5625 
Q 25.390625 42.390625 31.78125 42.390625 
Q 38.140625 42.390625 41.71875 45.5625 
Q 45.3125 48.734375 45.3125 54.390625 
Q 45.3125 60.0625 41.71875 63.234375 
Q 38.140625 66.40625 31.78125 66.40625 
Q 25.390625 66.40625 21.84375 63.234375 
Q 18.3125 60.0625 18.3125 54.390625 
z
" id="DejaVuSans-56"/>
      </defs>
      <g transform="translate(336.9335 322.182437)scale(0.1 -0.1)">
       <use xlink:href="#DejaVuSans-56"/>
       <use x="63.623047" xlink:href="#DejaVuSans-48"/>
      </g>
     </g>
    </g>
    <g id="xtick_6">
     <g id="line2d_6">
      <g>
       <use style="stroke:#000000;stroke-width:0.8;" x="414.72" xlink:href="#mcea645acb1" y="307.584"/>
      </g>
     </g>
     <g id="text_6">
      <!-- 100 -->
      <defs>
       <path d="M 12.40625 8.296875 
L 28.515625 8.296875 
L 28.515625 63.921875 
L 10.984375 60.40625 
L 10.984375 69.390625 
L 28.421875 72.90625 
L 38.28125 72.90625 
L 38.28125 8.296875 
L 54.390625 8.296875 
L 54.390625 0 
L 12.40625 0 
z
" id="DejaVuSans-49"/>
      </defs>
      <g transform="translate(405.17625 322.182437)scale(0.1 -0.1)">
       <use xlink:href="#DejaVuSans-49"/>
       <use x="63.623047" xlink:href="#DejaVuSans-48"/>
       <use x="127.246094" xlink:href="#DejaVuSans-48"/>
      </g>
     </g>
    </g>
    <g id="text_7">
     <!-- loc -->
     <defs>
      <path d="M 9.421875 75.984375 
L 18.40625 75.984375 
L 18.40625 0 
L 9.421875 0 
z
" id="DejaVuSans-108"/>
      <path d="M 30.609375 48.390625 
Q 23.390625 48.390625 19.1875 42.75 
Q 14.984375 37.109375 14.984375 27.296875 
Q 14.984375 17.484375 19.15625 11.84375 
Q 23.34375 6.203125 30.609375 6.203125 
Q 37.796875 6.203125 41.984375 11.859375 
Q 46.1875 17.53125 46.1875 27.296875 
Q 46.1875 37.015625 41.984375 42.703125 
Q 37.796875 48.390625 30.609375 48.390625 
z
M 30.609375 56 
Q 42.328125 56 49.015625 48.375 
Q 55.71875 40.765625 55.71875 27.296875 
Q 55.71875 13.875 49.015625 6.21875 
Q 42.328125 -1.421875 30.609375 -1.421875 
Q 18.84375 -1.421875 12.171875 6.21875 
Q 5.515625 13.875 5.515625 27.296875 
Q 5.515625 40.765625 12.171875 48.375 
Q 18.84375 56 30.609375 56 
z
" id="DejaVuSans-111"/>
      <path d="M 48.78125 52.59375 
L 48.78125 44.1875 
Q 44.96875 46.296875 41.140625 47.34375 
Q 37.3125 48.390625 33.40625 48.390625 
Q 24.65625 48.390625 19.8125 42.84375 
Q 14.984375 37.3125 14.984375 27.296875 
Q 14.984375 17.28125 19.8125 11.734375 
Q 24.65625 6.203125 33.40625 6.203125 
Q 37.3125 6.203125 41.140625 7.25 
Q 44.96875 8.296875 48.78125 10.40625 
L 48.78125 2.09375 
Q 45.015625 0.34375 40.984375 -0.53125 
Q 36.96875 -1.421875 32.421875 -1.421875 
Q 20.0625 -1.421875 12.78125 6.34375 
Q 5.515625 14.109375 5.515625 27.296875 
Q 5.515625 40.671875 12.859375 48.328125 
Q 20.21875 56 33.015625 56 
Q 37.15625 56 41.109375 55.140625 
Q 45.0625 54.296875 48.78125 52.59375 
z
" id="DejaVuSans-99"/>
     </defs>
     <g transform="translate(228.962344 335.860562)scale(0.1 -0.1)">
      <use xlink:href="#DejaVuSans-108"/>
      <use x="27.783203" xlink:href="#DejaVuSans-111"/>
      <use x="88.964844" xlink:href="#DejaVuSans-99"/>
     </g>
    </g>
   </g>
   <g id="matplotlib.axis_2">
    <g id="ytick_1">
     <g id="line2d_7">
      <defs>
       <path d="M 0 0 
L -3.5 0 
" id="mb922b9c431" style="stroke:#000000;stroke-width:0.8;"/>
      </defs>
      <g>
       <use style="stroke:#000000;stroke-width:0.8;" x="57.6" xlink:href="#mb922b9c431" y="283.021051"/>
      </g>
     </g>
     <g id="text_8">
      <!-- 70 -->
      <defs>
       <path d="M 8.203125 72.90625 
L 55.078125 72.90625 
L 55.078125 68.703125 
L 28.609375 0 
L 18.3125 0 
L 43.21875 64.59375 
L 8.203125 64.59375 
z
" id="DejaVuSans-55"/>
      </defs>
      <g transform="translate(37.875 286.82027)scale(0.1 -0.1)">
       <use xlink:href="#DejaVuSans-55"/>
       <use x="63.623047" xlink:href="#DejaVuSans-48"/>
      </g>
     </g>
    </g>
    <g id="ytick_2">
     <g id="line2d_8">
      <g>
       <use style="stroke:#000000;stroke-width:0.8;" x="57.6" xlink:href="#mb922b9c431" y="244.778876"/>
      </g>
     </g>
     <g id="text_9">
      <!-- 75 -->
      <defs>
       <path d="M 10.796875 72.90625 
L 49.515625 72.90625 
L 49.515625 64.59375 
L 19.828125 64.59375 
L 19.828125 46.734375 
Q 21.96875 47.46875 24.109375 47.828125 
Q 26.265625 48.1875 28.421875 48.1875 
Q 40.625 48.1875 47.75 41.5 
Q 54.890625 34.8125 54.890625 23.390625 
Q 54.890625 11.625 47.5625 5.09375 
Q 40.234375 -1.421875 26.90625 -1.421875 
Q 22.3125 -1.421875 17.546875 -0.640625 
Q 12.796875 0.140625 7.71875 1.703125 
L 7.71875 11.625 
Q 12.109375 9.234375 16.796875 8.0625 
Q 21.484375 6.890625 26.703125 6.890625 
Q 35.15625 6.890625 40.078125 11.328125 
Q 45.015625 15.765625 45.015625 23.390625 
Q 45.015625 31 40.078125 35.4375 
Q 35.15625 39.890625 26.703125 39.890625 
Q 22.75 39.890625 18.8125 39.015625 
Q 14.890625 38.140625 10.796875 36.28125 
z
" id="DejaVuSans-53"/>
      </defs>
      <g transform="translate(37.875 248.578095)scale(0.1 -0.1)">
       <use xlink:href="#DejaVuSans-55"/>
       <use x="63.623047" xlink:href="#DejaVuSans-53"/>
      </g>
     </g>
    </g>
    <g id="ytick_3">
     <g id="line2d_9">
      <g>
       <use style="stroke:#000000;stroke-width:0.8;" x="57.6" xlink:href="#mb922b9c431" y="206.536701"/>
      </g>
     </g>
     <g id="text_10">
      <!-- 80 -->
      <g transform="translate(37.875 210.335919)scale(0.1 -0.1)">
       <use xlink:href="#DejaVuSans-56"/>
       <use x="63.623047" xlink:href="#DejaVuSans-48"/>
      </g>
     </g>
    </g>
    <g id="ytick_4">
     <g id="line2d_10">
      <g>
       <use style="stroke:#000000;stroke-width:0.8;" x="57.6" xlink:href="#mb922b9c431" y="168.294525"/>
      </g>
     </g>
     <g id="text_11">
      <!-- 85 -->
      <g transform="translate(37.875 172.093744)scale(0.1 -0.1)">
       <use xlink:href="#DejaVuSans-56"/>
       <use x="63.623047" xlink:href="#DejaVuSans-53"/>
      </g>
     </g>
    </g>
    <g id="ytick_5">
     <g id="line2d_11">
      <g>
       <use style="stroke:#000000;stroke-width:0.8;" x="57.6" xlink:href="#mb922b9c431" y="130.05235"/>
      </g>
     </g>
     <g id="text_12">
      <!-- 90 -->
      <defs>
       <path d="M 10.984375 1.515625 
L 10.984375 10.5 
Q 14.703125 8.734375 18.5 7.8125 
Q 22.3125 6.890625 25.984375 6.890625 
Q 35.75 6.890625 40.890625 13.453125 
Q 46.046875 20.015625 46.78125 33.40625 
Q 43.953125 29.203125 39.59375 26.953125 
Q 35.25 24.703125 29.984375 24.703125 
Q 19.046875 24.703125 12.671875 31.3125 
Q 6.296875 37.9375 6.296875 49.421875 
Q 6.296875 60.640625 12.9375 67.421875 
Q 19.578125 74.21875 30.609375 74.21875 
Q 43.265625 74.21875 49.921875 64.515625 
Q 56.59375 54.828125 56.59375 36.375 
Q 56.59375 19.140625 48.40625 8.859375 
Q 40.234375 -1.421875 26.421875 -1.421875 
Q 22.703125 -1.421875 18.890625 -0.6875 
Q 15.09375 0.046875 10.984375 1.515625 
z
M 30.609375 32.421875 
Q 37.25 32.421875 41.125 36.953125 
Q 45.015625 41.5 45.015625 49.421875 
Q 45.015625 57.28125 41.125 61.84375 
Q 37.25 66.40625 30.609375 66.40625 
Q 23.96875 66.40625 20.09375 61.84375 
Q 16.21875 57.28125 16.21875 49.421875 
Q 16.21875 41.5 20.09375 36.953125 
Q 23.96875 32.421875 30.609375 32.421875 
z
" id="DejaVuSans-57"/>
      </defs>
      <g transform="translate(37.875 133.851569)scale(0.1 -0.1)">
       <use xlink:href="#DejaVuSans-57"/>
       <use x="63.623047" xlink:href="#DejaVuSans-48"/>
      </g>
     </g>
    </g>
    <g id="ytick_6">
     <g id="line2d_12">
      <g>
       <use style="stroke:#000000;stroke-width:0.8;" x="57.6" xlink:href="#mb922b9c431" y="91.810175"/>
      </g>
     </g>
     <g id="text_13">
      <!-- 95 -->
      <g transform="translate(37.875 95.609394)scale(0.1 -0.1)">
       <use xlink:href="#DejaVuSans-57"/>
       <use x="63.623047" xlink:href="#DejaVuSans-53"/>
      </g>
     </g>
    </g>
    <g id="ytick_7">
     <g id="line2d_13">
      <g>
       <use style="stroke:#000000;stroke-width:0.8;" x="57.6" xlink:href="#mb922b9c431" y="53.568"/>
      </g>
     </g>
     <g id="text_14">
      <!-- 100 -->
      <g transform="translate(31.5125 57.367219)scale(0.1 -0.1)">
       <use xlink:href="#DejaVuSans-49"/>
       <use x="63.623047" xlink:href="#DejaVuSans-48"/>
       <use x="127.246094" xlink:href="#DejaVuSans-48"/>
      </g>
     </g>
    </g>
    <g id="text_15">
     <!-- d2h -->
     <defs>
      <path d="M 45.40625 46.390625 
L 45.40625 75.984375 
L 54.390625 75.984375 
L 54.390625 0 
L 45.40625 0 
L 45.40625 8.203125 
Q 42.578125 3.328125 38.25 0.953125 
Q 33.9375 -1.421875 27.875 -1.421875 
Q 17.96875 -1.421875 11.734375 6.484375 
Q 5.515625 14.40625 5.515625 27.296875 
Q 5.515625 40.1875 11.734375 48.09375 
Q 17.96875 56 27.875 56 
Q 33.9375 56 38.25 53.625 
Q 42.578125 51.265625 45.40625 46.390625 
z
M 14.796875 27.296875 
Q 14.796875 17.390625 18.875 11.75 
Q 22.953125 6.109375 30.078125 6.109375 
Q 37.203125 6.109375 41.296875 11.75 
Q 45.40625 17.390625 45.40625 27.296875 
Q 45.40625 37.203125 41.296875 42.84375 
Q 37.203125 48.484375 30.078125 48.484375 
Q 22.953125 48.484375 18.875 42.84375 
Q 14.796875 37.203125 14.796875 27.296875 
z
" id="DejaVuSans-100"/>
      <path d="M 54.890625 33.015625 
L 54.890625 0 
L 45.90625 0 
L 45.90625 32.71875 
Q 45.90625 40.484375 42.875 44.328125 
Q 39.84375 48.1875 33.796875 48.1875 
Q 26.515625 48.1875 22.3125 43.546875 
Q 18.109375 38.921875 18.109375 30.90625 
L 18.109375 0 
L 9.078125 0 
L 9.078125 75.984375 
L 18.109375 75.984375 
L 18.109375 46.1875 
Q 21.34375 51.125 25.703125 53.5625 
Q 30.078125 56 35.796875 56 
Q 45.21875 56 50.046875 50.171875 
Q 54.890625 44.34375 54.890625 33.015625 
z
" id="DejaVuSans-104"/>
     </defs>
     <g transform="translate(25.432812 184.052219)rotate(-90)scale(0.1 -0.1)">
      <use xlink:href="#DejaVuSans-100"/>
      <use x="63.476562" xlink:href="#DejaVuSans-50"/>
      <use x="127.099609" xlink:href="#DejaVuSans-104"/>
     </g>
    </g>
   </g>
   <g id="line2d_14">
    <path clip-path="url(#p102dc1e8bf)" d="M 57.671424 53.568 
L 57.707136 53.568 
L 57.849984 53.568 
L 57.885696 53.568 
L 57.921408 53.568 
L 57.921408 53.568 
L 57.95712 53.568 
L 57.992832 53.568 
L 58.028544 53.568 
L 58.064256 53.568 
L 58.385664 53.568 
L 58.635648 53.568 
L 59.02848 252.580279 
L 59.314176 212.273027 
L 59.635584 257.704731 
L 59.814144 241.413564 
L 60.064128 258.163637 
L 60.45696 215.48537 
L 60.956928 215.714823 
L 75.670272 286.998237 
L 93.097728 221.527633 
L 111.168 165.923511 
L 128.1312 225.428335 
L 146.094336 211.814121 
L 163.200384 173.11304 
L 181.734912 140.148285 
L 199.340928 148.33211 
L 217.58976 150.397187 
L 236.409984 124.545477 
L 253.83744 135.941645 
L 270.693504 138.465629 
L 289.335168 138.465629 
L 307.869696 142.825237 
L 326.51136 280.72652 
L 343.331712 209.290137 
L 362.151936 209.825528 
L 379.079424 150.244219 
L 397.363968 135.559224 
L 414.72 116.438136 
" style="fill:none;stroke:#008000;stroke-linecap:square;stroke-width:1.5;"/>
    <defs>
     <path d="M -3 3 
L 3 -3 
M -3 -3 
L 3 3 
" id="m438fe43024" style="stroke:#008000;"/>
    </defs>
    <g clip-path="url(#p102dc1e8bf)">
     <use style="fill:#008000;stroke:#008000;" x="57.671424" xlink:href="#m438fe43024" y="53.568"/>
     <use style="fill:#008000;stroke:#008000;" x="57.707136" xlink:href="#m438fe43024" y="53.568"/>
     <use style="fill:#008000;stroke:#008000;" x="57.849984" xlink:href="#m438fe43024" y="53.568"/>
     <use style="fill:#008000;stroke:#008000;" x="57.885696" xlink:href="#m438fe43024" y="53.568"/>
     <use style="fill:#008000;stroke:#008000;" x="57.921408" xlink:href="#m438fe43024" y="53.568"/>
     <use style="fill:#008000;stroke:#008000;" x="57.921408" xlink:href="#m438fe43024" y="53.568"/>
     <use style="fill:#008000;stroke:#008000;" x="57.95712" xlink:href="#m438fe43024" y="53.568"/>
     <use style="fill:#008000;stroke:#008000;" x="57.992832" xlink:href="#m438fe43024" y="53.568"/>
     <use style="fill:#008000;stroke:#008000;" x="58.028544" xlink:href="#m438fe43024" y="53.568"/>
     <use style="fill:#008000;stroke:#008000;" x="58.064256" xlink:href="#m438fe43024" y="53.568"/>
     <use style="fill:#008000;stroke:#008000;" x="58.385664" xlink:href="#m438fe43024" y="53.568"/>
     <use style="fill:#008000;stroke:#008000;" x="58.635648" xlink:href="#m438fe43024" y="53.568"/>
     <use style="fill:#008000;stroke:#008000;" x="59.02848" xlink:href="#m438fe43024" y="252.580279"/>
     <use style="fill:#008000;stroke:#008000;" x="59.314176" xlink:href="#m438fe43024" y="212.273027"/>
     <use style="fill:#008000;stroke:#008000;" x="59.635584" xlink:href="#m438fe43024" y="257.704731"/>
     <use style="fill:#008000;stroke:#008000;" x="59.814144" xlink:href="#m438fe43024" y="241.413564"/>
     <use style="fill:#008000;stroke:#008000;" x="60.064128" xlink:href="#m438fe43024" y="258.163637"/>
     <use style="fill:#008000;stroke:#008000;" x="60.45696" xlink:href="#m438fe43024" y="215.48537"/>
     <use style="fill:#008000;stroke:#008000;" x="60.956928" xlink:href="#m438fe43024" y="215.714823"/>
     <use style="fill:#008000;stroke:#008000;" x="75.670272" xlink:href="#m438fe43024" y="286.998237"/>
     <use style="fill:#008000;stroke:#008000;" x="93.097728" xlink:href="#m438fe43024" y="221.527633"/>
     <use style="fill:#008000;stroke:#008000;" x="111.168" xlink:href="#m438fe43024" y="165.923511"/>
     <use style="fill:#008000;stroke:#008000;" x="128.1312" xlink:href="#m438fe43024" y="225.428335"/>
     <use style="fill:#008000;stroke:#008000;" x="146.094336" xlink:href="#m438fe43024" y="211.814121"/>
     <use style="fill:#008000;stroke:#008000;" x="163.200384" xlink:href="#m438fe43024" y="173.11304"/>
     <use style="fill:#008000;stroke:#008000;" x="181.734912" xlink:href="#m438fe43024" y="140.148285"/>
     <use style="fill:#008000;stroke:#008000;" x="199.340928" xlink:href="#m438fe43024" y="148.33211"/>
     <use style="fill:#008000;stroke:#008000;" x="217.58976" xlink:href="#m438fe43024" y="150.397187"/>
     <use style="fill:#008000;stroke:#008000;" x="236.409984" xlink:href="#m438fe43024" y="124.545477"/>
     <use style="fill:#008000;stroke:#008000;" x="253.83744" xlink:href="#m438fe43024" y="135.941645"/>
     <use style="fill:#008000;stroke:#008000;" x="270.693504" xlink:href="#m438fe43024" y="138.465629"/>
     <use style="fill:#008000;stroke:#008000;" x="289.335168" xlink:href="#m438fe43024" y="138.465629"/>
     <use style="fill:#008000;stroke:#008000;" x="307.869696" xlink:href="#m438fe43024" y="142.825237"/>
     <use style="fill:#008000;stroke:#008000;" x="326.51136" xlink:href="#m438fe43024" y="280.72652"/>
     <use style="fill:#008000;stroke:#008000;" x="343.331712" xlink:href="#m438fe43024" y="209.290137"/>
     <use style="fill:#008000;stroke:#008000;" x="362.151936" xlink:href="#m438fe43024" y="209.825528"/>
     <use style="fill:#008000;stroke:#008000;" x="379.079424" xlink:href="#m438fe43024" y="150.244219"/>
     <use style="fill:#008000;stroke:#008000;" x="397.363968" xlink:href="#m438fe43024" y="135.559224"/>
     <use style="fill:#008000;stroke:#008000;" x="414.72" xlink:href="#m438fe43024" y="116.438136"/>
    </g>
   </g>
   <g id="line2d_15">
    <path clip-path="url(#p102dc1e8bf)" d="M 57.671424 278.584959 
L 57.707136 53.568 
L 57.849984 53.568 
L 57.885696 53.568 
L 57.921408 53.568 
L 57.921408 53.568 
L 57.95712 53.568 
L 57.992832 53.568 
L 58.028544 53.568 
L 58.064256 53.568 
L 58.385664 53.568 
L 58.635648 87.832989 
L 59.02848 275.602069 
L 59.314176 266.959337 
L 59.635584 53.568 
L 59.814144 275.602069 
L 60.064128 278.737927 
L 60.45696 53.568 
L 60.956928 53.568 
L 75.670272 208.907715 
L 93.097728 280.573552 
L 111.168 265.812072 
L 128.1312 280.573552 
L 146.094336 279.655739 
L 163.200384 280.19113 
L 181.734912 270.095196 
L 199.340928 273.766445 
L 217.58976 273.766445 
L 236.409984 280.420583 
L 253.83744 273.766445 
L 270.693504 274.837225 
L 289.335168 261.987855 
L 307.869696 268.41254 
L 326.51136 266.500431 
L 343.331712 186.268348 
L 362.151936 187.492097 
L 379.079424 187.492097 
L 397.363968 192.46358 
L 414.72 192.46358 
" style="fill:none;stroke:#ff0000;stroke-linecap:square;stroke-width:1.5;"/>
    <defs>
     <path d="M 0 3 
C 0.795609 3 1.55874 2.683901 2.12132 2.12132 
C 2.683901 1.55874 3 0.795609 3 0 
C 3 -0.795609 2.683901 -1.55874 2.12132 -2.12132 
C 1.55874 -2.683901 0.795609 -3 0 -3 
C -0.795609 -3 -1.55874 -2.683901 -2.12132 -2.12132 
C -2.683901 -1.55874 -3 -0.795609 -3 0 
C -3 0.795609 -2.683901 1.55874 -2.12132 2.12132 
C -1.55874 2.683901 -0.795609 3 0 3 
z
" id="m0f1be3872b" style="stroke:#ff0000;"/>
    </defs>
    <g clip-path="url(#p102dc1e8bf)">
     <use style="fill:#ff0000;stroke:#ff0000;" x="57.671424" xlink:href="#m0f1be3872b" y="278.584959"/>
     <use style="fill:#ff0000;stroke:#ff0000;" x="57.707136" xlink:href="#m0f1be3872b" y="53.568"/>
     <use style="fill:#ff0000;stroke:#ff0000;" x="57.849984" xlink:href="#m0f1be3872b" y="53.568"/>
     <use style="fill:#ff0000;stroke:#ff0000;" x="57.885696" xlink:href="#m0f1be3872b" y="53.568"/>
     <use style="fill:#ff0000;stroke:#ff0000;" x="57.921408" xlink:href="#m0f1be3872b" y="53.568"/>
     <use style="fill:#ff0000;stroke:#ff0000;" x="57.921408" xlink:href="#m0f1be3872b" y="53.568"/>
     <use style="fill:#ff0000;stroke:#ff0000;" x="57.95712" xlink:href="#m0f1be3872b" y="53.568"/>
     <use style="fill:#ff0000;stroke:#ff0000;" x="57.992832" xlink:href="#m0f1be3872b" y="53.568"/>
     <use style="fill:#ff0000;stroke:#ff0000;" x="58.028544" xlink:href="#m0f1be3872b" y="53.568"/>
     <use style="fill:#ff0000;stroke:#ff0000;" x="58.064256" xlink:href="#m0f1be3872b" y="53.568"/>
     <use style="fill:#ff0000;stroke:#ff0000;" x="58.385664" xlink:href="#m0f1be3872b" y="53.568"/>
     <use style="fill:#ff0000;stroke:#ff0000;" x="58.635648" xlink:href="#m0f1be3872b" y="87.832989"/>
     <use style="fill:#ff0000;stroke:#ff0000;" x="59.02848" xlink:href="#m0f1be3872b" y="275.602069"/>
     <use style="fill:#ff0000;stroke:#ff0000;" x="59.314176" xlink:href="#m0f1be3872b" y="266.959337"/>
     <use style="fill:#ff0000;stroke:#ff0000;" x="59.635584" xlink:href="#m0f1be3872b" y="53.568"/>
     <use style="fill:#ff0000;stroke:#ff0000;" x="59.814144" xlink:href="#m0f1be3872b" y="275.602069"/>
     <use style="fill:#ff0000;stroke:#ff0000;" x="60.064128" xlink:href="#m0f1be3872b" y="278.737927"/>
     <use style="fill:#ff0000;stroke:#ff0000;" x="60.45696" xlink:href="#m0f1be3872b" y="53.568"/>
     <use style="fill:#ff0000;stroke:#ff0000;" x="60.956928" xlink:href="#m0f1be3872b" y="53.568"/>
     <use style="fill:#ff0000;stroke:#ff0000;" x="75.670272" xlink:href="#m0f1be3872b" y="208.907715"/>
     <use style="fill:#ff0000;stroke:#ff0000;" x="93.097728" xlink:href="#m0f1be3872b" y="280.573552"/>
     <use style="fill:#ff0000;stroke:#ff0000;" x="111.168" xlink:href="#m0f1be3872b" y="265.812072"/>
     <use style="fill:#ff0000;stroke:#ff0000;" x="128.1312" xlink:href="#m0f1be3872b" y="280.573552"/>
     <use style="fill:#ff0000;stroke:#ff0000;" x="146.094336" xlink:href="#m0f1be3872b" y="279.655739"/>
     <use style="fill:#ff0000;stroke:#ff0000;" x="163.200384" xlink:href="#m0f1be3872b" y="280.19113"/>
     <use style="fill:#ff0000;stroke:#ff0000;" x="181.734912" xlink:href="#m0f1be3872b" y="270.095196"/>
     <use style="fill:#ff0000;stroke:#ff0000;" x="199.340928" xlink:href="#m0f1be3872b" y="273.766445"/>
     <use style="fill:#ff0000;stroke:#ff0000;" x="217.58976" xlink:href="#m0f1be3872b" y="273.766445"/>
     <use style="fill:#ff0000;stroke:#ff0000;" x="236.409984" xlink:href="#m0f1be3872b" y="280.420583"/>
     <use style="fill:#ff0000;stroke:#ff0000;" x="253.83744" xlink:href="#m0f1be3872b" y="273.766445"/>
     <use style="fill:#ff0000;stroke:#ff0000;" x="270.693504" xlink:href="#m0f1be3872b" y="274.837225"/>
     <use style="fill:#ff0000;stroke:#ff0000;" x="289.335168" xlink:href="#m0f1be3872b" y="261.987855"/>
     <use style="fill:#ff0000;stroke:#ff0000;" x="307.869696" xlink:href="#m0f1be3872b" y="268.41254"/>
     <use style="fill:#ff0000;stroke:#ff0000;" x="326.51136" xlink:href="#m0f1be3872b" y="266.500431"/>
     <use style="fill:#ff0000;stroke:#ff0000;" x="343.331712" xlink:href="#m0f1be3872b" y="186.268348"/>
     <use style="fill:#ff0000;stroke:#ff0000;" x="362.151936" xlink:href="#m0f1be3872b" y="187.492097"/>
     <use style="fill:#ff0000;stroke:#ff0000;" x="379.079424" xlink:href="#m0f1be3872b" y="187.492097"/>
     <use style="fill:#ff0000;stroke:#ff0000;" x="397.363968" xlink:href="#m0f1be3872b" y="192.46358"/>
     <use style="fill:#ff0000;stroke:#ff0000;" x="414.72" xlink:href="#m0f1be3872b" y="192.46358"/>
    </g>
   </g>
   <g id="line2d_16">
    <path clip-path="url(#p102dc1e8bf)" d="M 57.671424 53.568 
L 57.707136 53.568 
L 57.849984 53.568 
L 57.885696 53.568 
L 57.921408 53.568 
L 57.921408 53.568 
L 57.95712 53.568 
L 57.992832 53.568 
L 58.028544 53.568 
L 58.064256 53.568 
L 58.385664 53.568 
L 58.635648 53.568 
L 59.02848 53.568 
L 59.314176 273.68996 
L 59.635584 53.568 
L 59.814144 197.511547 
L 60.064128 272.160273 
L 60.45696 103.129859 
L 60.956928 152.691718 
L 75.670272 285.927456 
L 93.097728 290.975423 
L 111.168 278.890896 
L 128.1312 295.488 
L 146.094336 292.811048 
L 163.200384 266.423947 
L 181.734912 244.396454 
L 199.340928 263.67051 
L 217.58976 252.962701 
L 236.409984 258.163637 
L 253.83744 225.122398 
L 270.693504 248.297156 
L 289.335168 214.949979 
L 307.869696 222.215992 
L 326.51136 229.864427 
L 343.331712 237.512862 
L 362.151936 220.839274 
L 379.079424 232.923801 
L 397.363968 224.434039 
L 414.72 236.59505 
" style="fill:none;stroke:#0000ff;stroke-linecap:square;stroke-width:1.5;"/>
    <defs>
     <path d="M -3 0 
L 3 0 
M 0 3 
L 0 -3 
" id="m35318e2dfa" style="stroke:#0000ff;"/>
    </defs>
    <g clip-path="url(#p102dc1e8bf)">
     <use style="fill:#0000ff;stroke:#0000ff;" x="57.671424" xlink:href="#m35318e2dfa" y="53.568"/>
     <use style="fill:#0000ff;stroke:#0000ff;" x="57.707136" xlink:href="#m35318e2dfa" y="53.568"/>
     <use style="fill:#0000ff;stroke:#0000ff;" x="57.849984" xlink:href="#m35318e2dfa" y="53.568"/>
     <use style="fill:#0000ff;stroke:#0000ff;" x="57.885696" xlink:href="#m35318e2dfa" y="53.568"/>
     <use style="fill:#0000ff;stroke:#0000ff;" x="57.921408" xlink:href="#m35318e2dfa" y="53.568"/>
     <use style="fill:#0000ff;stroke:#0000ff;" x="57.921408" xlink:href="#m35318e2dfa" y="53.568"/>
     <use style="fill:#0000ff;stroke:#0000ff;" x="57.95712" xlink:href="#m35318e2dfa" y="53.568"/>
     <use style="fill:#0000ff;stroke:#0000ff;" x="57.992832" xlink:href="#m35318e2dfa" y="53.568"/>
     <use style="fill:#0000ff;stroke:#0000ff;" x="58.028544" xlink:href="#m35318e2dfa" y="53.568"/>
     <use style="fill:#0000ff;stroke:#0000ff;" x="58.064256" xlink:href="#m35318e2dfa" y="53.568"/>
     <use style="fill:#0000ff;stroke:#0000ff;" x="58.385664" xlink:href="#m35318e2dfa" y="53.568"/>
     <use style="fill:#0000ff;stroke:#0000ff;" x="58.635648" xlink:href="#m35318e2dfa" y="53.568"/>
     <use style="fill:#0000ff;stroke:#0000ff;" x="59.02848" xlink:href="#m35318e2dfa" y="53.568"/>
     <use style="fill:#0000ff;stroke:#0000ff;" x="59.314176" xlink:href="#m35318e2dfa" y="273.68996"/>
     <use style="fill:#0000ff;stroke:#0000ff;" x="59.635584" xlink:href="#m35318e2dfa" y="53.568"/>
     <use style="fill:#0000ff;stroke:#0000ff;" x="59.814144" xlink:href="#m35318e2dfa" y="197.511547"/>
     <use style="fill:#0000ff;stroke:#0000ff;" x="60.064128" xlink:href="#m35318e2dfa" y="272.160273"/>
     <use style="fill:#0000ff;stroke:#0000ff;" x="60.45696" xlink:href="#m35318e2dfa" y="103.129859"/>
     <use style="fill:#0000ff;stroke:#0000ff;" x="60.956928" xlink:href="#m35318e2dfa" y="152.691718"/>
     <use style="fill:#0000ff;stroke:#0000ff;" x="75.670272" xlink:href="#m35318e2dfa" y="285.927456"/>
     <use style="fill:#0000ff;stroke:#0000ff;" x="93.097728" xlink:href="#m35318e2dfa" y="290.975423"/>
     <use style="fill:#0000ff;stroke:#0000ff;" x="111.168" xlink:href="#m35318e2dfa" y="278.890896"/>
     <use style="fill:#0000ff;stroke:#0000ff;" x="128.1312" xlink:href="#m35318e2dfa" y="295.488"/>
     <use style="fill:#0000ff;stroke:#0000ff;" x="146.094336" xlink:href="#m35318e2dfa" y="292.811048"/>
     <use style="fill:#0000ff;stroke:#0000ff;" x="163.200384" xlink:href="#m35318e2dfa" y="266.423947"/>
     <use style="fill:#0000ff;stroke:#0000ff;" x="181.734912" xlink:href="#m35318e2dfa" y="244.396454"/>
     <use style="fill:#0000ff;stroke:#0000ff;" x="199.340928" xlink:href="#m35318e2dfa" y="263.67051"/>
     <use style="fill:#0000ff;stroke:#0000ff;" x="217.58976" xlink:href="#m35318e2dfa" y="252.962701"/>
     <use style="fill:#0000ff;stroke:#0000ff;" x="236.409984" xlink:href="#m35318e2dfa" y="258.163637"/>
     <use style="fill:#0000ff;stroke:#0000ff;" x="253.83744" xlink:href="#m35318e2dfa" y="225.122398"/>
     <use style="fill:#0000ff;stroke:#0000ff;" x="270.693504" xlink:href="#m35318e2dfa" y="248.297156"/>
     <use style="fill:#0000ff;stroke:#0000ff;" x="289.335168" xlink:href="#m35318e2dfa" y="214.949979"/>
     <use style="fill:#0000ff;stroke:#0000ff;" x="307.869696" xlink:href="#m35318e2dfa" y="222.215992"/>
     <use style="fill:#0000ff;stroke:#0000ff;" x="326.51136" xlink:href="#m35318e2dfa" y="229.864427"/>
     <use style="fill:#0000ff;stroke:#0000ff;" x="343.331712" xlink:href="#m35318e2dfa" y="237.512862"/>
     <use style="fill:#0000ff;stroke:#0000ff;" x="362.151936" xlink:href="#m35318e2dfa" y="220.839274"/>
     <use style="fill:#0000ff;stroke:#0000ff;" x="379.079424" xlink:href="#m35318e2dfa" y="232.923801"/>
     <use style="fill:#0000ff;stroke:#0000ff;" x="397.363968" xlink:href="#m35318e2dfa" y="224.434039"/>
     <use style="fill:#0000ff;stroke:#0000ff;" x="414.72" xlink:href="#m35318e2dfa" y="236.59505"/>
    </g>
   </g>
   <g id="line2d_17">
    <path clip-path="url(#p102dc1e8bf)" d="M 57.671424 53.568 
L 57.707136 53.568 
L 57.849984 53.568 
L 57.885696 53.568 
L 57.921408 53.568 
L 57.921408 53.568 
L 57.95712 53.568 
L 57.992832 53.568 
L 58.028544 53.568 
L 58.064256 53.568 
L 58.385664 53.568 
L 58.635648 53.568 
L 59.02848 53.568 
L 59.314176 53.568 
L 59.635584 53.568 
L 59.814144 53.568 
L 60.064128 264.741291 
L 60.45696 205.159982 
L 60.956928 211.661152 
L 75.670272 258.699028 
L 93.097728 267.647696 
L 111.168 273.766445 
L 128.1312 279.196833 
L 146.094336 278.814412 
L 163.200384 282.791598 
L 181.734912 278.279021 
L 199.340928 277.055272 
L 217.58976 275.296132 
L 236.409984 276.596365 
L 253.83744 278.814412 
L 270.693504 279.502771 
L 289.335168 275.755038 
L 307.869696 278.508474 
L 326.51136 279.502771 
L 343.331712 279.808708 
L 362.151936 278.890896 
L 379.079424 281.185426 
L 397.363968 279.196833 
L 414.72 279.120349 
" style="fill:none;stroke:#000000;stroke-linecap:square;stroke-width:1.5;"/>
    <defs>
     <path d="M -3 3 
L 3 3 
L 3 -3 
L -3 -3 
z
" id="m7d379835f0" style="stroke:#000000;stroke-linejoin:miter;"/>
    </defs>
    <g clip-path="url(#p102dc1e8bf)">
     <use style="stroke:#000000;stroke-linejoin:miter;" x="57.671424" xlink:href="#m7d379835f0" y="53.568"/>
     <use style="stroke:#000000;stroke-linejoin:miter;" x="57.707136" xlink:href="#m7d379835f0" y="53.568"/>
     <use style="stroke:#000000;stroke-linejoin:miter;" x="57.849984" xlink:href="#m7d379835f0" y="53.568"/>
     <use style="stroke:#000000;stroke-linejoin:miter;" x="57.885696" xlink:href="#m7d379835f0" y="53.568"/>
     <use style="stroke:#000000;stroke-linejoin:miter;" x="57.921408" xlink:href="#m7d379835f0" y="53.568"/>
     <use style="stroke:#000000;stroke-linejoin:miter;" x="57.921408" xlink:href="#m7d379835f0" y="53.568"/>
     <use style="stroke:#000000;stroke-linejoin:miter;" x="57.95712" xlink:href="#m7d379835f0" y="53.568"/>
     <use style="stroke:#000000;stroke-linejoin:miter;" x="57.992832" xlink:href="#m7d379835f0" y="53.568"/>
     <use style="stroke:#000000;stroke-linejoin:miter;" x="58.028544" xlink:href="#m7d379835f0" y="53.568"/>
     <use style="stroke:#000000;stroke-linejoin:miter;" x="58.064256" xlink:href="#m7d379835f0" y="53.568"/>
     <use style="stroke:#000000;stroke-linejoin:miter;" x="58.385664" xlink:href="#m7d379835f0" y="53.568"/>
     <use style="stroke:#000000;stroke-linejoin:miter;" x="58.635648" xlink:href="#m7d379835f0" y="53.568"/>
     <use style="stroke:#000000;stroke-linejoin:miter;" x="59.02848" xlink:href="#m7d379835f0" y="53.568"/>
     <use style="stroke:#000000;stroke-linejoin:miter;" x="59.314176" xlink:href="#m7d379835f0" y="53.568"/>
     <use style="stroke:#000000;stroke-linejoin:miter;" x="59.635584" xlink:href="#m7d379835f0" y="53.568"/>
     <use style="stroke:#000000;stroke-linejoin:miter;" x="59.814144" xlink:href="#m7d379835f0" y="53.568"/>
     <use style="stroke:#000000;stroke-linejoin:miter;" x="60.064128" xlink:href="#m7d379835f0" y="264.741291"/>
     <use style="stroke:#000000;stroke-linejoin:miter;" x="60.45696" xlink:href="#m7d379835f0" y="205.159982"/>
     <use style="stroke:#000000;stroke-linejoin:miter;" x="60.956928" xlink:href="#m7d379835f0" y="211.661152"/>
     <use style="stroke:#000000;stroke-linejoin:miter;" x="75.670272" xlink:href="#m7d379835f0" y="258.699028"/>
     <use style="stroke:#000000;stroke-linejoin:miter;" x="93.097728" xlink:href="#m7d379835f0" y="267.647696"/>
     <use style="stroke:#000000;stroke-linejoin:miter;" x="111.168" xlink:href="#m7d379835f0" y="273.766445"/>
     <use style="stroke:#000000;stroke-linejoin:miter;" x="128.1312" xlink:href="#m7d379835f0" y="279.196833"/>
     <use style="stroke:#000000;stroke-linejoin:miter;" x="146.094336" xlink:href="#m7d379835f0" y="278.814412"/>
     <use style="stroke:#000000;stroke-linejoin:miter;" x="163.200384" xlink:href="#m7d379835f0" y="282.791598"/>
     <use style="stroke:#000000;stroke-linejoin:miter;" x="181.734912" xlink:href="#m7d379835f0" y="278.279021"/>
     <use style="stroke:#000000;stroke-linejoin:miter;" x="199.340928" xlink:href="#m7d379835f0" y="277.055272"/>
     <use style="stroke:#000000;stroke-linejoin:miter;" x="217.58976" xlink:href="#m7d379835f0" y="275.296132"/>
     <use style="stroke:#000000;stroke-linejoin:miter;" x="236.409984" xlink:href="#m7d379835f0" y="276.596365"/>
     <use style="stroke:#000000;stroke-linejoin:miter;" x="253.83744" xlink:href="#m7d379835f0" y="278.814412"/>
     <use style="stroke:#000000;stroke-linejoin:miter;" x="270.693504" xlink:href="#m7d379835f0" y="279.502771"/>
     <use style="stroke:#000000;stroke-linejoin:miter;" x="289.335168" xlink:href="#m7d379835f0" y="275.755038"/>
     <use style="stroke:#000000;stroke-linejoin:miter;" x="307.869696" xlink:href="#m7d379835f0" y="278.508474"/>
     <use style="stroke:#000000;stroke-linejoin:miter;" x="326.51136" xlink:href="#m7d379835f0" y="279.502771"/>
     <use style="stroke:#000000;stroke-linejoin:miter;" x="343.331712" xlink:href="#m7d379835f0" y="279.808708"/>
     <use style="stroke:#000000;stroke-linejoin:miter;" x="362.151936" xlink:href="#m7d379835f0" y="278.890896"/>
     <use style="stroke:#000000;stroke-linejoin:miter;" x="379.079424" xlink:href="#m7d379835f0" y="281.185426"/>
     <use style="stroke:#000000;stroke-linejoin:miter;" x="397.363968" xlink:href="#m7d379835f0" y="279.196833"/>
     <use style="stroke:#000000;stroke-linejoin:miter;" x="414.72" xlink:href="#m7d379835f0" y="279.120349"/>
    </g>
   </g>
   <g id="patch_3">
    <path d="M 57.6 307.584 
L 57.6 41.472 
" style="fill:none;stroke:#000000;stroke-linecap:square;stroke-linejoin:miter;stroke-width:0.8;"/>
   </g>
   <g id="patch_4">
    <path d="M 414.72 307.584 
L 414.72 41.472 
" style="fill:none;stroke:#000000;stroke-linecap:square;stroke-linejoin:miter;stroke-width:0.8;"/>
   </g>
   <g id="patch_5">
    <path d="M 57.6 307.584 
L 414.72 307.584 
" style="fill:none;stroke:#000000;stroke-linecap:square;stroke-linejoin:miter;stroke-width:0.8;"/>
   </g>
   <g id="patch_6">
    <path d="M 57.6 41.472 
L 414.72 41.472 
" style="fill:none;stroke:#000000;stroke-linecap:square;stroke-linejoin:miter;stroke-width:0.8;"/>
   </g>
   <g id="text_16">
    <!-- loc vs d2h -->
    <defs>
     <path id="DejaVuSans-32"/>
     <path d="M 2.984375 54.6875 
L 12.5 54.6875 
L 29.59375 8.796875 
L 46.6875 54.6875 
L 56.203125 54.6875 
L 35.6875 0 
L 23.484375 0 
z
" id="DejaVuSans-118"/>
     <path d="M 44.28125 53.078125 
L 44.28125 44.578125 
Q 40.484375 46.53125 36.375 47.5 
Q 32.28125 48.484375 27.875 48.484375 
Q 21.1875 48.484375 17.84375 46.4375 
Q 14.5 44.390625 14.5 40.28125 
Q 14.5 37.15625 16.890625 35.375 
Q 19.28125 33.59375 26.515625 31.984375 
L 29.59375 31.296875 
Q 39.15625 29.25 43.1875 25.515625 
Q 47.21875 21.78125 47.21875 15.09375 
Q 47.21875 7.46875 41.1875 3.015625 
Q 35.15625 -1.421875 24.609375 -1.421875 
Q 20.21875 -1.421875 15.453125 -0.5625 
Q 10.6875 0.296875 5.421875 2 
L 5.421875 11.28125 
Q 10.40625 8.6875 15.234375 7.390625 
Q 20.0625 6.109375 24.8125 6.109375 
Q 31.15625 6.109375 34.5625 8.28125 
Q 37.984375 10.453125 37.984375 14.40625 
Q 37.984375 18.0625 35.515625 20.015625 
Q 33.0625 21.96875 24.703125 23.78125 
L 21.578125 24.515625 
Q 13.234375 26.265625 9.515625 29.90625 
Q 5.8125 33.546875 5.8125 39.890625 
Q 5.8125 47.609375 11.28125 51.796875 
Q 16.75 56 26.8125 56 
Q 31.78125 56 36.171875 55.265625 
Q 40.578125 54.546875 44.28125 53.078125 
z
" id="DejaVuSans-115"/>
    </defs>
    <g transform="translate(205.603125 35.472)scale(0.12 -0.12)">
     <use xlink:href="#DejaVuSans-108"/>
     <use x="27.783203" xlink:href="#DejaVuSans-111"/>
     <use x="88.964844" xlink:href="#DejaVuSans-99"/>
     <use x="143.945312" xlink:href="#DejaVuSans-32"/>
     <use x="175.732422" xlink:href="#DejaVuSans-118"/>
     <use x="234.912109" xlink:href="#DejaVuSans-115"/>
     <use x="287.011719" xlink:href="#DejaVuSans-32"/>
     <use x="318.798828" xlink:href="#DejaVuSans-100"/>
     <use x="382.275391" xlink:href="#DejaVuSans-50"/>
     <use x="445.898438" xlink:href="#DejaVuSans-104"/>
    </g>
   </g>
   <g id="legend_1">
    <g id="patch_7">
     <path d="M 348.85125 108.1845 
L 407.72 108.1845 
Q 409.72 108.1845 409.72 106.1845 
L 409.72 48.472 
Q 409.72 46.472 407.72 46.472 
L 348.85125 46.472 
Q 346.85125 46.472 346.85125 48.472 
L 346.85125 106.1845 
Q 346.85125 108.1845 348.85125 108.1845 
z
" style="fill:#ffffff;opacity:0.8;stroke:#cccccc;stroke-linejoin:miter;"/>
    </g>
    <g id="line2d_18">
     <path d="M 350.85125 54.570438 
L 370.85125 54.570438 
" style="fill:none;stroke:#008000;stroke-linecap:square;stroke-width:1.5;"/>
    </g>
    <g id="line2d_19">
     <g>
      <use style="fill:#008000;stroke:#008000;" x="360.85125" xlink:href="#m438fe43024" y="54.570438"/>
     </g>
    </g>
    <g id="text_17">
     <!-- CART -->
     <defs>
      <path d="M 64.40625 67.28125 
L 64.40625 56.890625 
Q 59.421875 61.53125 53.78125 63.8125 
Q 48.140625 66.109375 41.796875 66.109375 
Q 29.296875 66.109375 22.65625 58.46875 
Q 16.015625 50.828125 16.015625 36.375 
Q 16.015625 21.96875 22.65625 14.328125 
Q 29.296875 6.6875 41.796875 6.6875 
Q 48.140625 6.6875 53.78125 8.984375 
Q 59.421875 11.28125 64.40625 15.921875 
L 64.40625 5.609375 
Q 59.234375 2.09375 53.4375 0.328125 
Q 47.65625 -1.421875 41.21875 -1.421875 
Q 24.65625 -1.421875 15.125 8.703125 
Q 5.609375 18.84375 5.609375 36.375 
Q 5.609375 53.953125 15.125 64.078125 
Q 24.65625 74.21875 41.21875 74.21875 
Q 47.75 74.21875 53.53125 72.484375 
Q 59.328125 70.75 64.40625 67.28125 
z
" id="DejaVuSans-67"/>
      <path d="M 34.1875 63.1875 
L 20.796875 26.90625 
L 47.609375 26.90625 
z
M 28.609375 72.90625 
L 39.796875 72.90625 
L 67.578125 0 
L 57.328125 0 
L 50.6875 18.703125 
L 17.828125 18.703125 
L 11.1875 0 
L 0.78125 0 
z
" id="DejaVuSans-65"/>
      <path d="M 44.390625 34.1875 
Q 47.5625 33.109375 50.5625 29.59375 
Q 53.5625 26.078125 56.59375 19.921875 
L 66.609375 0 
L 56 0 
L 46.6875 18.703125 
Q 43.0625 26.03125 39.671875 28.421875 
Q 36.28125 30.8125 30.421875 30.8125 
L 19.671875 30.8125 
L 19.671875 0 
L 9.8125 0 
L 9.8125 72.90625 
L 32.078125 72.90625 
Q 44.578125 72.90625 50.734375 67.671875 
Q 56.890625 62.453125 56.890625 51.90625 
Q 56.890625 45.015625 53.6875 40.46875 
Q 50.484375 35.9375 44.390625 34.1875 
z
M 19.671875 64.796875 
L 19.671875 38.921875 
L 32.078125 38.921875 
Q 39.203125 38.921875 42.84375 42.21875 
Q 46.484375 45.515625 46.484375 51.90625 
Q 46.484375 58.296875 42.84375 61.546875 
Q 39.203125 64.796875 32.078125 64.796875 
z
" id="DejaVuSans-82"/>
      <path d="M -0.296875 72.90625 
L 61.375 72.90625 
L 61.375 64.59375 
L 35.5 64.59375 
L 35.5 0 
L 25.59375 0 
L 25.59375 64.59375 
L -0.296875 64.59375 
z
" id="DejaVuSans-84"/>
     </defs>
     <g transform="translate(378.85125 58.070438)scale(0.1 -0.1)">
      <use xlink:href="#DejaVuSans-67"/>
      <use x="69.824219" xlink:href="#DejaVuSans-65"/>
      <use x="138.232422" xlink:href="#DejaVuSans-82"/>
      <use x="207.605469" xlink:href="#DejaVuSans-84"/>
     </g>
    </g>
    <g id="line2d_20">
     <path d="M 350.85125 69.248563 
L 370.85125 69.248563 
" style="fill:none;stroke:#ff0000;stroke-linecap:square;stroke-width:1.5;"/>
    </g>
    <g id="line2d_21">
     <g>
      <use style="fill:#ff0000;stroke:#ff0000;" x="360.85125" xlink:href="#m0f1be3872b" y="69.248563"/>
     </g>
    </g>
    <g id="text_18">
     <!-- FFT -->
     <defs>
      <path d="M 9.8125 72.90625 
L 51.703125 72.90625 
L 51.703125 64.59375 
L 19.671875 64.59375 
L 19.671875 43.109375 
L 48.578125 43.109375 
L 48.578125 34.8125 
L 19.671875 34.8125 
L 19.671875 0 
L 9.8125 0 
z
" id="DejaVuSans-70"/>
     </defs>
     <g transform="translate(378.85125 72.748563)scale(0.1 -0.1)">
      <use xlink:href="#DejaVuSans-70"/>
      <use x="57.519531" xlink:href="#DejaVuSans-70"/>
      <use x="115.023438" xlink:href="#DejaVuSans-84"/>
     </g>
    </g>
    <g id="line2d_22">
     <path d="M 350.85125 83.926688 
L 370.85125 83.926688 
" style="fill:none;stroke:#0000ff;stroke-linecap:square;stroke-width:1.5;"/>
    </g>
    <g id="line2d_23">
     <g>
      <use style="fill:#0000ff;stroke:#0000ff;" x="360.85125" xlink:href="#m35318e2dfa" y="83.926688"/>
     </g>
    </g>
    <g id="text_19">
     <!-- RF -->
     <g transform="translate(378.85125 87.426688)scale(0.1 -0.1)">
      <use xlink:href="#DejaVuSans-82"/>
      <use x="69.482422" xlink:href="#DejaVuSans-70"/>
     </g>
    </g>
    <g id="line2d_24">
     <path d="M 350.85125 98.604813 
L 370.85125 98.604813 
" style="fill:none;stroke:#000000;stroke-linecap:square;stroke-width:1.5;"/>
    </g>
    <g id="line2d_25">
     <g>
      <use style="stroke:#000000;stroke-linejoin:miter;" x="360.85125" xlink:href="#m7d379835f0" y="98.604813"/>
     </g>
    </g>
    <g id="text_20">
     <!-- VFDT -->
     <defs>
      <path d="M 28.609375 0 
L 0.78125 72.90625 
L 11.078125 72.90625 
L 34.1875 11.53125 
L 57.328125 72.90625 
L 67.578125 72.90625 
L 39.796875 0 
z
" id="DejaVuSans-86"/>
      <path d="M 19.671875 64.796875 
L 19.671875 8.109375 
L 31.59375 8.109375 
Q 46.6875 8.109375 53.6875 14.9375 
Q 60.6875 21.78125 60.6875 36.53125 
Q 60.6875 51.171875 53.6875 57.984375 
Q 46.6875 64.796875 31.59375 64.796875 
z
M 9.8125 72.90625 
L 30.078125 72.90625 
Q 51.265625 72.90625 61.171875 64.09375 
Q 71.09375 55.28125 71.09375 36.53125 
Q 71.09375 17.671875 61.125 8.828125 
Q 51.171875 0 30.078125 0 
L 9.8125 0 
z
" id="DejaVuSans-68"/>
     </defs>
     <g transform="translate(378.85125 102.104813)scale(0.1 -0.1)">
      <use xlink:href="#DejaVuSans-86"/>
      <use x="68.408203" xlink:href="#DejaVuSans-70"/>
      <use x="125.927734" xlink:href="#DejaVuSans-68"/>
      <use x="202.929688" xlink:href="#DejaVuSans-84"/>
     </g>
    </g>
   </g>
  </g>
 </g>
 <defs>
  <clipPath id="p102dc1e8bf">
   <rect height="266.112" width="357.12" x="57.6" y="41.472"/>
  </clipPath>
 </defs>
</svg>
