<?xml version="1.0" encoding="utf-8" standalone="no"?>
<!DOCTYPE svg PUBLIC "-//W3C//DTD SVG 1.1//EN"
  "http://www.w3.org/Graphics/SVG/1.1/DTD/svg11.dtd">
<!-- Created with matplotlib (https://matplotlib.org/) -->
<svg height="345.6pt" version="1.1" viewBox="0 0 460.8 345.6" width="460.8pt" xmlns="http://www.w3.org/2000/svg" xmlns:xlink="http://www.w3.org/1999/xlink">
 <defs>
  <style type="text/css">
*{stroke-linecap:butt;stroke-linejoin:round;}
  </style>
 </defs>
 <g id="figure_1">
  <g id="patch_1">
   <path d="M 0 345.6 
L 460.8 345.6 
L 460.8 0 
L 0 0 
z
" style="fill:#ffffff;"/>
  </g>
  <g id="axes_1">
   <g id="patch_2">
    <path d="M 57.6 307.584 
L 414.72 307.584 
L 414.72 41.472 
L 57.6 41.472 
z
" style="fill:#ffffff;"/>
   </g>
   <g id="matplotlib.axis_1">
    <g id="xtick_1">
     <g id="line2d_1">
      <defs>
       <path d="M 0 0 
L 0 3.5 
" id="ma0be351c87" style="stroke:#000000;stroke-width:0.8;"/>
      </defs>
      <g>
       <use style="stroke:#000000;stroke-width:0.8;" x="57.6" xlink:href="#ma0be351c87" y="307.584"/>
      </g>
     </g>
     <g id="text_1">
      <!-- 0 -->
      <defs>
       <path d="M 31.78125 66.40625 
Q 24.171875 66.40625 20.328125 58.90625 
Q 16.5 51.421875 16.5 36.375 
Q 16.5 21.390625 20.328125 13.890625 
Q 24.171875 6.390625 31.78125 6.390625 
Q 39.453125 6.390625 43.28125 13.890625 
Q 47.125 21.390625 47.125 36.375 
Q 47.125 51.421875 43.28125 58.90625 
Q 39.453125 66.40625 31.78125 66.40625 
z
M 31.78125 74.21875 
Q 44.046875 74.21875 50.515625 64.515625 
Q 56.984375 54.828125 56.984375 36.375 
Q 56.984375 17.96875 50.515625 8.265625 
Q 44.046875 -1.421875 31.78125 -1.421875 
Q 19.53125 -1.421875 13.0625 8.265625 
Q 6.59375 17.96875 6.59375 36.375 
Q 6.59375 54.828125 13.0625 64.515625 
Q 19.53125 74.21875 31.78125 74.21875 
z
" id="DejaVuSans-48"/>
      </defs>
      <g transform="translate(54.41875 322.182437)scale(0.1 -0.1)">
       <use xlink:href="#DejaVuSans-48"/>
      </g>
     </g>
    </g>
    <g id="xtick_2">
     <g id="line2d_2">
      <g>
       <use style="stroke:#000000;stroke-width:0.8;" x="129.024" xlink:href="#ma0be351c87" y="307.584"/>
      </g>
     </g>
     <g id="text_2">
      <!-- 20 -->
      <defs>
       <path d="M 19.1875 8.296875 
L 53.609375 8.296875 
L 53.609375 0 
L 7.328125 0 
L 7.328125 8.296875 
Q 12.9375 14.109375 22.625 23.890625 
Q 32.328125 33.6875 34.8125 36.53125 
Q 39.546875 41.84375 41.421875 45.53125 
Q 43.3125 49.21875 43.3125 52.78125 
Q 43.3125 58.59375 39.234375 62.25 
Q 35.15625 65.921875 28.609375 65.921875 
Q 23.96875 65.921875 18.8125 64.3125 
Q 13.671875 62.703125 7.8125 59.421875 
L 7.8125 69.390625 
Q 13.765625 71.78125 18.9375 73 
Q 24.125 74.21875 28.421875 74.21875 
Q 39.75 74.21875 46.484375 68.546875 
Q 53.21875 62.890625 53.21875 53.421875 
Q 53.21875 48.921875 51.53125 44.890625 
Q 49.859375 40.875 45.40625 35.40625 
Q 44.1875 33.984375 37.640625 27.21875 
Q 31.109375 20.453125 19.1875 8.296875 
z
" id="DejaVuSans-50"/>
      </defs>
      <g transform="translate(122.6615 322.182437)scale(0.1 -0.1)">
       <use xlink:href="#DejaVuSans-50"/>
       <use x="63.623047" xlink:href="#DejaVuSans-48"/>
      </g>
     </g>
    </g>
    <g id="xtick_3">
     <g id="line2d_3">
      <g>
       <use style="stroke:#000000;stroke-width:0.8;" x="200.448" xlink:href="#ma0be351c87" y="307.584"/>
      </g>
     </g>
     <g id="text_3">
      <!-- 40 -->
      <defs>
       <path d="M 37.796875 64.3125 
L 12.890625 25.390625 
L 37.796875 25.390625 
z
M 35.203125 72.90625 
L 47.609375 72.90625 
L 47.609375 25.390625 
L 58.015625 25.390625 
L 58.015625 17.1875 
L 47.609375 17.1875 
L 47.609375 0 
L 37.796875 0 
L 37.796875 17.1875 
L 4.890625 17.1875 
L 4.890625 26.703125 
z
" id="DejaVuSans-52"/>
      </defs>
      <g transform="translate(194.0855 322.182437)scale(0.1 -0.1)">
       <use xlink:href="#DejaVuSans-52"/>
       <use x="63.623047" xlink:href="#DejaVuSans-48"/>
      </g>
     </g>
    </g>
    <g id="xtick_4">
     <g id="line2d_4">
      <g>
       <use style="stroke:#000000;stroke-width:0.8;" x="271.872" xlink:href="#ma0be351c87" y="307.584"/>
      </g>
     </g>
     <g id="text_4">
      <!-- 60 -->
      <defs>
       <path d="M 33.015625 40.375 
Q 26.375 40.375 22.484375 35.828125 
Q 18.609375 31.296875 18.609375 23.390625 
Q 18.609375 15.53125 22.484375 10.953125 
Q 26.375 6.390625 33.015625 6.390625 
Q 39.65625 6.390625 43.53125 10.953125 
Q 47.40625 15.53125 47.40625 23.390625 
Q 47.40625 31.296875 43.53125 35.828125 
Q 39.65625 40.375 33.015625 40.375 
z
M 52.59375 71.296875 
L 52.59375 62.3125 
Q 48.875 64.0625 45.09375 64.984375 
Q 41.3125 65.921875 37.59375 65.921875 
Q 27.828125 65.921875 22.671875 59.328125 
Q 17.53125 52.734375 16.796875 39.40625 
Q 19.671875 43.65625 24.015625 45.921875 
Q 28.375 48.1875 33.59375 48.1875 
Q 44.578125 48.1875 50.953125 41.515625 
Q 57.328125 34.859375 57.328125 23.390625 
Q 57.328125 12.15625 50.6875 5.359375 
Q 44.046875 -1.421875 33.015625 -1.421875 
Q 20.359375 -1.421875 13.671875 8.265625 
Q 6.984375 17.96875 6.984375 36.375 
Q 6.984375 53.65625 15.1875 63.9375 
Q 23.390625 74.21875 37.203125 74.21875 
Q 40.921875 74.21875 44.703125 73.484375 
Q 48.484375 72.75 52.59375 71.296875 
z
" id="DejaVuSans-54"/>
      </defs>
      <g transform="translate(265.5095 322.182437)scale(0.1 -0.1)">
       <use xlink:href="#DejaVuSans-54"/>
       <use x="63.623047" xlink:href="#DejaVuSans-48"/>
      </g>
     </g>
    </g>
    <g id="xtick_5">
     <g id="line2d_5">
      <g>
       <use style="stroke:#000000;stroke-width:0.8;" x="343.296" xlink:href="#ma0be351c87" y="307.584"/>
      </g>
     </g>
     <g id="text_5">
      <!-- 80 -->
      <defs>
       <path d="M 31.78125 34.625 
Q 24.75 34.625 20.71875 30.859375 
Q 16.703125 27.09375 16.703125 20.515625 
Q 16.703125 13.921875 20.71875 10.15625 
Q 24.75 6.390625 31.78125 6.390625 
Q 38.8125 6.390625 42.859375 10.171875 
Q 46.921875 13.96875 46.921875 20.515625 
Q 46.921875 27.09375 42.890625 30.859375 
Q 38.875 34.625 31.78125 34.625 
z
M 21.921875 38.8125 
Q 15.578125 40.375 12.03125 44.71875 
Q 8.5 49.078125 8.5 55.328125 
Q 8.5 64.0625 14.71875 69.140625 
Q 20.953125 74.21875 31.78125 74.21875 
Q 42.671875 74.21875 48.875 69.140625 
Q 55.078125 64.0625 55.078125 55.328125 
Q 55.078125 49.078125 51.53125 44.71875 
Q 48 40.375 41.703125 38.8125 
Q 48.828125 37.15625 52.796875 32.3125 
Q 56.78125 27.484375 56.78125 20.515625 
Q 56.78125 9.90625 50.3125 4.234375 
Q 43.84375 -1.421875 31.78125 -1.421875 
Q 19.734375 -1.421875 13.25 4.234375 
Q 6.78125 9.90625 6.78125 20.515625 
Q 6.78125 27.484375 10.78125 32.3125 
Q 14.796875 37.15625 21.921875 38.8125 
z
M 18.3125 54.390625 
Q 18.3125 48.734375 21.84375 45.5625 
Q 25.390625 42.390625 31.78125 42.390625 
Q 38.140625 42.390625 41.71875 45.5625 
Q 45.3125 48.734375 45.3125 54.390625 
Q 45.3125 60.0625 41.71875 63.234375 
Q 38.140625 66.40625 31.78125 66.40625 
Q 25.390625 66.40625 21.84375 63.234375 
Q 18.3125 60.0625 18.3125 54.390625 
z
" id="DejaVuSans-56"/>
      </defs>
      <g transform="translate(336.9335 322.182437)scale(0.1 -0.1)">
       <use xlink:href="#DejaVuSans-56"/>
       <use x="63.623047" xlink:href="#DejaVuSans-48"/>
      </g>
     </g>
    </g>
    <g id="xtick_6">
     <g id="line2d_6">
      <g>
       <use style="stroke:#000000;stroke-width:0.8;" x="414.72" xlink:href="#ma0be351c87" y="307.584"/>
      </g>
     </g>
     <g id="text_6">
      <!-- 100 -->
      <defs>
       <path d="M 12.40625 8.296875 
L 28.515625 8.296875 
L 28.515625 63.921875 
L 10.984375 60.40625 
L 10.984375 69.390625 
L 28.421875 72.90625 
L 38.28125 72.90625 
L 38.28125 8.296875 
L 54.390625 8.296875 
L 54.390625 0 
L 12.40625 0 
z
" id="DejaVuSans-49"/>
      </defs>
      <g transform="translate(405.17625 322.182437)scale(0.1 -0.1)">
       <use xlink:href="#DejaVuSans-49"/>
       <use x="63.623047" xlink:href="#DejaVuSans-48"/>
       <use x="127.246094" xlink:href="#DejaVuSans-48"/>
      </g>
     </g>
    </g>
    <g id="text_7">
     <!-- loc -->
     <defs>
      <path d="M 9.421875 75.984375 
L 18.40625 75.984375 
L 18.40625 0 
L 9.421875 0 
z
" id="DejaVuSans-108"/>
      <path d="M 30.609375 48.390625 
Q 23.390625 48.390625 19.1875 42.75 
Q 14.984375 37.109375 14.984375 27.296875 
Q 14.984375 17.484375 19.15625 11.84375 
Q 23.34375 6.203125 30.609375 6.203125 
Q 37.796875 6.203125 41.984375 11.859375 
Q 46.1875 17.53125 46.1875 27.296875 
Q 46.1875 37.015625 41.984375 42.703125 
Q 37.796875 48.390625 30.609375 48.390625 
z
M 30.609375 56 
Q 42.328125 56 49.015625 48.375 
Q 55.71875 40.765625 55.71875 27.296875 
Q 55.71875 13.875 49.015625 6.21875 
Q 42.328125 -1.421875 30.609375 -1.421875 
Q 18.84375 -1.421875 12.171875 6.21875 
Q 5.515625 13.875 5.515625 27.296875 
Q 5.515625 40.765625 12.171875 48.375 
Q 18.84375 56 30.609375 56 
z
" id="DejaVuSans-111"/>
      <path d="M 48.78125 52.59375 
L 48.78125 44.1875 
Q 44.96875 46.296875 41.140625 47.34375 
Q 37.3125 48.390625 33.40625 48.390625 
Q 24.65625 48.390625 19.8125 42.84375 
Q 14.984375 37.3125 14.984375 27.296875 
Q 14.984375 17.28125 19.8125 11.734375 
Q 24.65625 6.203125 33.40625 6.203125 
Q 37.3125 6.203125 41.140625 7.25 
Q 44.96875 8.296875 48.78125 10.40625 
L 48.78125 2.09375 
Q 45.015625 0.34375 40.984375 -0.53125 
Q 36.96875 -1.421875 32.421875 -1.421875 
Q 20.0625 -1.421875 12.78125 6.34375 
Q 5.515625 14.109375 5.515625 27.296875 
Q 5.515625 40.671875 12.859375 48.328125 
Q 20.21875 56 33.015625 56 
Q 37.15625 56 41.109375 55.140625 
Q 45.0625 54.296875 48.78125 52.59375 
z
" id="DejaVuSans-99"/>
     </defs>
     <g transform="translate(228.962344 335.860562)scale(0.1 -0.1)">
      <use xlink:href="#DejaVuSans-108"/>
      <use x="27.783203" xlink:href="#DejaVuSans-111"/>
      <use x="88.964844" xlink:href="#DejaVuSans-99"/>
     </g>
    </g>
   </g>
   <g id="matplotlib.axis_2">
    <g id="ytick_1">
     <g id="line2d_7">
      <defs>
       <path d="M 0 0 
L -3.5 0 
" id="m09a7c87a09" style="stroke:#000000;stroke-width:0.8;"/>
      </defs>
      <g>
       <use style="stroke:#000000;stroke-width:0.8;" x="57.6" xlink:href="#m09a7c87a09" y="295.488"/>
      </g>
     </g>
     <g id="text_8">
      <!-- 0 -->
      <g transform="translate(44.2375 299.287219)scale(0.1 -0.1)">
       <use xlink:href="#DejaVuSans-48"/>
      </g>
     </g>
    </g>
    <g id="ytick_2">
     <g id="line2d_8">
      <g>
       <use style="stroke:#000000;stroke-width:0.8;" x="57.6" xlink:href="#m09a7c87a09" y="247.706053"/>
      </g>
     </g>
     <g id="text_9">
      <!-- 10 -->
      <g transform="translate(37.875 251.505271)scale(0.1 -0.1)">
       <use xlink:href="#DejaVuSans-49"/>
       <use x="63.623047" xlink:href="#DejaVuSans-48"/>
      </g>
     </g>
    </g>
    <g id="ytick_3">
     <g id="line2d_9">
      <g>
       <use style="stroke:#000000;stroke-width:0.8;" x="57.6" xlink:href="#m09a7c87a09" y="199.924105"/>
      </g>
     </g>
     <g id="text_10">
      <!-- 20 -->
      <g transform="translate(37.875 203.723324)scale(0.1 -0.1)">
       <use xlink:href="#DejaVuSans-50"/>
       <use x="63.623047" xlink:href="#DejaVuSans-48"/>
      </g>
     </g>
    </g>
    <g id="ytick_4">
     <g id="line2d_10">
      <g>
       <use style="stroke:#000000;stroke-width:0.8;" x="57.6" xlink:href="#m09a7c87a09" y="152.142158"/>
      </g>
     </g>
     <g id="text_11">
      <!-- 30 -->
      <defs>
       <path d="M 40.578125 39.3125 
Q 47.65625 37.796875 51.625 33 
Q 55.609375 28.21875 55.609375 21.1875 
Q 55.609375 10.40625 48.1875 4.484375 
Q 40.765625 -1.421875 27.09375 -1.421875 
Q 22.515625 -1.421875 17.65625 -0.515625 
Q 12.796875 0.390625 7.625 2.203125 
L 7.625 11.71875 
Q 11.71875 9.328125 16.59375 8.109375 
Q 21.484375 6.890625 26.8125 6.890625 
Q 36.078125 6.890625 40.9375 10.546875 
Q 45.796875 14.203125 45.796875 21.1875 
Q 45.796875 27.640625 41.28125 31.265625 
Q 36.765625 34.90625 28.71875 34.90625 
L 20.21875 34.90625 
L 20.21875 43.015625 
L 29.109375 43.015625 
Q 36.375 43.015625 40.234375 45.921875 
Q 44.09375 48.828125 44.09375 54.296875 
Q 44.09375 59.90625 40.109375 62.90625 
Q 36.140625 65.921875 28.71875 65.921875 
Q 24.65625 65.921875 20.015625 65.03125 
Q 15.375 64.15625 9.8125 62.3125 
L 9.8125 71.09375 
Q 15.4375 72.65625 20.34375 73.4375 
Q 25.25 74.21875 29.59375 74.21875 
Q 40.828125 74.21875 47.359375 69.109375 
Q 53.90625 64.015625 53.90625 55.328125 
Q 53.90625 49.265625 50.4375 45.09375 
Q 46.96875 40.921875 40.578125 39.3125 
z
" id="DejaVuSans-51"/>
      </defs>
      <g transform="translate(37.875 155.941376)scale(0.1 -0.1)">
       <use xlink:href="#DejaVuSans-51"/>
       <use x="63.623047" xlink:href="#DejaVuSans-48"/>
      </g>
     </g>
    </g>
    <g id="ytick_5">
     <g id="line2d_11">
      <g>
       <use style="stroke:#000000;stroke-width:0.8;" x="57.6" xlink:href="#m09a7c87a09" y="104.36021"/>
      </g>
     </g>
     <g id="text_12">
      <!-- 40 -->
      <g transform="translate(37.875 108.159429)scale(0.1 -0.1)">
       <use xlink:href="#DejaVuSans-52"/>
       <use x="63.623047" xlink:href="#DejaVuSans-48"/>
      </g>
     </g>
    </g>
    <g id="ytick_6">
     <g id="line2d_12">
      <g>
       <use style="stroke:#000000;stroke-width:0.8;" x="57.6" xlink:href="#m09a7c87a09" y="56.578263"/>
      </g>
     </g>
     <g id="text_13">
      <!-- 50 -->
      <defs>
       <path d="M 10.796875 72.90625 
L 49.515625 72.90625 
L 49.515625 64.59375 
L 19.828125 64.59375 
L 19.828125 46.734375 
Q 21.96875 47.46875 24.109375 47.828125 
Q 26.265625 48.1875 28.421875 48.1875 
Q 40.625 48.1875 47.75 41.5 
Q 54.890625 34.8125 54.890625 23.390625 
Q 54.890625 11.625 47.5625 5.09375 
Q 40.234375 -1.421875 26.90625 -1.421875 
Q 22.3125 -1.421875 17.546875 -0.640625 
Q 12.796875 0.140625 7.71875 1.703125 
L 7.71875 11.625 
Q 12.109375 9.234375 16.796875 8.0625 
Q 21.484375 6.890625 26.703125 6.890625 
Q 35.15625 6.890625 40.078125 11.328125 
Q 45.015625 15.765625 45.015625 23.390625 
Q 45.015625 31 40.078125 35.4375 
Q 35.15625 39.890625 26.703125 39.890625 
Q 22.75 39.890625 18.8125 39.015625 
Q 14.890625 38.140625 10.796875 36.28125 
z
" id="DejaVuSans-53"/>
      </defs>
      <g transform="translate(37.875 60.377481)scale(0.1 -0.1)">
       <use xlink:href="#DejaVuSans-53"/>
       <use x="63.623047" xlink:href="#DejaVuSans-48"/>
      </g>
     </g>
    </g>
    <g id="text_14">
     <!-- precision -->
     <defs>
      <path d="M 18.109375 8.203125 
L 18.109375 -20.796875 
L 9.078125 -20.796875 
L 9.078125 54.6875 
L 18.109375 54.6875 
L 18.109375 46.390625 
Q 20.953125 51.265625 25.265625 53.625 
Q 29.59375 56 35.59375 56 
Q 45.5625 56 51.78125 48.09375 
Q 58.015625 40.1875 58.015625 27.296875 
Q 58.015625 14.40625 51.78125 6.484375 
Q 45.5625 -1.421875 35.59375 -1.421875 
Q 29.59375 -1.421875 25.265625 0.953125 
Q 20.953125 3.328125 18.109375 8.203125 
z
M 48.6875 27.296875 
Q 48.6875 37.203125 44.609375 42.84375 
Q 40.53125 48.484375 33.40625 48.484375 
Q 26.265625 48.484375 22.1875 42.84375 
Q 18.109375 37.203125 18.109375 27.296875 
Q 18.109375 17.390625 22.1875 11.75 
Q 26.265625 6.109375 33.40625 6.109375 
Q 40.53125 6.109375 44.609375 11.75 
Q 48.6875 17.390625 48.6875 27.296875 
z
" id="DejaVuSans-112"/>
      <path d="M 41.109375 46.296875 
Q 39.59375 47.171875 37.8125 47.578125 
Q 36.03125 48 33.890625 48 
Q 26.265625 48 22.1875 43.046875 
Q 18.109375 38.09375 18.109375 28.8125 
L 18.109375 0 
L 9.078125 0 
L 9.078125 54.6875 
L 18.109375 54.6875 
L 18.109375 46.1875 
Q 20.953125 51.171875 25.484375 53.578125 
Q 30.03125 56 36.53125 56 
Q 37.453125 56 38.578125 55.875 
Q 39.703125 55.765625 41.0625 55.515625 
z
" id="DejaVuSans-114"/>
      <path d="M 56.203125 29.59375 
L 56.203125 25.203125 
L 14.890625 25.203125 
Q 15.484375 15.921875 20.484375 11.0625 
Q 25.484375 6.203125 34.421875 6.203125 
Q 39.59375 6.203125 44.453125 7.46875 
Q 49.3125 8.734375 54.109375 11.28125 
L 54.109375 2.78125 
Q 49.265625 0.734375 44.1875 -0.34375 
Q 39.109375 -1.421875 33.890625 -1.421875 
Q 20.796875 -1.421875 13.15625 6.1875 
Q 5.515625 13.8125 5.515625 26.8125 
Q 5.515625 40.234375 12.765625 48.109375 
Q 20.015625 56 32.328125 56 
Q 43.359375 56 49.78125 48.890625 
Q 56.203125 41.796875 56.203125 29.59375 
z
M 47.21875 32.234375 
Q 47.125 39.59375 43.09375 43.984375 
Q 39.0625 48.390625 32.421875 48.390625 
Q 24.90625 48.390625 20.390625 44.140625 
Q 15.875 39.890625 15.1875 32.171875 
z
" id="DejaVuSans-101"/>
      <path d="M 9.421875 54.6875 
L 18.40625 54.6875 
L 18.40625 0 
L 9.421875 0 
z
M 9.421875 75.984375 
L 18.40625 75.984375 
L 18.40625 64.59375 
L 9.421875 64.59375 
z
" id="DejaVuSans-105"/>
      <path d="M 44.28125 53.078125 
L 44.28125 44.578125 
Q 40.484375 46.53125 36.375 47.5 
Q 32.28125 48.484375 27.875 48.484375 
Q 21.1875 48.484375 17.84375 46.4375 
Q 14.5 44.390625 14.5 40.28125 
Q 14.5 37.15625 16.890625 35.375 
Q 19.28125 33.59375 26.515625 31.984375 
L 29.59375 31.296875 
Q 39.15625 29.25 43.1875 25.515625 
Q 47.21875 21.78125 47.21875 15.09375 
Q 47.21875 7.46875 41.1875 3.015625 
Q 35.15625 -1.421875 24.609375 -1.421875 
Q 20.21875 -1.421875 15.453125 -0.5625 
Q 10.6875 0.296875 5.421875 2 
L 5.421875 11.28125 
Q 10.40625 8.6875 15.234375 7.390625 
Q 20.0625 6.109375 24.8125 6.109375 
Q 31.15625 6.109375 34.5625 8.28125 
Q 37.984375 10.453125 37.984375 14.40625 
Q 37.984375 18.0625 35.515625 20.015625 
Q 33.0625 21.96875 24.703125 23.78125 
L 21.578125 24.515625 
Q 13.234375 26.265625 9.515625 29.90625 
Q 5.8125 33.546875 5.8125 39.890625 
Q 5.8125 47.609375 11.28125 51.796875 
Q 16.75 56 26.8125 56 
Q 31.78125 56 36.171875 55.265625 
Q 40.578125 54.546875 44.28125 53.078125 
z
" id="DejaVuSans-115"/>
      <path d="M 54.890625 33.015625 
L 54.890625 0 
L 45.90625 0 
L 45.90625 32.71875 
Q 45.90625 40.484375 42.875 44.328125 
Q 39.84375 48.1875 33.796875 48.1875 
Q 26.515625 48.1875 22.3125 43.546875 
Q 18.109375 38.921875 18.109375 30.90625 
L 18.109375 0 
L 9.078125 0 
L 9.078125 54.6875 
L 18.109375 54.6875 
L 18.109375 46.1875 
Q 21.34375 51.125 25.703125 53.5625 
Q 30.078125 56 35.796875 56 
Q 45.21875 56 50.046875 50.171875 
Q 54.890625 44.34375 54.890625 33.015625 
z
" id="DejaVuSans-110"/>
     </defs>
     <g transform="translate(31.795312 197.192844)rotate(-90)scale(0.1 -0.1)">
      <use xlink:href="#DejaVuSans-112"/>
      <use x="63.476562" xlink:href="#DejaVuSans-114"/>
      <use x="104.558594" xlink:href="#DejaVuSans-101"/>
      <use x="166.082031" xlink:href="#DejaVuSans-99"/>
      <use x="221.0625" xlink:href="#DejaVuSans-105"/>
      <use x="248.845703" xlink:href="#DejaVuSans-115"/>
      <use x="300.945312" xlink:href="#DejaVuSans-105"/>
      <use x="328.728516" xlink:href="#DejaVuSans-111"/>
      <use x="389.910156" xlink:href="#DejaVuSans-110"/>
     </g>
    </g>
   </g>
   <g id="line2d_13">
    <path clip-path="url(#p79f2005fc2)" d="M 57.635712 177.848845 
L 57.671424 295.488 
L 57.707136 154.626819 
L 57.742848 60.209691 
L 57.77856 60.209691 
L 57.814272 201.070872 
L 57.849984 201.739819 
L 57.885696 60.209691 
L 57.921408 60.209691 
L 57.95712 60.209691 
L 58.31424 106.988217 
L 58.67136 201.118654 
L 59.02848 130.449153 
L 59.3856 61.16533 
L 59.74272 60.68751 
L 60.09984 61.595367 
L 60.45696 62.64657 
L 60.81408 61.595367 
L 61.1712 61.069766 
L 75.456 61.404239 
L 93.312 58.393977 
L 111.168 60.305255 
L 129.024 63.028826 
L 146.88 64.414502 
L 164.736 65.035667 
L 182.592 64.318938 
L 200.448 59.110706 
L 218.304 62.742134 
L 236.16 61.738713 
L 254.016 59.254052 
L 271.872 60.496382 
L 289.728 60.591946 
L 307.584 64.414502 
L 325.44 65.370141 
L 343.296 59.158488 
L 361.152 60.544164 
L 379.008 59.301834 
L 396.864 59.779653 
L 414.72 59.254052 
" style="fill:none;stroke:#008000;stroke-linecap:square;stroke-width:1.5;"/>
    <defs>
     <path d="M -3 3 
L 3 -3 
M -3 -3 
L 3 3 
" id="m2cfa1a1b3b" style="stroke:#008000;"/>
    </defs>
    <g clip-path="url(#p79f2005fc2)">
     <use style="fill:#008000;stroke:#008000;" x="57.635712" xlink:href="#m2cfa1a1b3b" y="177.848845"/>
     <use style="fill:#008000;stroke:#008000;" x="57.671424" xlink:href="#m2cfa1a1b3b" y="295.488"/>
     <use style="fill:#008000;stroke:#008000;" x="57.707136" xlink:href="#m2cfa1a1b3b" y="154.626819"/>
     <use style="fill:#008000;stroke:#008000;" x="57.742848" xlink:href="#m2cfa1a1b3b" y="60.209691"/>
     <use style="fill:#008000;stroke:#008000;" x="57.77856" xlink:href="#m2cfa1a1b3b" y="60.209691"/>
     <use style="fill:#008000;stroke:#008000;" x="57.814272" xlink:href="#m2cfa1a1b3b" y="201.070872"/>
     <use style="fill:#008000;stroke:#008000;" x="57.849984" xlink:href="#m2cfa1a1b3b" y="201.739819"/>
     <use style="fill:#008000;stroke:#008000;" x="57.885696" xlink:href="#m2cfa1a1b3b" y="60.209691"/>
     <use style="fill:#008000;stroke:#008000;" x="57.921408" xlink:href="#m2cfa1a1b3b" y="60.209691"/>
     <use style="fill:#008000;stroke:#008000;" x="57.95712" xlink:href="#m2cfa1a1b3b" y="60.209691"/>
     <use style="fill:#008000;stroke:#008000;" x="58.31424" xlink:href="#m2cfa1a1b3b" y="106.988217"/>
     <use style="fill:#008000;stroke:#008000;" x="58.67136" xlink:href="#m2cfa1a1b3b" y="201.118654"/>
     <use style="fill:#008000;stroke:#008000;" x="59.02848" xlink:href="#m2cfa1a1b3b" y="130.449153"/>
     <use style="fill:#008000;stroke:#008000;" x="59.3856" xlink:href="#m2cfa1a1b3b" y="61.16533"/>
     <use style="fill:#008000;stroke:#008000;" x="59.74272" xlink:href="#m2cfa1a1b3b" y="60.68751"/>
     <use style="fill:#008000;stroke:#008000;" x="60.09984" xlink:href="#m2cfa1a1b3b" y="61.595367"/>
     <use style="fill:#008000;stroke:#008000;" x="60.45696" xlink:href="#m2cfa1a1b3b" y="62.64657"/>
     <use style="fill:#008000;stroke:#008000;" x="60.81408" xlink:href="#m2cfa1a1b3b" y="61.595367"/>
     <use style="fill:#008000;stroke:#008000;" x="61.1712" xlink:href="#m2cfa1a1b3b" y="61.069766"/>
     <use style="fill:#008000;stroke:#008000;" x="75.456" xlink:href="#m2cfa1a1b3b" y="61.404239"/>
     <use style="fill:#008000;stroke:#008000;" x="93.312" xlink:href="#m2cfa1a1b3b" y="58.393977"/>
     <use style="fill:#008000;stroke:#008000;" x="111.168" xlink:href="#m2cfa1a1b3b" y="60.305255"/>
     <use style="fill:#008000;stroke:#008000;" x="129.024" xlink:href="#m2cfa1a1b3b" y="63.028826"/>
     <use style="fill:#008000;stroke:#008000;" x="146.88" xlink:href="#m2cfa1a1b3b" y="64.414502"/>
     <use style="fill:#008000;stroke:#008000;" x="164.736" xlink:href="#m2cfa1a1b3b" y="65.035667"/>
     <use style="fill:#008000;stroke:#008000;" x="182.592" xlink:href="#m2cfa1a1b3b" y="64.318938"/>
     <use style="fill:#008000;stroke:#008000;" x="200.448" xlink:href="#m2cfa1a1b3b" y="59.110706"/>
     <use style="fill:#008000;stroke:#008000;" x="218.304" xlink:href="#m2cfa1a1b3b" y="62.742134"/>
     <use style="fill:#008000;stroke:#008000;" x="236.16" xlink:href="#m2cfa1a1b3b" y="61.738713"/>
     <use style="fill:#008000;stroke:#008000;" x="254.016" xlink:href="#m2cfa1a1b3b" y="59.254052"/>
     <use style="fill:#008000;stroke:#008000;" x="271.872" xlink:href="#m2cfa1a1b3b" y="60.496382"/>
     <use style="fill:#008000;stroke:#008000;" x="289.728" xlink:href="#m2cfa1a1b3b" y="60.591946"/>
     <use style="fill:#008000;stroke:#008000;" x="307.584" xlink:href="#m2cfa1a1b3b" y="64.414502"/>
     <use style="fill:#008000;stroke:#008000;" x="325.44" xlink:href="#m2cfa1a1b3b" y="65.370141"/>
     <use style="fill:#008000;stroke:#008000;" x="343.296" xlink:href="#m2cfa1a1b3b" y="59.158488"/>
     <use style="fill:#008000;stroke:#008000;" x="361.152" xlink:href="#m2cfa1a1b3b" y="60.544164"/>
     <use style="fill:#008000;stroke:#008000;" x="379.008" xlink:href="#m2cfa1a1b3b" y="59.301834"/>
     <use style="fill:#008000;stroke:#008000;" x="396.864" xlink:href="#m2cfa1a1b3b" y="59.779653"/>
     <use style="fill:#008000;stroke:#008000;" x="414.72" xlink:href="#m2cfa1a1b3b" y="59.254052"/>
    </g>
   </g>
   <g id="line2d_14">
    <path clip-path="url(#p79f2005fc2)" d="M 57.635712 61.260894 
L 57.671424 62.88548 
L 57.707136 61.738713 
L 57.742848 61.690931 
L 57.77856 62.455442 
L 57.814272 60.544164 
L 57.849984 61.977623 
L 57.885696 60.257473 
L 57.921408 62.120969 
L 57.95712 62.789916 
L 58.31424 61.499803 
L 58.67136 60.783074 
L 59.02848 60.161909 
L 59.3856 62.073187 
L 59.74272 60.161909 
L 60.09984 60.830856 
L 60.45696 61.356457 
L 60.81408 61.069766 
L 61.1712 60.639728 
L 75.456 63.076608 
L 93.312 62.88548 
L 111.168 63.888901 
L 129.024 61.356457 
L 146.88 60.544164 
L 164.736 92.271377 
L 182.592 60.878638 
L 200.448 57.103864 
L 218.304 61.117548 
L 236.16 58.632886 
L 254.016 56.76939 
L 271.872 56.052661 
L 289.728 55.479278 
L 307.584 55.144804 
L 325.44 127.438891 
L 343.296 56.482699 
L 361.152 55.04924 
L 379.008 55.097022 
L 396.864 53.568 
L 414.72 127.677801 
" style="fill:none;stroke:#ff0000;stroke-linecap:square;stroke-width:1.5;"/>
    <defs>
     <path d="M 0 3 
C 0.795609 3 1.55874 2.683901 2.12132 2.12132 
C 2.683901 1.55874 3 0.795609 3 0 
C 3 -0.795609 2.683901 -1.55874 2.12132 -2.12132 
C 1.55874 -2.683901 0.795609 -3 0 -3 
C -0.795609 -3 -1.55874 -2.683901 -2.12132 -2.12132 
C -2.683901 -1.55874 -3 -0.795609 -3 0 
C -3 0.795609 -2.683901 1.55874 -2.12132 2.12132 
C -1.55874 2.683901 -0.795609 3 0 3 
z
" id="md30c8612d0" style="stroke:#ff0000;"/>
    </defs>
    <g clip-path="url(#p79f2005fc2)">
     <use style="fill:#ff0000;stroke:#ff0000;" x="57.635712" xlink:href="#md30c8612d0" y="61.260894"/>
     <use style="fill:#ff0000;stroke:#ff0000;" x="57.671424" xlink:href="#md30c8612d0" y="62.88548"/>
     <use style="fill:#ff0000;stroke:#ff0000;" x="57.707136" xlink:href="#md30c8612d0" y="61.738713"/>
     <use style="fill:#ff0000;stroke:#ff0000;" x="57.742848" xlink:href="#md30c8612d0" y="61.690931"/>
     <use style="fill:#ff0000;stroke:#ff0000;" x="57.77856" xlink:href="#md30c8612d0" y="62.455442"/>
     <use style="fill:#ff0000;stroke:#ff0000;" x="57.814272" xlink:href="#md30c8612d0" y="60.544164"/>
     <use style="fill:#ff0000;stroke:#ff0000;" x="57.849984" xlink:href="#md30c8612d0" y="61.977623"/>
     <use style="fill:#ff0000;stroke:#ff0000;" x="57.885696" xlink:href="#md30c8612d0" y="60.257473"/>
     <use style="fill:#ff0000;stroke:#ff0000;" x="57.921408" xlink:href="#md30c8612d0" y="62.120969"/>
     <use style="fill:#ff0000;stroke:#ff0000;" x="57.95712" xlink:href="#md30c8612d0" y="62.789916"/>
     <use style="fill:#ff0000;stroke:#ff0000;" x="58.31424" xlink:href="#md30c8612d0" y="61.499803"/>
     <use style="fill:#ff0000;stroke:#ff0000;" x="58.67136" xlink:href="#md30c8612d0" y="60.783074"/>
     <use style="fill:#ff0000;stroke:#ff0000;" x="59.02848" xlink:href="#md30c8612d0" y="60.161909"/>
     <use style="fill:#ff0000;stroke:#ff0000;" x="59.3856" xlink:href="#md30c8612d0" y="62.073187"/>
     <use style="fill:#ff0000;stroke:#ff0000;" x="59.74272" xlink:href="#md30c8612d0" y="60.161909"/>
     <use style="fill:#ff0000;stroke:#ff0000;" x="60.09984" xlink:href="#md30c8612d0" y="60.830856"/>
     <use style="fill:#ff0000;stroke:#ff0000;" x="60.45696" xlink:href="#md30c8612d0" y="61.356457"/>
     <use style="fill:#ff0000;stroke:#ff0000;" x="60.81408" xlink:href="#md30c8612d0" y="61.069766"/>
     <use style="fill:#ff0000;stroke:#ff0000;" x="61.1712" xlink:href="#md30c8612d0" y="60.639728"/>
     <use style="fill:#ff0000;stroke:#ff0000;" x="75.456" xlink:href="#md30c8612d0" y="63.076608"/>
     <use style="fill:#ff0000;stroke:#ff0000;" x="93.312" xlink:href="#md30c8612d0" y="62.88548"/>
     <use style="fill:#ff0000;stroke:#ff0000;" x="111.168" xlink:href="#md30c8612d0" y="63.888901"/>
     <use style="fill:#ff0000;stroke:#ff0000;" x="129.024" xlink:href="#md30c8612d0" y="61.356457"/>
     <use style="fill:#ff0000;stroke:#ff0000;" x="146.88" xlink:href="#md30c8612d0" y="60.544164"/>
     <use style="fill:#ff0000;stroke:#ff0000;" x="164.736" xlink:href="#md30c8612d0" y="92.271377"/>
     <use style="fill:#ff0000;stroke:#ff0000;" x="182.592" xlink:href="#md30c8612d0" y="60.878638"/>
     <use style="fill:#ff0000;stroke:#ff0000;" x="200.448" xlink:href="#md30c8612d0" y="57.103864"/>
     <use style="fill:#ff0000;stroke:#ff0000;" x="218.304" xlink:href="#md30c8612d0" y="61.117548"/>
     <use style="fill:#ff0000;stroke:#ff0000;" x="236.16" xlink:href="#md30c8612d0" y="58.632886"/>
     <use style="fill:#ff0000;stroke:#ff0000;" x="254.016" xlink:href="#md30c8612d0" y="56.76939"/>
     <use style="fill:#ff0000;stroke:#ff0000;" x="271.872" xlink:href="#md30c8612d0" y="56.052661"/>
     <use style="fill:#ff0000;stroke:#ff0000;" x="289.728" xlink:href="#md30c8612d0" y="55.479278"/>
     <use style="fill:#ff0000;stroke:#ff0000;" x="307.584" xlink:href="#md30c8612d0" y="55.144804"/>
     <use style="fill:#ff0000;stroke:#ff0000;" x="325.44" xlink:href="#md30c8612d0" y="127.438891"/>
     <use style="fill:#ff0000;stroke:#ff0000;" x="343.296" xlink:href="#md30c8612d0" y="56.482699"/>
     <use style="fill:#ff0000;stroke:#ff0000;" x="361.152" xlink:href="#md30c8612d0" y="55.04924"/>
     <use style="fill:#ff0000;stroke:#ff0000;" x="379.008" xlink:href="#md30c8612d0" y="55.097022"/>
     <use style="fill:#ff0000;stroke:#ff0000;" x="396.864" xlink:href="#md30c8612d0" y="53.568"/>
     <use style="fill:#ff0000;stroke:#ff0000;" x="414.72" xlink:href="#md30c8612d0" y="127.677801"/>
    </g>
   </g>
   <g id="line2d_15">
    <path clip-path="url(#p79f2005fc2)" d="M 57.635712 107.179345 
L 57.671424 295.488 
L 57.707136 154.626819 
L 57.742848 60.209691 
L 57.77856 60.209691 
L 57.814272 201.070872 
L 57.849984 201.739819 
L 57.885696 83.813973 
L 57.921408 60.209691 
L 57.95712 60.209691 
L 58.31424 130.35359 
L 58.67136 201.118654 
L 59.02848 153.766744 
L 59.3856 271.788154 
L 59.74272 224.914064 
L 60.09984 60.68751 
L 60.45696 60.974202 
L 60.81408 60.735292 
L 61.1712 60.92642 
L 75.456 61.786495 
L 93.312 61.834277 
L 111.168 63.363299 
L 129.024 65.035667 
L 146.88 64.271156 
L 164.736 65.179013 
L 182.592 66.182434 
L 200.448 66.421344 
L 218.304 66.373562 
L 236.16 65.991306 
L 254.016 65.179013 
L 271.872 65.991306 
L 289.728 65.656833 
L 307.584 66.230216 
L 325.44 69.909426 
L 343.296 69.192697 
L 361.152 70.530591 
L 379.008 70.721719 
L 396.864 69.957208 
L 414.72 69.479389 
" style="fill:none;stroke:#0000ff;stroke-linecap:square;stroke-width:1.5;"/>
    <defs>
     <path d="M -3 0 
L 3 0 
M 0 3 
L 0 -3 
" id="m47dad4945d" style="stroke:#0000ff;"/>
    </defs>
    <g clip-path="url(#p79f2005fc2)">
     <use style="fill:#0000ff;stroke:#0000ff;" x="57.635712" xlink:href="#m47dad4945d" y="107.179345"/>
     <use style="fill:#0000ff;stroke:#0000ff;" x="57.671424" xlink:href="#m47dad4945d" y="295.488"/>
     <use style="fill:#0000ff;stroke:#0000ff;" x="57.707136" xlink:href="#m47dad4945d" y="154.626819"/>
     <use style="fill:#0000ff;stroke:#0000ff;" x="57.742848" xlink:href="#m47dad4945d" y="60.209691"/>
     <use style="fill:#0000ff;stroke:#0000ff;" x="57.77856" xlink:href="#m47dad4945d" y="60.209691"/>
     <use style="fill:#0000ff;stroke:#0000ff;" x="57.814272" xlink:href="#m47dad4945d" y="201.070872"/>
     <use style="fill:#0000ff;stroke:#0000ff;" x="57.849984" xlink:href="#m47dad4945d" y="201.739819"/>
     <use style="fill:#0000ff;stroke:#0000ff;" x="57.885696" xlink:href="#m47dad4945d" y="83.813973"/>
     <use style="fill:#0000ff;stroke:#0000ff;" x="57.921408" xlink:href="#m47dad4945d" y="60.209691"/>
     <use style="fill:#0000ff;stroke:#0000ff;" x="57.95712" xlink:href="#m47dad4945d" y="60.209691"/>
     <use style="fill:#0000ff;stroke:#0000ff;" x="58.31424" xlink:href="#m47dad4945d" y="130.35359"/>
     <use style="fill:#0000ff;stroke:#0000ff;" x="58.67136" xlink:href="#m47dad4945d" y="201.118654"/>
     <use style="fill:#0000ff;stroke:#0000ff;" x="59.02848" xlink:href="#m47dad4945d" y="153.766744"/>
     <use style="fill:#0000ff;stroke:#0000ff;" x="59.3856" xlink:href="#m47dad4945d" y="271.788154"/>
     <use style="fill:#0000ff;stroke:#0000ff;" x="59.74272" xlink:href="#m47dad4945d" y="224.914064"/>
     <use style="fill:#0000ff;stroke:#0000ff;" x="60.09984" xlink:href="#m47dad4945d" y="60.68751"/>
     <use style="fill:#0000ff;stroke:#0000ff;" x="60.45696" xlink:href="#m47dad4945d" y="60.974202"/>
     <use style="fill:#0000ff;stroke:#0000ff;" x="60.81408" xlink:href="#m47dad4945d" y="60.735292"/>
     <use style="fill:#0000ff;stroke:#0000ff;" x="61.1712" xlink:href="#m47dad4945d" y="60.92642"/>
     <use style="fill:#0000ff;stroke:#0000ff;" x="75.456" xlink:href="#m47dad4945d" y="61.786495"/>
     <use style="fill:#0000ff;stroke:#0000ff;" x="93.312" xlink:href="#m47dad4945d" y="61.834277"/>
     <use style="fill:#0000ff;stroke:#0000ff;" x="111.168" xlink:href="#m47dad4945d" y="63.363299"/>
     <use style="fill:#0000ff;stroke:#0000ff;" x="129.024" xlink:href="#m47dad4945d" y="65.035667"/>
     <use style="fill:#0000ff;stroke:#0000ff;" x="146.88" xlink:href="#m47dad4945d" y="64.271156"/>
     <use style="fill:#0000ff;stroke:#0000ff;" x="164.736" xlink:href="#m47dad4945d" y="65.179013"/>
     <use style="fill:#0000ff;stroke:#0000ff;" x="182.592" xlink:href="#m47dad4945d" y="66.182434"/>
     <use style="fill:#0000ff;stroke:#0000ff;" x="200.448" xlink:href="#m47dad4945d" y="66.421344"/>
     <use style="fill:#0000ff;stroke:#0000ff;" x="218.304" xlink:href="#m47dad4945d" y="66.373562"/>
     <use style="fill:#0000ff;stroke:#0000ff;" x="236.16" xlink:href="#m47dad4945d" y="65.991306"/>
     <use style="fill:#0000ff;stroke:#0000ff;" x="254.016" xlink:href="#m47dad4945d" y="65.179013"/>
     <use style="fill:#0000ff;stroke:#0000ff;" x="271.872" xlink:href="#m47dad4945d" y="65.991306"/>
     <use style="fill:#0000ff;stroke:#0000ff;" x="289.728" xlink:href="#m47dad4945d" y="65.656833"/>
     <use style="fill:#0000ff;stroke:#0000ff;" x="307.584" xlink:href="#m47dad4945d" y="66.230216"/>
     <use style="fill:#0000ff;stroke:#0000ff;" x="325.44" xlink:href="#m47dad4945d" y="69.909426"/>
     <use style="fill:#0000ff;stroke:#0000ff;" x="343.296" xlink:href="#m47dad4945d" y="69.192697"/>
     <use style="fill:#0000ff;stroke:#0000ff;" x="361.152" xlink:href="#m47dad4945d" y="70.530591"/>
     <use style="fill:#0000ff;stroke:#0000ff;" x="379.008" xlink:href="#m47dad4945d" y="70.721719"/>
     <use style="fill:#0000ff;stroke:#0000ff;" x="396.864" xlink:href="#m47dad4945d" y="69.957208"/>
     <use style="fill:#0000ff;stroke:#0000ff;" x="414.72" xlink:href="#m47dad4945d" y="69.479389"/>
    </g>
   </g>
   <g id="line2d_16">
    <path clip-path="url(#p79f2005fc2)" d="M 57.635712 177.848845 
L 57.671424 295.488 
L 57.707136 154.626819 
L 57.742848 60.209691 
L 57.77856 60.209691 
L 57.814272 201.070872 
L 57.849984 201.739819 
L 57.885696 60.209691 
L 57.921408 60.209691 
L 57.95712 60.209691 
L 58.31424 106.988217 
L 58.67136 201.118654 
L 59.02848 130.449153 
L 59.3856 59.20627 
L 59.74272 59.875217 
L 60.09984 60.209691 
L 60.45696 60.209691 
L 60.81408 60.591946 
L 61.1712 60.018563 
L 75.456 60.161909 
L 93.312 61.595367 
L 111.168 61.643149 
L 129.024 62.168751 
L 146.88 62.359878 
L 164.736 62.503224 
L 182.592 62.789916 
L 200.448 63.267735 
L 218.304 63.793337 
L 236.16 64.032246 
L 254.016 64.510066 
L 271.872 64.653412 
L 289.728 63.984465 
L 307.584 65.083449 
L 325.44 65.84796 
L 343.296 66.946945 
L 361.152 66.469126 
L 379.008 66.899163 
L 396.864 67.424765 
L 414.72 67.568111 
" style="fill:none;stroke:#000000;stroke-linecap:square;stroke-width:1.5;"/>
    <defs>
     <path d="M -3 3 
L 3 3 
L 3 -3 
L -3 -3 
z
" id="m99532762aa" style="stroke:#000000;stroke-linejoin:miter;"/>
    </defs>
    <g clip-path="url(#p79f2005fc2)">
     <use style="stroke:#000000;stroke-linejoin:miter;" x="57.635712" xlink:href="#m99532762aa" y="177.848845"/>
     <use style="stroke:#000000;stroke-linejoin:miter;" x="57.671424" xlink:href="#m99532762aa" y="295.488"/>
     <use style="stroke:#000000;stroke-linejoin:miter;" x="57.707136" xlink:href="#m99532762aa" y="154.626819"/>
     <use style="stroke:#000000;stroke-linejoin:miter;" x="57.742848" xlink:href="#m99532762aa" y="60.209691"/>
     <use style="stroke:#000000;stroke-linejoin:miter;" x="57.77856" xlink:href="#m99532762aa" y="60.209691"/>
     <use style="stroke:#000000;stroke-linejoin:miter;" x="57.814272" xlink:href="#m99532762aa" y="201.070872"/>
     <use style="stroke:#000000;stroke-linejoin:miter;" x="57.849984" xlink:href="#m99532762aa" y="201.739819"/>
     <use style="stroke:#000000;stroke-linejoin:miter;" x="57.885696" xlink:href="#m99532762aa" y="60.209691"/>
     <use style="stroke:#000000;stroke-linejoin:miter;" x="57.921408" xlink:href="#m99532762aa" y="60.209691"/>
     <use style="stroke:#000000;stroke-linejoin:miter;" x="57.95712" xlink:href="#m99532762aa" y="60.209691"/>
     <use style="stroke:#000000;stroke-linejoin:miter;" x="58.31424" xlink:href="#m99532762aa" y="106.988217"/>
     <use style="stroke:#000000;stroke-linejoin:miter;" x="58.67136" xlink:href="#m99532762aa" y="201.118654"/>
     <use style="stroke:#000000;stroke-linejoin:miter;" x="59.02848" xlink:href="#m99532762aa" y="130.449153"/>
     <use style="stroke:#000000;stroke-linejoin:miter;" x="59.3856" xlink:href="#m99532762aa" y="59.20627"/>
     <use style="stroke:#000000;stroke-linejoin:miter;" x="59.74272" xlink:href="#m99532762aa" y="59.875217"/>
     <use style="stroke:#000000;stroke-linejoin:miter;" x="60.09984" xlink:href="#m99532762aa" y="60.209691"/>
     <use style="stroke:#000000;stroke-linejoin:miter;" x="60.45696" xlink:href="#m99532762aa" y="60.209691"/>
     <use style="stroke:#000000;stroke-linejoin:miter;" x="60.81408" xlink:href="#m99532762aa" y="60.591946"/>
     <use style="stroke:#000000;stroke-linejoin:miter;" x="61.1712" xlink:href="#m99532762aa" y="60.018563"/>
     <use style="stroke:#000000;stroke-linejoin:miter;" x="75.456" xlink:href="#m99532762aa" y="60.161909"/>
     <use style="stroke:#000000;stroke-linejoin:miter;" x="93.312" xlink:href="#m99532762aa" y="61.595367"/>
     <use style="stroke:#000000;stroke-linejoin:miter;" x="111.168" xlink:href="#m99532762aa" y="61.643149"/>
     <use style="stroke:#000000;stroke-linejoin:miter;" x="129.024" xlink:href="#m99532762aa" y="62.168751"/>
     <use style="stroke:#000000;stroke-linejoin:miter;" x="146.88" xlink:href="#m99532762aa" y="62.359878"/>
     <use style="stroke:#000000;stroke-linejoin:miter;" x="164.736" xlink:href="#m99532762aa" y="62.503224"/>
     <use style="stroke:#000000;stroke-linejoin:miter;" x="182.592" xlink:href="#m99532762aa" y="62.789916"/>
     <use style="stroke:#000000;stroke-linejoin:miter;" x="200.448" xlink:href="#m99532762aa" y="63.267735"/>
     <use style="stroke:#000000;stroke-linejoin:miter;" x="218.304" xlink:href="#m99532762aa" y="63.793337"/>
     <use style="stroke:#000000;stroke-linejoin:miter;" x="236.16" xlink:href="#m99532762aa" y="64.032246"/>
     <use style="stroke:#000000;stroke-linejoin:miter;" x="254.016" xlink:href="#m99532762aa" y="64.510066"/>
     <use style="stroke:#000000;stroke-linejoin:miter;" x="271.872" xlink:href="#m99532762aa" y="64.653412"/>
     <use style="stroke:#000000;stroke-linejoin:miter;" x="289.728" xlink:href="#m99532762aa" y="63.984465"/>
     <use style="stroke:#000000;stroke-linejoin:miter;" x="307.584" xlink:href="#m99532762aa" y="65.083449"/>
     <use style="stroke:#000000;stroke-linejoin:miter;" x="325.44" xlink:href="#m99532762aa" y="65.84796"/>
     <use style="stroke:#000000;stroke-linejoin:miter;" x="343.296" xlink:href="#m99532762aa" y="66.946945"/>
     <use style="stroke:#000000;stroke-linejoin:miter;" x="361.152" xlink:href="#m99532762aa" y="66.469126"/>
     <use style="stroke:#000000;stroke-linejoin:miter;" x="379.008" xlink:href="#m99532762aa" y="66.899163"/>
     <use style="stroke:#000000;stroke-linejoin:miter;" x="396.864" xlink:href="#m99532762aa" y="67.424765"/>
     <use style="stroke:#000000;stroke-linejoin:miter;" x="414.72" xlink:href="#m99532762aa" y="67.568111"/>
    </g>
   </g>
   <g id="patch_3">
    <path d="M 57.6 307.584 
L 57.6 41.472 
" style="fill:none;stroke:#000000;stroke-linecap:square;stroke-linejoin:miter;stroke-width:0.8;"/>
   </g>
   <g id="patch_4">
    <path d="M 414.72 307.584 
L 414.72 41.472 
" style="fill:none;stroke:#000000;stroke-linecap:square;stroke-linejoin:miter;stroke-width:0.8;"/>
   </g>
   <g id="patch_5">
    <path d="M 57.6 307.584 
L 414.72 307.584 
" style="fill:none;stroke:#000000;stroke-linecap:square;stroke-linejoin:miter;stroke-width:0.8;"/>
   </g>
   <g id="patch_6">
    <path d="M 57.6 41.472 
L 414.72 41.472 
" style="fill:none;stroke:#000000;stroke-linecap:square;stroke-linejoin:miter;stroke-width:0.8;"/>
   </g>
   <g id="text_15">
    <!-- abinit: loc vs precision -->
    <defs>
     <path d="M 34.28125 27.484375 
Q 23.390625 27.484375 19.1875 25 
Q 14.984375 22.515625 14.984375 16.5 
Q 14.984375 11.71875 18.140625 8.90625 
Q 21.296875 6.109375 26.703125 6.109375 
Q 34.1875 6.109375 38.703125 11.40625 
Q 43.21875 16.703125 43.21875 25.484375 
L 43.21875 27.484375 
z
M 52.203125 31.203125 
L 52.203125 0 
L 43.21875 0 
L 43.21875 8.296875 
Q 40.140625 3.328125 35.546875 0.953125 
Q 30.953125 -1.421875 24.3125 -1.421875 
Q 15.921875 -1.421875 10.953125 3.296875 
Q 6 8.015625 6 15.921875 
Q 6 25.140625 12.171875 29.828125 
Q 18.359375 34.515625 30.609375 34.515625 
L 43.21875 34.515625 
L 43.21875 35.40625 
Q 43.21875 41.609375 39.140625 45 
Q 35.0625 48.390625 27.6875 48.390625 
Q 23 48.390625 18.546875 47.265625 
Q 14.109375 46.140625 10.015625 43.890625 
L 10.015625 52.203125 
Q 14.9375 54.109375 19.578125 55.046875 
Q 24.21875 56 28.609375 56 
Q 40.484375 56 46.34375 49.84375 
Q 52.203125 43.703125 52.203125 31.203125 
z
" id="DejaVuSans-97"/>
     <path d="M 48.6875 27.296875 
Q 48.6875 37.203125 44.609375 42.84375 
Q 40.53125 48.484375 33.40625 48.484375 
Q 26.265625 48.484375 22.1875 42.84375 
Q 18.109375 37.203125 18.109375 27.296875 
Q 18.109375 17.390625 22.1875 11.75 
Q 26.265625 6.109375 33.40625 6.109375 
Q 40.53125 6.109375 44.609375 11.75 
Q 48.6875 17.390625 48.6875 27.296875 
z
M 18.109375 46.390625 
Q 20.953125 51.265625 25.265625 53.625 
Q 29.59375 56 35.59375 56 
Q 45.5625 56 51.78125 48.09375 
Q 58.015625 40.1875 58.015625 27.296875 
Q 58.015625 14.40625 51.78125 6.484375 
Q 45.5625 -1.421875 35.59375 -1.421875 
Q 29.59375 -1.421875 25.265625 0.953125 
Q 20.953125 3.328125 18.109375 8.203125 
L 18.109375 0 
L 9.078125 0 
L 9.078125 75.984375 
L 18.109375 75.984375 
z
" id="DejaVuSans-98"/>
     <path d="M 18.3125 70.21875 
L 18.3125 54.6875 
L 36.8125 54.6875 
L 36.8125 47.703125 
L 18.3125 47.703125 
L 18.3125 18.015625 
Q 18.3125 11.328125 20.140625 9.421875 
Q 21.96875 7.515625 27.59375 7.515625 
L 36.8125 7.515625 
L 36.8125 0 
L 27.59375 0 
Q 17.1875 0 13.234375 3.875 
Q 9.28125 7.765625 9.28125 18.015625 
L 9.28125 47.703125 
L 2.6875 47.703125 
L 2.6875 54.6875 
L 9.28125 54.6875 
L 9.28125 70.21875 
z
" id="DejaVuSans-116"/>
     <path d="M 11.71875 12.40625 
L 22.015625 12.40625 
L 22.015625 0 
L 11.71875 0 
z
M 11.71875 51.703125 
L 22.015625 51.703125 
L 22.015625 39.3125 
L 11.71875 39.3125 
z
" id="DejaVuSans-58"/>
     <path id="DejaVuSans-32"/>
     <path d="M 2.984375 54.6875 
L 12.5 54.6875 
L 29.59375 8.796875 
L 46.6875 54.6875 
L 56.203125 54.6875 
L 35.6875 0 
L 23.484375 0 
z
" id="DejaVuSans-118"/>
    </defs>
    <g transform="translate(168.931875 35.472)scale(0.12 -0.12)">
     <use xlink:href="#DejaVuSans-97"/>
     <use x="61.279297" xlink:href="#DejaVuSans-98"/>
     <use x="124.755859" xlink:href="#DejaVuSans-105"/>
     <use x="152.539062" xlink:href="#DejaVuSans-110"/>
     <use x="215.917969" xlink:href="#DejaVuSans-105"/>
     <use x="243.701172" xlink:href="#DejaVuSans-116"/>
     <use x="282.910156" xlink:href="#DejaVuSans-58"/>
     <use x="316.601562" xlink:href="#DejaVuSans-32"/>
     <use x="348.388672" xlink:href="#DejaVuSans-108"/>
     <use x="376.171875" xlink:href="#DejaVuSans-111"/>
     <use x="437.353516" xlink:href="#DejaVuSans-99"/>
     <use x="492.333984" xlink:href="#DejaVuSans-32"/>
     <use x="524.121094" xlink:href="#DejaVuSans-118"/>
     <use x="583.300781" xlink:href="#DejaVuSans-115"/>
     <use x="635.400391" xlink:href="#DejaVuSans-32"/>
     <use x="667.1875" xlink:href="#DejaVuSans-112"/>
     <use x="730.664062" xlink:href="#DejaVuSans-114"/>
     <use x="771.746094" xlink:href="#DejaVuSans-101"/>
     <use x="833.269531" xlink:href="#DejaVuSans-99"/>
     <use x="888.25" xlink:href="#DejaVuSans-105"/>
     <use x="916.033203" xlink:href="#DejaVuSans-115"/>
     <use x="968.132812" xlink:href="#DejaVuSans-105"/>
     <use x="995.916016" xlink:href="#DejaVuSans-111"/>
     <use x="1057.097656" xlink:href="#DejaVuSans-110"/>
    </g>
   </g>
   <g id="legend_1">
    <g id="patch_7">
     <path d="M 64.6 302.584 
L 123.46875 302.584 
Q 125.46875 302.584 125.46875 300.584 
L 125.46875 242.8715 
Q 125.46875 240.8715 123.46875 240.8715 
L 64.6 240.8715 
Q 62.6 240.8715 62.6 242.8715 
L 62.6 300.584 
Q 62.6 302.584 64.6 302.584 
z
" style="fill:#ffffff;opacity:0.8;stroke:#cccccc;stroke-linejoin:miter;"/>
    </g>
    <g id="line2d_17">
     <path d="M 66.6 248.969937 
L 86.6 248.969937 
" style="fill:none;stroke:#008000;stroke-linecap:square;stroke-width:1.5;"/>
    </g>
    <g id="line2d_18">
     <g>
      <use style="fill:#008000;stroke:#008000;" x="76.6" xlink:href="#m2cfa1a1b3b" y="248.969937"/>
     </g>
    </g>
    <g id="text_16">
     <!-- CART -->
     <defs>
      <path d="M 64.40625 67.28125 
L 64.40625 56.890625 
Q 59.421875 61.53125 53.78125 63.8125 
Q 48.140625 66.109375 41.796875 66.109375 
Q 29.296875 66.109375 22.65625 58.46875 
Q 16.015625 50.828125 16.015625 36.375 
Q 16.015625 21.96875 22.65625 14.328125 
Q 29.296875 6.6875 41.796875 6.6875 
Q 48.140625 6.6875 53.78125 8.984375 
Q 59.421875 11.28125 64.40625 15.921875 
L 64.40625 5.609375 
Q 59.234375 2.09375 53.4375 0.328125 
Q 47.65625 -1.421875 41.21875 -1.421875 
Q 24.65625 -1.421875 15.125 8.703125 
Q 5.609375 18.84375 5.609375 36.375 
Q 5.609375 53.953125 15.125 64.078125 
Q 24.65625 74.21875 41.21875 74.21875 
Q 47.75 74.21875 53.53125 72.484375 
Q 59.328125 70.75 64.40625 67.28125 
z
" id="DejaVuSans-67"/>
      <path d="M 34.1875 63.1875 
L 20.796875 26.90625 
L 47.609375 26.90625 
z
M 28.609375 72.90625 
L 39.796875 72.90625 
L 67.578125 0 
L 57.328125 0 
L 50.6875 18.703125 
L 17.828125 18.703125 
L 11.1875 0 
L 0.78125 0 
z
" id="DejaVuSans-65"/>
      <path d="M 44.390625 34.1875 
Q 47.5625 33.109375 50.5625 29.59375 
Q 53.5625 26.078125 56.59375 19.921875 
L 66.609375 0 
L 56 0 
L 46.6875 18.703125 
Q 43.0625 26.03125 39.671875 28.421875 
Q 36.28125 30.8125 30.421875 30.8125 
L 19.671875 30.8125 
L 19.671875 0 
L 9.8125 0 
L 9.8125 72.90625 
L 32.078125 72.90625 
Q 44.578125 72.90625 50.734375 67.671875 
Q 56.890625 62.453125 56.890625 51.90625 
Q 56.890625 45.015625 53.6875 40.46875 
Q 50.484375 35.9375 44.390625 34.1875 
z
M 19.671875 64.796875 
L 19.671875 38.921875 
L 32.078125 38.921875 
Q 39.203125 38.921875 42.84375 42.21875 
Q 46.484375 45.515625 46.484375 51.90625 
Q 46.484375 58.296875 42.84375 61.546875 
Q 39.203125 64.796875 32.078125 64.796875 
z
" id="DejaVuSans-82"/>
      <path d="M -0.296875 72.90625 
L 61.375 72.90625 
L 61.375 64.59375 
L 35.5 64.59375 
L 35.5 0 
L 25.59375 0 
L 25.59375 64.59375 
L -0.296875 64.59375 
z
" id="DejaVuSans-84"/>
     </defs>
     <g transform="translate(94.6 252.469937)scale(0.1 -0.1)">
      <use xlink:href="#DejaVuSans-67"/>
      <use x="69.824219" xlink:href="#DejaVuSans-65"/>
      <use x="138.232422" xlink:href="#DejaVuSans-82"/>
      <use x="207.605469" xlink:href="#DejaVuSans-84"/>
     </g>
    </g>
    <g id="line2d_19">
     <path d="M 66.6 263.648062 
L 86.6 263.648062 
" style="fill:none;stroke:#ff0000;stroke-linecap:square;stroke-width:1.5;"/>
    </g>
    <g id="line2d_20">
     <g>
      <use style="fill:#ff0000;stroke:#ff0000;" x="76.6" xlink:href="#md30c8612d0" y="263.648062"/>
     </g>
    </g>
    <g id="text_17">
     <!-- FFT -->
     <defs>
      <path d="M 9.8125 72.90625 
L 51.703125 72.90625 
L 51.703125 64.59375 
L 19.671875 64.59375 
L 19.671875 43.109375 
L 48.578125 43.109375 
L 48.578125 34.8125 
L 19.671875 34.8125 
L 19.671875 0 
L 9.8125 0 
z
" id="DejaVuSans-70"/>
     </defs>
     <g transform="translate(94.6 267.148062)scale(0.1 -0.1)">
      <use xlink:href="#DejaVuSans-70"/>
      <use x="57.519531" xlink:href="#DejaVuSans-70"/>
      <use x="115.023438" xlink:href="#DejaVuSans-84"/>
     </g>
    </g>
    <g id="line2d_21">
     <path d="M 66.6 278.326187 
L 86.6 278.326187 
" style="fill:none;stroke:#0000ff;stroke-linecap:square;stroke-width:1.5;"/>
    </g>
    <g id="line2d_22">
     <g>
      <use style="fill:#0000ff;stroke:#0000ff;" x="76.6" xlink:href="#m47dad4945d" y="278.326187"/>
     </g>
    </g>
    <g id="text_18">
     <!-- RF -->
     <g transform="translate(94.6 281.826187)scale(0.1 -0.1)">
      <use xlink:href="#DejaVuSans-82"/>
      <use x="69.482422" xlink:href="#DejaVuSans-70"/>
     </g>
    </g>
    <g id="line2d_23">
     <path d="M 66.6 293.004312 
L 86.6 293.004312 
" style="fill:none;stroke:#000000;stroke-linecap:square;stroke-width:1.5;"/>
    </g>
    <g id="line2d_24">
     <g>
      <use style="stroke:#000000;stroke-linejoin:miter;" x="76.6" xlink:href="#m99532762aa" y="293.004312"/>
     </g>
    </g>
    <g id="text_19">
     <!-- VFDT -->
     <defs>
      <path d="M 28.609375 0 
L 0.78125 72.90625 
L 11.078125 72.90625 
L 34.1875 11.53125 
L 57.328125 72.90625 
L 67.578125 72.90625 
L 39.796875 0 
z
" id="DejaVuSans-86"/>
      <path d="M 19.671875 64.796875 
L 19.671875 8.109375 
L 31.59375 8.109375 
Q 46.6875 8.109375 53.6875 14.9375 
Q 60.6875 21.78125 60.6875 36.53125 
Q 60.6875 51.171875 53.6875 57.984375 
Q 46.6875 64.796875 31.59375 64.796875 
z
M 9.8125 72.90625 
L 30.078125 72.90625 
Q 51.265625 72.90625 61.171875 64.09375 
Q 71.09375 55.28125 71.09375 36.53125 
Q 71.09375 17.671875 61.125 8.828125 
Q 51.171875 0 30.078125 0 
L 9.8125 0 
z
" id="DejaVuSans-68"/>
     </defs>
     <g transform="translate(94.6 296.504312)scale(0.1 -0.1)">
      <use xlink:href="#DejaVuSans-86"/>
      <use x="68.408203" xlink:href="#DejaVuSans-70"/>
      <use x="125.927734" xlink:href="#DejaVuSans-68"/>
      <use x="202.929688" xlink:href="#DejaVuSans-84"/>
     </g>
    </g>
   </g>
  </g>
 </g>
 <defs>
  <clipPath id="p79f2005fc2">
   <rect height="266.112" width="357.12" x="57.6" y="41.472"/>
  </clipPath>
 </defs>
</svg>
