<?xml version="1.0" encoding="utf-8" standalone="no"?>
<!DOCTYPE svg PUBLIC "-//W3C//DTD SVG 1.1//EN"
  "http://www.w3.org/Graphics/SVG/1.1/DTD/svg11.dtd">
<!-- Created with matplotlib (https://matplotlib.org/) -->
<svg height="345.6pt" version="1.1" viewBox="0 0 460.8 345.6" width="460.8pt" xmlns="http://www.w3.org/2000/svg" xmlns:xlink="http://www.w3.org/1999/xlink">
 <defs>
  <style type="text/css">
*{stroke-linecap:butt;stroke-linejoin:round;}
  </style>
 </defs>
 <g id="figure_1">
  <g id="patch_1">
   <path d="M 0 345.6 
L 460.8 345.6 
L 460.8 0 
L 0 0 
z
" style="fill:#ffffff;"/>
  </g>
  <g id="axes_1">
   <g id="patch_2">
    <path d="M 57.6 307.584 
L 414.72 307.584 
L 414.72 41.472 
L 57.6 41.472 
z
" style="fill:#ffffff;"/>
   </g>
   <g id="matplotlib.axis_1">
    <g id="xtick_1">
     <g id="line2d_1">
      <defs>
       <path d="M 0 0 
L 0 3.5 
" id="ma3c794bfe1" style="stroke:#000000;stroke-width:0.8;"/>
      </defs>
      <g>
       <use style="stroke:#000000;stroke-width:0.8;" x="57.6" xlink:href="#ma3c794bfe1" y="307.584"/>
      </g>
     </g>
     <g id="text_1">
      <!-- 0 -->
      <defs>
       <path d="M 31.78125 66.40625 
Q 24.171875 66.40625 20.328125 58.90625 
Q 16.5 51.421875 16.5 36.375 
Q 16.5 21.390625 20.328125 13.890625 
Q 24.171875 6.390625 31.78125 6.390625 
Q 39.453125 6.390625 43.28125 13.890625 
Q 47.125 21.390625 47.125 36.375 
Q 47.125 51.421875 43.28125 58.90625 
Q 39.453125 66.40625 31.78125 66.40625 
z
M 31.78125 74.21875 
Q 44.046875 74.21875 50.515625 64.515625 
Q 56.984375 54.828125 56.984375 36.375 
Q 56.984375 17.96875 50.515625 8.265625 
Q 44.046875 -1.421875 31.78125 -1.421875 
Q 19.53125 -1.421875 13.0625 8.265625 
Q 6.59375 17.96875 6.59375 36.375 
Q 6.59375 54.828125 13.0625 64.515625 
Q 19.53125 74.21875 31.78125 74.21875 
z
" id="DejaVuSans-48"/>
      </defs>
      <g transform="translate(54.41875 322.182437)scale(0.1 -0.1)">
       <use xlink:href="#DejaVuSans-48"/>
      </g>
     </g>
    </g>
    <g id="xtick_2">
     <g id="line2d_2">
      <g>
       <use style="stroke:#000000;stroke-width:0.8;" x="129.024" xlink:href="#ma3c794bfe1" y="307.584"/>
      </g>
     </g>
     <g id="text_2">
      <!-- 20 -->
      <defs>
       <path d="M 19.1875 8.296875 
L 53.609375 8.296875 
L 53.609375 0 
L 7.328125 0 
L 7.328125 8.296875 
Q 12.9375 14.109375 22.625 23.890625 
Q 32.328125 33.6875 34.8125 36.53125 
Q 39.546875 41.84375 41.421875 45.53125 
Q 43.3125 49.21875 43.3125 52.78125 
Q 43.3125 58.59375 39.234375 62.25 
Q 35.15625 65.921875 28.609375 65.921875 
Q 23.96875 65.921875 18.8125 64.3125 
Q 13.671875 62.703125 7.8125 59.421875 
L 7.8125 69.390625 
Q 13.765625 71.78125 18.9375 73 
Q 24.125 74.21875 28.421875 74.21875 
Q 39.75 74.21875 46.484375 68.546875 
Q 53.21875 62.890625 53.21875 53.421875 
Q 53.21875 48.921875 51.53125 44.890625 
Q 49.859375 40.875 45.40625 35.40625 
Q 44.1875 33.984375 37.640625 27.21875 
Q 31.109375 20.453125 19.1875 8.296875 
z
" id="DejaVuSans-50"/>
      </defs>
      <g transform="translate(122.6615 322.182437)scale(0.1 -0.1)">
       <use xlink:href="#DejaVuSans-50"/>
       <use x="63.623047" xlink:href="#DejaVuSans-48"/>
      </g>
     </g>
    </g>
    <g id="xtick_3">
     <g id="line2d_3">
      <g>
       <use style="stroke:#000000;stroke-width:0.8;" x="200.448" xlink:href="#ma3c794bfe1" y="307.584"/>
      </g>
     </g>
     <g id="text_3">
      <!-- 40 -->
      <defs>
       <path d="M 37.796875 64.3125 
L 12.890625 25.390625 
L 37.796875 25.390625 
z
M 35.203125 72.90625 
L 47.609375 72.90625 
L 47.609375 25.390625 
L 58.015625 25.390625 
L 58.015625 17.1875 
L 47.609375 17.1875 
L 47.609375 0 
L 37.796875 0 
L 37.796875 17.1875 
L 4.890625 17.1875 
L 4.890625 26.703125 
z
" id="DejaVuSans-52"/>
      </defs>
      <g transform="translate(194.0855 322.182437)scale(0.1 -0.1)">
       <use xlink:href="#DejaVuSans-52"/>
       <use x="63.623047" xlink:href="#DejaVuSans-48"/>
      </g>
     </g>
    </g>
    <g id="xtick_4">
     <g id="line2d_4">
      <g>
       <use style="stroke:#000000;stroke-width:0.8;" x="271.872" xlink:href="#ma3c794bfe1" y="307.584"/>
      </g>
     </g>
     <g id="text_4">
      <!-- 60 -->
      <defs>
       <path d="M 33.015625 40.375 
Q 26.375 40.375 22.484375 35.828125 
Q 18.609375 31.296875 18.609375 23.390625 
Q 18.609375 15.53125 22.484375 10.953125 
Q 26.375 6.390625 33.015625 6.390625 
Q 39.65625 6.390625 43.53125 10.953125 
Q 47.40625 15.53125 47.40625 23.390625 
Q 47.40625 31.296875 43.53125 35.828125 
Q 39.65625 40.375 33.015625 40.375 
z
M 52.59375 71.296875 
L 52.59375 62.3125 
Q 48.875 64.0625 45.09375 64.984375 
Q 41.3125 65.921875 37.59375 65.921875 
Q 27.828125 65.921875 22.671875 59.328125 
Q 17.53125 52.734375 16.796875 39.40625 
Q 19.671875 43.65625 24.015625 45.921875 
Q 28.375 48.1875 33.59375 48.1875 
Q 44.578125 48.1875 50.953125 41.515625 
Q 57.328125 34.859375 57.328125 23.390625 
Q 57.328125 12.15625 50.6875 5.359375 
Q 44.046875 -1.421875 33.015625 -1.421875 
Q 20.359375 -1.421875 13.671875 8.265625 
Q 6.984375 17.96875 6.984375 36.375 
Q 6.984375 53.65625 15.1875 63.9375 
Q 23.390625 74.21875 37.203125 74.21875 
Q 40.921875 74.21875 44.703125 73.484375 
Q 48.484375 72.75 52.59375 71.296875 
z
" id="DejaVuSans-54"/>
      </defs>
      <g transform="translate(265.5095 322.182437)scale(0.1 -0.1)">
       <use xlink:href="#DejaVuSans-54"/>
       <use x="63.623047" xlink:href="#DejaVuSans-48"/>
      </g>
     </g>
    </g>
    <g id="xtick_5">
     <g id="line2d_5">
      <g>
       <use style="stroke:#000000;stroke-width:0.8;" x="343.296" xlink:href="#ma3c794bfe1" y="307.584"/>
      </g>
     </g>
     <g id="text_5">
      <!-- 80 -->
      <defs>
       <path d="M 31.78125 34.625 
Q 24.75 34.625 20.71875 30.859375 
Q 16.703125 27.09375 16.703125 20.515625 
Q 16.703125 13.921875 20.71875 10.15625 
Q 24.75 6.390625 31.78125 6.390625 
Q 38.8125 6.390625 42.859375 10.171875 
Q 46.921875 13.96875 46.921875 20.515625 
Q 46.921875 27.09375 42.890625 30.859375 
Q 38.875 34.625 31.78125 34.625 
z
M 21.921875 38.8125 
Q 15.578125 40.375 12.03125 44.71875 
Q 8.5 49.078125 8.5 55.328125 
Q 8.5 64.0625 14.71875 69.140625 
Q 20.953125 74.21875 31.78125 74.21875 
Q 42.671875 74.21875 48.875 69.140625 
Q 55.078125 64.0625 55.078125 55.328125 
Q 55.078125 49.078125 51.53125 44.71875 
Q 48 40.375 41.703125 38.8125 
Q 48.828125 37.15625 52.796875 32.3125 
Q 56.78125 27.484375 56.78125 20.515625 
Q 56.78125 9.90625 50.3125 4.234375 
Q 43.84375 -1.421875 31.78125 -1.421875 
Q 19.734375 -1.421875 13.25 4.234375 
Q 6.78125 9.90625 6.78125 20.515625 
Q 6.78125 27.484375 10.78125 32.3125 
Q 14.796875 37.15625 21.921875 38.8125 
z
M 18.3125 54.390625 
Q 18.3125 48.734375 21.84375 45.5625 
Q 25.390625 42.390625 31.78125 42.390625 
Q 38.140625 42.390625 41.71875 45.5625 
Q 45.3125 48.734375 45.3125 54.390625 
Q 45.3125 60.0625 41.71875 63.234375 
Q 38.140625 66.40625 31.78125 66.40625 
Q 25.390625 66.40625 21.84375 63.234375 
Q 18.3125 60.0625 18.3125 54.390625 
z
" id="DejaVuSans-56"/>
      </defs>
      <g transform="translate(336.9335 322.182437)scale(0.1 -0.1)">
       <use xlink:href="#DejaVuSans-56"/>
       <use x="63.623047" xlink:href="#DejaVuSans-48"/>
      </g>
     </g>
    </g>
    <g id="xtick_6">
     <g id="line2d_6">
      <g>
       <use style="stroke:#000000;stroke-width:0.8;" x="414.72" xlink:href="#ma3c794bfe1" y="307.584"/>
      </g>
     </g>
     <g id="text_6">
      <!-- 100 -->
      <defs>
       <path d="M 12.40625 8.296875 
L 28.515625 8.296875 
L 28.515625 63.921875 
L 10.984375 60.40625 
L 10.984375 69.390625 
L 28.421875 72.90625 
L 38.28125 72.90625 
L 38.28125 8.296875 
L 54.390625 8.296875 
L 54.390625 0 
L 12.40625 0 
z
" id="DejaVuSans-49"/>
      </defs>
      <g transform="translate(405.17625 322.182437)scale(0.1 -0.1)">
       <use xlink:href="#DejaVuSans-49"/>
       <use x="63.623047" xlink:href="#DejaVuSans-48"/>
       <use x="127.246094" xlink:href="#DejaVuSans-48"/>
      </g>
     </g>
    </g>
    <g id="text_7">
     <!-- size -->
     <defs>
      <path d="M 44.28125 53.078125 
L 44.28125 44.578125 
Q 40.484375 46.53125 36.375 47.5 
Q 32.28125 48.484375 27.875 48.484375 
Q 21.1875 48.484375 17.84375 46.4375 
Q 14.5 44.390625 14.5 40.28125 
Q 14.5 37.15625 16.890625 35.375 
Q 19.28125 33.59375 26.515625 31.984375 
L 29.59375 31.296875 
Q 39.15625 29.25 43.1875 25.515625 
Q 47.21875 21.78125 47.21875 15.09375 
Q 47.21875 7.46875 41.1875 3.015625 
Q 35.15625 -1.421875 24.609375 -1.421875 
Q 20.21875 -1.421875 15.453125 -0.5625 
Q 10.6875 0.296875 5.421875 2 
L 5.421875 11.28125 
Q 10.40625 8.6875 15.234375 7.390625 
Q 20.0625 6.109375 24.8125 6.109375 
Q 31.15625 6.109375 34.5625 8.28125 
Q 37.984375 10.453125 37.984375 14.40625 
Q 37.984375 18.0625 35.515625 20.015625 
Q 33.0625 21.96875 24.703125 23.78125 
L 21.578125 24.515625 
Q 13.234375 26.265625 9.515625 29.90625 
Q 5.8125 33.546875 5.8125 39.890625 
Q 5.8125 47.609375 11.28125 51.796875 
Q 16.75 56 26.8125 56 
Q 31.78125 56 36.171875 55.265625 
Q 40.578125 54.546875 44.28125 53.078125 
z
" id="DejaVuSans-115"/>
      <path d="M 9.421875 54.6875 
L 18.40625 54.6875 
L 18.40625 0 
L 9.421875 0 
z
M 9.421875 75.984375 
L 18.40625 75.984375 
L 18.40625 64.59375 
L 9.421875 64.59375 
z
" id="DejaVuSans-105"/>
      <path d="M 5.515625 54.6875 
L 48.1875 54.6875 
L 48.1875 46.484375 
L 14.40625 7.171875 
L 48.1875 7.171875 
L 48.1875 0 
L 4.296875 0 
L 4.296875 8.203125 
L 38.09375 47.515625 
L 5.515625 47.515625 
z
" id="DejaVuSans-122"/>
      <path d="M 56.203125 29.59375 
L 56.203125 25.203125 
L 14.890625 25.203125 
Q 15.484375 15.921875 20.484375 11.0625 
Q 25.484375 6.203125 34.421875 6.203125 
Q 39.59375 6.203125 44.453125 7.46875 
Q 49.3125 8.734375 54.109375 11.28125 
L 54.109375 2.78125 
Q 49.265625 0.734375 44.1875 -0.34375 
Q 39.109375 -1.421875 33.890625 -1.421875 
Q 20.796875 -1.421875 13.15625 6.1875 
Q 5.515625 13.8125 5.515625 26.8125 
Q 5.515625 40.234375 12.765625 48.109375 
Q 20.015625 56 32.328125 56 
Q 43.359375 56 49.78125 48.890625 
Q 56.203125 41.796875 56.203125 29.59375 
z
M 47.21875 32.234375 
Q 47.125 39.59375 43.09375 43.984375 
Q 39.0625 48.390625 32.421875 48.390625 
Q 24.90625 48.390625 20.390625 44.140625 
Q 15.875 39.890625 15.1875 32.171875 
z
" id="DejaVuSans-101"/>
     </defs>
     <g transform="translate(226.465469 335.860562)scale(0.1 -0.1)">
      <use xlink:href="#DejaVuSans-115"/>
      <use x="52.099609" xlink:href="#DejaVuSans-105"/>
      <use x="79.882812" xlink:href="#DejaVuSans-122"/>
      <use x="132.373047" xlink:href="#DejaVuSans-101"/>
     </g>
    </g>
   </g>
   <g id="matplotlib.axis_2">
    <g id="ytick_1">
     <g id="line2d_7">
      <defs>
       <path d="M 0 0 
L -3.5 0 
" id="m255816fbf6" style="stroke:#000000;stroke-width:0.8;"/>
      </defs>
      <g>
       <use style="stroke:#000000;stroke-width:0.8;" x="57.6" xlink:href="#m255816fbf6" y="295.488"/>
      </g>
     </g>
     <g id="text_8">
      <!-- 0 -->
      <g transform="translate(44.2375 299.287219)scale(0.1 -0.1)">
       <use xlink:href="#DejaVuSans-48"/>
      </g>
     </g>
    </g>
    <g id="ytick_2">
     <g id="line2d_8">
      <g>
       <use style="stroke:#000000;stroke-width:0.8;" x="57.6" xlink:href="#m255816fbf6" y="258.800102"/>
      </g>
     </g>
     <g id="text_9">
      <!-- 10 -->
      <g transform="translate(37.875 262.599321)scale(0.1 -0.1)">
       <use xlink:href="#DejaVuSans-49"/>
       <use x="63.623047" xlink:href="#DejaVuSans-48"/>
      </g>
     </g>
    </g>
    <g id="ytick_3">
     <g id="line2d_9">
      <g>
       <use style="stroke:#000000;stroke-width:0.8;" x="57.6" xlink:href="#m255816fbf6" y="222.112204"/>
      </g>
     </g>
     <g id="text_10">
      <!-- 20 -->
      <g transform="translate(37.875 225.911423)scale(0.1 -0.1)">
       <use xlink:href="#DejaVuSans-50"/>
       <use x="63.623047" xlink:href="#DejaVuSans-48"/>
      </g>
     </g>
    </g>
    <g id="ytick_4">
     <g id="line2d_10">
      <g>
       <use style="stroke:#000000;stroke-width:0.8;" x="57.6" xlink:href="#m255816fbf6" y="185.424306"/>
      </g>
     </g>
     <g id="text_11">
      <!-- 30 -->
      <defs>
       <path d="M 40.578125 39.3125 
Q 47.65625 37.796875 51.625 33 
Q 55.609375 28.21875 55.609375 21.1875 
Q 55.609375 10.40625 48.1875 4.484375 
Q 40.765625 -1.421875 27.09375 -1.421875 
Q 22.515625 -1.421875 17.65625 -0.515625 
Q 12.796875 0.390625 7.625 2.203125 
L 7.625 11.71875 
Q 11.71875 9.328125 16.59375 8.109375 
Q 21.484375 6.890625 26.8125 6.890625 
Q 36.078125 6.890625 40.9375 10.546875 
Q 45.796875 14.203125 45.796875 21.1875 
Q 45.796875 27.640625 41.28125 31.265625 
Q 36.765625 34.90625 28.71875 34.90625 
L 20.21875 34.90625 
L 20.21875 43.015625 
L 29.109375 43.015625 
Q 36.375 43.015625 40.234375 45.921875 
Q 44.09375 48.828125 44.09375 54.296875 
Q 44.09375 59.90625 40.109375 62.90625 
Q 36.140625 65.921875 28.71875 65.921875 
Q 24.65625 65.921875 20.015625 65.03125 
Q 15.375 64.15625 9.8125 62.3125 
L 9.8125 71.09375 
Q 15.4375 72.65625 20.34375 73.4375 
Q 25.25 74.21875 29.59375 74.21875 
Q 40.828125 74.21875 47.359375 69.109375 
Q 53.90625 64.015625 53.90625 55.328125 
Q 53.90625 49.265625 50.4375 45.09375 
Q 46.96875 40.921875 40.578125 39.3125 
z
" id="DejaVuSans-51"/>
      </defs>
      <g transform="translate(37.875 189.223524)scale(0.1 -0.1)">
       <use xlink:href="#DejaVuSans-51"/>
       <use x="63.623047" xlink:href="#DejaVuSans-48"/>
      </g>
     </g>
    </g>
    <g id="ytick_5">
     <g id="line2d_11">
      <g>
       <use style="stroke:#000000;stroke-width:0.8;" x="57.6" xlink:href="#m255816fbf6" y="148.736408"/>
      </g>
     </g>
     <g id="text_12">
      <!-- 40 -->
      <g transform="translate(37.875 152.535626)scale(0.1 -0.1)">
       <use xlink:href="#DejaVuSans-52"/>
       <use x="63.623047" xlink:href="#DejaVuSans-48"/>
      </g>
     </g>
    </g>
    <g id="ytick_6">
     <g id="line2d_12">
      <g>
       <use style="stroke:#000000;stroke-width:0.8;" x="57.6" xlink:href="#m255816fbf6" y="112.04851"/>
      </g>
     </g>
     <g id="text_13">
      <!-- 50 -->
      <defs>
       <path d="M 10.796875 72.90625 
L 49.515625 72.90625 
L 49.515625 64.59375 
L 19.828125 64.59375 
L 19.828125 46.734375 
Q 21.96875 47.46875 24.109375 47.828125 
Q 26.265625 48.1875 28.421875 48.1875 
Q 40.625 48.1875 47.75 41.5 
Q 54.890625 34.8125 54.890625 23.390625 
Q 54.890625 11.625 47.5625 5.09375 
Q 40.234375 -1.421875 26.90625 -1.421875 
Q 22.3125 -1.421875 17.546875 -0.640625 
Q 12.796875 0.140625 7.71875 1.703125 
L 7.71875 11.625 
Q 12.109375 9.234375 16.796875 8.0625 
Q 21.484375 6.890625 26.703125 6.890625 
Q 35.15625 6.890625 40.078125 11.328125 
Q 45.015625 15.765625 45.015625 23.390625 
Q 45.015625 31 40.078125 35.4375 
Q 35.15625 39.890625 26.703125 39.890625 
Q 22.75 39.890625 18.8125 39.015625 
Q 14.890625 38.140625 10.796875 36.28125 
z
" id="DejaVuSans-53"/>
      </defs>
      <g transform="translate(37.875 115.847728)scale(0.1 -0.1)">
       <use xlink:href="#DejaVuSans-53"/>
       <use x="63.623047" xlink:href="#DejaVuSans-48"/>
      </g>
     </g>
    </g>
    <g id="ytick_7">
     <g id="line2d_13">
      <g>
       <use style="stroke:#000000;stroke-width:0.8;" x="57.6" xlink:href="#m255816fbf6" y="75.360611"/>
      </g>
     </g>
     <g id="text_14">
      <!-- 60 -->
      <g transform="translate(37.875 79.15983)scale(0.1 -0.1)">
       <use xlink:href="#DejaVuSans-54"/>
       <use x="63.623047" xlink:href="#DejaVuSans-48"/>
      </g>
     </g>
    </g>
    <g id="text_15">
     <!-- f1 -->
     <defs>
      <path d="M 37.109375 75.984375 
L 37.109375 68.5 
L 28.515625 68.5 
Q 23.6875 68.5 21.796875 66.546875 
Q 19.921875 64.59375 19.921875 59.515625 
L 19.921875 54.6875 
L 34.71875 54.6875 
L 34.71875 47.703125 
L 19.921875 47.703125 
L 19.921875 0 
L 10.890625 0 
L 10.890625 47.703125 
L 2.296875 47.703125 
L 2.296875 54.6875 
L 10.890625 54.6875 
L 10.890625 58.5 
Q 10.890625 67.625 15.140625 71.796875 
Q 19.390625 75.984375 28.609375 75.984375 
z
" id="DejaVuSans-102"/>
     </defs>
     <g transform="translate(31.795313 179.469406)rotate(-90)scale(0.1 -0.1)">
      <use xlink:href="#DejaVuSans-102"/>
      <use x="35.205078" xlink:href="#DejaVuSans-49"/>
     </g>
    </g>
   </g>
   <g id="line2d_14">
    <path clip-path="url(#p0b526d4560)" d="M 57.635712 174.528 
L 57.671424 295.488 
L 57.707136 150.534115 
L 57.742848 53.568 
L 57.77856 53.568 
L 57.814272 198.485197 
L 57.849984 198.96214 
L 57.885696 53.568 
L 57.921408 53.568 
L 57.95712 53.568 
L 58.31424 101.775898 
L 58.67136 198.521885 
L 59.02848 125.916535 
L 59.3856 106.692076 
L 59.74272 103.31679 
L 60.09984 129.915516 
L 60.45696 128.558064 
L 60.81408 122.761376 
L 61.1712 128.521376 
L 75.456 90.21921 
L 93.312 207.143541 
L 111.168 149.286726 
L 129.024 206.886726 
L 146.88 182.415898 
L 164.736 225.083924 
L 182.592 171.189401 
L 200.448 200.576408 
L 218.304 156.954497 
L 236.16 174.784815 
L 254.016 161.797299 
L 271.872 169.281631 
L 289.728 172.400102 
L 307.584 193.092076 
L 325.44 216.168764 
L 343.296 186.048 
L 361.152 189.093096 
L 379.008 187.845707 
L 396.864 184.213605 
L 414.72 184.617172 
" style="fill:none;stroke:#008000;stroke-linecap:square;stroke-width:1.5;"/>
    <defs>
     <path d="M -3 3 
L 3 -3 
M -3 -3 
L 3 3 
" id="m276629b641" style="stroke:#008000;"/>
    </defs>
    <g clip-path="url(#p0b526d4560)">
     <use style="fill:#008000;stroke:#008000;" x="57.635712" xlink:href="#m276629b641" y="174.528"/>
     <use style="fill:#008000;stroke:#008000;" x="57.671424" xlink:href="#m276629b641" y="295.488"/>
     <use style="fill:#008000;stroke:#008000;" x="57.707136" xlink:href="#m276629b641" y="150.534115"/>
     <use style="fill:#008000;stroke:#008000;" x="57.742848" xlink:href="#m276629b641" y="53.568"/>
     <use style="fill:#008000;stroke:#008000;" x="57.77856" xlink:href="#m276629b641" y="53.568"/>
     <use style="fill:#008000;stroke:#008000;" x="57.814272" xlink:href="#m276629b641" y="198.485197"/>
     <use style="fill:#008000;stroke:#008000;" x="57.849984" xlink:href="#m276629b641" y="198.96214"/>
     <use style="fill:#008000;stroke:#008000;" x="57.885696" xlink:href="#m276629b641" y="53.568"/>
     <use style="fill:#008000;stroke:#008000;" x="57.921408" xlink:href="#m276629b641" y="53.568"/>
     <use style="fill:#008000;stroke:#008000;" x="57.95712" xlink:href="#m276629b641" y="53.568"/>
     <use style="fill:#008000;stroke:#008000;" x="58.31424" xlink:href="#m276629b641" y="101.775898"/>
     <use style="fill:#008000;stroke:#008000;" x="58.67136" xlink:href="#m276629b641" y="198.521885"/>
     <use style="fill:#008000;stroke:#008000;" x="59.02848" xlink:href="#m276629b641" y="125.916535"/>
     <use style="fill:#008000;stroke:#008000;" x="59.3856" xlink:href="#m276629b641" y="106.692076"/>
     <use style="fill:#008000;stroke:#008000;" x="59.74272" xlink:href="#m276629b641" y="103.31679"/>
     <use style="fill:#008000;stroke:#008000;" x="60.09984" xlink:href="#m276629b641" y="129.915516"/>
     <use style="fill:#008000;stroke:#008000;" x="60.45696" xlink:href="#m276629b641" y="128.558064"/>
     <use style="fill:#008000;stroke:#008000;" x="60.81408" xlink:href="#m276629b641" y="122.761376"/>
     <use style="fill:#008000;stroke:#008000;" x="61.1712" xlink:href="#m276629b641" y="128.521376"/>
     <use style="fill:#008000;stroke:#008000;" x="75.456" xlink:href="#m276629b641" y="90.21921"/>
     <use style="fill:#008000;stroke:#008000;" x="93.312" xlink:href="#m276629b641" y="207.143541"/>
     <use style="fill:#008000;stroke:#008000;" x="111.168" xlink:href="#m276629b641" y="149.286726"/>
     <use style="fill:#008000;stroke:#008000;" x="129.024" xlink:href="#m276629b641" y="206.886726"/>
     <use style="fill:#008000;stroke:#008000;" x="146.88" xlink:href="#m276629b641" y="182.415898"/>
     <use style="fill:#008000;stroke:#008000;" x="164.736" xlink:href="#m276629b641" y="225.083924"/>
     <use style="fill:#008000;stroke:#008000;" x="182.592" xlink:href="#m276629b641" y="171.189401"/>
     <use style="fill:#008000;stroke:#008000;" x="200.448" xlink:href="#m276629b641" y="200.576408"/>
     <use style="fill:#008000;stroke:#008000;" x="218.304" xlink:href="#m276629b641" y="156.954497"/>
     <use style="fill:#008000;stroke:#008000;" x="236.16" xlink:href="#m276629b641" y="174.784815"/>
     <use style="fill:#008000;stroke:#008000;" x="254.016" xlink:href="#m276629b641" y="161.797299"/>
     <use style="fill:#008000;stroke:#008000;" x="271.872" xlink:href="#m276629b641" y="169.281631"/>
     <use style="fill:#008000;stroke:#008000;" x="289.728" xlink:href="#m276629b641" y="172.400102"/>
     <use style="fill:#008000;stroke:#008000;" x="307.584" xlink:href="#m276629b641" y="193.092076"/>
     <use style="fill:#008000;stroke:#008000;" x="325.44" xlink:href="#m276629b641" y="216.168764"/>
     <use style="fill:#008000;stroke:#008000;" x="343.296" xlink:href="#m276629b641" y="186.048"/>
     <use style="fill:#008000;stroke:#008000;" x="361.152" xlink:href="#m276629b641" y="189.093096"/>
     <use style="fill:#008000;stroke:#008000;" x="379.008" xlink:href="#m276629b641" y="187.845707"/>
     <use style="fill:#008000;stroke:#008000;" x="396.864" xlink:href="#m276629b641" y="184.213605"/>
     <use style="fill:#008000;stroke:#008000;" x="414.72" xlink:href="#m276629b641" y="184.617172"/>
    </g>
   </g>
   <g id="line2d_15">
    <path clip-path="url(#p0b526d4560)" d="M 57.635712 78.405707 
L 57.671424 93.961376 
L 57.707136 95.355516 
L 57.742848 78.515771 
L 57.77856 93.521121 
L 57.814272 141.105325 
L 57.849984 154.27628 
L 57.885696 87.834497 
L 57.921408 80.570293 
L 57.95712 87.24749 
L 58.31424 97.153223 
L 58.67136 131.126217 
L 59.02848 115.313732 
L 59.3856 147.599083 
L 59.74272 130.612586 
L 60.09984 113.809529 
L 60.45696 115.020229 
L 60.81408 109.737172 
L 61.1712 110.397554 
L 75.456 101.188892 
L 93.312 153.872713 
L 111.168 154.679847 
L 129.024 207.033478 
L 146.88 164.438828 
L 164.736 210.335389 
L 182.592 187.735643 
L 200.448 201.530293 
L 218.304 190.083669 
L 236.16 195.733605 
L 254.016 159.449274 
L 271.872 176.80265 
L 289.728 181.828892 
L 307.584 189.093096 
L 325.44 207.803924 
L 343.296 181.792204 
L 361.152 172.510166 
L 379.008 174.307873 
L 396.864 190.083669 
L 414.72 224.937172 
" style="fill:none;stroke:#ff0000;stroke-linecap:square;stroke-width:1.5;"/>
    <defs>
     <path d="M 0 3 
C 0.795609 3 1.55874 2.683901 2.12132 2.12132 
C 2.683901 1.55874 3 0.795609 3 0 
C 3 -0.795609 2.683901 -1.55874 2.12132 -2.12132 
C 1.55874 -2.683901 0.795609 -3 0 -3 
C -0.795609 -3 -1.55874 -2.683901 -2.12132 -2.12132 
C -2.683901 -1.55874 -3 -0.795609 -3 0 
C -3 0.795609 -2.683901 1.55874 -2.12132 2.12132 
C -1.55874 2.683901 -0.795609 3 0 3 
z
" id="m0e759ff4af" style="stroke:#ff0000;"/>
    </defs>
    <g clip-path="url(#p0b526d4560)">
     <use style="fill:#ff0000;stroke:#ff0000;" x="57.635712" xlink:href="#m0e759ff4af" y="78.405707"/>
     <use style="fill:#ff0000;stroke:#ff0000;" x="57.671424" xlink:href="#m0e759ff4af" y="93.961376"/>
     <use style="fill:#ff0000;stroke:#ff0000;" x="57.707136" xlink:href="#m0e759ff4af" y="95.355516"/>
     <use style="fill:#ff0000;stroke:#ff0000;" x="57.742848" xlink:href="#m0e759ff4af" y="78.515771"/>
     <use style="fill:#ff0000;stroke:#ff0000;" x="57.77856" xlink:href="#m0e759ff4af" y="93.521121"/>
     <use style="fill:#ff0000;stroke:#ff0000;" x="57.814272" xlink:href="#m0e759ff4af" y="141.105325"/>
     <use style="fill:#ff0000;stroke:#ff0000;" x="57.849984" xlink:href="#m0e759ff4af" y="154.27628"/>
     <use style="fill:#ff0000;stroke:#ff0000;" x="57.885696" xlink:href="#m0e759ff4af" y="87.834497"/>
     <use style="fill:#ff0000;stroke:#ff0000;" x="57.921408" xlink:href="#m0e759ff4af" y="80.570293"/>
     <use style="fill:#ff0000;stroke:#ff0000;" x="57.95712" xlink:href="#m0e759ff4af" y="87.24749"/>
     <use style="fill:#ff0000;stroke:#ff0000;" x="58.31424" xlink:href="#m0e759ff4af" y="97.153223"/>
     <use style="fill:#ff0000;stroke:#ff0000;" x="58.67136" xlink:href="#m0e759ff4af" y="131.126217"/>
     <use style="fill:#ff0000;stroke:#ff0000;" x="59.02848" xlink:href="#m0e759ff4af" y="115.313732"/>
     <use style="fill:#ff0000;stroke:#ff0000;" x="59.3856" xlink:href="#m0e759ff4af" y="147.599083"/>
     <use style="fill:#ff0000;stroke:#ff0000;" x="59.74272" xlink:href="#m0e759ff4af" y="130.612586"/>
     <use style="fill:#ff0000;stroke:#ff0000;" x="60.09984" xlink:href="#m0e759ff4af" y="113.809529"/>
     <use style="fill:#ff0000;stroke:#ff0000;" x="60.45696" xlink:href="#m0e759ff4af" y="115.020229"/>
     <use style="fill:#ff0000;stroke:#ff0000;" x="60.81408" xlink:href="#m0e759ff4af" y="109.737172"/>
     <use style="fill:#ff0000;stroke:#ff0000;" x="61.1712" xlink:href="#m0e759ff4af" y="110.397554"/>
     <use style="fill:#ff0000;stroke:#ff0000;" x="75.456" xlink:href="#m0e759ff4af" y="101.188892"/>
     <use style="fill:#ff0000;stroke:#ff0000;" x="93.312" xlink:href="#m0e759ff4af" y="153.872713"/>
     <use style="fill:#ff0000;stroke:#ff0000;" x="111.168" xlink:href="#m0e759ff4af" y="154.679847"/>
     <use style="fill:#ff0000;stroke:#ff0000;" x="129.024" xlink:href="#m0e759ff4af" y="207.033478"/>
     <use style="fill:#ff0000;stroke:#ff0000;" x="146.88" xlink:href="#m0e759ff4af" y="164.438828"/>
     <use style="fill:#ff0000;stroke:#ff0000;" x="164.736" xlink:href="#m0e759ff4af" y="210.335389"/>
     <use style="fill:#ff0000;stroke:#ff0000;" x="182.592" xlink:href="#m0e759ff4af" y="187.735643"/>
     <use style="fill:#ff0000;stroke:#ff0000;" x="200.448" xlink:href="#m0e759ff4af" y="201.530293"/>
     <use style="fill:#ff0000;stroke:#ff0000;" x="218.304" xlink:href="#m0e759ff4af" y="190.083669"/>
     <use style="fill:#ff0000;stroke:#ff0000;" x="236.16" xlink:href="#m0e759ff4af" y="195.733605"/>
     <use style="fill:#ff0000;stroke:#ff0000;" x="254.016" xlink:href="#m0e759ff4af" y="159.449274"/>
     <use style="fill:#ff0000;stroke:#ff0000;" x="271.872" xlink:href="#m0e759ff4af" y="176.80265"/>
     <use style="fill:#ff0000;stroke:#ff0000;" x="289.728" xlink:href="#m0e759ff4af" y="181.828892"/>
     <use style="fill:#ff0000;stroke:#ff0000;" x="307.584" xlink:href="#m0e759ff4af" y="189.093096"/>
     <use style="fill:#ff0000;stroke:#ff0000;" x="325.44" xlink:href="#m0e759ff4af" y="207.803924"/>
     <use style="fill:#ff0000;stroke:#ff0000;" x="343.296" xlink:href="#m0e759ff4af" y="181.792204"/>
     <use style="fill:#ff0000;stroke:#ff0000;" x="361.152" xlink:href="#m0e759ff4af" y="172.510166"/>
     <use style="fill:#ff0000;stroke:#ff0000;" x="379.008" xlink:href="#m0e759ff4af" y="174.307873"/>
     <use style="fill:#ff0000;stroke:#ff0000;" x="396.864" xlink:href="#m0e759ff4af" y="190.083669"/>
     <use style="fill:#ff0000;stroke:#ff0000;" x="414.72" xlink:href="#m0e759ff4af" y="224.937172"/>
    </g>
   </g>
   <g id="line2d_16">
    <path clip-path="url(#p0b526d4560)" d="M 57.635712 101.885962 
L 57.671424 295.488 
L 57.707136 150.534115 
L 57.742848 53.568 
L 57.77856 53.568 
L 57.814272 198.485197 
L 57.849984 198.96214 
L 57.885696 77.818701 
L 57.921408 53.568 
L 57.95712 53.568 
L 58.31424 125.806471 
L 58.67136 198.521885 
L 59.02848 149.947108 
L 59.3856 271.200611 
L 59.74272 222.919338 
L 60.09984 99.024306 
L 60.45696 110.250803 
L 60.81408 111.424815 
L 61.1712 114.579975 
L 75.456 84.092331 
L 93.312 166.566726 
L 111.168 142.719592 
L 129.024 175.40851 
L 146.88 165.28265 
L 164.736 197.751439 
L 182.592 184.873987 
L 200.448 198.485197 
L 218.304 180.104561 
L 236.16 196.797554 
L 254.016 183.663287 
L 271.872 194.963159 
L 289.728 188.102522 
L 307.584 197.898191 
L 325.44 209.418191 
L 343.296 207.767236 
L 361.152 207.547108 
L 379.008 208.721121 
L 396.864 208.39093 
L 414.72 201.016662 
" style="fill:none;stroke:#0000ff;stroke-linecap:square;stroke-width:1.5;"/>
    <defs>
     <path d="M -3 0 
L 3 0 
M 0 3 
L 0 -3 
" id="mdddac1bd48" style="stroke:#0000ff;"/>
    </defs>
    <g clip-path="url(#p0b526d4560)">
     <use style="fill:#0000ff;stroke:#0000ff;" x="57.635712" xlink:href="#mdddac1bd48" y="101.885962"/>
     <use style="fill:#0000ff;stroke:#0000ff;" x="57.671424" xlink:href="#mdddac1bd48" y="295.488"/>
     <use style="fill:#0000ff;stroke:#0000ff;" x="57.707136" xlink:href="#mdddac1bd48" y="150.534115"/>
     <use style="fill:#0000ff;stroke:#0000ff;" x="57.742848" xlink:href="#mdddac1bd48" y="53.568"/>
     <use style="fill:#0000ff;stroke:#0000ff;" x="57.77856" xlink:href="#mdddac1bd48" y="53.568"/>
     <use style="fill:#0000ff;stroke:#0000ff;" x="57.814272" xlink:href="#mdddac1bd48" y="198.485197"/>
     <use style="fill:#0000ff;stroke:#0000ff;" x="57.849984" xlink:href="#mdddac1bd48" y="198.96214"/>
     <use style="fill:#0000ff;stroke:#0000ff;" x="57.885696" xlink:href="#mdddac1bd48" y="77.818701"/>
     <use style="fill:#0000ff;stroke:#0000ff;" x="57.921408" xlink:href="#mdddac1bd48" y="53.568"/>
     <use style="fill:#0000ff;stroke:#0000ff;" x="57.95712" xlink:href="#mdddac1bd48" y="53.568"/>
     <use style="fill:#0000ff;stroke:#0000ff;" x="58.31424" xlink:href="#mdddac1bd48" y="125.806471"/>
     <use style="fill:#0000ff;stroke:#0000ff;" x="58.67136" xlink:href="#mdddac1bd48" y="198.521885"/>
     <use style="fill:#0000ff;stroke:#0000ff;" x="59.02848" xlink:href="#mdddac1bd48" y="149.947108"/>
     <use style="fill:#0000ff;stroke:#0000ff;" x="59.3856" xlink:href="#mdddac1bd48" y="271.200611"/>
     <use style="fill:#0000ff;stroke:#0000ff;" x="59.74272" xlink:href="#mdddac1bd48" y="222.919338"/>
     <use style="fill:#0000ff;stroke:#0000ff;" x="60.09984" xlink:href="#mdddac1bd48" y="99.024306"/>
     <use style="fill:#0000ff;stroke:#0000ff;" x="60.45696" xlink:href="#mdddac1bd48" y="110.250803"/>
     <use style="fill:#0000ff;stroke:#0000ff;" x="60.81408" xlink:href="#mdddac1bd48" y="111.424815"/>
     <use style="fill:#0000ff;stroke:#0000ff;" x="61.1712" xlink:href="#mdddac1bd48" y="114.579975"/>
     <use style="fill:#0000ff;stroke:#0000ff;" x="75.456" xlink:href="#mdddac1bd48" y="84.092331"/>
     <use style="fill:#0000ff;stroke:#0000ff;" x="93.312" xlink:href="#mdddac1bd48" y="166.566726"/>
     <use style="fill:#0000ff;stroke:#0000ff;" x="111.168" xlink:href="#mdddac1bd48" y="142.719592"/>
     <use style="fill:#0000ff;stroke:#0000ff;" x="129.024" xlink:href="#mdddac1bd48" y="175.40851"/>
     <use style="fill:#0000ff;stroke:#0000ff;" x="146.88" xlink:href="#mdddac1bd48" y="165.28265"/>
     <use style="fill:#0000ff;stroke:#0000ff;" x="164.736" xlink:href="#mdddac1bd48" y="197.751439"/>
     <use style="fill:#0000ff;stroke:#0000ff;" x="182.592" xlink:href="#mdddac1bd48" y="184.873987"/>
     <use style="fill:#0000ff;stroke:#0000ff;" x="200.448" xlink:href="#mdddac1bd48" y="198.485197"/>
     <use style="fill:#0000ff;stroke:#0000ff;" x="218.304" xlink:href="#mdddac1bd48" y="180.104561"/>
     <use style="fill:#0000ff;stroke:#0000ff;" x="236.16" xlink:href="#mdddac1bd48" y="196.797554"/>
     <use style="fill:#0000ff;stroke:#0000ff;" x="254.016" xlink:href="#mdddac1bd48" y="183.663287"/>
     <use style="fill:#0000ff;stroke:#0000ff;" x="271.872" xlink:href="#mdddac1bd48" y="194.963159"/>
     <use style="fill:#0000ff;stroke:#0000ff;" x="289.728" xlink:href="#mdddac1bd48" y="188.102522"/>
     <use style="fill:#0000ff;stroke:#0000ff;" x="307.584" xlink:href="#mdddac1bd48" y="197.898191"/>
     <use style="fill:#0000ff;stroke:#0000ff;" x="325.44" xlink:href="#mdddac1bd48" y="209.418191"/>
     <use style="fill:#0000ff;stroke:#0000ff;" x="343.296" xlink:href="#mdddac1bd48" y="207.767236"/>
     <use style="fill:#0000ff;stroke:#0000ff;" x="361.152" xlink:href="#mdddac1bd48" y="207.547108"/>
     <use style="fill:#0000ff;stroke:#0000ff;" x="379.008" xlink:href="#mdddac1bd48" y="208.721121"/>
     <use style="fill:#0000ff;stroke:#0000ff;" x="396.864" xlink:href="#mdddac1bd48" y="208.39093"/>
     <use style="fill:#0000ff;stroke:#0000ff;" x="414.72" xlink:href="#mdddac1bd48" y="201.016662"/>
    </g>
   </g>
   <g id="line2d_17">
    <path clip-path="url(#p0b526d4560)" d="M 57.635712 174.528 
L 57.671424 295.488 
L 57.707136 150.534115 
L 57.742848 53.568 
L 57.77856 53.568 
L 57.814272 198.485197 
L 57.849984 198.96214 
L 57.885696 53.568 
L 57.921408 53.568 
L 57.95712 53.568 
L 58.31424 101.775898 
L 58.67136 198.521885 
L 59.02848 125.916535 
L 59.3856 136.812841 
L 59.74272 127.127236 
L 60.09984 107.315771 
L 60.45696 118.358828 
L 60.81408 122.944815 
L 61.1712 132.520357 
L 75.456 102.839847 
L 93.312 132.11679 
L 111.168 131.603159 
L 129.024 133.547618 
L 146.88 131.676535 
L 164.736 136.922904 
L 182.592 136.079083 
L 200.448 141.508892 
L 218.304 137.803414 
L 236.16 143.343287 
L 254.016 142.24265 
L 271.872 142.169274 
L 289.728 139.27093 
L 307.584 145.654624 
L 325.44 146.718573 
L 343.296 149.103287 
L 361.152 146.681885 
L 379.008 147.965962 
L 396.864 150.313987 
L 414.72 150.974369 
" style="fill:none;stroke:#000000;stroke-linecap:square;stroke-width:1.5;"/>
    <defs>
     <path d="M -3 3 
L 3 3 
L 3 -3 
L -3 -3 
z
" id="m188cfdd51e" style="stroke:#000000;stroke-linejoin:miter;"/>
    </defs>
    <g clip-path="url(#p0b526d4560)">
     <use style="stroke:#000000;stroke-linejoin:miter;" x="57.635712" xlink:href="#m188cfdd51e" y="174.528"/>
     <use style="stroke:#000000;stroke-linejoin:miter;" x="57.671424" xlink:href="#m188cfdd51e" y="295.488"/>
     <use style="stroke:#000000;stroke-linejoin:miter;" x="57.707136" xlink:href="#m188cfdd51e" y="150.534115"/>
     <use style="stroke:#000000;stroke-linejoin:miter;" x="57.742848" xlink:href="#m188cfdd51e" y="53.568"/>
     <use style="stroke:#000000;stroke-linejoin:miter;" x="57.77856" xlink:href="#m188cfdd51e" y="53.568"/>
     <use style="stroke:#000000;stroke-linejoin:miter;" x="57.814272" xlink:href="#m188cfdd51e" y="198.485197"/>
     <use style="stroke:#000000;stroke-linejoin:miter;" x="57.849984" xlink:href="#m188cfdd51e" y="198.96214"/>
     <use style="stroke:#000000;stroke-linejoin:miter;" x="57.885696" xlink:href="#m188cfdd51e" y="53.568"/>
     <use style="stroke:#000000;stroke-linejoin:miter;" x="57.921408" xlink:href="#m188cfdd51e" y="53.568"/>
     <use style="stroke:#000000;stroke-linejoin:miter;" x="57.95712" xlink:href="#m188cfdd51e" y="53.568"/>
     <use style="stroke:#000000;stroke-linejoin:miter;" x="58.31424" xlink:href="#m188cfdd51e" y="101.775898"/>
     <use style="stroke:#000000;stroke-linejoin:miter;" x="58.67136" xlink:href="#m188cfdd51e" y="198.521885"/>
     <use style="stroke:#000000;stroke-linejoin:miter;" x="59.02848" xlink:href="#m188cfdd51e" y="125.916535"/>
     <use style="stroke:#000000;stroke-linejoin:miter;" x="59.3856" xlink:href="#m188cfdd51e" y="136.812841"/>
     <use style="stroke:#000000;stroke-linejoin:miter;" x="59.74272" xlink:href="#m188cfdd51e" y="127.127236"/>
     <use style="stroke:#000000;stroke-linejoin:miter;" x="60.09984" xlink:href="#m188cfdd51e" y="107.315771"/>
     <use style="stroke:#000000;stroke-linejoin:miter;" x="60.45696" xlink:href="#m188cfdd51e" y="118.358828"/>
     <use style="stroke:#000000;stroke-linejoin:miter;" x="60.81408" xlink:href="#m188cfdd51e" y="122.944815"/>
     <use style="stroke:#000000;stroke-linejoin:miter;" x="61.1712" xlink:href="#m188cfdd51e" y="132.520357"/>
     <use style="stroke:#000000;stroke-linejoin:miter;" x="75.456" xlink:href="#m188cfdd51e" y="102.839847"/>
     <use style="stroke:#000000;stroke-linejoin:miter;" x="93.312" xlink:href="#m188cfdd51e" y="132.11679"/>
     <use style="stroke:#000000;stroke-linejoin:miter;" x="111.168" xlink:href="#m188cfdd51e" y="131.603159"/>
     <use style="stroke:#000000;stroke-linejoin:miter;" x="129.024" xlink:href="#m188cfdd51e" y="133.547618"/>
     <use style="stroke:#000000;stroke-linejoin:miter;" x="146.88" xlink:href="#m188cfdd51e" y="131.676535"/>
     <use style="stroke:#000000;stroke-linejoin:miter;" x="164.736" xlink:href="#m188cfdd51e" y="136.922904"/>
     <use style="stroke:#000000;stroke-linejoin:miter;" x="182.592" xlink:href="#m188cfdd51e" y="136.079083"/>
     <use style="stroke:#000000;stroke-linejoin:miter;" x="200.448" xlink:href="#m188cfdd51e" y="141.508892"/>
     <use style="stroke:#000000;stroke-linejoin:miter;" x="218.304" xlink:href="#m188cfdd51e" y="137.803414"/>
     <use style="stroke:#000000;stroke-linejoin:miter;" x="236.16" xlink:href="#m188cfdd51e" y="143.343287"/>
     <use style="stroke:#000000;stroke-linejoin:miter;" x="254.016" xlink:href="#m188cfdd51e" y="142.24265"/>
     <use style="stroke:#000000;stroke-linejoin:miter;" x="271.872" xlink:href="#m188cfdd51e" y="142.169274"/>
     <use style="stroke:#000000;stroke-linejoin:miter;" x="289.728" xlink:href="#m188cfdd51e" y="139.27093"/>
     <use style="stroke:#000000;stroke-linejoin:miter;" x="307.584" xlink:href="#m188cfdd51e" y="145.654624"/>
     <use style="stroke:#000000;stroke-linejoin:miter;" x="325.44" xlink:href="#m188cfdd51e" y="146.718573"/>
     <use style="stroke:#000000;stroke-linejoin:miter;" x="343.296" xlink:href="#m188cfdd51e" y="149.103287"/>
     <use style="stroke:#000000;stroke-linejoin:miter;" x="361.152" xlink:href="#m188cfdd51e" y="146.681885"/>
     <use style="stroke:#000000;stroke-linejoin:miter;" x="379.008" xlink:href="#m188cfdd51e" y="147.965962"/>
     <use style="stroke:#000000;stroke-linejoin:miter;" x="396.864" xlink:href="#m188cfdd51e" y="150.313987"/>
     <use style="stroke:#000000;stroke-linejoin:miter;" x="414.72" xlink:href="#m188cfdd51e" y="150.974369"/>
    </g>
   </g>
   <g id="patch_3">
    <path d="M 57.6 307.584 
L 57.6 41.472 
" style="fill:none;stroke:#000000;stroke-linecap:square;stroke-linejoin:miter;stroke-width:0.8;"/>
   </g>
   <g id="patch_4">
    <path d="M 414.72 307.584 
L 414.72 41.472 
" style="fill:none;stroke:#000000;stroke-linecap:square;stroke-linejoin:miter;stroke-width:0.8;"/>
   </g>
   <g id="patch_5">
    <path d="M 57.6 307.584 
L 414.72 307.584 
" style="fill:none;stroke:#000000;stroke-linecap:square;stroke-linejoin:miter;stroke-width:0.8;"/>
   </g>
   <g id="patch_6">
    <path d="M 57.6 41.472 
L 414.72 41.472 
" style="fill:none;stroke:#000000;stroke-linecap:square;stroke-linejoin:miter;stroke-width:0.8;"/>
   </g>
   <g id="text_16">
    <!-- abinit: size vs f1 -->
    <defs>
     <path d="M 34.28125 27.484375 
Q 23.390625 27.484375 19.1875 25 
Q 14.984375 22.515625 14.984375 16.5 
Q 14.984375 11.71875 18.140625 8.90625 
Q 21.296875 6.109375 26.703125 6.109375 
Q 34.1875 6.109375 38.703125 11.40625 
Q 43.21875 16.703125 43.21875 25.484375 
L 43.21875 27.484375 
z
M 52.203125 31.203125 
L 52.203125 0 
L 43.21875 0 
L 43.21875 8.296875 
Q 40.140625 3.328125 35.546875 0.953125 
Q 30.953125 -1.421875 24.3125 -1.421875 
Q 15.921875 -1.421875 10.953125 3.296875 
Q 6 8.015625 6 15.921875 
Q 6 25.140625 12.171875 29.828125 
Q 18.359375 34.515625 30.609375 34.515625 
L 43.21875 34.515625 
L 43.21875 35.40625 
Q 43.21875 41.609375 39.140625 45 
Q 35.0625 48.390625 27.6875 48.390625 
Q 23 48.390625 18.546875 47.265625 
Q 14.109375 46.140625 10.015625 43.890625 
L 10.015625 52.203125 
Q 14.9375 54.109375 19.578125 55.046875 
Q 24.21875 56 28.609375 56 
Q 40.484375 56 46.34375 49.84375 
Q 52.203125 43.703125 52.203125 31.203125 
z
" id="DejaVuSans-97"/>
     <path d="M 48.6875 27.296875 
Q 48.6875 37.203125 44.609375 42.84375 
Q 40.53125 48.484375 33.40625 48.484375 
Q 26.265625 48.484375 22.1875 42.84375 
Q 18.109375 37.203125 18.109375 27.296875 
Q 18.109375 17.390625 22.1875 11.75 
Q 26.265625 6.109375 33.40625 6.109375 
Q 40.53125 6.109375 44.609375 11.75 
Q 48.6875 17.390625 48.6875 27.296875 
z
M 18.109375 46.390625 
Q 20.953125 51.265625 25.265625 53.625 
Q 29.59375 56 35.59375 56 
Q 45.5625 56 51.78125 48.09375 
Q 58.015625 40.1875 58.015625 27.296875 
Q 58.015625 14.40625 51.78125 6.484375 
Q 45.5625 -1.421875 35.59375 -1.421875 
Q 29.59375 -1.421875 25.265625 0.953125 
Q 20.953125 3.328125 18.109375 8.203125 
L 18.109375 0 
L 9.078125 0 
L 9.078125 75.984375 
L 18.109375 75.984375 
z
" id="DejaVuSans-98"/>
     <path d="M 54.890625 33.015625 
L 54.890625 0 
L 45.90625 0 
L 45.90625 32.71875 
Q 45.90625 40.484375 42.875 44.328125 
Q 39.84375 48.1875 33.796875 48.1875 
Q 26.515625 48.1875 22.3125 43.546875 
Q 18.109375 38.921875 18.109375 30.90625 
L 18.109375 0 
L 9.078125 0 
L 9.078125 54.6875 
L 18.109375 54.6875 
L 18.109375 46.1875 
Q 21.34375 51.125 25.703125 53.5625 
Q 30.078125 56 35.796875 56 
Q 45.21875 56 50.046875 50.171875 
Q 54.890625 44.34375 54.890625 33.015625 
z
" id="DejaVuSans-110"/>
     <path d="M 18.3125 70.21875 
L 18.3125 54.6875 
L 36.8125 54.6875 
L 36.8125 47.703125 
L 18.3125 47.703125 
L 18.3125 18.015625 
Q 18.3125 11.328125 20.140625 9.421875 
Q 21.96875 7.515625 27.59375 7.515625 
L 36.8125 7.515625 
L 36.8125 0 
L 27.59375 0 
Q 17.1875 0 13.234375 3.875 
Q 9.28125 7.765625 9.28125 18.015625 
L 9.28125 47.703125 
L 2.6875 47.703125 
L 2.6875 54.6875 
L 9.28125 54.6875 
L 9.28125 70.21875 
z
" id="DejaVuSans-116"/>
     <path d="M 11.71875 12.40625 
L 22.015625 12.40625 
L 22.015625 0 
L 11.71875 0 
z
M 11.71875 51.703125 
L 22.015625 51.703125 
L 22.015625 39.3125 
L 11.71875 39.3125 
z
" id="DejaVuSans-58"/>
     <path id="DejaVuSans-32"/>
     <path d="M 2.984375 54.6875 
L 12.5 54.6875 
L 29.59375 8.796875 
L 46.6875 54.6875 
L 56.203125 54.6875 
L 35.6875 0 
L 23.484375 0 
z
" id="DejaVuSans-118"/>
    </defs>
    <g transform="translate(187.20375 35.472)scale(0.12 -0.12)">
     <use xlink:href="#DejaVuSans-97"/>
     <use x="61.279297" xlink:href="#DejaVuSans-98"/>
     <use x="124.755859" xlink:href="#DejaVuSans-105"/>
     <use x="152.539062" xlink:href="#DejaVuSans-110"/>
     <use x="215.917969" xlink:href="#DejaVuSans-105"/>
     <use x="243.701172" xlink:href="#DejaVuSans-116"/>
     <use x="282.910156" xlink:href="#DejaVuSans-58"/>
     <use x="316.601562" xlink:href="#DejaVuSans-32"/>
     <use x="348.388672" xlink:href="#DejaVuSans-115"/>
     <use x="400.488281" xlink:href="#DejaVuSans-105"/>
     <use x="428.271484" xlink:href="#DejaVuSans-122"/>
     <use x="480.761719" xlink:href="#DejaVuSans-101"/>
     <use x="542.285156" xlink:href="#DejaVuSans-32"/>
     <use x="574.072266" xlink:href="#DejaVuSans-118"/>
     <use x="633.251953" xlink:href="#DejaVuSans-115"/>
     <use x="685.351562" xlink:href="#DejaVuSans-32"/>
     <use x="717.138672" xlink:href="#DejaVuSans-102"/>
     <use x="752.34375" xlink:href="#DejaVuSans-49"/>
    </g>
   </g>
   <g id="legend_1">
    <g id="patch_7">
     <path d="M 348.85125 108.1845 
L 407.72 108.1845 
Q 409.72 108.1845 409.72 106.1845 
L 409.72 48.472 
Q 409.72 46.472 407.72 46.472 
L 348.85125 46.472 
Q 346.85125 46.472 346.85125 48.472 
L 346.85125 106.1845 
Q 346.85125 108.1845 348.85125 108.1845 
z
" style="fill:#ffffff;opacity:0.8;stroke:#cccccc;stroke-linejoin:miter;"/>
    </g>
    <g id="line2d_18">
     <path d="M 350.85125 54.570438 
L 370.85125 54.570438 
" style="fill:none;stroke:#008000;stroke-linecap:square;stroke-width:1.5;"/>
    </g>
    <g id="line2d_19">
     <g>
      <use style="fill:#008000;stroke:#008000;" x="360.85125" xlink:href="#m276629b641" y="54.570438"/>
     </g>
    </g>
    <g id="text_17">
     <!-- CART -->
     <defs>
      <path d="M 64.40625 67.28125 
L 64.40625 56.890625 
Q 59.421875 61.53125 53.78125 63.8125 
Q 48.140625 66.109375 41.796875 66.109375 
Q 29.296875 66.109375 22.65625 58.46875 
Q 16.015625 50.828125 16.015625 36.375 
Q 16.015625 21.96875 22.65625 14.328125 
Q 29.296875 6.6875 41.796875 6.6875 
Q 48.140625 6.6875 53.78125 8.984375 
Q 59.421875 11.28125 64.40625 15.921875 
L 64.40625 5.609375 
Q 59.234375 2.09375 53.4375 0.328125 
Q 47.65625 -1.421875 41.21875 -1.421875 
Q 24.65625 -1.421875 15.125 8.703125 
Q 5.609375 18.84375 5.609375 36.375 
Q 5.609375 53.953125 15.125 64.078125 
Q 24.65625 74.21875 41.21875 74.21875 
Q 47.75 74.21875 53.53125 72.484375 
Q 59.328125 70.75 64.40625 67.28125 
z
" id="DejaVuSans-67"/>
      <path d="M 34.1875 63.1875 
L 20.796875 26.90625 
L 47.609375 26.90625 
z
M 28.609375 72.90625 
L 39.796875 72.90625 
L 67.578125 0 
L 57.328125 0 
L 50.6875 18.703125 
L 17.828125 18.703125 
L 11.1875 0 
L 0.78125 0 
z
" id="DejaVuSans-65"/>
      <path d="M 44.390625 34.1875 
Q 47.5625 33.109375 50.5625 29.59375 
Q 53.5625 26.078125 56.59375 19.921875 
L 66.609375 0 
L 56 0 
L 46.6875 18.703125 
Q 43.0625 26.03125 39.671875 28.421875 
Q 36.28125 30.8125 30.421875 30.8125 
L 19.671875 30.8125 
L 19.671875 0 
L 9.8125 0 
L 9.8125 72.90625 
L 32.078125 72.90625 
Q 44.578125 72.90625 50.734375 67.671875 
Q 56.890625 62.453125 56.890625 51.90625 
Q 56.890625 45.015625 53.6875 40.46875 
Q 50.484375 35.9375 44.390625 34.1875 
z
M 19.671875 64.796875 
L 19.671875 38.921875 
L 32.078125 38.921875 
Q 39.203125 38.921875 42.84375 42.21875 
Q 46.484375 45.515625 46.484375 51.90625 
Q 46.484375 58.296875 42.84375 61.546875 
Q 39.203125 64.796875 32.078125 64.796875 
z
" id="DejaVuSans-82"/>
      <path d="M -0.296875 72.90625 
L 61.375 72.90625 
L 61.375 64.59375 
L 35.5 64.59375 
L 35.5 0 
L 25.59375 0 
L 25.59375 64.59375 
L -0.296875 64.59375 
z
" id="DejaVuSans-84"/>
     </defs>
     <g transform="translate(378.85125 58.070438)scale(0.1 -0.1)">
      <use xlink:href="#DejaVuSans-67"/>
      <use x="69.824219" xlink:href="#DejaVuSans-65"/>
      <use x="138.232422" xlink:href="#DejaVuSans-82"/>
      <use x="207.605469" xlink:href="#DejaVuSans-84"/>
     </g>
    </g>
    <g id="line2d_20">
     <path d="M 350.85125 69.248563 
L 370.85125 69.248563 
" style="fill:none;stroke:#ff0000;stroke-linecap:square;stroke-width:1.5;"/>
    </g>
    <g id="line2d_21">
     <g>
      <use style="fill:#ff0000;stroke:#ff0000;" x="360.85125" xlink:href="#m0e759ff4af" y="69.248563"/>
     </g>
    </g>
    <g id="text_18">
     <!-- FFT -->
     <defs>
      <path d="M 9.8125 72.90625 
L 51.703125 72.90625 
L 51.703125 64.59375 
L 19.671875 64.59375 
L 19.671875 43.109375 
L 48.578125 43.109375 
L 48.578125 34.8125 
L 19.671875 34.8125 
L 19.671875 0 
L 9.8125 0 
z
" id="DejaVuSans-70"/>
     </defs>
     <g transform="translate(378.85125 72.748563)scale(0.1 -0.1)">
      <use xlink:href="#DejaVuSans-70"/>
      <use x="57.519531" xlink:href="#DejaVuSans-70"/>
      <use x="115.023438" xlink:href="#DejaVuSans-84"/>
     </g>
    </g>
    <g id="line2d_22">
     <path d="M 350.85125 83.926688 
L 370.85125 83.926688 
" style="fill:none;stroke:#0000ff;stroke-linecap:square;stroke-width:1.5;"/>
    </g>
    <g id="line2d_23">
     <g>
      <use style="fill:#0000ff;stroke:#0000ff;" x="360.85125" xlink:href="#mdddac1bd48" y="83.926688"/>
     </g>
    </g>
    <g id="text_19">
     <!-- RF -->
     <g transform="translate(378.85125 87.426688)scale(0.1 -0.1)">
      <use xlink:href="#DejaVuSans-82"/>
      <use x="69.482422" xlink:href="#DejaVuSans-70"/>
     </g>
    </g>
    <g id="line2d_24">
     <path d="M 350.85125 98.604813 
L 370.85125 98.604813 
" style="fill:none;stroke:#000000;stroke-linecap:square;stroke-width:1.5;"/>
    </g>
    <g id="line2d_25">
     <g>
      <use style="stroke:#000000;stroke-linejoin:miter;" x="360.85125" xlink:href="#m188cfdd51e" y="98.604813"/>
     </g>
    </g>
    <g id="text_20">
     <!-- VFDT -->
     <defs>
      <path d="M 28.609375 0 
L 0.78125 72.90625 
L 11.078125 72.90625 
L 34.1875 11.53125 
L 57.328125 72.90625 
L 67.578125 72.90625 
L 39.796875 0 
z
" id="DejaVuSans-86"/>
      <path d="M 19.671875 64.796875 
L 19.671875 8.109375 
L 31.59375 8.109375 
Q 46.6875 8.109375 53.6875 14.9375 
Q 60.6875 21.78125 60.6875 36.53125 
Q 60.6875 51.171875 53.6875 57.984375 
Q 46.6875 64.796875 31.59375 64.796875 
z
M 9.8125 72.90625 
L 30.078125 72.90625 
Q 51.265625 72.90625 61.171875 64.09375 
Q 71.09375 55.28125 71.09375 36.53125 
Q 71.09375 17.671875 61.125 8.828125 
Q 51.171875 0 30.078125 0 
L 9.8125 0 
z
" id="DejaVuSans-68"/>
     </defs>
     <g transform="translate(378.85125 102.104813)scale(0.1 -0.1)">
      <use xlink:href="#DejaVuSans-86"/>
      <use x="68.408203" xlink:href="#DejaVuSans-70"/>
      <use x="125.927734" xlink:href="#DejaVuSans-68"/>
      <use x="202.929688" xlink:href="#DejaVuSans-84"/>
     </g>
    </g>
   </g>
  </g>
 </g>
 <defs>
  <clipPath id="p0b526d4560">
   <rect height="266.112" width="357.12" x="57.6" y="41.472"/>
  </clipPath>
 </defs>
</svg>
