<?xml version="1.0" encoding="utf-8" standalone="no"?>
<!DOCTYPE svg PUBLIC "-//W3C//DTD SVG 1.1//EN"
  "http://www.w3.org/Graphics/SVG/1.1/DTD/svg11.dtd">
<!-- Created with matplotlib (https://matplotlib.org/) -->
<svg height="345.6pt" version="1.1" viewBox="0 0 460.8 345.6" width="460.8pt" xmlns="http://www.w3.org/2000/svg" xmlns:xlink="http://www.w3.org/1999/xlink">
 <defs>
  <style type="text/css">
*{stroke-linecap:butt;stroke-linejoin:round;}
  </style>
 </defs>
 <g id="figure_1">
  <g id="patch_1">
   <path d="M 0 345.6 
L 460.8 345.6 
L 460.8 0 
L 0 0 
z
" style="fill:#ffffff;"/>
  </g>
  <g id="axes_1">
   <g id="patch_2">
    <path d="M 57.6 307.584 
L 414.72 307.584 
L 414.72 41.472 
L 57.6 41.472 
z
" style="fill:#ffffff;"/>
   </g>
   <g id="matplotlib.axis_1">
    <g id="xtick_1">
     <g id="line2d_1">
      <defs>
       <path d="M 0 0 
L 0 3.5 
" id="m5b3ab5746c" style="stroke:#000000;stroke-width:0.8;"/>
      </defs>
      <g>
       <use style="stroke:#000000;stroke-width:0.8;" x="57.6" xlink:href="#m5b3ab5746c" y="307.584"/>
      </g>
     </g>
     <g id="text_1">
      <!-- 0 -->
      <defs>
       <path d="M 31.78125 66.40625 
Q 24.171875 66.40625 20.328125 58.90625 
Q 16.5 51.421875 16.5 36.375 
Q 16.5 21.390625 20.328125 13.890625 
Q 24.171875 6.390625 31.78125 6.390625 
Q 39.453125 6.390625 43.28125 13.890625 
Q 47.125 21.390625 47.125 36.375 
Q 47.125 51.421875 43.28125 58.90625 
Q 39.453125 66.40625 31.78125 66.40625 
z
M 31.78125 74.21875 
Q 44.046875 74.21875 50.515625 64.515625 
Q 56.984375 54.828125 56.984375 36.375 
Q 56.984375 17.96875 50.515625 8.265625 
Q 44.046875 -1.421875 31.78125 -1.421875 
Q 19.53125 -1.421875 13.0625 8.265625 
Q 6.59375 17.96875 6.59375 36.375 
Q 6.59375 54.828125 13.0625 64.515625 
Q 19.53125 74.21875 31.78125 74.21875 
z
" id="DejaVuSans-48"/>
      </defs>
      <g transform="translate(54.41875 322.182437)scale(0.1 -0.1)">
       <use xlink:href="#DejaVuSans-48"/>
      </g>
     </g>
    </g>
    <g id="xtick_2">
     <g id="line2d_2">
      <g>
       <use style="stroke:#000000;stroke-width:0.8;" x="129.024" xlink:href="#m5b3ab5746c" y="307.584"/>
      </g>
     </g>
     <g id="text_2">
      <!-- 20 -->
      <defs>
       <path d="M 19.1875 8.296875 
L 53.609375 8.296875 
L 53.609375 0 
L 7.328125 0 
L 7.328125 8.296875 
Q 12.9375 14.109375 22.625 23.890625 
Q 32.328125 33.6875 34.8125 36.53125 
Q 39.546875 41.84375 41.421875 45.53125 
Q 43.3125 49.21875 43.3125 52.78125 
Q 43.3125 58.59375 39.234375 62.25 
Q 35.15625 65.921875 28.609375 65.921875 
Q 23.96875 65.921875 18.8125 64.3125 
Q 13.671875 62.703125 7.8125 59.421875 
L 7.8125 69.390625 
Q 13.765625 71.78125 18.9375 73 
Q 24.125 74.21875 28.421875 74.21875 
Q 39.75 74.21875 46.484375 68.546875 
Q 53.21875 62.890625 53.21875 53.421875 
Q 53.21875 48.921875 51.53125 44.890625 
Q 49.859375 40.875 45.40625 35.40625 
Q 44.1875 33.984375 37.640625 27.21875 
Q 31.109375 20.453125 19.1875 8.296875 
z
" id="DejaVuSans-50"/>
      </defs>
      <g transform="translate(122.6615 322.182437)scale(0.1 -0.1)">
       <use xlink:href="#DejaVuSans-50"/>
       <use x="63.623047" xlink:href="#DejaVuSans-48"/>
      </g>
     </g>
    </g>
    <g id="xtick_3">
     <g id="line2d_3">
      <g>
       <use style="stroke:#000000;stroke-width:0.8;" x="200.448" xlink:href="#m5b3ab5746c" y="307.584"/>
      </g>
     </g>
     <g id="text_3">
      <!-- 40 -->
      <defs>
       <path d="M 37.796875 64.3125 
L 12.890625 25.390625 
L 37.796875 25.390625 
z
M 35.203125 72.90625 
L 47.609375 72.90625 
L 47.609375 25.390625 
L 58.015625 25.390625 
L 58.015625 17.1875 
L 47.609375 17.1875 
L 47.609375 0 
L 37.796875 0 
L 37.796875 17.1875 
L 4.890625 17.1875 
L 4.890625 26.703125 
z
" id="DejaVuSans-52"/>
      </defs>
      <g transform="translate(194.0855 322.182437)scale(0.1 -0.1)">
       <use xlink:href="#DejaVuSans-52"/>
       <use x="63.623047" xlink:href="#DejaVuSans-48"/>
      </g>
     </g>
    </g>
    <g id="xtick_4">
     <g id="line2d_4">
      <g>
       <use style="stroke:#000000;stroke-width:0.8;" x="271.872" xlink:href="#m5b3ab5746c" y="307.584"/>
      </g>
     </g>
     <g id="text_4">
      <!-- 60 -->
      <defs>
       <path d="M 33.015625 40.375 
Q 26.375 40.375 22.484375 35.828125 
Q 18.609375 31.296875 18.609375 23.390625 
Q 18.609375 15.53125 22.484375 10.953125 
Q 26.375 6.390625 33.015625 6.390625 
Q 39.65625 6.390625 43.53125 10.953125 
Q 47.40625 15.53125 47.40625 23.390625 
Q 47.40625 31.296875 43.53125 35.828125 
Q 39.65625 40.375 33.015625 40.375 
z
M 52.59375 71.296875 
L 52.59375 62.3125 
Q 48.875 64.0625 45.09375 64.984375 
Q 41.3125 65.921875 37.59375 65.921875 
Q 27.828125 65.921875 22.671875 59.328125 
Q 17.53125 52.734375 16.796875 39.40625 
Q 19.671875 43.65625 24.015625 45.921875 
Q 28.375 48.1875 33.59375 48.1875 
Q 44.578125 48.1875 50.953125 41.515625 
Q 57.328125 34.859375 57.328125 23.390625 
Q 57.328125 12.15625 50.6875 5.359375 
Q 44.046875 -1.421875 33.015625 -1.421875 
Q 20.359375 -1.421875 13.671875 8.265625 
Q 6.984375 17.96875 6.984375 36.375 
Q 6.984375 53.65625 15.1875 63.9375 
Q 23.390625 74.21875 37.203125 74.21875 
Q 40.921875 74.21875 44.703125 73.484375 
Q 48.484375 72.75 52.59375 71.296875 
z
" id="DejaVuSans-54"/>
      </defs>
      <g transform="translate(265.5095 322.182437)scale(0.1 -0.1)">
       <use xlink:href="#DejaVuSans-54"/>
       <use x="63.623047" xlink:href="#DejaVuSans-48"/>
      </g>
     </g>
    </g>
    <g id="xtick_5">
     <g id="line2d_5">
      <g>
       <use style="stroke:#000000;stroke-width:0.8;" x="343.296" xlink:href="#m5b3ab5746c" y="307.584"/>
      </g>
     </g>
     <g id="text_5">
      <!-- 80 -->
      <defs>
       <path d="M 31.78125 34.625 
Q 24.75 34.625 20.71875 30.859375 
Q 16.703125 27.09375 16.703125 20.515625 
Q 16.703125 13.921875 20.71875 10.15625 
Q 24.75 6.390625 31.78125 6.390625 
Q 38.8125 6.390625 42.859375 10.171875 
Q 46.921875 13.96875 46.921875 20.515625 
Q 46.921875 27.09375 42.890625 30.859375 
Q 38.875 34.625 31.78125 34.625 
z
M 21.921875 38.8125 
Q 15.578125 40.375 12.03125 44.71875 
Q 8.5 49.078125 8.5 55.328125 
Q 8.5 64.0625 14.71875 69.140625 
Q 20.953125 74.21875 31.78125 74.21875 
Q 42.671875 74.21875 48.875 69.140625 
Q 55.078125 64.0625 55.078125 55.328125 
Q 55.078125 49.078125 51.53125 44.71875 
Q 48 40.375 41.703125 38.8125 
Q 48.828125 37.15625 52.796875 32.3125 
Q 56.78125 27.484375 56.78125 20.515625 
Q 56.78125 9.90625 50.3125 4.234375 
Q 43.84375 -1.421875 31.78125 -1.421875 
Q 19.734375 -1.421875 13.25 4.234375 
Q 6.78125 9.90625 6.78125 20.515625 
Q 6.78125 27.484375 10.78125 32.3125 
Q 14.796875 37.15625 21.921875 38.8125 
z
M 18.3125 54.390625 
Q 18.3125 48.734375 21.84375 45.5625 
Q 25.390625 42.390625 31.78125 42.390625 
Q 38.140625 42.390625 41.71875 45.5625 
Q 45.3125 48.734375 45.3125 54.390625 
Q 45.3125 60.0625 41.71875 63.234375 
Q 38.140625 66.40625 31.78125 66.40625 
Q 25.390625 66.40625 21.84375 63.234375 
Q 18.3125 60.0625 18.3125 54.390625 
z
" id="DejaVuSans-56"/>
      </defs>
      <g transform="translate(336.9335 322.182437)scale(0.1 -0.1)">
       <use xlink:href="#DejaVuSans-56"/>
       <use x="63.623047" xlink:href="#DejaVuSans-48"/>
      </g>
     </g>
    </g>
    <g id="xtick_6">
     <g id="line2d_6">
      <g>
       <use style="stroke:#000000;stroke-width:0.8;" x="414.72" xlink:href="#m5b3ab5746c" y="307.584"/>
      </g>
     </g>
     <g id="text_6">
      <!-- 100 -->
      <defs>
       <path d="M 12.40625 8.296875 
L 28.515625 8.296875 
L 28.515625 63.921875 
L 10.984375 60.40625 
L 10.984375 69.390625 
L 28.421875 72.90625 
L 38.28125 72.90625 
L 38.28125 8.296875 
L 54.390625 8.296875 
L 54.390625 0 
L 12.40625 0 
z
" id="DejaVuSans-49"/>
      </defs>
      <g transform="translate(405.17625 322.182437)scale(0.1 -0.1)">
       <use xlink:href="#DejaVuSans-49"/>
       <use x="63.623047" xlink:href="#DejaVuSans-48"/>
       <use x="127.246094" xlink:href="#DejaVuSans-48"/>
      </g>
     </g>
    </g>
    <g id="text_7">
     <!-- size -->
     <defs>
      <path d="M 44.28125 53.078125 
L 44.28125 44.578125 
Q 40.484375 46.53125 36.375 47.5 
Q 32.28125 48.484375 27.875 48.484375 
Q 21.1875 48.484375 17.84375 46.4375 
Q 14.5 44.390625 14.5 40.28125 
Q 14.5 37.15625 16.890625 35.375 
Q 19.28125 33.59375 26.515625 31.984375 
L 29.59375 31.296875 
Q 39.15625 29.25 43.1875 25.515625 
Q 47.21875 21.78125 47.21875 15.09375 
Q 47.21875 7.46875 41.1875 3.015625 
Q 35.15625 -1.421875 24.609375 -1.421875 
Q 20.21875 -1.421875 15.453125 -0.5625 
Q 10.6875 0.296875 5.421875 2 
L 5.421875 11.28125 
Q 10.40625 8.6875 15.234375 7.390625 
Q 20.0625 6.109375 24.8125 6.109375 
Q 31.15625 6.109375 34.5625 8.28125 
Q 37.984375 10.453125 37.984375 14.40625 
Q 37.984375 18.0625 35.515625 20.015625 
Q 33.0625 21.96875 24.703125 23.78125 
L 21.578125 24.515625 
Q 13.234375 26.265625 9.515625 29.90625 
Q 5.8125 33.546875 5.8125 39.890625 
Q 5.8125 47.609375 11.28125 51.796875 
Q 16.75 56 26.8125 56 
Q 31.78125 56 36.171875 55.265625 
Q 40.578125 54.546875 44.28125 53.078125 
z
" id="DejaVuSans-115"/>
      <path d="M 9.421875 54.6875 
L 18.40625 54.6875 
L 18.40625 0 
L 9.421875 0 
z
M 9.421875 75.984375 
L 18.40625 75.984375 
L 18.40625 64.59375 
L 9.421875 64.59375 
z
" id="DejaVuSans-105"/>
      <path d="M 5.515625 54.6875 
L 48.1875 54.6875 
L 48.1875 46.484375 
L 14.40625 7.171875 
L 48.1875 7.171875 
L 48.1875 0 
L 4.296875 0 
L 4.296875 8.203125 
L 38.09375 47.515625 
L 5.515625 47.515625 
z
" id="DejaVuSans-122"/>
      <path d="M 56.203125 29.59375 
L 56.203125 25.203125 
L 14.890625 25.203125 
Q 15.484375 15.921875 20.484375 11.0625 
Q 25.484375 6.203125 34.421875 6.203125 
Q 39.59375 6.203125 44.453125 7.46875 
Q 49.3125 8.734375 54.109375 11.28125 
L 54.109375 2.78125 
Q 49.265625 0.734375 44.1875 -0.34375 
Q 39.109375 -1.421875 33.890625 -1.421875 
Q 20.796875 -1.421875 13.15625 6.1875 
Q 5.515625 13.8125 5.515625 26.8125 
Q 5.515625 40.234375 12.765625 48.109375 
Q 20.015625 56 32.328125 56 
Q 43.359375 56 49.78125 48.890625 
Q 56.203125 41.796875 56.203125 29.59375 
z
M 47.21875 32.234375 
Q 47.125 39.59375 43.09375 43.984375 
Q 39.0625 48.390625 32.421875 48.390625 
Q 24.90625 48.390625 20.390625 44.140625 
Q 15.875 39.890625 15.1875 32.171875 
z
" id="DejaVuSans-101"/>
     </defs>
     <g transform="translate(226.465469 335.860562)scale(0.1 -0.1)">
      <use xlink:href="#DejaVuSans-115"/>
      <use x="52.099609" xlink:href="#DejaVuSans-105"/>
      <use x="79.882812" xlink:href="#DejaVuSans-122"/>
      <use x="132.373047" xlink:href="#DejaVuSans-101"/>
     </g>
    </g>
   </g>
   <g id="matplotlib.axis_2">
    <g id="ytick_1">
     <g id="line2d_7">
      <defs>
       <path d="M 0 0 
L -3.5 0 
" id="m5bc77d4e57" style="stroke:#000000;stroke-width:0.8;"/>
      </defs>
      <g>
       <use style="stroke:#000000;stroke-width:0.8;" x="57.6" xlink:href="#m5bc77d4e57" y="297.048774"/>
      </g>
     </g>
     <g id="text_8">
      <!-- 49.2 -->
      <defs>
       <path d="M 10.984375 1.515625 
L 10.984375 10.5 
Q 14.703125 8.734375 18.5 7.8125 
Q 22.3125 6.890625 25.984375 6.890625 
Q 35.75 6.890625 40.890625 13.453125 
Q 46.046875 20.015625 46.78125 33.40625 
Q 43.953125 29.203125 39.59375 26.953125 
Q 35.25 24.703125 29.984375 24.703125 
Q 19.046875 24.703125 12.671875 31.3125 
Q 6.296875 37.9375 6.296875 49.421875 
Q 6.296875 60.640625 12.9375 67.421875 
Q 19.578125 74.21875 30.609375 74.21875 
Q 43.265625 74.21875 49.921875 64.515625 
Q 56.59375 54.828125 56.59375 36.375 
Q 56.59375 19.140625 48.40625 8.859375 
Q 40.234375 -1.421875 26.421875 -1.421875 
Q 22.703125 -1.421875 18.890625 -0.6875 
Q 15.09375 0.046875 10.984375 1.515625 
z
M 30.609375 32.421875 
Q 37.25 32.421875 41.125 36.953125 
Q 45.015625 41.5 45.015625 49.421875 
Q 45.015625 57.28125 41.125 61.84375 
Q 37.25 66.40625 30.609375 66.40625 
Q 23.96875 66.40625 20.09375 61.84375 
Q 16.21875 57.28125 16.21875 49.421875 
Q 16.21875 41.5 20.09375 36.953125 
Q 23.96875 32.421875 30.609375 32.421875 
z
" id="DejaVuSans-57"/>
       <path d="M 10.6875 12.40625 
L 21 12.40625 
L 21 0 
L 10.6875 0 
z
" id="DejaVuSans-46"/>
      </defs>
      <g transform="translate(28.334375 300.847993)scale(0.1 -0.1)">
       <use xlink:href="#DejaVuSans-52"/>
       <use x="63.623047" xlink:href="#DejaVuSans-57"/>
       <use x="127.246094" xlink:href="#DejaVuSans-46"/>
       <use x="159.033203" xlink:href="#DejaVuSans-50"/>
      </g>
     </g>
    </g>
    <g id="ytick_2">
     <g id="line2d_8">
      <g>
       <use style="stroke:#000000;stroke-width:0.8;" x="57.6" xlink:href="#m5bc77d4e57" y="265.83329"/>
      </g>
     </g>
     <g id="text_9">
      <!-- 49.4 -->
      <g transform="translate(28.334375 269.632509)scale(0.1 -0.1)">
       <use xlink:href="#DejaVuSans-52"/>
       <use x="63.623047" xlink:href="#DejaVuSans-57"/>
       <use x="127.246094" xlink:href="#DejaVuSans-46"/>
       <use x="159.033203" xlink:href="#DejaVuSans-52"/>
      </g>
     </g>
    </g>
    <g id="ytick_3">
     <g id="line2d_9">
      <g>
       <use style="stroke:#000000;stroke-width:0.8;" x="57.6" xlink:href="#m5bc77d4e57" y="234.617806"/>
      </g>
     </g>
     <g id="text_10">
      <!-- 49.6 -->
      <g transform="translate(28.334375 238.417025)scale(0.1 -0.1)">
       <use xlink:href="#DejaVuSans-52"/>
       <use x="63.623047" xlink:href="#DejaVuSans-57"/>
       <use x="127.246094" xlink:href="#DejaVuSans-46"/>
       <use x="159.033203" xlink:href="#DejaVuSans-54"/>
      </g>
     </g>
    </g>
    <g id="ytick_4">
     <g id="line2d_10">
      <g>
       <use style="stroke:#000000;stroke-width:0.8;" x="57.6" xlink:href="#m5bc77d4e57" y="203.402323"/>
      </g>
     </g>
     <g id="text_11">
      <!-- 49.8 -->
      <g transform="translate(28.334375 207.201541)scale(0.1 -0.1)">
       <use xlink:href="#DejaVuSans-52"/>
       <use x="63.623047" xlink:href="#DejaVuSans-57"/>
       <use x="127.246094" xlink:href="#DejaVuSans-46"/>
       <use x="159.033203" xlink:href="#DejaVuSans-56"/>
      </g>
     </g>
    </g>
    <g id="ytick_5">
     <g id="line2d_11">
      <g>
       <use style="stroke:#000000;stroke-width:0.8;" x="57.6" xlink:href="#m5bc77d4e57" y="172.186839"/>
      </g>
     </g>
     <g id="text_12">
      <!-- 50.0 -->
      <defs>
       <path d="M 10.796875 72.90625 
L 49.515625 72.90625 
L 49.515625 64.59375 
L 19.828125 64.59375 
L 19.828125 46.734375 
Q 21.96875 47.46875 24.109375 47.828125 
Q 26.265625 48.1875 28.421875 48.1875 
Q 40.625 48.1875 47.75 41.5 
Q 54.890625 34.8125 54.890625 23.390625 
Q 54.890625 11.625 47.5625 5.09375 
Q 40.234375 -1.421875 26.90625 -1.421875 
Q 22.3125 -1.421875 17.546875 -0.640625 
Q 12.796875 0.140625 7.71875 1.703125 
L 7.71875 11.625 
Q 12.109375 9.234375 16.796875 8.0625 
Q 21.484375 6.890625 26.703125 6.890625 
Q 35.15625 6.890625 40.078125 11.328125 
Q 45.015625 15.765625 45.015625 23.390625 
Q 45.015625 31 40.078125 35.4375 
Q 35.15625 39.890625 26.703125 39.890625 
Q 22.75 39.890625 18.8125 39.015625 
Q 14.890625 38.140625 10.796875 36.28125 
z
" id="DejaVuSans-53"/>
      </defs>
      <g transform="translate(28.334375 175.986057)scale(0.1 -0.1)">
       <use xlink:href="#DejaVuSans-53"/>
       <use x="63.623047" xlink:href="#DejaVuSans-48"/>
       <use x="127.246094" xlink:href="#DejaVuSans-46"/>
       <use x="159.033203" xlink:href="#DejaVuSans-48"/>
      </g>
     </g>
    </g>
    <g id="ytick_6">
     <g id="line2d_12">
      <g>
       <use style="stroke:#000000;stroke-width:0.8;" x="57.6" xlink:href="#m5bc77d4e57" y="140.971355"/>
      </g>
     </g>
     <g id="text_13">
      <!-- 50.2 -->
      <g transform="translate(28.334375 144.770574)scale(0.1 -0.1)">
       <use xlink:href="#DejaVuSans-53"/>
       <use x="63.623047" xlink:href="#DejaVuSans-48"/>
       <use x="127.246094" xlink:href="#DejaVuSans-46"/>
       <use x="159.033203" xlink:href="#DejaVuSans-50"/>
      </g>
     </g>
    </g>
    <g id="ytick_7">
     <g id="line2d_13">
      <g>
       <use style="stroke:#000000;stroke-width:0.8;" x="57.6" xlink:href="#m5bc77d4e57" y="109.755871"/>
      </g>
     </g>
     <g id="text_14">
      <!-- 50.4 -->
      <g transform="translate(28.334375 113.55509)scale(0.1 -0.1)">
       <use xlink:href="#DejaVuSans-53"/>
       <use x="63.623047" xlink:href="#DejaVuSans-48"/>
       <use x="127.246094" xlink:href="#DejaVuSans-46"/>
       <use x="159.033203" xlink:href="#DejaVuSans-52"/>
      </g>
     </g>
    </g>
    <g id="ytick_8">
     <g id="line2d_14">
      <g>
       <use style="stroke:#000000;stroke-width:0.8;" x="57.6" xlink:href="#m5bc77d4e57" y="78.540387"/>
      </g>
     </g>
     <g id="text_15">
      <!-- 50.6 -->
      <g transform="translate(28.334375 82.339606)scale(0.1 -0.1)">
       <use xlink:href="#DejaVuSans-53"/>
       <use x="63.623047" xlink:href="#DejaVuSans-48"/>
       <use x="127.246094" xlink:href="#DejaVuSans-46"/>
       <use x="159.033203" xlink:href="#DejaVuSans-54"/>
      </g>
     </g>
    </g>
    <g id="ytick_9">
     <g id="line2d_15">
      <g>
       <use style="stroke:#000000;stroke-width:0.8;" x="57.6" xlink:href="#m5bc77d4e57" y="47.324903"/>
      </g>
     </g>
     <g id="text_16">
      <!-- 50.8 -->
      <g transform="translate(28.334375 51.124122)scale(0.1 -0.1)">
       <use xlink:href="#DejaVuSans-53"/>
       <use x="63.623047" xlink:href="#DejaVuSans-48"/>
       <use x="127.246094" xlink:href="#DejaVuSans-46"/>
       <use x="159.033203" xlink:href="#DejaVuSans-56"/>
      </g>
     </g>
    </g>
    <g id="text_17">
     <!-- accuracy -->
     <defs>
      <path d="M 34.28125 27.484375 
Q 23.390625 27.484375 19.1875 25 
Q 14.984375 22.515625 14.984375 16.5 
Q 14.984375 11.71875 18.140625 8.90625 
Q 21.296875 6.109375 26.703125 6.109375 
Q 34.1875 6.109375 38.703125 11.40625 
Q 43.21875 16.703125 43.21875 25.484375 
L 43.21875 27.484375 
z
M 52.203125 31.203125 
L 52.203125 0 
L 43.21875 0 
L 43.21875 8.296875 
Q 40.140625 3.328125 35.546875 0.953125 
Q 30.953125 -1.421875 24.3125 -1.421875 
Q 15.921875 -1.421875 10.953125 3.296875 
Q 6 8.015625 6 15.921875 
Q 6 25.140625 12.171875 29.828125 
Q 18.359375 34.515625 30.609375 34.515625 
L 43.21875 34.515625 
L 43.21875 35.40625 
Q 43.21875 41.609375 39.140625 45 
Q 35.0625 48.390625 27.6875 48.390625 
Q 23 48.390625 18.546875 47.265625 
Q 14.109375 46.140625 10.015625 43.890625 
L 10.015625 52.203125 
Q 14.9375 54.109375 19.578125 55.046875 
Q 24.21875 56 28.609375 56 
Q 40.484375 56 46.34375 49.84375 
Q 52.203125 43.703125 52.203125 31.203125 
z
" id="DejaVuSans-97"/>
      <path d="M 48.78125 52.59375 
L 48.78125 44.1875 
Q 44.96875 46.296875 41.140625 47.34375 
Q 37.3125 48.390625 33.40625 48.390625 
Q 24.65625 48.390625 19.8125 42.84375 
Q 14.984375 37.3125 14.984375 27.296875 
Q 14.984375 17.28125 19.8125 11.734375 
Q 24.65625 6.203125 33.40625 6.203125 
Q 37.3125 6.203125 41.140625 7.25 
Q 44.96875 8.296875 48.78125 10.40625 
L 48.78125 2.09375 
Q 45.015625 0.34375 40.984375 -0.53125 
Q 36.96875 -1.421875 32.421875 -1.421875 
Q 20.0625 -1.421875 12.78125 6.34375 
Q 5.515625 14.109375 5.515625 27.296875 
Q 5.515625 40.671875 12.859375 48.328125 
Q 20.21875 56 33.015625 56 
Q 37.15625 56 41.109375 55.140625 
Q 45.0625 54.296875 48.78125 52.59375 
z
" id="DejaVuSans-99"/>
      <path d="M 8.5 21.578125 
L 8.5 54.6875 
L 17.484375 54.6875 
L 17.484375 21.921875 
Q 17.484375 14.15625 20.5 10.265625 
Q 23.53125 6.390625 29.59375 6.390625 
Q 36.859375 6.390625 41.078125 11.03125 
Q 45.3125 15.671875 45.3125 23.6875 
L 45.3125 54.6875 
L 54.296875 54.6875 
L 54.296875 0 
L 45.3125 0 
L 45.3125 8.40625 
Q 42.046875 3.421875 37.71875 1 
Q 33.40625 -1.421875 27.6875 -1.421875 
Q 18.265625 -1.421875 13.375 4.4375 
Q 8.5 10.296875 8.5 21.578125 
z
M 31.109375 56 
z
" id="DejaVuSans-117"/>
      <path d="M 41.109375 46.296875 
Q 39.59375 47.171875 37.8125 47.578125 
Q 36.03125 48 33.890625 48 
Q 26.265625 48 22.1875 43.046875 
Q 18.109375 38.09375 18.109375 28.8125 
L 18.109375 0 
L 9.078125 0 
L 9.078125 54.6875 
L 18.109375 54.6875 
L 18.109375 46.1875 
Q 20.953125 51.171875 25.484375 53.578125 
Q 30.03125 56 36.53125 56 
Q 37.453125 56 38.578125 55.875 
Q 39.703125 55.765625 41.0625 55.515625 
z
" id="DejaVuSans-114"/>
      <path d="M 32.171875 -5.078125 
Q 28.375 -14.84375 24.75 -17.8125 
Q 21.140625 -20.796875 15.09375 -20.796875 
L 7.90625 -20.796875 
L 7.90625 -13.28125 
L 13.1875 -13.28125 
Q 16.890625 -13.28125 18.9375 -11.515625 
Q 21 -9.765625 23.484375 -3.21875 
L 25.09375 0.875 
L 2.984375 54.6875 
L 12.5 54.6875 
L 29.59375 11.921875 
L 46.6875 54.6875 
L 56.203125 54.6875 
z
" id="DejaVuSans-121"/>
     </defs>
     <g transform="translate(22.254687 197.087375)rotate(-90)scale(0.1 -0.1)">
      <use xlink:href="#DejaVuSans-97"/>
      <use x="61.279297" xlink:href="#DejaVuSans-99"/>
      <use x="116.259766" xlink:href="#DejaVuSans-99"/>
      <use x="171.240234" xlink:href="#DejaVuSans-117"/>
      <use x="234.619141" xlink:href="#DejaVuSans-114"/>
      <use x="275.732422" xlink:href="#DejaVuSans-97"/>
      <use x="337.011719" xlink:href="#DejaVuSans-99"/>
      <use x="391.992188" xlink:href="#DejaVuSans-121"/>
     </g>
    </g>
   </g>
   <g id="line2d_16">
    <path clip-path="url(#p12b53d8073)" d="M 57.635712 172.186839 
L 57.671424 53.568 
L 57.707136 215.888516 
L 57.742848 290.805677 
L 57.77856 290.805677 
L 57.814272 128.485161 
L 57.849984 172.186839 
L 57.885696 290.805677 
L 57.921408 290.805677 
L 57.95712 290.805677 
L 58.31424 226.813935 
L 58.67136 130.045935 
L 59.02848 197.159226 
L 59.3856 219.010065 
L 59.74272 208.084645 
L 60.09984 197.159226 
L 60.45696 223.692387 
L 60.81408 204.963097 
L 61.1712 187.794581 
L 75.456 262.711742 
L 93.312 89.465806 
L 111.168 184.673032 
L 129.024 122.242065 
L 146.88 198.72 
L 164.736 115.998968 
L 182.592 176.869161 
L 200.448 86.344258 
L 218.304 169.06529 
L 236.16 130.045935 
L 254.016 106.634323 
L 271.872 120.68129 
L 289.728 111.316645 
L 307.584 126.924387 
L 325.44 119.120516 
L 343.296 86.344258 
L 361.152 80.101161 
L 379.008 75.418839 
L 396.864 78.540387 
L 414.72 89.465806 
" style="fill:none;stroke:#008000;stroke-linecap:square;stroke-width:1.5;"/>
    <defs>
     <path d="M -3 3 
L 3 -3 
M -3 -3 
L 3 3 
" id="m018f210d4c" style="stroke:#008000;"/>
    </defs>
    <g clip-path="url(#p12b53d8073)">
     <use style="fill:#008000;stroke:#008000;" x="57.635712" xlink:href="#m018f210d4c" y="172.186839"/>
     <use style="fill:#008000;stroke:#008000;" x="57.671424" xlink:href="#m018f210d4c" y="53.568"/>
     <use style="fill:#008000;stroke:#008000;" x="57.707136" xlink:href="#m018f210d4c" y="215.888516"/>
     <use style="fill:#008000;stroke:#008000;" x="57.742848" xlink:href="#m018f210d4c" y="290.805677"/>
     <use style="fill:#008000;stroke:#008000;" x="57.77856" xlink:href="#m018f210d4c" y="290.805677"/>
     <use style="fill:#008000;stroke:#008000;" x="57.814272" xlink:href="#m018f210d4c" y="128.485161"/>
     <use style="fill:#008000;stroke:#008000;" x="57.849984" xlink:href="#m018f210d4c" y="172.186839"/>
     <use style="fill:#008000;stroke:#008000;" x="57.885696" xlink:href="#m018f210d4c" y="290.805677"/>
     <use style="fill:#008000;stroke:#008000;" x="57.921408" xlink:href="#m018f210d4c" y="290.805677"/>
     <use style="fill:#008000;stroke:#008000;" x="57.95712" xlink:href="#m018f210d4c" y="290.805677"/>
     <use style="fill:#008000;stroke:#008000;" x="58.31424" xlink:href="#m018f210d4c" y="226.813935"/>
     <use style="fill:#008000;stroke:#008000;" x="58.67136" xlink:href="#m018f210d4c" y="130.045935"/>
     <use style="fill:#008000;stroke:#008000;" x="59.02848" xlink:href="#m018f210d4c" y="197.159226"/>
     <use style="fill:#008000;stroke:#008000;" x="59.3856" xlink:href="#m018f210d4c" y="219.010065"/>
     <use style="fill:#008000;stroke:#008000;" x="59.74272" xlink:href="#m018f210d4c" y="208.084645"/>
     <use style="fill:#008000;stroke:#008000;" x="60.09984" xlink:href="#m018f210d4c" y="197.159226"/>
     <use style="fill:#008000;stroke:#008000;" x="60.45696" xlink:href="#m018f210d4c" y="223.692387"/>
     <use style="fill:#008000;stroke:#008000;" x="60.81408" xlink:href="#m018f210d4c" y="204.963097"/>
     <use style="fill:#008000;stroke:#008000;" x="61.1712" xlink:href="#m018f210d4c" y="187.794581"/>
     <use style="fill:#008000;stroke:#008000;" x="75.456" xlink:href="#m018f210d4c" y="262.711742"/>
     <use style="fill:#008000;stroke:#008000;" x="93.312" xlink:href="#m018f210d4c" y="89.465806"/>
     <use style="fill:#008000;stroke:#008000;" x="111.168" xlink:href="#m018f210d4c" y="184.673032"/>
     <use style="fill:#008000;stroke:#008000;" x="129.024" xlink:href="#m018f210d4c" y="122.242065"/>
     <use style="fill:#008000;stroke:#008000;" x="146.88" xlink:href="#m018f210d4c" y="198.72"/>
     <use style="fill:#008000;stroke:#008000;" x="164.736" xlink:href="#m018f210d4c" y="115.998968"/>
     <use style="fill:#008000;stroke:#008000;" x="182.592" xlink:href="#m018f210d4c" y="176.869161"/>
     <use style="fill:#008000;stroke:#008000;" x="200.448" xlink:href="#m018f210d4c" y="86.344258"/>
     <use style="fill:#008000;stroke:#008000;" x="218.304" xlink:href="#m018f210d4c" y="169.06529"/>
     <use style="fill:#008000;stroke:#008000;" x="236.16" xlink:href="#m018f210d4c" y="130.045935"/>
     <use style="fill:#008000;stroke:#008000;" x="254.016" xlink:href="#m018f210d4c" y="106.634323"/>
     <use style="fill:#008000;stroke:#008000;" x="271.872" xlink:href="#m018f210d4c" y="120.68129"/>
     <use style="fill:#008000;stroke:#008000;" x="289.728" xlink:href="#m018f210d4c" y="111.316645"/>
     <use style="fill:#008000;stroke:#008000;" x="307.584" xlink:href="#m018f210d4c" y="126.924387"/>
     <use style="fill:#008000;stroke:#008000;" x="325.44" xlink:href="#m018f210d4c" y="119.120516"/>
     <use style="fill:#008000;stroke:#008000;" x="343.296" xlink:href="#m018f210d4c" y="86.344258"/>
     <use style="fill:#008000;stroke:#008000;" x="361.152" xlink:href="#m018f210d4c" y="80.101161"/>
     <use style="fill:#008000;stroke:#008000;" x="379.008" xlink:href="#m018f210d4c" y="75.418839"/>
     <use style="fill:#008000;stroke:#008000;" x="396.864" xlink:href="#m018f210d4c" y="78.540387"/>
     <use style="fill:#008000;stroke:#008000;" x="414.72" xlink:href="#m018f210d4c" y="89.465806"/>
    </g>
   </g>
   <g id="line2d_17">
    <path clip-path="url(#p12b53d8073)" d="M 57.635712 290.805677 
L 57.671424 290.805677 
L 57.707136 292.366452 
L 57.742848 290.805677 
L 57.77856 290.805677 
L 57.814272 289.244903 
L 57.849984 292.366452 
L 57.885696 289.244903 
L 57.921408 290.805677 
L 57.95712 290.805677 
L 58.31424 292.366452 
L 58.67136 292.366452 
L 59.02848 290.805677 
L 59.3856 290.805677 
L 59.74272 290.805677 
L 60.09984 290.805677 
L 60.45696 292.366452 
L 60.81408 290.805677 
L 61.1712 290.805677 
L 75.456 290.805677 
L 93.312 290.805677 
L 111.168 290.805677 
L 129.024 290.805677 
L 146.88 290.805677 
L 164.736 290.805677 
L 182.592 290.805677 
L 200.448 290.805677 
L 218.304 290.805677 
L 236.16 290.805677 
L 254.016 290.805677 
L 271.872 290.805677 
L 289.728 290.805677 
L 307.584 290.805677 
L 325.44 290.805677 
L 343.296 290.805677 
L 361.152 290.805677 
L 379.008 290.805677 
L 396.864 290.805677 
L 414.72 290.805677 
" style="fill:none;stroke:#ff0000;stroke-linecap:square;stroke-width:1.5;"/>
    <defs>
     <path d="M 0 3 
C 0.795609 3 1.55874 2.683901 2.12132 2.12132 
C 2.683901 1.55874 3 0.795609 3 0 
C 3 -0.795609 2.683901 -1.55874 2.12132 -2.12132 
C 1.55874 -2.683901 0.795609 -3 0 -3 
C -0.795609 -3 -1.55874 -2.683901 -2.12132 -2.12132 
C -2.683901 -1.55874 -3 -0.795609 -3 0 
C -3 0.795609 -2.683901 1.55874 -2.12132 2.12132 
C -1.55874 2.683901 -0.795609 3 0 3 
z
" id="m932f036296" style="stroke:#ff0000;"/>
    </defs>
    <g clip-path="url(#p12b53d8073)">
     <use style="fill:#ff0000;stroke:#ff0000;" x="57.635712" xlink:href="#m932f036296" y="290.805677"/>
     <use style="fill:#ff0000;stroke:#ff0000;" x="57.671424" xlink:href="#m932f036296" y="290.805677"/>
     <use style="fill:#ff0000;stroke:#ff0000;" x="57.707136" xlink:href="#m932f036296" y="292.366452"/>
     <use style="fill:#ff0000;stroke:#ff0000;" x="57.742848" xlink:href="#m932f036296" y="290.805677"/>
     <use style="fill:#ff0000;stroke:#ff0000;" x="57.77856" xlink:href="#m932f036296" y="290.805677"/>
     <use style="fill:#ff0000;stroke:#ff0000;" x="57.814272" xlink:href="#m932f036296" y="289.244903"/>
     <use style="fill:#ff0000;stroke:#ff0000;" x="57.849984" xlink:href="#m932f036296" y="292.366452"/>
     <use style="fill:#ff0000;stroke:#ff0000;" x="57.885696" xlink:href="#m932f036296" y="289.244903"/>
     <use style="fill:#ff0000;stroke:#ff0000;" x="57.921408" xlink:href="#m932f036296" y="290.805677"/>
     <use style="fill:#ff0000;stroke:#ff0000;" x="57.95712" xlink:href="#m932f036296" y="290.805677"/>
     <use style="fill:#ff0000;stroke:#ff0000;" x="58.31424" xlink:href="#m932f036296" y="292.366452"/>
     <use style="fill:#ff0000;stroke:#ff0000;" x="58.67136" xlink:href="#m932f036296" y="292.366452"/>
     <use style="fill:#ff0000;stroke:#ff0000;" x="59.02848" xlink:href="#m932f036296" y="290.805677"/>
     <use style="fill:#ff0000;stroke:#ff0000;" x="59.3856" xlink:href="#m932f036296" y="290.805677"/>
     <use style="fill:#ff0000;stroke:#ff0000;" x="59.74272" xlink:href="#m932f036296" y="290.805677"/>
     <use style="fill:#ff0000;stroke:#ff0000;" x="60.09984" xlink:href="#m932f036296" y="290.805677"/>
     <use style="fill:#ff0000;stroke:#ff0000;" x="60.45696" xlink:href="#m932f036296" y="292.366452"/>
     <use style="fill:#ff0000;stroke:#ff0000;" x="60.81408" xlink:href="#m932f036296" y="290.805677"/>
     <use style="fill:#ff0000;stroke:#ff0000;" x="61.1712" xlink:href="#m932f036296" y="290.805677"/>
     <use style="fill:#ff0000;stroke:#ff0000;" x="75.456" xlink:href="#m932f036296" y="290.805677"/>
     <use style="fill:#ff0000;stroke:#ff0000;" x="93.312" xlink:href="#m932f036296" y="290.805677"/>
     <use style="fill:#ff0000;stroke:#ff0000;" x="111.168" xlink:href="#m932f036296" y="290.805677"/>
     <use style="fill:#ff0000;stroke:#ff0000;" x="129.024" xlink:href="#m932f036296" y="290.805677"/>
     <use style="fill:#ff0000;stroke:#ff0000;" x="146.88" xlink:href="#m932f036296" y="290.805677"/>
     <use style="fill:#ff0000;stroke:#ff0000;" x="164.736" xlink:href="#m932f036296" y="290.805677"/>
     <use style="fill:#ff0000;stroke:#ff0000;" x="182.592" xlink:href="#m932f036296" y="290.805677"/>
     <use style="fill:#ff0000;stroke:#ff0000;" x="200.448" xlink:href="#m932f036296" y="290.805677"/>
     <use style="fill:#ff0000;stroke:#ff0000;" x="218.304" xlink:href="#m932f036296" y="290.805677"/>
     <use style="fill:#ff0000;stroke:#ff0000;" x="236.16" xlink:href="#m932f036296" y="290.805677"/>
     <use style="fill:#ff0000;stroke:#ff0000;" x="254.016" xlink:href="#m932f036296" y="290.805677"/>
     <use style="fill:#ff0000;stroke:#ff0000;" x="271.872" xlink:href="#m932f036296" y="290.805677"/>
     <use style="fill:#ff0000;stroke:#ff0000;" x="289.728" xlink:href="#m932f036296" y="290.805677"/>
     <use style="fill:#ff0000;stroke:#ff0000;" x="307.584" xlink:href="#m932f036296" y="290.805677"/>
     <use style="fill:#ff0000;stroke:#ff0000;" x="325.44" xlink:href="#m932f036296" y="290.805677"/>
     <use style="fill:#ff0000;stroke:#ff0000;" x="343.296" xlink:href="#m932f036296" y="290.805677"/>
     <use style="fill:#ff0000;stroke:#ff0000;" x="361.152" xlink:href="#m932f036296" y="290.805677"/>
     <use style="fill:#ff0000;stroke:#ff0000;" x="379.008" xlink:href="#m932f036296" y="290.805677"/>
     <use style="fill:#ff0000;stroke:#ff0000;" x="396.864" xlink:href="#m932f036296" y="290.805677"/>
     <use style="fill:#ff0000;stroke:#ff0000;" x="414.72" xlink:href="#m932f036296" y="290.805677"/>
    </g>
   </g>
   <g id="line2d_18">
    <path clip-path="url(#p12b53d8073)" d="M 57.635712 236.178581 
L 57.671424 53.568 
L 57.707136 215.888516 
L 57.742848 290.805677 
L 57.77856 290.805677 
L 57.814272 128.485161 
L 57.849984 172.186839 
L 57.885696 272.076387 
L 57.921408 290.805677 
L 57.95712 290.805677 
L 58.31424 189.355355 
L 58.67136 130.045935 
L 59.02848 159.700645 
L 59.3856 67.614968 
L 59.74272 125.363613 
L 60.09984 217.44929 
L 60.45696 204.963097 
L 60.81408 194.037677 
L 61.1712 195.598452 
L 75.456 295.488 
L 93.312 155.018323 
L 111.168 222.131613 
L 129.024 194.037677 
L 146.88 203.402323 
L 164.736 167.504516 
L 182.592 203.402323 
L 200.448 179.99071 
L 218.304 215.888516 
L 236.16 176.869161 
L 254.016 184.673032 
L 271.872 175.308387 
L 289.728 186.233806 
L 307.584 173.747613 
L 325.44 197.159226 
L 343.296 195.598452 
L 361.152 204.963097 
L 379.008 208.084645 
L 396.864 201.841548 
L 414.72 212.766968 
" style="fill:none;stroke:#0000ff;stroke-linecap:square;stroke-width:1.5;"/>
    <defs>
     <path d="M -3 0 
L 3 0 
M 0 3 
L 0 -3 
" id="m74aa09102a" style="stroke:#0000ff;"/>
    </defs>
    <g clip-path="url(#p12b53d8073)">
     <use style="fill:#0000ff;stroke:#0000ff;" x="57.635712" xlink:href="#m74aa09102a" y="236.178581"/>
     <use style="fill:#0000ff;stroke:#0000ff;" x="57.671424" xlink:href="#m74aa09102a" y="53.568"/>
     <use style="fill:#0000ff;stroke:#0000ff;" x="57.707136" xlink:href="#m74aa09102a" y="215.888516"/>
     <use style="fill:#0000ff;stroke:#0000ff;" x="57.742848" xlink:href="#m74aa09102a" y="290.805677"/>
     <use style="fill:#0000ff;stroke:#0000ff;" x="57.77856" xlink:href="#m74aa09102a" y="290.805677"/>
     <use style="fill:#0000ff;stroke:#0000ff;" x="57.814272" xlink:href="#m74aa09102a" y="128.485161"/>
     <use style="fill:#0000ff;stroke:#0000ff;" x="57.849984" xlink:href="#m74aa09102a" y="172.186839"/>
     <use style="fill:#0000ff;stroke:#0000ff;" x="57.885696" xlink:href="#m74aa09102a" y="272.076387"/>
     <use style="fill:#0000ff;stroke:#0000ff;" x="57.921408" xlink:href="#m74aa09102a" y="290.805677"/>
     <use style="fill:#0000ff;stroke:#0000ff;" x="57.95712" xlink:href="#m74aa09102a" y="290.805677"/>
     <use style="fill:#0000ff;stroke:#0000ff;" x="58.31424" xlink:href="#m74aa09102a" y="189.355355"/>
     <use style="fill:#0000ff;stroke:#0000ff;" x="58.67136" xlink:href="#m74aa09102a" y="130.045935"/>
     <use style="fill:#0000ff;stroke:#0000ff;" x="59.02848" xlink:href="#m74aa09102a" y="159.700645"/>
     <use style="fill:#0000ff;stroke:#0000ff;" x="59.3856" xlink:href="#m74aa09102a" y="67.614968"/>
     <use style="fill:#0000ff;stroke:#0000ff;" x="59.74272" xlink:href="#m74aa09102a" y="125.363613"/>
     <use style="fill:#0000ff;stroke:#0000ff;" x="60.09984" xlink:href="#m74aa09102a" y="217.44929"/>
     <use style="fill:#0000ff;stroke:#0000ff;" x="60.45696" xlink:href="#m74aa09102a" y="204.963097"/>
     <use style="fill:#0000ff;stroke:#0000ff;" x="60.81408" xlink:href="#m74aa09102a" y="194.037677"/>
     <use style="fill:#0000ff;stroke:#0000ff;" x="61.1712" xlink:href="#m74aa09102a" y="195.598452"/>
     <use style="fill:#0000ff;stroke:#0000ff;" x="75.456" xlink:href="#m74aa09102a" y="295.488"/>
     <use style="fill:#0000ff;stroke:#0000ff;" x="93.312" xlink:href="#m74aa09102a" y="155.018323"/>
     <use style="fill:#0000ff;stroke:#0000ff;" x="111.168" xlink:href="#m74aa09102a" y="222.131613"/>
     <use style="fill:#0000ff;stroke:#0000ff;" x="129.024" xlink:href="#m74aa09102a" y="194.037677"/>
     <use style="fill:#0000ff;stroke:#0000ff;" x="146.88" xlink:href="#m74aa09102a" y="203.402323"/>
     <use style="fill:#0000ff;stroke:#0000ff;" x="164.736" xlink:href="#m74aa09102a" y="167.504516"/>
     <use style="fill:#0000ff;stroke:#0000ff;" x="182.592" xlink:href="#m74aa09102a" y="203.402323"/>
     <use style="fill:#0000ff;stroke:#0000ff;" x="200.448" xlink:href="#m74aa09102a" y="179.99071"/>
     <use style="fill:#0000ff;stroke:#0000ff;" x="218.304" xlink:href="#m74aa09102a" y="215.888516"/>
     <use style="fill:#0000ff;stroke:#0000ff;" x="236.16" xlink:href="#m74aa09102a" y="176.869161"/>
     <use style="fill:#0000ff;stroke:#0000ff;" x="254.016" xlink:href="#m74aa09102a" y="184.673032"/>
     <use style="fill:#0000ff;stroke:#0000ff;" x="271.872" xlink:href="#m74aa09102a" y="175.308387"/>
     <use style="fill:#0000ff;stroke:#0000ff;" x="289.728" xlink:href="#m74aa09102a" y="186.233806"/>
     <use style="fill:#0000ff;stroke:#0000ff;" x="307.584" xlink:href="#m74aa09102a" y="173.747613"/>
     <use style="fill:#0000ff;stroke:#0000ff;" x="325.44" xlink:href="#m74aa09102a" y="197.159226"/>
     <use style="fill:#0000ff;stroke:#0000ff;" x="343.296" xlink:href="#m74aa09102a" y="195.598452"/>
     <use style="fill:#0000ff;stroke:#0000ff;" x="361.152" xlink:href="#m74aa09102a" y="204.963097"/>
     <use style="fill:#0000ff;stroke:#0000ff;" x="379.008" xlink:href="#m74aa09102a" y="208.084645"/>
     <use style="fill:#0000ff;stroke:#0000ff;" x="396.864" xlink:href="#m74aa09102a" y="201.841548"/>
     <use style="fill:#0000ff;stroke:#0000ff;" x="414.72" xlink:href="#m74aa09102a" y="212.766968"/>
    </g>
   </g>
   <g id="line2d_19">
    <path clip-path="url(#p12b53d8073)" d="M 57.635712 290.805677 
L 57.671424 290.805677 
L 57.707136 290.805677 
L 57.742848 290.805677 
L 57.77856 290.805677 
L 57.814272 290.805677 
L 57.849984 290.805677 
L 57.885696 290.805677 
L 57.921408 290.805677 
L 57.95712 290.805677 
L 58.31424 290.805677 
L 58.67136 290.805677 
L 59.02848 290.805677 
L 59.3856 290.805677 
L 59.74272 290.805677 
L 60.09984 290.805677 
L 60.45696 290.805677 
L 60.81408 290.805677 
L 61.1712 290.805677 
L 75.456 290.805677 
L 93.312 290.805677 
L 111.168 290.805677 
L 129.024 290.805677 
L 146.88 290.805677 
L 164.736 290.805677 
L 182.592 290.805677 
L 200.448 290.805677 
L 218.304 290.805677 
L 236.16 290.805677 
L 254.016 290.805677 
L 271.872 290.805677 
L 289.728 290.805677 
L 307.584 290.805677 
L 325.44 290.805677 
L 343.296 290.805677 
L 361.152 290.805677 
L 379.008 290.805677 
L 396.864 290.805677 
L 414.72 290.805677 
" style="fill:none;stroke:#000000;stroke-linecap:square;stroke-width:1.5;"/>
    <defs>
     <path d="M -3 3 
L 3 3 
L 3 -3 
L -3 -3 
z
" id="m7cfd05130d" style="stroke:#000000;stroke-linejoin:miter;"/>
    </defs>
    <g clip-path="url(#p12b53d8073)">
     <use style="stroke:#000000;stroke-linejoin:miter;" x="57.635712" xlink:href="#m7cfd05130d" y="290.805677"/>
     <use style="stroke:#000000;stroke-linejoin:miter;" x="57.671424" xlink:href="#m7cfd05130d" y="290.805677"/>
     <use style="stroke:#000000;stroke-linejoin:miter;" x="57.707136" xlink:href="#m7cfd05130d" y="290.805677"/>
     <use style="stroke:#000000;stroke-linejoin:miter;" x="57.742848" xlink:href="#m7cfd05130d" y="290.805677"/>
     <use style="stroke:#000000;stroke-linejoin:miter;" x="57.77856" xlink:href="#m7cfd05130d" y="290.805677"/>
     <use style="stroke:#000000;stroke-linejoin:miter;" x="57.814272" xlink:href="#m7cfd05130d" y="290.805677"/>
     <use style="stroke:#000000;stroke-linejoin:miter;" x="57.849984" xlink:href="#m7cfd05130d" y="290.805677"/>
     <use style="stroke:#000000;stroke-linejoin:miter;" x="57.885696" xlink:href="#m7cfd05130d" y="290.805677"/>
     <use style="stroke:#000000;stroke-linejoin:miter;" x="57.921408" xlink:href="#m7cfd05130d" y="290.805677"/>
     <use style="stroke:#000000;stroke-linejoin:miter;" x="57.95712" xlink:href="#m7cfd05130d" y="290.805677"/>
     <use style="stroke:#000000;stroke-linejoin:miter;" x="58.31424" xlink:href="#m7cfd05130d" y="290.805677"/>
     <use style="stroke:#000000;stroke-linejoin:miter;" x="58.67136" xlink:href="#m7cfd05130d" y="290.805677"/>
     <use style="stroke:#000000;stroke-linejoin:miter;" x="59.02848" xlink:href="#m7cfd05130d" y="290.805677"/>
     <use style="stroke:#000000;stroke-linejoin:miter;" x="59.3856" xlink:href="#m7cfd05130d" y="290.805677"/>
     <use style="stroke:#000000;stroke-linejoin:miter;" x="59.74272" xlink:href="#m7cfd05130d" y="290.805677"/>
     <use style="stroke:#000000;stroke-linejoin:miter;" x="60.09984" xlink:href="#m7cfd05130d" y="290.805677"/>
     <use style="stroke:#000000;stroke-linejoin:miter;" x="60.45696" xlink:href="#m7cfd05130d" y="290.805677"/>
     <use style="stroke:#000000;stroke-linejoin:miter;" x="60.81408" xlink:href="#m7cfd05130d" y="290.805677"/>
     <use style="stroke:#000000;stroke-linejoin:miter;" x="61.1712" xlink:href="#m7cfd05130d" y="290.805677"/>
     <use style="stroke:#000000;stroke-linejoin:miter;" x="75.456" xlink:href="#m7cfd05130d" y="290.805677"/>
     <use style="stroke:#000000;stroke-linejoin:miter;" x="93.312" xlink:href="#m7cfd05130d" y="290.805677"/>
     <use style="stroke:#000000;stroke-linejoin:miter;" x="111.168" xlink:href="#m7cfd05130d" y="290.805677"/>
     <use style="stroke:#000000;stroke-linejoin:miter;" x="129.024" xlink:href="#m7cfd05130d" y="290.805677"/>
     <use style="stroke:#000000;stroke-linejoin:miter;" x="146.88" xlink:href="#m7cfd05130d" y="290.805677"/>
     <use style="stroke:#000000;stroke-linejoin:miter;" x="164.736" xlink:href="#m7cfd05130d" y="290.805677"/>
     <use style="stroke:#000000;stroke-linejoin:miter;" x="182.592" xlink:href="#m7cfd05130d" y="290.805677"/>
     <use style="stroke:#000000;stroke-linejoin:miter;" x="200.448" xlink:href="#m7cfd05130d" y="290.805677"/>
     <use style="stroke:#000000;stroke-linejoin:miter;" x="218.304" xlink:href="#m7cfd05130d" y="290.805677"/>
     <use style="stroke:#000000;stroke-linejoin:miter;" x="236.16" xlink:href="#m7cfd05130d" y="290.805677"/>
     <use style="stroke:#000000;stroke-linejoin:miter;" x="254.016" xlink:href="#m7cfd05130d" y="290.805677"/>
     <use style="stroke:#000000;stroke-linejoin:miter;" x="271.872" xlink:href="#m7cfd05130d" y="290.805677"/>
     <use style="stroke:#000000;stroke-linejoin:miter;" x="289.728" xlink:href="#m7cfd05130d" y="290.805677"/>
     <use style="stroke:#000000;stroke-linejoin:miter;" x="307.584" xlink:href="#m7cfd05130d" y="290.805677"/>
     <use style="stroke:#000000;stroke-linejoin:miter;" x="325.44" xlink:href="#m7cfd05130d" y="290.805677"/>
     <use style="stroke:#000000;stroke-linejoin:miter;" x="343.296" xlink:href="#m7cfd05130d" y="290.805677"/>
     <use style="stroke:#000000;stroke-linejoin:miter;" x="361.152" xlink:href="#m7cfd05130d" y="290.805677"/>
     <use style="stroke:#000000;stroke-linejoin:miter;" x="379.008" xlink:href="#m7cfd05130d" y="290.805677"/>
     <use style="stroke:#000000;stroke-linejoin:miter;" x="396.864" xlink:href="#m7cfd05130d" y="290.805677"/>
     <use style="stroke:#000000;stroke-linejoin:miter;" x="414.72" xlink:href="#m7cfd05130d" y="290.805677"/>
    </g>
   </g>
   <g id="patch_3">
    <path d="M 57.6 307.584 
L 57.6 41.472 
" style="fill:none;stroke:#000000;stroke-linecap:square;stroke-linejoin:miter;stroke-width:0.8;"/>
   </g>
   <g id="patch_4">
    <path d="M 414.72 307.584 
L 414.72 41.472 
" style="fill:none;stroke:#000000;stroke-linecap:square;stroke-linejoin:miter;stroke-width:0.8;"/>
   </g>
   <g id="patch_5">
    <path d="M 57.6 307.584 
L 414.72 307.584 
" style="fill:none;stroke:#000000;stroke-linecap:square;stroke-linejoin:miter;stroke-width:0.8;"/>
   </g>
   <g id="patch_6">
    <path d="M 57.6 41.472 
L 414.72 41.472 
" style="fill:none;stroke:#000000;stroke-linecap:square;stroke-linejoin:miter;stroke-width:0.8;"/>
   </g>
   <g id="text_18">
    <!-- abinit: size vs accuracy -->
    <defs>
     <path d="M 48.6875 27.296875 
Q 48.6875 37.203125 44.609375 42.84375 
Q 40.53125 48.484375 33.40625 48.484375 
Q 26.265625 48.484375 22.1875 42.84375 
Q 18.109375 37.203125 18.109375 27.296875 
Q 18.109375 17.390625 22.1875 11.75 
Q 26.265625 6.109375 33.40625 6.109375 
Q 40.53125 6.109375 44.609375 11.75 
Q 48.6875 17.390625 48.6875 27.296875 
z
M 18.109375 46.390625 
Q 20.953125 51.265625 25.265625 53.625 
Q 29.59375 56 35.59375 56 
Q 45.5625 56 51.78125 48.09375 
Q 58.015625 40.1875 58.015625 27.296875 
Q 58.015625 14.40625 51.78125 6.484375 
Q 45.5625 -1.421875 35.59375 -1.421875 
Q 29.59375 -1.421875 25.265625 0.953125 
Q 20.953125 3.328125 18.109375 8.203125 
L 18.109375 0 
L 9.078125 0 
L 9.078125 75.984375 
L 18.109375 75.984375 
z
" id="DejaVuSans-98"/>
     <path d="M 54.890625 33.015625 
L 54.890625 0 
L 45.90625 0 
L 45.90625 32.71875 
Q 45.90625 40.484375 42.875 44.328125 
Q 39.84375 48.1875 33.796875 48.1875 
Q 26.515625 48.1875 22.3125 43.546875 
Q 18.109375 38.921875 18.109375 30.90625 
L 18.109375 0 
L 9.078125 0 
L 9.078125 54.6875 
L 18.109375 54.6875 
L 18.109375 46.1875 
Q 21.34375 51.125 25.703125 53.5625 
Q 30.078125 56 35.796875 56 
Q 45.21875 56 50.046875 50.171875 
Q 54.890625 44.34375 54.890625 33.015625 
z
" id="DejaVuSans-110"/>
     <path d="M 18.3125 70.21875 
L 18.3125 54.6875 
L 36.8125 54.6875 
L 36.8125 47.703125 
L 18.3125 47.703125 
L 18.3125 18.015625 
Q 18.3125 11.328125 20.140625 9.421875 
Q 21.96875 7.515625 27.59375 7.515625 
L 36.8125 7.515625 
L 36.8125 0 
L 27.59375 0 
Q 17.1875 0 13.234375 3.875 
Q 9.28125 7.765625 9.28125 18.015625 
L 9.28125 47.703125 
L 2.6875 47.703125 
L 2.6875 54.6875 
L 9.28125 54.6875 
L 9.28125 70.21875 
z
" id="DejaVuSans-116"/>
     <path d="M 11.71875 12.40625 
L 22.015625 12.40625 
L 22.015625 0 
L 11.71875 0 
z
M 11.71875 51.703125 
L 22.015625 51.703125 
L 22.015625 39.3125 
L 11.71875 39.3125 
z
" id="DejaVuSans-58"/>
     <path id="DejaVuSans-32"/>
     <path d="M 2.984375 54.6875 
L 12.5 54.6875 
L 29.59375 8.796875 
L 46.6875 54.6875 
L 56.203125 54.6875 
L 35.6875 0 
L 23.484375 0 
z
" id="DejaVuSans-118"/>
    </defs>
    <g transform="translate(166.062187 35.472)scale(0.12 -0.12)">
     <use xlink:href="#DejaVuSans-97"/>
     <use x="61.279297" xlink:href="#DejaVuSans-98"/>
     <use x="124.755859" xlink:href="#DejaVuSans-105"/>
     <use x="152.539062" xlink:href="#DejaVuSans-110"/>
     <use x="215.917969" xlink:href="#DejaVuSans-105"/>
     <use x="243.701172" xlink:href="#DejaVuSans-116"/>
     <use x="282.910156" xlink:href="#DejaVuSans-58"/>
     <use x="316.601562" xlink:href="#DejaVuSans-32"/>
     <use x="348.388672" xlink:href="#DejaVuSans-115"/>
     <use x="400.488281" xlink:href="#DejaVuSans-105"/>
     <use x="428.271484" xlink:href="#DejaVuSans-122"/>
     <use x="480.761719" xlink:href="#DejaVuSans-101"/>
     <use x="542.285156" xlink:href="#DejaVuSans-32"/>
     <use x="574.072266" xlink:href="#DejaVuSans-118"/>
     <use x="633.251953" xlink:href="#DejaVuSans-115"/>
     <use x="685.351562" xlink:href="#DejaVuSans-32"/>
     <use x="717.138672" xlink:href="#DejaVuSans-97"/>
     <use x="778.417969" xlink:href="#DejaVuSans-99"/>
     <use x="833.398438" xlink:href="#DejaVuSans-99"/>
     <use x="888.378906" xlink:href="#DejaVuSans-117"/>
     <use x="951.757812" xlink:href="#DejaVuSans-114"/>
     <use x="992.871094" xlink:href="#DejaVuSans-97"/>
     <use x="1054.150391" xlink:href="#DejaVuSans-99"/>
     <use x="1109.130859" xlink:href="#DejaVuSans-121"/>
    </g>
   </g>
   <g id="legend_1">
    <g id="patch_7">
     <path d="M 64.6 108.1845 
L 123.46875 108.1845 
Q 125.46875 108.1845 125.46875 106.1845 
L 125.46875 48.472 
Q 125.46875 46.472 123.46875 46.472 
L 64.6 46.472 
Q 62.6 46.472 62.6 48.472 
L 62.6 106.1845 
Q 62.6 108.1845 64.6 108.1845 
z
" style="fill:#ffffff;opacity:0.8;stroke:#cccccc;stroke-linejoin:miter;"/>
    </g>
    <g id="line2d_20">
     <path d="M 66.6 54.570438 
L 86.6 54.570438 
" style="fill:none;stroke:#008000;stroke-linecap:square;stroke-width:1.5;"/>
    </g>
    <g id="line2d_21">
     <g>
      <use style="fill:#008000;stroke:#008000;" x="76.6" xlink:href="#m018f210d4c" y="54.570438"/>
     </g>
    </g>
    <g id="text_19">
     <!-- CART -->
     <defs>
      <path d="M 64.40625 67.28125 
L 64.40625 56.890625 
Q 59.421875 61.53125 53.78125 63.8125 
Q 48.140625 66.109375 41.796875 66.109375 
Q 29.296875 66.109375 22.65625 58.46875 
Q 16.015625 50.828125 16.015625 36.375 
Q 16.015625 21.96875 22.65625 14.328125 
Q 29.296875 6.6875 41.796875 6.6875 
Q 48.140625 6.6875 53.78125 8.984375 
Q 59.421875 11.28125 64.40625 15.921875 
L 64.40625 5.609375 
Q 59.234375 2.09375 53.4375 0.328125 
Q 47.65625 -1.421875 41.21875 -1.421875 
Q 24.65625 -1.421875 15.125 8.703125 
Q 5.609375 18.84375 5.609375 36.375 
Q 5.609375 53.953125 15.125 64.078125 
Q 24.65625 74.21875 41.21875 74.21875 
Q 47.75 74.21875 53.53125 72.484375 
Q 59.328125 70.75 64.40625 67.28125 
z
" id="DejaVuSans-67"/>
      <path d="M 34.1875 63.1875 
L 20.796875 26.90625 
L 47.609375 26.90625 
z
M 28.609375 72.90625 
L 39.796875 72.90625 
L 67.578125 0 
L 57.328125 0 
L 50.6875 18.703125 
L 17.828125 18.703125 
L 11.1875 0 
L 0.78125 0 
z
" id="DejaVuSans-65"/>
      <path d="M 44.390625 34.1875 
Q 47.5625 33.109375 50.5625 29.59375 
Q 53.5625 26.078125 56.59375 19.921875 
L 66.609375 0 
L 56 0 
L 46.6875 18.703125 
Q 43.0625 26.03125 39.671875 28.421875 
Q 36.28125 30.8125 30.421875 30.8125 
L 19.671875 30.8125 
L 19.671875 0 
L 9.8125 0 
L 9.8125 72.90625 
L 32.078125 72.90625 
Q 44.578125 72.90625 50.734375 67.671875 
Q 56.890625 62.453125 56.890625 51.90625 
Q 56.890625 45.015625 53.6875 40.46875 
Q 50.484375 35.9375 44.390625 34.1875 
z
M 19.671875 64.796875 
L 19.671875 38.921875 
L 32.078125 38.921875 
Q 39.203125 38.921875 42.84375 42.21875 
Q 46.484375 45.515625 46.484375 51.90625 
Q 46.484375 58.296875 42.84375 61.546875 
Q 39.203125 64.796875 32.078125 64.796875 
z
" id="DejaVuSans-82"/>
      <path d="M -0.296875 72.90625 
L 61.375 72.90625 
L 61.375 64.59375 
L 35.5 64.59375 
L 35.5 0 
L 25.59375 0 
L 25.59375 64.59375 
L -0.296875 64.59375 
z
" id="DejaVuSans-84"/>
     </defs>
     <g transform="translate(94.6 58.070438)scale(0.1 -0.1)">
      <use xlink:href="#DejaVuSans-67"/>
      <use x="69.824219" xlink:href="#DejaVuSans-65"/>
      <use x="138.232422" xlink:href="#DejaVuSans-82"/>
      <use x="207.605469" xlink:href="#DejaVuSans-84"/>
     </g>
    </g>
    <g id="line2d_22">
     <path d="M 66.6 69.248563 
L 86.6 69.248563 
" style="fill:none;stroke:#ff0000;stroke-linecap:square;stroke-width:1.5;"/>
    </g>
    <g id="line2d_23">
     <g>
      <use style="fill:#ff0000;stroke:#ff0000;" x="76.6" xlink:href="#m932f036296" y="69.248563"/>
     </g>
    </g>
    <g id="text_20">
     <!-- FFT -->
     <defs>
      <path d="M 9.8125 72.90625 
L 51.703125 72.90625 
L 51.703125 64.59375 
L 19.671875 64.59375 
L 19.671875 43.109375 
L 48.578125 43.109375 
L 48.578125 34.8125 
L 19.671875 34.8125 
L 19.671875 0 
L 9.8125 0 
z
" id="DejaVuSans-70"/>
     </defs>
     <g transform="translate(94.6 72.748563)scale(0.1 -0.1)">
      <use xlink:href="#DejaVuSans-70"/>
      <use x="57.519531" xlink:href="#DejaVuSans-70"/>
      <use x="115.023438" xlink:href="#DejaVuSans-84"/>
     </g>
    </g>
    <g id="line2d_24">
     <path d="M 66.6 83.926688 
L 86.6 83.926688 
" style="fill:none;stroke:#0000ff;stroke-linecap:square;stroke-width:1.5;"/>
    </g>
    <g id="line2d_25">
     <g>
      <use style="fill:#0000ff;stroke:#0000ff;" x="76.6" xlink:href="#m74aa09102a" y="83.926688"/>
     </g>
    </g>
    <g id="text_21">
     <!-- RF -->
     <g transform="translate(94.6 87.426688)scale(0.1 -0.1)">
      <use xlink:href="#DejaVuSans-82"/>
      <use x="69.482422" xlink:href="#DejaVuSans-70"/>
     </g>
    </g>
    <g id="line2d_26">
     <path d="M 66.6 98.604813 
L 86.6 98.604813 
" style="fill:none;stroke:#000000;stroke-linecap:square;stroke-width:1.5;"/>
    </g>
    <g id="line2d_27">
     <g>
      <use style="stroke:#000000;stroke-linejoin:miter;" x="76.6" xlink:href="#m7cfd05130d" y="98.604813"/>
     </g>
    </g>
    <g id="text_22">
     <!-- VFDT -->
     <defs>
      <path d="M 28.609375 0 
L 0.78125 72.90625 
L 11.078125 72.90625 
L 34.1875 11.53125 
L 57.328125 72.90625 
L 67.578125 72.90625 
L 39.796875 0 
z
" id="DejaVuSans-86"/>
      <path d="M 19.671875 64.796875 
L 19.671875 8.109375 
L 31.59375 8.109375 
Q 46.6875 8.109375 53.6875 14.9375 
Q 60.6875 21.78125 60.6875 36.53125 
Q 60.6875 51.171875 53.6875 57.984375 
Q 46.6875 64.796875 31.59375 64.796875 
z
M 9.8125 72.90625 
L 30.078125 72.90625 
Q 51.265625 72.90625 61.171875 64.09375 
Q 71.09375 55.28125 71.09375 36.53125 
Q 71.09375 17.671875 61.125 8.828125 
Q 51.171875 0 30.078125 0 
L 9.8125 0 
z
" id="DejaVuSans-68"/>
     </defs>
     <g transform="translate(94.6 102.104813)scale(0.1 -0.1)">
      <use xlink:href="#DejaVuSans-86"/>
      <use x="68.408203" xlink:href="#DejaVuSans-70"/>
      <use x="125.927734" xlink:href="#DejaVuSans-68"/>
      <use x="202.929688" xlink:href="#DejaVuSans-84"/>
     </g>
    </g>
   </g>
  </g>
 </g>
 <defs>
  <clipPath id="p12b53d8073">
   <rect height="266.112" width="357.12" x="57.6" y="41.472"/>
  </clipPath>
 </defs>
</svg>
