<?xml version="1.0" encoding="utf-8" standalone="no"?>
<!DOCTYPE svg PUBLIC "-//W3C//DTD SVG 1.1//EN"
  "http://www.w3.org/Graphics/SVG/1.1/DTD/svg11.dtd">
<!-- Created with matplotlib (https://matplotlib.org/) -->
<svg height="345.6pt" version="1.1" viewBox="0 0 460.8 345.6" width="460.8pt" xmlns="http://www.w3.org/2000/svg" xmlns:xlink="http://www.w3.org/1999/xlink">
 <defs>
  <style type="text/css">
*{stroke-linecap:butt;stroke-linejoin:round;}
  </style>
 </defs>
 <g id="figure_1">
  <g id="patch_1">
   <path d="M 0 345.6 
L 460.8 345.6 
L 460.8 0 
L 0 0 
z
" style="fill:#ffffff;"/>
  </g>
  <g id="axes_1">
   <g id="patch_2">
    <path d="M 57.6 307.584 
L 414.72 307.584 
L 414.72 41.472 
L 57.6 41.472 
z
" style="fill:#ffffff;"/>
   </g>
   <g id="matplotlib.axis_1">
    <g id="xtick_1">
     <g id="line2d_1">
      <defs>
       <path d="M 0 0 
L 0 3.5 
" id="m06b67715a0" style="stroke:#000000;stroke-width:0.8;"/>
      </defs>
      <g>
       <use style="stroke:#000000;stroke-width:0.8;" x="57.6" xlink:href="#m06b67715a0" y="307.584"/>
      </g>
     </g>
     <g id="text_1">
      <!-- 0 -->
      <defs>
       <path d="M 31.78125 66.40625 
Q 24.171875 66.40625 20.328125 58.90625 
Q 16.5 51.421875 16.5 36.375 
Q 16.5 21.390625 20.328125 13.890625 
Q 24.171875 6.390625 31.78125 6.390625 
Q 39.453125 6.390625 43.28125 13.890625 
Q 47.125 21.390625 47.125 36.375 
Q 47.125 51.421875 43.28125 58.90625 
Q 39.453125 66.40625 31.78125 66.40625 
z
M 31.78125 74.21875 
Q 44.046875 74.21875 50.515625 64.515625 
Q 56.984375 54.828125 56.984375 36.375 
Q 56.984375 17.96875 50.515625 8.265625 
Q 44.046875 -1.421875 31.78125 -1.421875 
Q 19.53125 -1.421875 13.0625 8.265625 
Q 6.59375 17.96875 6.59375 36.375 
Q 6.59375 54.828125 13.0625 64.515625 
Q 19.53125 74.21875 31.78125 74.21875 
z
" id="DejaVuSans-48"/>
      </defs>
      <g transform="translate(54.41875 322.182437)scale(0.1 -0.1)">
       <use xlink:href="#DejaVuSans-48"/>
      </g>
     </g>
    </g>
    <g id="xtick_2">
     <g id="line2d_2">
      <g>
       <use style="stroke:#000000;stroke-width:0.8;" x="129.024" xlink:href="#m06b67715a0" y="307.584"/>
      </g>
     </g>
     <g id="text_2">
      <!-- 20 -->
      <defs>
       <path d="M 19.1875 8.296875 
L 53.609375 8.296875 
L 53.609375 0 
L 7.328125 0 
L 7.328125 8.296875 
Q 12.9375 14.109375 22.625 23.890625 
Q 32.328125 33.6875 34.8125 36.53125 
Q 39.546875 41.84375 41.421875 45.53125 
Q 43.3125 49.21875 43.3125 52.78125 
Q 43.3125 58.59375 39.234375 62.25 
Q 35.15625 65.921875 28.609375 65.921875 
Q 23.96875 65.921875 18.8125 64.3125 
Q 13.671875 62.703125 7.8125 59.421875 
L 7.8125 69.390625 
Q 13.765625 71.78125 18.9375 73 
Q 24.125 74.21875 28.421875 74.21875 
Q 39.75 74.21875 46.484375 68.546875 
Q 53.21875 62.890625 53.21875 53.421875 
Q 53.21875 48.921875 51.53125 44.890625 
Q 49.859375 40.875 45.40625 35.40625 
Q 44.1875 33.984375 37.640625 27.21875 
Q 31.109375 20.453125 19.1875 8.296875 
z
" id="DejaVuSans-50"/>
      </defs>
      <g transform="translate(122.6615 322.182437)scale(0.1 -0.1)">
       <use xlink:href="#DejaVuSans-50"/>
       <use x="63.623047" xlink:href="#DejaVuSans-48"/>
      </g>
     </g>
    </g>
    <g id="xtick_3">
     <g id="line2d_3">
      <g>
       <use style="stroke:#000000;stroke-width:0.8;" x="200.448" xlink:href="#m06b67715a0" y="307.584"/>
      </g>
     </g>
     <g id="text_3">
      <!-- 40 -->
      <defs>
       <path d="M 37.796875 64.3125 
L 12.890625 25.390625 
L 37.796875 25.390625 
z
M 35.203125 72.90625 
L 47.609375 72.90625 
L 47.609375 25.390625 
L 58.015625 25.390625 
L 58.015625 17.1875 
L 47.609375 17.1875 
L 47.609375 0 
L 37.796875 0 
L 37.796875 17.1875 
L 4.890625 17.1875 
L 4.890625 26.703125 
z
" id="DejaVuSans-52"/>
      </defs>
      <g transform="translate(194.0855 322.182437)scale(0.1 -0.1)">
       <use xlink:href="#DejaVuSans-52"/>
       <use x="63.623047" xlink:href="#DejaVuSans-48"/>
      </g>
     </g>
    </g>
    <g id="xtick_4">
     <g id="line2d_4">
      <g>
       <use style="stroke:#000000;stroke-width:0.8;" x="271.872" xlink:href="#m06b67715a0" y="307.584"/>
      </g>
     </g>
     <g id="text_4">
      <!-- 60 -->
      <defs>
       <path d="M 33.015625 40.375 
Q 26.375 40.375 22.484375 35.828125 
Q 18.609375 31.296875 18.609375 23.390625 
Q 18.609375 15.53125 22.484375 10.953125 
Q 26.375 6.390625 33.015625 6.390625 
Q 39.65625 6.390625 43.53125 10.953125 
Q 47.40625 15.53125 47.40625 23.390625 
Q 47.40625 31.296875 43.53125 35.828125 
Q 39.65625 40.375 33.015625 40.375 
z
M 52.59375 71.296875 
L 52.59375 62.3125 
Q 48.875 64.0625 45.09375 64.984375 
Q 41.3125 65.921875 37.59375 65.921875 
Q 27.828125 65.921875 22.671875 59.328125 
Q 17.53125 52.734375 16.796875 39.40625 
Q 19.671875 43.65625 24.015625 45.921875 
Q 28.375 48.1875 33.59375 48.1875 
Q 44.578125 48.1875 50.953125 41.515625 
Q 57.328125 34.859375 57.328125 23.390625 
Q 57.328125 12.15625 50.6875 5.359375 
Q 44.046875 -1.421875 33.015625 -1.421875 
Q 20.359375 -1.421875 13.671875 8.265625 
Q 6.984375 17.96875 6.984375 36.375 
Q 6.984375 53.65625 15.1875 63.9375 
Q 23.390625 74.21875 37.203125 74.21875 
Q 40.921875 74.21875 44.703125 73.484375 
Q 48.484375 72.75 52.59375 71.296875 
z
" id="DejaVuSans-54"/>
      </defs>
      <g transform="translate(265.5095 322.182437)scale(0.1 -0.1)">
       <use xlink:href="#DejaVuSans-54"/>
       <use x="63.623047" xlink:href="#DejaVuSans-48"/>
      </g>
     </g>
    </g>
    <g id="xtick_5">
     <g id="line2d_5">
      <g>
       <use style="stroke:#000000;stroke-width:0.8;" x="343.296" xlink:href="#m06b67715a0" y="307.584"/>
      </g>
     </g>
     <g id="text_5">
      <!-- 80 -->
      <defs>
       <path d="M 31.78125 34.625 
Q 24.75 34.625 20.71875 30.859375 
Q 16.703125 27.09375 16.703125 20.515625 
Q 16.703125 13.921875 20.71875 10.15625 
Q 24.75 6.390625 31.78125 6.390625 
Q 38.8125 6.390625 42.859375 10.171875 
Q 46.921875 13.96875 46.921875 20.515625 
Q 46.921875 27.09375 42.890625 30.859375 
Q 38.875 34.625 31.78125 34.625 
z
M 21.921875 38.8125 
Q 15.578125 40.375 12.03125 44.71875 
Q 8.5 49.078125 8.5 55.328125 
Q 8.5 64.0625 14.71875 69.140625 
Q 20.953125 74.21875 31.78125 74.21875 
Q 42.671875 74.21875 48.875 69.140625 
Q 55.078125 64.0625 55.078125 55.328125 
Q 55.078125 49.078125 51.53125 44.71875 
Q 48 40.375 41.703125 38.8125 
Q 48.828125 37.15625 52.796875 32.3125 
Q 56.78125 27.484375 56.78125 20.515625 
Q 56.78125 9.90625 50.3125 4.234375 
Q 43.84375 -1.421875 31.78125 -1.421875 
Q 19.734375 -1.421875 13.25 4.234375 
Q 6.78125 9.90625 6.78125 20.515625 
Q 6.78125 27.484375 10.78125 32.3125 
Q 14.796875 37.15625 21.921875 38.8125 
z
M 18.3125 54.390625 
Q 18.3125 48.734375 21.84375 45.5625 
Q 25.390625 42.390625 31.78125 42.390625 
Q 38.140625 42.390625 41.71875 45.5625 
Q 45.3125 48.734375 45.3125 54.390625 
Q 45.3125 60.0625 41.71875 63.234375 
Q 38.140625 66.40625 31.78125 66.40625 
Q 25.390625 66.40625 21.84375 63.234375 
Q 18.3125 60.0625 18.3125 54.390625 
z
" id="DejaVuSans-56"/>
      </defs>
      <g transform="translate(336.9335 322.182437)scale(0.1 -0.1)">
       <use xlink:href="#DejaVuSans-56"/>
       <use x="63.623047" xlink:href="#DejaVuSans-48"/>
      </g>
     </g>
    </g>
    <g id="xtick_6">
     <g id="line2d_6">
      <g>
       <use style="stroke:#000000;stroke-width:0.8;" x="414.72" xlink:href="#m06b67715a0" y="307.584"/>
      </g>
     </g>
     <g id="text_6">
      <!-- 100 -->
      <defs>
       <path d="M 12.40625 8.296875 
L 28.515625 8.296875 
L 28.515625 63.921875 
L 10.984375 60.40625 
L 10.984375 69.390625 
L 28.421875 72.90625 
L 38.28125 72.90625 
L 38.28125 8.296875 
L 54.390625 8.296875 
L 54.390625 0 
L 12.40625 0 
z
" id="DejaVuSans-49"/>
      </defs>
      <g transform="translate(405.17625 322.182437)scale(0.1 -0.1)">
       <use xlink:href="#DejaVuSans-49"/>
       <use x="63.623047" xlink:href="#DejaVuSans-48"/>
       <use x="127.246094" xlink:href="#DejaVuSans-48"/>
      </g>
     </g>
    </g>
    <g id="text_7">
     <!-- loc -->
     <defs>
      <path d="M 9.421875 75.984375 
L 18.40625 75.984375 
L 18.40625 0 
L 9.421875 0 
z
" id="DejaVuSans-108"/>
      <path d="M 30.609375 48.390625 
Q 23.390625 48.390625 19.1875 42.75 
Q 14.984375 37.109375 14.984375 27.296875 
Q 14.984375 17.484375 19.15625 11.84375 
Q 23.34375 6.203125 30.609375 6.203125 
Q 37.796875 6.203125 41.984375 11.859375 
Q 46.1875 17.53125 46.1875 27.296875 
Q 46.1875 37.015625 41.984375 42.703125 
Q 37.796875 48.390625 30.609375 48.390625 
z
M 30.609375 56 
Q 42.328125 56 49.015625 48.375 
Q 55.71875 40.765625 55.71875 27.296875 
Q 55.71875 13.875 49.015625 6.21875 
Q 42.328125 -1.421875 30.609375 -1.421875 
Q 18.84375 -1.421875 12.171875 6.21875 
Q 5.515625 13.875 5.515625 27.296875 
Q 5.515625 40.765625 12.171875 48.375 
Q 18.84375 56 30.609375 56 
z
" id="DejaVuSans-111"/>
      <path d="M 48.78125 52.59375 
L 48.78125 44.1875 
Q 44.96875 46.296875 41.140625 47.34375 
Q 37.3125 48.390625 33.40625 48.390625 
Q 24.65625 48.390625 19.8125 42.84375 
Q 14.984375 37.3125 14.984375 27.296875 
Q 14.984375 17.28125 19.8125 11.734375 
Q 24.65625 6.203125 33.40625 6.203125 
Q 37.3125 6.203125 41.140625 7.25 
Q 44.96875 8.296875 48.78125 10.40625 
L 48.78125 2.09375 
Q 45.015625 0.34375 40.984375 -0.53125 
Q 36.96875 -1.421875 32.421875 -1.421875 
Q 20.0625 -1.421875 12.78125 6.34375 
Q 5.515625 14.109375 5.515625 27.296875 
Q 5.515625 40.671875 12.859375 48.328125 
Q 20.21875 56 33.015625 56 
Q 37.15625 56 41.109375 55.140625 
Q 45.0625 54.296875 48.78125 52.59375 
z
" id="DejaVuSans-99"/>
     </defs>
     <g transform="translate(228.962344 335.860562)scale(0.1 -0.1)">
      <use xlink:href="#DejaVuSans-108"/>
      <use x="27.783203" xlink:href="#DejaVuSans-111"/>
      <use x="88.964844" xlink:href="#DejaVuSans-99"/>
     </g>
    </g>
   </g>
   <g id="matplotlib.axis_2">
    <g id="ytick_1">
     <g id="line2d_7">
      <defs>
       <path d="M 0 0 
L -3.5 0 
" id="m304bac694e" style="stroke:#000000;stroke-width:0.8;"/>
      </defs>
      <g>
       <use style="stroke:#000000;stroke-width:0.8;" x="57.6" xlink:href="#m304bac694e" y="295.488"/>
      </g>
     </g>
     <g id="text_8">
      <!-- 0 -->
      <g transform="translate(44.2375 299.287219)scale(0.1 -0.1)">
       <use xlink:href="#DejaVuSans-48"/>
      </g>
     </g>
    </g>
    <g id="ytick_2">
     <g id="line2d_8">
      <g>
       <use style="stroke:#000000;stroke-width:0.8;" x="57.6" xlink:href="#m304bac694e" y="258.977285"/>
      </g>
     </g>
     <g id="text_9">
      <!-- 10 -->
      <g transform="translate(37.875 262.776503)scale(0.1 -0.1)">
       <use xlink:href="#DejaVuSans-49"/>
       <use x="63.623047" xlink:href="#DejaVuSans-48"/>
      </g>
     </g>
    </g>
    <g id="ytick_3">
     <g id="line2d_9">
      <g>
       <use style="stroke:#000000;stroke-width:0.8;" x="57.6" xlink:href="#m304bac694e" y="222.466569"/>
      </g>
     </g>
     <g id="text_10">
      <!-- 20 -->
      <g transform="translate(37.875 226.265788)scale(0.1 -0.1)">
       <use xlink:href="#DejaVuSans-50"/>
       <use x="63.623047" xlink:href="#DejaVuSans-48"/>
      </g>
     </g>
    </g>
    <g id="ytick_4">
     <g id="line2d_10">
      <g>
       <use style="stroke:#000000;stroke-width:0.8;" x="57.6" xlink:href="#m304bac694e" y="185.955854"/>
      </g>
     </g>
     <g id="text_11">
      <!-- 30 -->
      <defs>
       <path d="M 40.578125 39.3125 
Q 47.65625 37.796875 51.625 33 
Q 55.609375 28.21875 55.609375 21.1875 
Q 55.609375 10.40625 48.1875 4.484375 
Q 40.765625 -1.421875 27.09375 -1.421875 
Q 22.515625 -1.421875 17.65625 -0.515625 
Q 12.796875 0.390625 7.625 2.203125 
L 7.625 11.71875 
Q 11.71875 9.328125 16.59375 8.109375 
Q 21.484375 6.890625 26.8125 6.890625 
Q 36.078125 6.890625 40.9375 10.546875 
Q 45.796875 14.203125 45.796875 21.1875 
Q 45.796875 27.640625 41.28125 31.265625 
Q 36.765625 34.90625 28.71875 34.90625 
L 20.21875 34.90625 
L 20.21875 43.015625 
L 29.109375 43.015625 
Q 36.375 43.015625 40.234375 45.921875 
Q 44.09375 48.828125 44.09375 54.296875 
Q 44.09375 59.90625 40.109375 62.90625 
Q 36.140625 65.921875 28.71875 65.921875 
Q 24.65625 65.921875 20.015625 65.03125 
Q 15.375 64.15625 9.8125 62.3125 
L 9.8125 71.09375 
Q 15.4375 72.65625 20.34375 73.4375 
Q 25.25 74.21875 29.59375 74.21875 
Q 40.828125 74.21875 47.359375 69.109375 
Q 53.90625 64.015625 53.90625 55.328125 
Q 53.90625 49.265625 50.4375 45.09375 
Q 46.96875 40.921875 40.578125 39.3125 
z
" id="DejaVuSans-51"/>
      </defs>
      <g transform="translate(37.875 189.755073)scale(0.1 -0.1)">
       <use xlink:href="#DejaVuSans-51"/>
       <use x="63.623047" xlink:href="#DejaVuSans-48"/>
      </g>
     </g>
    </g>
    <g id="ytick_5">
     <g id="line2d_11">
      <g>
       <use style="stroke:#000000;stroke-width:0.8;" x="57.6" xlink:href="#m304bac694e" y="149.445139"/>
      </g>
     </g>
     <g id="text_12">
      <!-- 40 -->
      <g transform="translate(37.875 153.244357)scale(0.1 -0.1)">
       <use xlink:href="#DejaVuSans-52"/>
       <use x="63.623047" xlink:href="#DejaVuSans-48"/>
      </g>
     </g>
    </g>
    <g id="ytick_6">
     <g id="line2d_12">
      <g>
       <use style="stroke:#000000;stroke-width:0.8;" x="57.6" xlink:href="#m304bac694e" y="112.934423"/>
      </g>
     </g>
     <g id="text_13">
      <!-- 50 -->
      <defs>
       <path d="M 10.796875 72.90625 
L 49.515625 72.90625 
L 49.515625 64.59375 
L 19.828125 64.59375 
L 19.828125 46.734375 
Q 21.96875 47.46875 24.109375 47.828125 
Q 26.265625 48.1875 28.421875 48.1875 
Q 40.625 48.1875 47.75 41.5 
Q 54.890625 34.8125 54.890625 23.390625 
Q 54.890625 11.625 47.5625 5.09375 
Q 40.234375 -1.421875 26.90625 -1.421875 
Q 22.3125 -1.421875 17.546875 -0.640625 
Q 12.796875 0.140625 7.71875 1.703125 
L 7.71875 11.625 
Q 12.109375 9.234375 16.796875 8.0625 
Q 21.484375 6.890625 26.703125 6.890625 
Q 35.15625 6.890625 40.078125 11.328125 
Q 45.015625 15.765625 45.015625 23.390625 
Q 45.015625 31 40.078125 35.4375 
Q 35.15625 39.890625 26.703125 39.890625 
Q 22.75 39.890625 18.8125 39.015625 
Q 14.890625 38.140625 10.796875 36.28125 
z
" id="DejaVuSans-53"/>
      </defs>
      <g transform="translate(37.875 116.733642)scale(0.1 -0.1)">
       <use xlink:href="#DejaVuSans-53"/>
       <use x="63.623047" xlink:href="#DejaVuSans-48"/>
      </g>
     </g>
    </g>
    <g id="ytick_7">
     <g id="line2d_13">
      <g>
       <use style="stroke:#000000;stroke-width:0.8;" x="57.6" xlink:href="#m304bac694e" y="76.423708"/>
      </g>
     </g>
     <g id="text_14">
      <!-- 60 -->
      <g transform="translate(37.875 80.222927)scale(0.1 -0.1)">
       <use xlink:href="#DejaVuSans-54"/>
       <use x="63.623047" xlink:href="#DejaVuSans-48"/>
      </g>
     </g>
    </g>
    <g id="text_15">
     <!-- precision -->
     <defs>
      <path d="M 18.109375 8.203125 
L 18.109375 -20.796875 
L 9.078125 -20.796875 
L 9.078125 54.6875 
L 18.109375 54.6875 
L 18.109375 46.390625 
Q 20.953125 51.265625 25.265625 53.625 
Q 29.59375 56 35.59375 56 
Q 45.5625 56 51.78125 48.09375 
Q 58.015625 40.1875 58.015625 27.296875 
Q 58.015625 14.40625 51.78125 6.484375 
Q 45.5625 -1.421875 35.59375 -1.421875 
Q 29.59375 -1.421875 25.265625 0.953125 
Q 20.953125 3.328125 18.109375 8.203125 
z
M 48.6875 27.296875 
Q 48.6875 37.203125 44.609375 42.84375 
Q 40.53125 48.484375 33.40625 48.484375 
Q 26.265625 48.484375 22.1875 42.84375 
Q 18.109375 37.203125 18.109375 27.296875 
Q 18.109375 17.390625 22.1875 11.75 
Q 26.265625 6.109375 33.40625 6.109375 
Q 40.53125 6.109375 44.609375 11.75 
Q 48.6875 17.390625 48.6875 27.296875 
z
" id="DejaVuSans-112"/>
      <path d="M 41.109375 46.296875 
Q 39.59375 47.171875 37.8125 47.578125 
Q 36.03125 48 33.890625 48 
Q 26.265625 48 22.1875 43.046875 
Q 18.109375 38.09375 18.109375 28.8125 
L 18.109375 0 
L 9.078125 0 
L 9.078125 54.6875 
L 18.109375 54.6875 
L 18.109375 46.1875 
Q 20.953125 51.171875 25.484375 53.578125 
Q 30.03125 56 36.53125 56 
Q 37.453125 56 38.578125 55.875 
Q 39.703125 55.765625 41.0625 55.515625 
z
" id="DejaVuSans-114"/>
      <path d="M 56.203125 29.59375 
L 56.203125 25.203125 
L 14.890625 25.203125 
Q 15.484375 15.921875 20.484375 11.0625 
Q 25.484375 6.203125 34.421875 6.203125 
Q 39.59375 6.203125 44.453125 7.46875 
Q 49.3125 8.734375 54.109375 11.28125 
L 54.109375 2.78125 
Q 49.265625 0.734375 44.1875 -0.34375 
Q 39.109375 -1.421875 33.890625 -1.421875 
Q 20.796875 -1.421875 13.15625 6.1875 
Q 5.515625 13.8125 5.515625 26.8125 
Q 5.515625 40.234375 12.765625 48.109375 
Q 20.015625 56 32.328125 56 
Q 43.359375 56 49.78125 48.890625 
Q 56.203125 41.796875 56.203125 29.59375 
z
M 47.21875 32.234375 
Q 47.125 39.59375 43.09375 43.984375 
Q 39.0625 48.390625 32.421875 48.390625 
Q 24.90625 48.390625 20.390625 44.140625 
Q 15.875 39.890625 15.1875 32.171875 
z
" id="DejaVuSans-101"/>
      <path d="M 9.421875 54.6875 
L 18.40625 54.6875 
L 18.40625 0 
L 9.421875 0 
z
M 9.421875 75.984375 
L 18.40625 75.984375 
L 18.40625 64.59375 
L 9.421875 64.59375 
z
" id="DejaVuSans-105"/>
      <path d="M 44.28125 53.078125 
L 44.28125 44.578125 
Q 40.484375 46.53125 36.375 47.5 
Q 32.28125 48.484375 27.875 48.484375 
Q 21.1875 48.484375 17.84375 46.4375 
Q 14.5 44.390625 14.5 40.28125 
Q 14.5 37.15625 16.890625 35.375 
Q 19.28125 33.59375 26.515625 31.984375 
L 29.59375 31.296875 
Q 39.15625 29.25 43.1875 25.515625 
Q 47.21875 21.78125 47.21875 15.09375 
Q 47.21875 7.46875 41.1875 3.015625 
Q 35.15625 -1.421875 24.609375 -1.421875 
Q 20.21875 -1.421875 15.453125 -0.5625 
Q 10.6875 0.296875 5.421875 2 
L 5.421875 11.28125 
Q 10.40625 8.6875 15.234375 7.390625 
Q 20.0625 6.109375 24.8125 6.109375 
Q 31.15625 6.109375 34.5625 8.28125 
Q 37.984375 10.453125 37.984375 14.40625 
Q 37.984375 18.0625 35.515625 20.015625 
Q 33.0625 21.96875 24.703125 23.78125 
L 21.578125 24.515625 
Q 13.234375 26.265625 9.515625 29.90625 
Q 5.8125 33.546875 5.8125 39.890625 
Q 5.8125 47.609375 11.28125 51.796875 
Q 16.75 56 26.8125 56 
Q 31.78125 56 36.171875 55.265625 
Q 40.578125 54.546875 44.28125 53.078125 
z
" id="DejaVuSans-115"/>
      <path d="M 54.890625 33.015625 
L 54.890625 0 
L 45.90625 0 
L 45.90625 32.71875 
Q 45.90625 40.484375 42.875 44.328125 
Q 39.84375 48.1875 33.796875 48.1875 
Q 26.515625 48.1875 22.3125 43.546875 
Q 18.109375 38.921875 18.109375 30.90625 
L 18.109375 0 
L 9.078125 0 
L 9.078125 54.6875 
L 18.109375 54.6875 
L 18.109375 46.1875 
Q 21.34375 51.125 25.703125 53.5625 
Q 30.078125 56 35.796875 56 
Q 45.21875 56 50.046875 50.171875 
Q 54.890625 44.34375 54.890625 33.015625 
z
" id="DejaVuSans-110"/>
     </defs>
     <g transform="translate(31.795312 197.192844)rotate(-90)scale(0.1 -0.1)">
      <use xlink:href="#DejaVuSans-112"/>
      <use x="63.476562" xlink:href="#DejaVuSans-114"/>
      <use x="104.558594" xlink:href="#DejaVuSans-101"/>
      <use x="166.082031" xlink:href="#DejaVuSans-99"/>
      <use x="221.0625" xlink:href="#DejaVuSans-105"/>
      <use x="248.845703" xlink:href="#DejaVuSans-115"/>
      <use x="300.945312" xlink:href="#DejaVuSans-105"/>
      <use x="328.728516" xlink:href="#DejaVuSans-111"/>
      <use x="389.910156" xlink:href="#DejaVuSans-110"/>
     </g>
    </g>
   </g>
   <g id="line2d_14">
    <path clip-path="url(#pa0dffff0a0)" d="M 57.671424 111.437484 
L 57.707136 111.437484 
L 57.849984 111.437484 
L 57.885696 111.437484 
L 57.921408 111.437484 
L 57.921408 111.437484 
L 57.95712 111.437484 
L 57.992832 111.437484 
L 58.028544 111.437484 
L 58.064256 111.437484 
L 58.385664 111.437484 
L 58.635648 111.437484 
L 59.02848 112.350252 
L 59.314176 113.482084 
L 59.635584 110.926334 
L 59.814144 115.088555 
L 60.064128 116.87758 
L 60.45696 121.879548 
L 60.956928 109.757991 
L 75.670272 103.733723 
L 93.097728 100.447759 
L 111.168 90.370801 
L 128.1312 112.78838 
L 146.094336 99.169883 
L 163.200384 93.109105 
L 181.734912 67.916711 
L 199.340928 80.476397 
L 217.58976 84.784662 
L 236.409984 60.066907 
L 253.83744 70.874079 
L 270.693504 64.740279 
L 289.335168 64.740279 
L 307.869696 65.360961 
L 326.51136 107.129219 
L 343.331712 107.421305 
L 362.151936 107.786412 
L 379.079424 69.048543 
L 397.363968 63.827511 
L 414.72 53.568 
" style="fill:none;stroke:#008000;stroke-linecap:square;stroke-width:1.5;"/>
    <defs>
     <path d="M -3 3 
L 3 -3 
M -3 -3 
L 3 3 
" id="m92dd629900" style="stroke:#008000;"/>
    </defs>
    <g clip-path="url(#pa0dffff0a0)">
     <use style="fill:#008000;stroke:#008000;" x="57.671424" xlink:href="#m92dd629900" y="111.437484"/>
     <use style="fill:#008000;stroke:#008000;" x="57.707136" xlink:href="#m92dd629900" y="111.437484"/>
     <use style="fill:#008000;stroke:#008000;" x="57.849984" xlink:href="#m92dd629900" y="111.437484"/>
     <use style="fill:#008000;stroke:#008000;" x="57.885696" xlink:href="#m92dd629900" y="111.437484"/>
     <use style="fill:#008000;stroke:#008000;" x="57.921408" xlink:href="#m92dd629900" y="111.437484"/>
     <use style="fill:#008000;stroke:#008000;" x="57.921408" xlink:href="#m92dd629900" y="111.437484"/>
     <use style="fill:#008000;stroke:#008000;" x="57.95712" xlink:href="#m92dd629900" y="111.437484"/>
     <use style="fill:#008000;stroke:#008000;" x="57.992832" xlink:href="#m92dd629900" y="111.437484"/>
     <use style="fill:#008000;stroke:#008000;" x="58.028544" xlink:href="#m92dd629900" y="111.437484"/>
     <use style="fill:#008000;stroke:#008000;" x="58.064256" xlink:href="#m92dd629900" y="111.437484"/>
     <use style="fill:#008000;stroke:#008000;" x="58.385664" xlink:href="#m92dd629900" y="111.437484"/>
     <use style="fill:#008000;stroke:#008000;" x="58.635648" xlink:href="#m92dd629900" y="111.437484"/>
     <use style="fill:#008000;stroke:#008000;" x="59.02848" xlink:href="#m92dd629900" y="112.350252"/>
     <use style="fill:#008000;stroke:#008000;" x="59.314176" xlink:href="#m92dd629900" y="113.482084"/>
     <use style="fill:#008000;stroke:#008000;" x="59.635584" xlink:href="#m92dd629900" y="110.926334"/>
     <use style="fill:#008000;stroke:#008000;" x="59.814144" xlink:href="#m92dd629900" y="115.088555"/>
     <use style="fill:#008000;stroke:#008000;" x="60.064128" xlink:href="#m92dd629900" y="116.87758"/>
     <use style="fill:#008000;stroke:#008000;" x="60.45696" xlink:href="#m92dd629900" y="121.879548"/>
     <use style="fill:#008000;stroke:#008000;" x="60.956928" xlink:href="#m92dd629900" y="109.757991"/>
     <use style="fill:#008000;stroke:#008000;" x="75.670272" xlink:href="#m92dd629900" y="103.733723"/>
     <use style="fill:#008000;stroke:#008000;" x="93.097728" xlink:href="#m92dd629900" y="100.447759"/>
     <use style="fill:#008000;stroke:#008000;" x="111.168" xlink:href="#m92dd629900" y="90.370801"/>
     <use style="fill:#008000;stroke:#008000;" x="128.1312" xlink:href="#m92dd629900" y="112.78838"/>
     <use style="fill:#008000;stroke:#008000;" x="146.094336" xlink:href="#m92dd629900" y="99.169883"/>
     <use style="fill:#008000;stroke:#008000;" x="163.200384" xlink:href="#m92dd629900" y="93.109105"/>
     <use style="fill:#008000;stroke:#008000;" x="181.734912" xlink:href="#m92dd629900" y="67.916711"/>
     <use style="fill:#008000;stroke:#008000;" x="199.340928" xlink:href="#m92dd629900" y="80.476397"/>
     <use style="fill:#008000;stroke:#008000;" x="217.58976" xlink:href="#m92dd629900" y="84.784662"/>
     <use style="fill:#008000;stroke:#008000;" x="236.409984" xlink:href="#m92dd629900" y="60.066907"/>
     <use style="fill:#008000;stroke:#008000;" x="253.83744" xlink:href="#m92dd629900" y="70.874079"/>
     <use style="fill:#008000;stroke:#008000;" x="270.693504" xlink:href="#m92dd629900" y="64.740279"/>
     <use style="fill:#008000;stroke:#008000;" x="289.335168" xlink:href="#m92dd629900" y="64.740279"/>
     <use style="fill:#008000;stroke:#008000;" x="307.869696" xlink:href="#m92dd629900" y="65.360961"/>
     <use style="fill:#008000;stroke:#008000;" x="326.51136" xlink:href="#m92dd629900" y="107.129219"/>
     <use style="fill:#008000;stroke:#008000;" x="343.331712" xlink:href="#m92dd629900" y="107.421305"/>
     <use style="fill:#008000;stroke:#008000;" x="362.151936" xlink:href="#m92dd629900" y="107.786412"/>
     <use style="fill:#008000;stroke:#008000;" x="379.079424" xlink:href="#m92dd629900" y="69.048543"/>
     <use style="fill:#008000;stroke:#008000;" x="397.363968" xlink:href="#m92dd629900" y="63.827511"/>
     <use style="fill:#008000;stroke:#008000;" x="414.72" xlink:href="#m92dd629900" y="53.568"/>
    </g>
   </g>
   <g id="line2d_15">
    <path clip-path="url(#pa0dffff0a0)" d="M 57.671424 112.131187 
L 57.707136 111.437484 
L 57.849984 111.437484 
L 57.885696 111.437484 
L 57.921408 111.437484 
L 57.921408 111.437484 
L 57.95712 111.437484 
L 57.992832 111.437484 
L 58.028544 111.437484 
L 58.064256 111.437484 
L 58.385664 111.437484 
L 58.635648 110.889823 
L 59.02848 112.094677 
L 59.314176 115.85528 
L 59.635584 111.437484 
L 59.814144 112.094677 
L 60.064128 110.962845 
L 60.45696 295.488 
L 60.956928 295.488 
L 75.670272 105.559259 
L 93.097728 110.70727 
L 111.168 112.824891 
L 128.1312 110.70727 
L 146.094336 110.524716 
L 163.200384 110.23263 
L 181.734912 109.757991 
L 199.340928 109.319862 
L 217.58976 109.319862 
L 236.409984 110.999355 
L 253.83744 109.319862 
L 270.693504 108.735691 
L 289.335168 106.837134 
L 307.869696 107.202241 
L 326.51136 107.238752 
L 343.331712 102.56538 
L 362.151936 102.419337 
L 379.079424 102.419337 
L 397.363968 102.601891 
L 414.72 102.601891 
" style="fill:none;stroke:#ff0000;stroke-linecap:square;stroke-width:1.5;"/>
    <defs>
     <path d="M 0 3 
C 0.795609 3 1.55874 2.683901 2.12132 2.12132 
C 2.683901 1.55874 3 0.795609 3 0 
C 3 -0.795609 2.683901 -1.55874 2.12132 -2.12132 
C 1.55874 -2.683901 0.795609 -3 0 -3 
C -0.795609 -3 -1.55874 -2.683901 -2.12132 -2.12132 
C -2.683901 -1.55874 -3 -0.795609 -3 0 
C -3 0.795609 -2.683901 1.55874 -2.12132 2.12132 
C -1.55874 2.683901 -0.795609 3 0 3 
z
" id="mde2cb6e970" style="stroke:#ff0000;"/>
    </defs>
    <g clip-path="url(#pa0dffff0a0)">
     <use style="fill:#ff0000;stroke:#ff0000;" x="57.671424" xlink:href="#mde2cb6e970" y="112.131187"/>
     <use style="fill:#ff0000;stroke:#ff0000;" x="57.707136" xlink:href="#mde2cb6e970" y="111.437484"/>
     <use style="fill:#ff0000;stroke:#ff0000;" x="57.849984" xlink:href="#mde2cb6e970" y="111.437484"/>
     <use style="fill:#ff0000;stroke:#ff0000;" x="57.885696" xlink:href="#mde2cb6e970" y="111.437484"/>
     <use style="fill:#ff0000;stroke:#ff0000;" x="57.921408" xlink:href="#mde2cb6e970" y="111.437484"/>
     <use style="fill:#ff0000;stroke:#ff0000;" x="57.921408" xlink:href="#mde2cb6e970" y="111.437484"/>
     <use style="fill:#ff0000;stroke:#ff0000;" x="57.95712" xlink:href="#mde2cb6e970" y="111.437484"/>
     <use style="fill:#ff0000;stroke:#ff0000;" x="57.992832" xlink:href="#mde2cb6e970" y="111.437484"/>
     <use style="fill:#ff0000;stroke:#ff0000;" x="58.028544" xlink:href="#mde2cb6e970" y="111.437484"/>
     <use style="fill:#ff0000;stroke:#ff0000;" x="58.064256" xlink:href="#mde2cb6e970" y="111.437484"/>
     <use style="fill:#ff0000;stroke:#ff0000;" x="58.385664" xlink:href="#mde2cb6e970" y="111.437484"/>
     <use style="fill:#ff0000;stroke:#ff0000;" x="58.635648" xlink:href="#mde2cb6e970" y="110.889823"/>
     <use style="fill:#ff0000;stroke:#ff0000;" x="59.02848" xlink:href="#mde2cb6e970" y="112.094677"/>
     <use style="fill:#ff0000;stroke:#ff0000;" x="59.314176" xlink:href="#mde2cb6e970" y="115.85528"/>
     <use style="fill:#ff0000;stroke:#ff0000;" x="59.635584" xlink:href="#mde2cb6e970" y="111.437484"/>
     <use style="fill:#ff0000;stroke:#ff0000;" x="59.814144" xlink:href="#mde2cb6e970" y="112.094677"/>
     <use style="fill:#ff0000;stroke:#ff0000;" x="60.064128" xlink:href="#mde2cb6e970" y="110.962845"/>
     <use style="fill:#ff0000;stroke:#ff0000;" x="60.45696" xlink:href="#mde2cb6e970" y="295.488"/>
     <use style="fill:#ff0000;stroke:#ff0000;" x="60.956928" xlink:href="#mde2cb6e970" y="295.488"/>
     <use style="fill:#ff0000;stroke:#ff0000;" x="75.670272" xlink:href="#mde2cb6e970" y="105.559259"/>
     <use style="fill:#ff0000;stroke:#ff0000;" x="93.097728" xlink:href="#mde2cb6e970" y="110.70727"/>
     <use style="fill:#ff0000;stroke:#ff0000;" x="111.168" xlink:href="#mde2cb6e970" y="112.824891"/>
     <use style="fill:#ff0000;stroke:#ff0000;" x="128.1312" xlink:href="#mde2cb6e970" y="110.70727"/>
     <use style="fill:#ff0000;stroke:#ff0000;" x="146.094336" xlink:href="#mde2cb6e970" y="110.524716"/>
     <use style="fill:#ff0000;stroke:#ff0000;" x="163.200384" xlink:href="#mde2cb6e970" y="110.23263"/>
     <use style="fill:#ff0000;stroke:#ff0000;" x="181.734912" xlink:href="#mde2cb6e970" y="109.757991"/>
     <use style="fill:#ff0000;stroke:#ff0000;" x="199.340928" xlink:href="#mde2cb6e970" y="109.319862"/>
     <use style="fill:#ff0000;stroke:#ff0000;" x="217.58976" xlink:href="#mde2cb6e970" y="109.319862"/>
     <use style="fill:#ff0000;stroke:#ff0000;" x="236.409984" xlink:href="#mde2cb6e970" y="110.999355"/>
     <use style="fill:#ff0000;stroke:#ff0000;" x="253.83744" xlink:href="#mde2cb6e970" y="109.319862"/>
     <use style="fill:#ff0000;stroke:#ff0000;" x="270.693504" xlink:href="#mde2cb6e970" y="108.735691"/>
     <use style="fill:#ff0000;stroke:#ff0000;" x="289.335168" xlink:href="#mde2cb6e970" y="106.837134"/>
     <use style="fill:#ff0000;stroke:#ff0000;" x="307.869696" xlink:href="#mde2cb6e970" y="107.202241"/>
     <use style="fill:#ff0000;stroke:#ff0000;" x="326.51136" xlink:href="#mde2cb6e970" y="107.238752"/>
     <use style="fill:#ff0000;stroke:#ff0000;" x="343.331712" xlink:href="#mde2cb6e970" y="102.56538"/>
     <use style="fill:#ff0000;stroke:#ff0000;" x="362.151936" xlink:href="#mde2cb6e970" y="102.419337"/>
     <use style="fill:#ff0000;stroke:#ff0000;" x="379.079424" xlink:href="#mde2cb6e970" y="102.419337"/>
     <use style="fill:#ff0000;stroke:#ff0000;" x="397.363968" xlink:href="#mde2cb6e970" y="102.601891"/>
     <use style="fill:#ff0000;stroke:#ff0000;" x="414.72" xlink:href="#mde2cb6e970" y="102.601891"/>
    </g>
   </g>
   <g id="line2d_16">
    <path clip-path="url(#pa0dffff0a0)" d="M 57.671424 111.437484 
L 57.707136 111.437484 
L 57.849984 111.437484 
L 57.885696 111.437484 
L 57.921408 111.437484 
L 57.921408 111.437484 
L 57.95712 111.437484 
L 57.992832 111.437484 
L 58.028544 111.437484 
L 58.064256 111.437484 
L 58.385664 111.437484 
L 58.635648 111.437484 
L 59.02848 111.437484 
L 59.314176 112.75187 
L 59.635584 111.437484 
L 59.814144 113.189998 
L 60.064128 112.423273 
L 60.45696 109.429395 
L 60.956928 116.402941 
L 75.670272 105.340194 
L 93.097728 105.851344 
L 111.168 108.589648 
L 128.1312 105.303684 
L 146.094336 101.835166 
L 163.200384 103.259084 
L 181.734912 101.835166 
L 199.340928 105.997387 
L 217.58976 98.622223 
L 236.409984 102.200273 
L 253.83744 102.090741 
L 270.693504 101.652612 
L 289.335168 99.060351 
L 307.869696 98.074562 
L 326.51136 102.711423 
L 343.331712 100.411248 
L 362.151936 105.668791 
L 379.079424 104.683002 
L 397.363968 107.421305 
L 414.72 107.092709 
" style="fill:none;stroke:#0000ff;stroke-linecap:square;stroke-width:1.5;"/>
    <defs>
     <path d="M -3 0 
L 3 0 
M 0 3 
L 0 -3 
" id="m5f609943cb" style="stroke:#0000ff;"/>
    </defs>
    <g clip-path="url(#pa0dffff0a0)">
     <use style="fill:#0000ff;stroke:#0000ff;" x="57.671424" xlink:href="#m5f609943cb" y="111.437484"/>
     <use style="fill:#0000ff;stroke:#0000ff;" x="57.707136" xlink:href="#m5f609943cb" y="111.437484"/>
     <use style="fill:#0000ff;stroke:#0000ff;" x="57.849984" xlink:href="#m5f609943cb" y="111.437484"/>
     <use style="fill:#0000ff;stroke:#0000ff;" x="57.885696" xlink:href="#m5f609943cb" y="111.437484"/>
     <use style="fill:#0000ff;stroke:#0000ff;" x="57.921408" xlink:href="#m5f609943cb" y="111.437484"/>
     <use style="fill:#0000ff;stroke:#0000ff;" x="57.921408" xlink:href="#m5f609943cb" y="111.437484"/>
     <use style="fill:#0000ff;stroke:#0000ff;" x="57.95712" xlink:href="#m5f609943cb" y="111.437484"/>
     <use style="fill:#0000ff;stroke:#0000ff;" x="57.992832" xlink:href="#m5f609943cb" y="111.437484"/>
     <use style="fill:#0000ff;stroke:#0000ff;" x="58.028544" xlink:href="#m5f609943cb" y="111.437484"/>
     <use style="fill:#0000ff;stroke:#0000ff;" x="58.064256" xlink:href="#m5f609943cb" y="111.437484"/>
     <use style="fill:#0000ff;stroke:#0000ff;" x="58.385664" xlink:href="#m5f609943cb" y="111.437484"/>
     <use style="fill:#0000ff;stroke:#0000ff;" x="58.635648" xlink:href="#m5f609943cb" y="111.437484"/>
     <use style="fill:#0000ff;stroke:#0000ff;" x="59.02848" xlink:href="#m5f609943cb" y="111.437484"/>
     <use style="fill:#0000ff;stroke:#0000ff;" x="59.314176" xlink:href="#m5f609943cb" y="112.75187"/>
     <use style="fill:#0000ff;stroke:#0000ff;" x="59.635584" xlink:href="#m5f609943cb" y="111.437484"/>
     <use style="fill:#0000ff;stroke:#0000ff;" x="59.814144" xlink:href="#m5f609943cb" y="113.189998"/>
     <use style="fill:#0000ff;stroke:#0000ff;" x="60.064128" xlink:href="#m5f609943cb" y="112.423273"/>
     <use style="fill:#0000ff;stroke:#0000ff;" x="60.45696" xlink:href="#m5f609943cb" y="109.429395"/>
     <use style="fill:#0000ff;stroke:#0000ff;" x="60.956928" xlink:href="#m5f609943cb" y="116.402941"/>
     <use style="fill:#0000ff;stroke:#0000ff;" x="75.670272" xlink:href="#m5f609943cb" y="105.340194"/>
     <use style="fill:#0000ff;stroke:#0000ff;" x="93.097728" xlink:href="#m5f609943cb" y="105.851344"/>
     <use style="fill:#0000ff;stroke:#0000ff;" x="111.168" xlink:href="#m5f609943cb" y="108.589648"/>
     <use style="fill:#0000ff;stroke:#0000ff;" x="128.1312" xlink:href="#m5f609943cb" y="105.303684"/>
     <use style="fill:#0000ff;stroke:#0000ff;" x="146.094336" xlink:href="#m5f609943cb" y="101.835166"/>
     <use style="fill:#0000ff;stroke:#0000ff;" x="163.200384" xlink:href="#m5f609943cb" y="103.259084"/>
     <use style="fill:#0000ff;stroke:#0000ff;" x="181.734912" xlink:href="#m5f609943cb" y="101.835166"/>
     <use style="fill:#0000ff;stroke:#0000ff;" x="199.340928" xlink:href="#m5f609943cb" y="105.997387"/>
     <use style="fill:#0000ff;stroke:#0000ff;" x="217.58976" xlink:href="#m5f609943cb" y="98.622223"/>
     <use style="fill:#0000ff;stroke:#0000ff;" x="236.409984" xlink:href="#m5f609943cb" y="102.200273"/>
     <use style="fill:#0000ff;stroke:#0000ff;" x="253.83744" xlink:href="#m5f609943cb" y="102.090741"/>
     <use style="fill:#0000ff;stroke:#0000ff;" x="270.693504" xlink:href="#m5f609943cb" y="101.652612"/>
     <use style="fill:#0000ff;stroke:#0000ff;" x="289.335168" xlink:href="#m5f609943cb" y="99.060351"/>
     <use style="fill:#0000ff;stroke:#0000ff;" x="307.869696" xlink:href="#m5f609943cb" y="98.074562"/>
     <use style="fill:#0000ff;stroke:#0000ff;" x="326.51136" xlink:href="#m5f609943cb" y="102.711423"/>
     <use style="fill:#0000ff;stroke:#0000ff;" x="343.331712" xlink:href="#m5f609943cb" y="100.411248"/>
     <use style="fill:#0000ff;stroke:#0000ff;" x="362.151936" xlink:href="#m5f609943cb" y="105.668791"/>
     <use style="fill:#0000ff;stroke:#0000ff;" x="379.079424" xlink:href="#m5f609943cb" y="104.683002"/>
     <use style="fill:#0000ff;stroke:#0000ff;" x="397.363968" xlink:href="#m5f609943cb" y="107.421305"/>
     <use style="fill:#0000ff;stroke:#0000ff;" x="414.72" xlink:href="#m5f609943cb" y="107.092709"/>
    </g>
   </g>
   <g id="line2d_17">
    <path clip-path="url(#pa0dffff0a0)" d="M 57.671424 111.437484 
L 57.707136 111.437484 
L 57.849984 111.437484 
L 57.885696 111.437484 
L 57.921408 111.437484 
L 57.921408 111.437484 
L 57.95712 111.437484 
L 57.992832 111.437484 
L 58.028544 111.437484 
L 58.064256 111.437484 
L 58.385664 111.437484 
L 58.635648 111.437484 
L 59.02848 111.437484 
L 59.314176 295.488 
L 59.635584 111.437484 
L 59.814144 111.437484 
L 60.064128 114.32183 
L 60.45696 104.865555 
L 60.956928 106.800623 
L 75.670272 112.934423 
L 93.097728 103.441637 
L 111.168 104.975087 
L 128.1312 105.230662 
L 146.094336 108.261052 
L 163.200384 107.67688 
L 181.734912 108.954755 
L 199.340928 109.100798 
L 217.58976 109.611948 
L 236.409984 109.794502 
L 253.83744 109.794502 
L 270.693504 108.918244 
L 289.335168 110.123098 
L 307.869696 109.904034 
L 326.51136 109.502416 
L 343.331712 109.392884 
L 362.151936 109.100798 
L 379.079424 109.173819 
L 397.363968 109.611948 
L 414.72 109.465905 
" style="fill:none;stroke:#000000;stroke-linecap:square;stroke-width:1.5;"/>
    <defs>
     <path d="M -3 3 
L 3 3 
L 3 -3 
L -3 -3 
z
" id="m161b0a69f8" style="stroke:#000000;stroke-linejoin:miter;"/>
    </defs>
    <g clip-path="url(#pa0dffff0a0)">
     <use style="stroke:#000000;stroke-linejoin:miter;" x="57.671424" xlink:href="#m161b0a69f8" y="111.437484"/>
     <use style="stroke:#000000;stroke-linejoin:miter;" x="57.707136" xlink:href="#m161b0a69f8" y="111.437484"/>
     <use style="stroke:#000000;stroke-linejoin:miter;" x="57.849984" xlink:href="#m161b0a69f8" y="111.437484"/>
     <use style="stroke:#000000;stroke-linejoin:miter;" x="57.885696" xlink:href="#m161b0a69f8" y="111.437484"/>
     <use style="stroke:#000000;stroke-linejoin:miter;" x="57.921408" xlink:href="#m161b0a69f8" y="111.437484"/>
     <use style="stroke:#000000;stroke-linejoin:miter;" x="57.921408" xlink:href="#m161b0a69f8" y="111.437484"/>
     <use style="stroke:#000000;stroke-linejoin:miter;" x="57.95712" xlink:href="#m161b0a69f8" y="111.437484"/>
     <use style="stroke:#000000;stroke-linejoin:miter;" x="57.992832" xlink:href="#m161b0a69f8" y="111.437484"/>
     <use style="stroke:#000000;stroke-linejoin:miter;" x="58.028544" xlink:href="#m161b0a69f8" y="111.437484"/>
     <use style="stroke:#000000;stroke-linejoin:miter;" x="58.064256" xlink:href="#m161b0a69f8" y="111.437484"/>
     <use style="stroke:#000000;stroke-linejoin:miter;" x="58.385664" xlink:href="#m161b0a69f8" y="111.437484"/>
     <use style="stroke:#000000;stroke-linejoin:miter;" x="58.635648" xlink:href="#m161b0a69f8" y="111.437484"/>
     <use style="stroke:#000000;stroke-linejoin:miter;" x="59.02848" xlink:href="#m161b0a69f8" y="111.437484"/>
     <use style="stroke:#000000;stroke-linejoin:miter;" x="59.314176" xlink:href="#m161b0a69f8" y="295.488"/>
     <use style="stroke:#000000;stroke-linejoin:miter;" x="59.635584" xlink:href="#m161b0a69f8" y="111.437484"/>
     <use style="stroke:#000000;stroke-linejoin:miter;" x="59.814144" xlink:href="#m161b0a69f8" y="111.437484"/>
     <use style="stroke:#000000;stroke-linejoin:miter;" x="60.064128" xlink:href="#m161b0a69f8" y="114.32183"/>
     <use style="stroke:#000000;stroke-linejoin:miter;" x="60.45696" xlink:href="#m161b0a69f8" y="104.865555"/>
     <use style="stroke:#000000;stroke-linejoin:miter;" x="60.956928" xlink:href="#m161b0a69f8" y="106.800623"/>
     <use style="stroke:#000000;stroke-linejoin:miter;" x="75.670272" xlink:href="#m161b0a69f8" y="112.934423"/>
     <use style="stroke:#000000;stroke-linejoin:miter;" x="93.097728" xlink:href="#m161b0a69f8" y="103.441637"/>
     <use style="stroke:#000000;stroke-linejoin:miter;" x="111.168" xlink:href="#m161b0a69f8" y="104.975087"/>
     <use style="stroke:#000000;stroke-linejoin:miter;" x="128.1312" xlink:href="#m161b0a69f8" y="105.230662"/>
     <use style="stroke:#000000;stroke-linejoin:miter;" x="146.094336" xlink:href="#m161b0a69f8" y="108.261052"/>
     <use style="stroke:#000000;stroke-linejoin:miter;" x="163.200384" xlink:href="#m161b0a69f8" y="107.67688"/>
     <use style="stroke:#000000;stroke-linejoin:miter;" x="181.734912" xlink:href="#m161b0a69f8" y="108.954755"/>
     <use style="stroke:#000000;stroke-linejoin:miter;" x="199.340928" xlink:href="#m161b0a69f8" y="109.100798"/>
     <use style="stroke:#000000;stroke-linejoin:miter;" x="217.58976" xlink:href="#m161b0a69f8" y="109.611948"/>
     <use style="stroke:#000000;stroke-linejoin:miter;" x="236.409984" xlink:href="#m161b0a69f8" y="109.794502"/>
     <use style="stroke:#000000;stroke-linejoin:miter;" x="253.83744" xlink:href="#m161b0a69f8" y="109.794502"/>
     <use style="stroke:#000000;stroke-linejoin:miter;" x="270.693504" xlink:href="#m161b0a69f8" y="108.918244"/>
     <use style="stroke:#000000;stroke-linejoin:miter;" x="289.335168" xlink:href="#m161b0a69f8" y="110.123098"/>
     <use style="stroke:#000000;stroke-linejoin:miter;" x="307.869696" xlink:href="#m161b0a69f8" y="109.904034"/>
     <use style="stroke:#000000;stroke-linejoin:miter;" x="326.51136" xlink:href="#m161b0a69f8" y="109.502416"/>
     <use style="stroke:#000000;stroke-linejoin:miter;" x="343.331712" xlink:href="#m161b0a69f8" y="109.392884"/>
     <use style="stroke:#000000;stroke-linejoin:miter;" x="362.151936" xlink:href="#m161b0a69f8" y="109.100798"/>
     <use style="stroke:#000000;stroke-linejoin:miter;" x="379.079424" xlink:href="#m161b0a69f8" y="109.173819"/>
     <use style="stroke:#000000;stroke-linejoin:miter;" x="397.363968" xlink:href="#m161b0a69f8" y="109.611948"/>
     <use style="stroke:#000000;stroke-linejoin:miter;" x="414.72" xlink:href="#m161b0a69f8" y="109.465905"/>
    </g>
   </g>
   <g id="patch_3">
    <path d="M 57.6 307.584 
L 57.6 41.472 
" style="fill:none;stroke:#000000;stroke-linecap:square;stroke-linejoin:miter;stroke-width:0.8;"/>
   </g>
   <g id="patch_4">
    <path d="M 414.72 307.584 
L 414.72 41.472 
" style="fill:none;stroke:#000000;stroke-linecap:square;stroke-linejoin:miter;stroke-width:0.8;"/>
   </g>
   <g id="patch_5">
    <path d="M 57.6 307.584 
L 414.72 307.584 
" style="fill:none;stroke:#000000;stroke-linecap:square;stroke-linejoin:miter;stroke-width:0.8;"/>
   </g>
   <g id="patch_6">
    <path d="M 57.6 41.472 
L 414.72 41.472 
" style="fill:none;stroke:#000000;stroke-linecap:square;stroke-linejoin:miter;stroke-width:0.8;"/>
   </g>
   <g id="text_16">
    <!-- loc vs precision -->
    <defs>
     <path id="DejaVuSans-32"/>
     <path d="M 2.984375 54.6875 
L 12.5 54.6875 
L 29.59375 8.796875 
L 46.6875 54.6875 
L 56.203125 54.6875 
L 35.6875 0 
L 23.484375 0 
z
" id="DejaVuSans-118"/>
    </defs>
    <g transform="translate(189.834375 35.472)scale(0.12 -0.12)">
     <use xlink:href="#DejaVuSans-108"/>
     <use x="27.783203" xlink:href="#DejaVuSans-111"/>
     <use x="88.964844" xlink:href="#DejaVuSans-99"/>
     <use x="143.945312" xlink:href="#DejaVuSans-32"/>
     <use x="175.732422" xlink:href="#DejaVuSans-118"/>
     <use x="234.912109" xlink:href="#DejaVuSans-115"/>
     <use x="287.011719" xlink:href="#DejaVuSans-32"/>
     <use x="318.798828" xlink:href="#DejaVuSans-112"/>
     <use x="382.275391" xlink:href="#DejaVuSans-114"/>
     <use x="423.357422" xlink:href="#DejaVuSans-101"/>
     <use x="484.880859" xlink:href="#DejaVuSans-99"/>
     <use x="539.861328" xlink:href="#DejaVuSans-105"/>
     <use x="567.644531" xlink:href="#DejaVuSans-115"/>
     <use x="619.744141" xlink:href="#DejaVuSans-105"/>
     <use x="647.527344" xlink:href="#DejaVuSans-111"/>
     <use x="708.708984" xlink:href="#DejaVuSans-110"/>
    </g>
   </g>
   <g id="legend_1">
    <g id="patch_7">
     <path d="M 348.85125 302.584 
L 407.72 302.584 
Q 409.72 302.584 409.72 300.584 
L 409.72 242.8715 
Q 409.72 240.8715 407.72 240.8715 
L 348.85125 240.8715 
Q 346.85125 240.8715 346.85125 242.8715 
L 346.85125 300.584 
Q 346.85125 302.584 348.85125 302.584 
z
" style="fill:#ffffff;opacity:0.8;stroke:#cccccc;stroke-linejoin:miter;"/>
    </g>
    <g id="line2d_18">
     <path d="M 350.85125 248.969937 
L 370.85125 248.969937 
" style="fill:none;stroke:#008000;stroke-linecap:square;stroke-width:1.5;"/>
    </g>
    <g id="line2d_19">
     <g>
      <use style="fill:#008000;stroke:#008000;" x="360.85125" xlink:href="#m92dd629900" y="248.969937"/>
     </g>
    </g>
    <g id="text_17">
     <!-- CART -->
     <defs>
      <path d="M 64.40625 67.28125 
L 64.40625 56.890625 
Q 59.421875 61.53125 53.78125 63.8125 
Q 48.140625 66.109375 41.796875 66.109375 
Q 29.296875 66.109375 22.65625 58.46875 
Q 16.015625 50.828125 16.015625 36.375 
Q 16.015625 21.96875 22.65625 14.328125 
Q 29.296875 6.6875 41.796875 6.6875 
Q 48.140625 6.6875 53.78125 8.984375 
Q 59.421875 11.28125 64.40625 15.921875 
L 64.40625 5.609375 
Q 59.234375 2.09375 53.4375 0.328125 
Q 47.65625 -1.421875 41.21875 -1.421875 
Q 24.65625 -1.421875 15.125 8.703125 
Q 5.609375 18.84375 5.609375 36.375 
Q 5.609375 53.953125 15.125 64.078125 
Q 24.65625 74.21875 41.21875 74.21875 
Q 47.75 74.21875 53.53125 72.484375 
Q 59.328125 70.75 64.40625 67.28125 
z
" id="DejaVuSans-67"/>
      <path d="M 34.1875 63.1875 
L 20.796875 26.90625 
L 47.609375 26.90625 
z
M 28.609375 72.90625 
L 39.796875 72.90625 
L 67.578125 0 
L 57.328125 0 
L 50.6875 18.703125 
L 17.828125 18.703125 
L 11.1875 0 
L 0.78125 0 
z
" id="DejaVuSans-65"/>
      <path d="M 44.390625 34.1875 
Q 47.5625 33.109375 50.5625 29.59375 
Q 53.5625 26.078125 56.59375 19.921875 
L 66.609375 0 
L 56 0 
L 46.6875 18.703125 
Q 43.0625 26.03125 39.671875 28.421875 
Q 36.28125 30.8125 30.421875 30.8125 
L 19.671875 30.8125 
L 19.671875 0 
L 9.8125 0 
L 9.8125 72.90625 
L 32.078125 72.90625 
Q 44.578125 72.90625 50.734375 67.671875 
Q 56.890625 62.453125 56.890625 51.90625 
Q 56.890625 45.015625 53.6875 40.46875 
Q 50.484375 35.9375 44.390625 34.1875 
z
M 19.671875 64.796875 
L 19.671875 38.921875 
L 32.078125 38.921875 
Q 39.203125 38.921875 42.84375 42.21875 
Q 46.484375 45.515625 46.484375 51.90625 
Q 46.484375 58.296875 42.84375 61.546875 
Q 39.203125 64.796875 32.078125 64.796875 
z
" id="DejaVuSans-82"/>
      <path d="M -0.296875 72.90625 
L 61.375 72.90625 
L 61.375 64.59375 
L 35.5 64.59375 
L 35.5 0 
L 25.59375 0 
L 25.59375 64.59375 
L -0.296875 64.59375 
z
" id="DejaVuSans-84"/>
     </defs>
     <g transform="translate(378.85125 252.469937)scale(0.1 -0.1)">
      <use xlink:href="#DejaVuSans-67"/>
      <use x="69.824219" xlink:href="#DejaVuSans-65"/>
      <use x="138.232422" xlink:href="#DejaVuSans-82"/>
      <use x="207.605469" xlink:href="#DejaVuSans-84"/>
     </g>
    </g>
    <g id="line2d_20">
     <path d="M 350.85125 263.648062 
L 370.85125 263.648062 
" style="fill:none;stroke:#ff0000;stroke-linecap:square;stroke-width:1.5;"/>
    </g>
    <g id="line2d_21">
     <g>
      <use style="fill:#ff0000;stroke:#ff0000;" x="360.85125" xlink:href="#mde2cb6e970" y="263.648062"/>
     </g>
    </g>
    <g id="text_18">
     <!-- FFT -->
     <defs>
      <path d="M 9.8125 72.90625 
L 51.703125 72.90625 
L 51.703125 64.59375 
L 19.671875 64.59375 
L 19.671875 43.109375 
L 48.578125 43.109375 
L 48.578125 34.8125 
L 19.671875 34.8125 
L 19.671875 0 
L 9.8125 0 
z
" id="DejaVuSans-70"/>
     </defs>
     <g transform="translate(378.85125 267.148062)scale(0.1 -0.1)">
      <use xlink:href="#DejaVuSans-70"/>
      <use x="57.519531" xlink:href="#DejaVuSans-70"/>
      <use x="115.023438" xlink:href="#DejaVuSans-84"/>
     </g>
    </g>
    <g id="line2d_22">
     <path d="M 350.85125 278.326187 
L 370.85125 278.326187 
" style="fill:none;stroke:#0000ff;stroke-linecap:square;stroke-width:1.5;"/>
    </g>
    <g id="line2d_23">
     <g>
      <use style="fill:#0000ff;stroke:#0000ff;" x="360.85125" xlink:href="#m5f609943cb" y="278.326187"/>
     </g>
    </g>
    <g id="text_19">
     <!-- RF -->
     <g transform="translate(378.85125 281.826187)scale(0.1 -0.1)">
      <use xlink:href="#DejaVuSans-82"/>
      <use x="69.482422" xlink:href="#DejaVuSans-70"/>
     </g>
    </g>
    <g id="line2d_24">
     <path d="M 350.85125 293.004312 
L 370.85125 293.004312 
" style="fill:none;stroke:#000000;stroke-linecap:square;stroke-width:1.5;"/>
    </g>
    <g id="line2d_25">
     <g>
      <use style="stroke:#000000;stroke-linejoin:miter;" x="360.85125" xlink:href="#m161b0a69f8" y="293.004312"/>
     </g>
    </g>
    <g id="text_20">
     <!-- VFDT -->
     <defs>
      <path d="M 28.609375 0 
L 0.78125 72.90625 
L 11.078125 72.90625 
L 34.1875 11.53125 
L 57.328125 72.90625 
L 67.578125 72.90625 
L 39.796875 0 
z
" id="DejaVuSans-86"/>
      <path d="M 19.671875 64.796875 
L 19.671875 8.109375 
L 31.59375 8.109375 
Q 46.6875 8.109375 53.6875 14.9375 
Q 60.6875 21.78125 60.6875 36.53125 
Q 60.6875 51.171875 53.6875 57.984375 
Q 46.6875 64.796875 31.59375 64.796875 
z
M 9.8125 72.90625 
L 30.078125 72.90625 
Q 51.265625 72.90625 61.171875 64.09375 
Q 71.09375 55.28125 71.09375 36.53125 
Q 71.09375 17.671875 61.125 8.828125 
Q 51.171875 0 30.078125 0 
L 9.8125 0 
z
" id="DejaVuSans-68"/>
     </defs>
     <g transform="translate(378.85125 296.504312)scale(0.1 -0.1)">
      <use xlink:href="#DejaVuSans-86"/>
      <use x="68.408203" xlink:href="#DejaVuSans-70"/>
      <use x="125.927734" xlink:href="#DejaVuSans-68"/>
      <use x="202.929688" xlink:href="#DejaVuSans-84"/>
     </g>
    </g>
   </g>
  </g>
 </g>
 <defs>
  <clipPath id="pa0dffff0a0">
   <rect height="266.112" width="357.12" x="57.6" y="41.472"/>
  </clipPath>
 </defs>
</svg>
