<?xml version="1.0" encoding="utf-8" standalone="no"?>
<!DOCTYPE svg PUBLIC "-//W3C//DTD SVG 1.1//EN"
  "http://www.w3.org/Graphics/SVG/1.1/DTD/svg11.dtd">
<!-- Created with matplotlib (https://matplotlib.org/) -->
<svg height="345.6pt" version="1.1" viewBox="0 0 460.8 345.6" width="460.8pt" xmlns="http://www.w3.org/2000/svg" xmlns:xlink="http://www.w3.org/1999/xlink">
 <defs>
  <style type="text/css">
*{stroke-linecap:butt;stroke-linejoin:round;}
  </style>
 </defs>
 <g id="figure_1">
  <g id="patch_1">
   <path d="M 0 345.6 
L 460.8 345.6 
L 460.8 0 
L 0 0 
z
" style="fill:#ffffff;"/>
  </g>
  <g id="axes_1">
   <g id="patch_2">
    <path d="M 57.6 307.584 
L 414.72 307.584 
L 414.72 41.472 
L 57.6 41.472 
z
" style="fill:#ffffff;"/>
   </g>
   <g id="matplotlib.axis_1">
    <g id="xtick_1">
     <g id="line2d_1">
      <defs>
       <path d="M 0 0 
L 0 3.5 
" id="m3a9c8fec55" style="stroke:#000000;stroke-width:0.8;"/>
      </defs>
      <g>
       <use style="stroke:#000000;stroke-width:0.8;" x="57.6" xlink:href="#m3a9c8fec55" y="307.584"/>
      </g>
     </g>
     <g id="text_1">
      <!-- 0 -->
      <defs>
       <path d="M 31.78125 66.40625 
Q 24.171875 66.40625 20.328125 58.90625 
Q 16.5 51.421875 16.5 36.375 
Q 16.5 21.390625 20.328125 13.890625 
Q 24.171875 6.390625 31.78125 6.390625 
Q 39.453125 6.390625 43.28125 13.890625 
Q 47.125 21.390625 47.125 36.375 
Q 47.125 51.421875 43.28125 58.90625 
Q 39.453125 66.40625 31.78125 66.40625 
z
M 31.78125 74.21875 
Q 44.046875 74.21875 50.515625 64.515625 
Q 56.984375 54.828125 56.984375 36.375 
Q 56.984375 17.96875 50.515625 8.265625 
Q 44.046875 -1.421875 31.78125 -1.421875 
Q 19.53125 -1.421875 13.0625 8.265625 
Q 6.59375 17.96875 6.59375 36.375 
Q 6.59375 54.828125 13.0625 64.515625 
Q 19.53125 74.21875 31.78125 74.21875 
z
" id="DejaVuSans-48"/>
      </defs>
      <g transform="translate(54.41875 322.182437)scale(0.1 -0.1)">
       <use xlink:href="#DejaVuSans-48"/>
      </g>
     </g>
    </g>
    <g id="xtick_2">
     <g id="line2d_2">
      <g>
       <use style="stroke:#000000;stroke-width:0.8;" x="129.024" xlink:href="#m3a9c8fec55" y="307.584"/>
      </g>
     </g>
     <g id="text_2">
      <!-- 20 -->
      <defs>
       <path d="M 19.1875 8.296875 
L 53.609375 8.296875 
L 53.609375 0 
L 7.328125 0 
L 7.328125 8.296875 
Q 12.9375 14.109375 22.625 23.890625 
Q 32.328125 33.6875 34.8125 36.53125 
Q 39.546875 41.84375 41.421875 45.53125 
Q 43.3125 49.21875 43.3125 52.78125 
Q 43.3125 58.59375 39.234375 62.25 
Q 35.15625 65.921875 28.609375 65.921875 
Q 23.96875 65.921875 18.8125 64.3125 
Q 13.671875 62.703125 7.8125 59.421875 
L 7.8125 69.390625 
Q 13.765625 71.78125 18.9375 73 
Q 24.125 74.21875 28.421875 74.21875 
Q 39.75 74.21875 46.484375 68.546875 
Q 53.21875 62.890625 53.21875 53.421875 
Q 53.21875 48.921875 51.53125 44.890625 
Q 49.859375 40.875 45.40625 35.40625 
Q 44.1875 33.984375 37.640625 27.21875 
Q 31.109375 20.453125 19.1875 8.296875 
z
" id="DejaVuSans-50"/>
      </defs>
      <g transform="translate(122.6615 322.182437)scale(0.1 -0.1)">
       <use xlink:href="#DejaVuSans-50"/>
       <use x="63.623047" xlink:href="#DejaVuSans-48"/>
      </g>
     </g>
    </g>
    <g id="xtick_3">
     <g id="line2d_3">
      <g>
       <use style="stroke:#000000;stroke-width:0.8;" x="200.448" xlink:href="#m3a9c8fec55" y="307.584"/>
      </g>
     </g>
     <g id="text_3">
      <!-- 40 -->
      <defs>
       <path d="M 37.796875 64.3125 
L 12.890625 25.390625 
L 37.796875 25.390625 
z
M 35.203125 72.90625 
L 47.609375 72.90625 
L 47.609375 25.390625 
L 58.015625 25.390625 
L 58.015625 17.1875 
L 47.609375 17.1875 
L 47.609375 0 
L 37.796875 0 
L 37.796875 17.1875 
L 4.890625 17.1875 
L 4.890625 26.703125 
z
" id="DejaVuSans-52"/>
      </defs>
      <g transform="translate(194.0855 322.182437)scale(0.1 -0.1)">
       <use xlink:href="#DejaVuSans-52"/>
       <use x="63.623047" xlink:href="#DejaVuSans-48"/>
      </g>
     </g>
    </g>
    <g id="xtick_4">
     <g id="line2d_4">
      <g>
       <use style="stroke:#000000;stroke-width:0.8;" x="271.872" xlink:href="#m3a9c8fec55" y="307.584"/>
      </g>
     </g>
     <g id="text_4">
      <!-- 60 -->
      <defs>
       <path d="M 33.015625 40.375 
Q 26.375 40.375 22.484375 35.828125 
Q 18.609375 31.296875 18.609375 23.390625 
Q 18.609375 15.53125 22.484375 10.953125 
Q 26.375 6.390625 33.015625 6.390625 
Q 39.65625 6.390625 43.53125 10.953125 
Q 47.40625 15.53125 47.40625 23.390625 
Q 47.40625 31.296875 43.53125 35.828125 
Q 39.65625 40.375 33.015625 40.375 
z
M 52.59375 71.296875 
L 52.59375 62.3125 
Q 48.875 64.0625 45.09375 64.984375 
Q 41.3125 65.921875 37.59375 65.921875 
Q 27.828125 65.921875 22.671875 59.328125 
Q 17.53125 52.734375 16.796875 39.40625 
Q 19.671875 43.65625 24.015625 45.921875 
Q 28.375 48.1875 33.59375 48.1875 
Q 44.578125 48.1875 50.953125 41.515625 
Q 57.328125 34.859375 57.328125 23.390625 
Q 57.328125 12.15625 50.6875 5.359375 
Q 44.046875 -1.421875 33.015625 -1.421875 
Q 20.359375 -1.421875 13.671875 8.265625 
Q 6.984375 17.96875 6.984375 36.375 
Q 6.984375 53.65625 15.1875 63.9375 
Q 23.390625 74.21875 37.203125 74.21875 
Q 40.921875 74.21875 44.703125 73.484375 
Q 48.484375 72.75 52.59375 71.296875 
z
" id="DejaVuSans-54"/>
      </defs>
      <g transform="translate(265.5095 322.182437)scale(0.1 -0.1)">
       <use xlink:href="#DejaVuSans-54"/>
       <use x="63.623047" xlink:href="#DejaVuSans-48"/>
      </g>
     </g>
    </g>
    <g id="xtick_5">
     <g id="line2d_5">
      <g>
       <use style="stroke:#000000;stroke-width:0.8;" x="343.296" xlink:href="#m3a9c8fec55" y="307.584"/>
      </g>
     </g>
     <g id="text_5">
      <!-- 80 -->
      <defs>
       <path d="M 31.78125 34.625 
Q 24.75 34.625 20.71875 30.859375 
Q 16.703125 27.09375 16.703125 20.515625 
Q 16.703125 13.921875 20.71875 10.15625 
Q 24.75 6.390625 31.78125 6.390625 
Q 38.8125 6.390625 42.859375 10.171875 
Q 46.921875 13.96875 46.921875 20.515625 
Q 46.921875 27.09375 42.890625 30.859375 
Q 38.875 34.625 31.78125 34.625 
z
M 21.921875 38.8125 
Q 15.578125 40.375 12.03125 44.71875 
Q 8.5 49.078125 8.5 55.328125 
Q 8.5 64.0625 14.71875 69.140625 
Q 20.953125 74.21875 31.78125 74.21875 
Q 42.671875 74.21875 48.875 69.140625 
Q 55.078125 64.0625 55.078125 55.328125 
Q 55.078125 49.078125 51.53125 44.71875 
Q 48 40.375 41.703125 38.8125 
Q 48.828125 37.15625 52.796875 32.3125 
Q 56.78125 27.484375 56.78125 20.515625 
Q 56.78125 9.90625 50.3125 4.234375 
Q 43.84375 -1.421875 31.78125 -1.421875 
Q 19.734375 -1.421875 13.25 4.234375 
Q 6.78125 9.90625 6.78125 20.515625 
Q 6.78125 27.484375 10.78125 32.3125 
Q 14.796875 37.15625 21.921875 38.8125 
z
M 18.3125 54.390625 
Q 18.3125 48.734375 21.84375 45.5625 
Q 25.390625 42.390625 31.78125 42.390625 
Q 38.140625 42.390625 41.71875 45.5625 
Q 45.3125 48.734375 45.3125 54.390625 
Q 45.3125 60.0625 41.71875 63.234375 
Q 38.140625 66.40625 31.78125 66.40625 
Q 25.390625 66.40625 21.84375 63.234375 
Q 18.3125 60.0625 18.3125 54.390625 
z
" id="DejaVuSans-56"/>
      </defs>
      <g transform="translate(336.9335 322.182437)scale(0.1 -0.1)">
       <use xlink:href="#DejaVuSans-56"/>
       <use x="63.623047" xlink:href="#DejaVuSans-48"/>
      </g>
     </g>
    </g>
    <g id="xtick_6">
     <g id="line2d_6">
      <g>
       <use style="stroke:#000000;stroke-width:0.8;" x="414.72" xlink:href="#m3a9c8fec55" y="307.584"/>
      </g>
     </g>
     <g id="text_6">
      <!-- 100 -->
      <defs>
       <path d="M 12.40625 8.296875 
L 28.515625 8.296875 
L 28.515625 63.921875 
L 10.984375 60.40625 
L 10.984375 69.390625 
L 28.421875 72.90625 
L 38.28125 72.90625 
L 38.28125 8.296875 
L 54.390625 8.296875 
L 54.390625 0 
L 12.40625 0 
z
" id="DejaVuSans-49"/>
      </defs>
      <g transform="translate(405.17625 322.182437)scale(0.1 -0.1)">
       <use xlink:href="#DejaVuSans-49"/>
       <use x="63.623047" xlink:href="#DejaVuSans-48"/>
       <use x="127.246094" xlink:href="#DejaVuSans-48"/>
      </g>
     </g>
    </g>
    <g id="text_7">
     <!-- size -->
     <defs>
      <path d="M 44.28125 53.078125 
L 44.28125 44.578125 
Q 40.484375 46.53125 36.375 47.5 
Q 32.28125 48.484375 27.875 48.484375 
Q 21.1875 48.484375 17.84375 46.4375 
Q 14.5 44.390625 14.5 40.28125 
Q 14.5 37.15625 16.890625 35.375 
Q 19.28125 33.59375 26.515625 31.984375 
L 29.59375 31.296875 
Q 39.15625 29.25 43.1875 25.515625 
Q 47.21875 21.78125 47.21875 15.09375 
Q 47.21875 7.46875 41.1875 3.015625 
Q 35.15625 -1.421875 24.609375 -1.421875 
Q 20.21875 -1.421875 15.453125 -0.5625 
Q 10.6875 0.296875 5.421875 2 
L 5.421875 11.28125 
Q 10.40625 8.6875 15.234375 7.390625 
Q 20.0625 6.109375 24.8125 6.109375 
Q 31.15625 6.109375 34.5625 8.28125 
Q 37.984375 10.453125 37.984375 14.40625 
Q 37.984375 18.0625 35.515625 20.015625 
Q 33.0625 21.96875 24.703125 23.78125 
L 21.578125 24.515625 
Q 13.234375 26.265625 9.515625 29.90625 
Q 5.8125 33.546875 5.8125 39.890625 
Q 5.8125 47.609375 11.28125 51.796875 
Q 16.75 56 26.8125 56 
Q 31.78125 56 36.171875 55.265625 
Q 40.578125 54.546875 44.28125 53.078125 
z
" id="DejaVuSans-115"/>
      <path d="M 9.421875 54.6875 
L 18.40625 54.6875 
L 18.40625 0 
L 9.421875 0 
z
M 9.421875 75.984375 
L 18.40625 75.984375 
L 18.40625 64.59375 
L 9.421875 64.59375 
z
" id="DejaVuSans-105"/>
      <path d="M 5.515625 54.6875 
L 48.1875 54.6875 
L 48.1875 46.484375 
L 14.40625 7.171875 
L 48.1875 7.171875 
L 48.1875 0 
L 4.296875 0 
L 4.296875 8.203125 
L 38.09375 47.515625 
L 5.515625 47.515625 
z
" id="DejaVuSans-122"/>
      <path d="M 56.203125 29.59375 
L 56.203125 25.203125 
L 14.890625 25.203125 
Q 15.484375 15.921875 20.484375 11.0625 
Q 25.484375 6.203125 34.421875 6.203125 
Q 39.59375 6.203125 44.453125 7.46875 
Q 49.3125 8.734375 54.109375 11.28125 
L 54.109375 2.78125 
Q 49.265625 0.734375 44.1875 -0.34375 
Q 39.109375 -1.421875 33.890625 -1.421875 
Q 20.796875 -1.421875 13.15625 6.1875 
Q 5.515625 13.8125 5.515625 26.8125 
Q 5.515625 40.234375 12.765625 48.109375 
Q 20.015625 56 32.328125 56 
Q 43.359375 56 49.78125 48.890625 
Q 56.203125 41.796875 56.203125 29.59375 
z
M 47.21875 32.234375 
Q 47.125 39.59375 43.09375 43.984375 
Q 39.0625 48.390625 32.421875 48.390625 
Q 24.90625 48.390625 20.390625 44.140625 
Q 15.875 39.890625 15.1875 32.171875 
z
" id="DejaVuSans-101"/>
     </defs>
     <g transform="translate(226.465469 335.860562)scale(0.1 -0.1)">
      <use xlink:href="#DejaVuSans-115"/>
      <use x="52.099609" xlink:href="#DejaVuSans-105"/>
      <use x="79.882812" xlink:href="#DejaVuSans-122"/>
      <use x="132.373047" xlink:href="#DejaVuSans-101"/>
     </g>
    </g>
   </g>
   <g id="matplotlib.axis_2">
    <g id="ytick_1">
     <g id="line2d_7">
      <defs>
       <path d="M 0 0 
L -3.5 0 
" id="me81e5ff9e7" style="stroke:#000000;stroke-width:0.8;"/>
      </defs>
      <g>
       <use style="stroke:#000000;stroke-width:0.8;" x="57.6" xlink:href="#me81e5ff9e7" y="301.356443"/>
      </g>
     </g>
     <g id="text_8">
      <!-- 40 -->
      <g transform="translate(37.875 305.155662)scale(0.1 -0.1)">
       <use xlink:href="#DejaVuSans-52"/>
       <use x="63.623047" xlink:href="#DejaVuSans-48"/>
      </g>
     </g>
    </g>
    <g id="ytick_2">
     <g id="line2d_8">
      <g>
       <use style="stroke:#000000;stroke-width:0.8;" x="57.6" xlink:href="#me81e5ff9e7" y="257.562091"/>
      </g>
     </g>
     <g id="text_9">
      <!-- 45 -->
      <defs>
       <path d="M 10.796875 72.90625 
L 49.515625 72.90625 
L 49.515625 64.59375 
L 19.828125 64.59375 
L 19.828125 46.734375 
Q 21.96875 47.46875 24.109375 47.828125 
Q 26.265625 48.1875 28.421875 48.1875 
Q 40.625 48.1875 47.75 41.5 
Q 54.890625 34.8125 54.890625 23.390625 
Q 54.890625 11.625 47.5625 5.09375 
Q 40.234375 -1.421875 26.90625 -1.421875 
Q 22.3125 -1.421875 17.546875 -0.640625 
Q 12.796875 0.140625 7.71875 1.703125 
L 7.71875 11.625 
Q 12.109375 9.234375 16.796875 8.0625 
Q 21.484375 6.890625 26.703125 6.890625 
Q 35.15625 6.890625 40.078125 11.328125 
Q 45.015625 15.765625 45.015625 23.390625 
Q 45.015625 31 40.078125 35.4375 
Q 35.15625 39.890625 26.703125 39.890625 
Q 22.75 39.890625 18.8125 39.015625 
Q 14.890625 38.140625 10.796875 36.28125 
z
" id="DejaVuSans-53"/>
      </defs>
      <g transform="translate(37.875 261.36131)scale(0.1 -0.1)">
       <use xlink:href="#DejaVuSans-52"/>
       <use x="63.623047" xlink:href="#DejaVuSans-53"/>
      </g>
     </g>
    </g>
    <g id="ytick_3">
     <g id="line2d_9">
      <g>
       <use style="stroke:#000000;stroke-width:0.8;" x="57.6" xlink:href="#me81e5ff9e7" y="213.767739"/>
      </g>
     </g>
     <g id="text_10">
      <!-- 50 -->
      <g transform="translate(37.875 217.566958)scale(0.1 -0.1)">
       <use xlink:href="#DejaVuSans-53"/>
       <use x="63.623047" xlink:href="#DejaVuSans-48"/>
      </g>
     </g>
    </g>
    <g id="ytick_4">
     <g id="line2d_10">
      <g>
       <use style="stroke:#000000;stroke-width:0.8;" x="57.6" xlink:href="#me81e5ff9e7" y="169.973387"/>
      </g>
     </g>
     <g id="text_11">
      <!-- 55 -->
      <g transform="translate(37.875 173.772606)scale(0.1 -0.1)">
       <use xlink:href="#DejaVuSans-53"/>
       <use x="63.623047" xlink:href="#DejaVuSans-53"/>
      </g>
     </g>
    </g>
    <g id="ytick_5">
     <g id="line2d_11">
      <g>
       <use style="stroke:#000000;stroke-width:0.8;" x="57.6" xlink:href="#me81e5ff9e7" y="126.179035"/>
      </g>
     </g>
     <g id="text_12">
      <!-- 60 -->
      <g transform="translate(37.875 129.978254)scale(0.1 -0.1)">
       <use xlink:href="#DejaVuSans-54"/>
       <use x="63.623047" xlink:href="#DejaVuSans-48"/>
      </g>
     </g>
    </g>
    <g id="ytick_6">
     <g id="line2d_12">
      <g>
       <use style="stroke:#000000;stroke-width:0.8;" x="57.6" xlink:href="#me81e5ff9e7" y="82.384684"/>
      </g>
     </g>
     <g id="text_13">
      <!-- 65 -->
      <g transform="translate(37.875 86.183902)scale(0.1 -0.1)">
       <use xlink:href="#DejaVuSans-54"/>
       <use x="63.623047" xlink:href="#DejaVuSans-53"/>
      </g>
     </g>
    </g>
    <g id="text_14">
     <!-- f1 -->
     <defs>
      <path d="M 37.109375 75.984375 
L 37.109375 68.5 
L 28.515625 68.5 
Q 23.6875 68.5 21.796875 66.546875 
Q 19.921875 64.59375 19.921875 59.515625 
L 19.921875 54.6875 
L 34.71875 54.6875 
L 34.71875 47.703125 
L 19.921875 47.703125 
L 19.921875 0 
L 10.890625 0 
L 10.890625 47.703125 
L 2.296875 47.703125 
L 2.296875 54.6875 
L 10.890625 54.6875 
L 10.890625 58.5 
Q 10.890625 67.625 15.140625 71.796875 
Q 19.390625 75.984375 28.609375 75.984375 
z
" id="DejaVuSans-102"/>
     </defs>
     <g transform="translate(31.795313 179.469406)rotate(-90)scale(0.1 -0.1)">
      <use xlink:href="#DejaVuSans-102"/>
      <use x="35.205078" xlink:href="#DejaVuSans-49"/>
     </g>
    </g>
   </g>
   <g id="line2d_13">
    <path clip-path="url(#p8e9003953d)" d="M 57.635712 63.72829 
L 57.671424 63.72829 
L 57.707136 65.830419 
L 57.742848 86.588941 
L 57.77856 104.457037 
L 57.814272 181.535096 
L 57.849984 188.191838 
L 57.885696 166.557428 
L 57.921408 105.946045 
L 57.95712 93.070505 
L 58.31424 111.376545 
L 58.67136 92.720151 
L 59.02848 85.012345 
L 59.3856 82.64745 
L 59.74272 80.457732 
L 60.09984 76.51624 
L 60.45696 74.151345 
L 60.81408 63.72829 
L 61.1712 63.72829 
L 75.456 63.72829 
L 93.312 174.615589 
L 111.168 63.72829 
L 129.024 196.600353 
L 146.88 70.735386 
L 164.736 206.147522 
L 182.592 87.464828 
L 200.448 238.02981 
L 218.304 96.311287 
L 236.16 231.723424 
L 254.016 123.638963 
L 271.872 212.36632 
L 289.728 107.172287 
L 307.584 214.906392 
L 325.44 135.726204 
L 343.296 237.153923 
L 361.152 139.492518 
L 379.008 229.27094 
L 396.864 115.931157 
L 414.72 230.059238 
" style="fill:none;stroke:#008000;stroke-linecap:square;stroke-width:1.5;"/>
    <defs>
     <path d="M -3 3 
L 3 -3 
M -3 -3 
L 3 3 
" id="m1f0c1e6123" style="stroke:#008000;"/>
    </defs>
    <g clip-path="url(#p8e9003953d)">
     <use style="fill:#008000;stroke:#008000;" x="57.635712" xlink:href="#m1f0c1e6123" y="63.72829"/>
     <use style="fill:#008000;stroke:#008000;" x="57.671424" xlink:href="#m1f0c1e6123" y="63.72829"/>
     <use style="fill:#008000;stroke:#008000;" x="57.707136" xlink:href="#m1f0c1e6123" y="65.830419"/>
     <use style="fill:#008000;stroke:#008000;" x="57.742848" xlink:href="#m1f0c1e6123" y="86.588941"/>
     <use style="fill:#008000;stroke:#008000;" x="57.77856" xlink:href="#m1f0c1e6123" y="104.457037"/>
     <use style="fill:#008000;stroke:#008000;" x="57.814272" xlink:href="#m1f0c1e6123" y="181.535096"/>
     <use style="fill:#008000;stroke:#008000;" x="57.849984" xlink:href="#m1f0c1e6123" y="188.191838"/>
     <use style="fill:#008000;stroke:#008000;" x="57.885696" xlink:href="#m1f0c1e6123" y="166.557428"/>
     <use style="fill:#008000;stroke:#008000;" x="57.921408" xlink:href="#m1f0c1e6123" y="105.946045"/>
     <use style="fill:#008000;stroke:#008000;" x="57.95712" xlink:href="#m1f0c1e6123" y="93.070505"/>
     <use style="fill:#008000;stroke:#008000;" x="58.31424" xlink:href="#m1f0c1e6123" y="111.376545"/>
     <use style="fill:#008000;stroke:#008000;" x="58.67136" xlink:href="#m1f0c1e6123" y="92.720151"/>
     <use style="fill:#008000;stroke:#008000;" x="59.02848" xlink:href="#m1f0c1e6123" y="85.012345"/>
     <use style="fill:#008000;stroke:#008000;" x="59.3856" xlink:href="#m1f0c1e6123" y="82.64745"/>
     <use style="fill:#008000;stroke:#008000;" x="59.74272" xlink:href="#m1f0c1e6123" y="80.457732"/>
     <use style="fill:#008000;stroke:#008000;" x="60.09984" xlink:href="#m1f0c1e6123" y="76.51624"/>
     <use style="fill:#008000;stroke:#008000;" x="60.45696" xlink:href="#m1f0c1e6123" y="74.151345"/>
     <use style="fill:#008000;stroke:#008000;" x="60.81408" xlink:href="#m1f0c1e6123" y="63.72829"/>
     <use style="fill:#008000;stroke:#008000;" x="61.1712" xlink:href="#m1f0c1e6123" y="63.72829"/>
     <use style="fill:#008000;stroke:#008000;" x="75.456" xlink:href="#m1f0c1e6123" y="63.72829"/>
     <use style="fill:#008000;stroke:#008000;" x="93.312" xlink:href="#m1f0c1e6123" y="174.615589"/>
     <use style="fill:#008000;stroke:#008000;" x="111.168" xlink:href="#m1f0c1e6123" y="63.72829"/>
     <use style="fill:#008000;stroke:#008000;" x="129.024" xlink:href="#m1f0c1e6123" y="196.600353"/>
     <use style="fill:#008000;stroke:#008000;" x="146.88" xlink:href="#m1f0c1e6123" y="70.735386"/>
     <use style="fill:#008000;stroke:#008000;" x="164.736" xlink:href="#m1f0c1e6123" y="206.147522"/>
     <use style="fill:#008000;stroke:#008000;" x="182.592" xlink:href="#m1f0c1e6123" y="87.464828"/>
     <use style="fill:#008000;stroke:#008000;" x="200.448" xlink:href="#m1f0c1e6123" y="238.02981"/>
     <use style="fill:#008000;stroke:#008000;" x="218.304" xlink:href="#m1f0c1e6123" y="96.311287"/>
     <use style="fill:#008000;stroke:#008000;" x="236.16" xlink:href="#m1f0c1e6123" y="231.723424"/>
     <use style="fill:#008000;stroke:#008000;" x="254.016" xlink:href="#m1f0c1e6123" y="123.638963"/>
     <use style="fill:#008000;stroke:#008000;" x="271.872" xlink:href="#m1f0c1e6123" y="212.36632"/>
     <use style="fill:#008000;stroke:#008000;" x="289.728" xlink:href="#m1f0c1e6123" y="107.172287"/>
     <use style="fill:#008000;stroke:#008000;" x="307.584" xlink:href="#m1f0c1e6123" y="214.906392"/>
     <use style="fill:#008000;stroke:#008000;" x="325.44" xlink:href="#m1f0c1e6123" y="135.726204"/>
     <use style="fill:#008000;stroke:#008000;" x="343.296" xlink:href="#m1f0c1e6123" y="237.153923"/>
     <use style="fill:#008000;stroke:#008000;" x="361.152" xlink:href="#m1f0c1e6123" y="139.492518"/>
     <use style="fill:#008000;stroke:#008000;" x="379.008" xlink:href="#m1f0c1e6123" y="229.27094"/>
     <use style="fill:#008000;stroke:#008000;" x="396.864" xlink:href="#m1f0c1e6123" y="115.931157"/>
     <use style="fill:#008000;stroke:#008000;" x="414.72" xlink:href="#m1f0c1e6123" y="230.059238"/>
    </g>
   </g>
   <g id="line2d_14">
    <path clip-path="url(#p8e9003953d)" d="M 57.635712 53.568 
L 57.671424 58.472967 
L 57.707136 86.150998 
L 57.742848 214.818804 
L 57.77856 227.2564 
L 57.814272 244.336197 
L 57.849984 272.452171 
L 57.885696 258.35039 
L 57.921408 187.491128 
L 57.95712 250.554995 
L 58.31424 105.332924 
L 58.67136 63.72829 
L 59.02848 71.085741 
L 59.3856 68.195314 
L 59.74272 64.341411 
L 60.09984 64.866943 
L 60.45696 63.815878 
L 60.81408 63.72829 
L 61.1712 63.72829 
L 75.456 65.74283 
L 93.312 186.089709 
L 111.168 64.954531 
L 129.024 178.55708 
L 146.88 67.407015 
L 164.736 181.359919 
L 182.592 63.903467 
L 200.448 187.666306 
L 218.304 76.866595 
L 236.16 200.804611 
L 254.016 68.370491 
L 271.872 196.863119 
L 289.728 74.414112 
L 307.584 192.571273 
L 325.44 90.004901 
L 343.296 198.965248 
L 361.152 95.610578 
L 379.008 193.622337 
L 396.864 86.588941 
L 414.72 198.001773 
" style="fill:none;stroke:#ff0000;stroke-linecap:square;stroke-width:1.5;"/>
    <defs>
     <path d="M 0 3 
C 0.795609 3 1.55874 2.683901 2.12132 2.12132 
C 2.683901 1.55874 3 0.795609 3 0 
C 3 -0.795609 2.683901 -1.55874 2.12132 -2.12132 
C 1.55874 -2.683901 0.795609 -3 0 -3 
C -0.795609 -3 -1.55874 -2.683901 -2.12132 -2.12132 
C -2.683901 -1.55874 -3 -0.795609 -3 0 
C -3 0.795609 -2.683901 1.55874 -2.12132 2.12132 
C -1.55874 2.683901 -0.795609 3 0 3 
z
" id="m6acdc5721a" style="stroke:#ff0000;"/>
    </defs>
    <g clip-path="url(#p8e9003953d)">
     <use style="fill:#ff0000;stroke:#ff0000;" x="57.635712" xlink:href="#m6acdc5721a" y="53.568"/>
     <use style="fill:#ff0000;stroke:#ff0000;" x="57.671424" xlink:href="#m6acdc5721a" y="58.472967"/>
     <use style="fill:#ff0000;stroke:#ff0000;" x="57.707136" xlink:href="#m6acdc5721a" y="86.150998"/>
     <use style="fill:#ff0000;stroke:#ff0000;" x="57.742848" xlink:href="#m6acdc5721a" y="214.818804"/>
     <use style="fill:#ff0000;stroke:#ff0000;" x="57.77856" xlink:href="#m6acdc5721a" y="227.2564"/>
     <use style="fill:#ff0000;stroke:#ff0000;" x="57.814272" xlink:href="#m6acdc5721a" y="244.336197"/>
     <use style="fill:#ff0000;stroke:#ff0000;" x="57.849984" xlink:href="#m6acdc5721a" y="272.452171"/>
     <use style="fill:#ff0000;stroke:#ff0000;" x="57.885696" xlink:href="#m6acdc5721a" y="258.35039"/>
     <use style="fill:#ff0000;stroke:#ff0000;" x="57.921408" xlink:href="#m6acdc5721a" y="187.491128"/>
     <use style="fill:#ff0000;stroke:#ff0000;" x="57.95712" xlink:href="#m6acdc5721a" y="250.554995"/>
     <use style="fill:#ff0000;stroke:#ff0000;" x="58.31424" xlink:href="#m6acdc5721a" y="105.332924"/>
     <use style="fill:#ff0000;stroke:#ff0000;" x="58.67136" xlink:href="#m6acdc5721a" y="63.72829"/>
     <use style="fill:#ff0000;stroke:#ff0000;" x="59.02848" xlink:href="#m6acdc5721a" y="71.085741"/>
     <use style="fill:#ff0000;stroke:#ff0000;" x="59.3856" xlink:href="#m6acdc5721a" y="68.195314"/>
     <use style="fill:#ff0000;stroke:#ff0000;" x="59.74272" xlink:href="#m6acdc5721a" y="64.341411"/>
     <use style="fill:#ff0000;stroke:#ff0000;" x="60.09984" xlink:href="#m6acdc5721a" y="64.866943"/>
     <use style="fill:#ff0000;stroke:#ff0000;" x="60.45696" xlink:href="#m6acdc5721a" y="63.815878"/>
     <use style="fill:#ff0000;stroke:#ff0000;" x="60.81408" xlink:href="#m6acdc5721a" y="63.72829"/>
     <use style="fill:#ff0000;stroke:#ff0000;" x="61.1712" xlink:href="#m6acdc5721a" y="63.72829"/>
     <use style="fill:#ff0000;stroke:#ff0000;" x="75.456" xlink:href="#m6acdc5721a" y="65.74283"/>
     <use style="fill:#ff0000;stroke:#ff0000;" x="93.312" xlink:href="#m6acdc5721a" y="186.089709"/>
     <use style="fill:#ff0000;stroke:#ff0000;" x="111.168" xlink:href="#m6acdc5721a" y="64.954531"/>
     <use style="fill:#ff0000;stroke:#ff0000;" x="129.024" xlink:href="#m6acdc5721a" y="178.55708"/>
     <use style="fill:#ff0000;stroke:#ff0000;" x="146.88" xlink:href="#m6acdc5721a" y="67.407015"/>
     <use style="fill:#ff0000;stroke:#ff0000;" x="164.736" xlink:href="#m6acdc5721a" y="181.359919"/>
     <use style="fill:#ff0000;stroke:#ff0000;" x="182.592" xlink:href="#m6acdc5721a" y="63.903467"/>
     <use style="fill:#ff0000;stroke:#ff0000;" x="200.448" xlink:href="#m6acdc5721a" y="187.666306"/>
     <use style="fill:#ff0000;stroke:#ff0000;" x="218.304" xlink:href="#m6acdc5721a" y="76.866595"/>
     <use style="fill:#ff0000;stroke:#ff0000;" x="236.16" xlink:href="#m6acdc5721a" y="200.804611"/>
     <use style="fill:#ff0000;stroke:#ff0000;" x="254.016" xlink:href="#m6acdc5721a" y="68.370491"/>
     <use style="fill:#ff0000;stroke:#ff0000;" x="271.872" xlink:href="#m6acdc5721a" y="196.863119"/>
     <use style="fill:#ff0000;stroke:#ff0000;" x="289.728" xlink:href="#m6acdc5721a" y="74.414112"/>
     <use style="fill:#ff0000;stroke:#ff0000;" x="307.584" xlink:href="#m6acdc5721a" y="192.571273"/>
     <use style="fill:#ff0000;stroke:#ff0000;" x="325.44" xlink:href="#m6acdc5721a" y="90.004901"/>
     <use style="fill:#ff0000;stroke:#ff0000;" x="343.296" xlink:href="#m6acdc5721a" y="198.965248"/>
     <use style="fill:#ff0000;stroke:#ff0000;" x="361.152" xlink:href="#m6acdc5721a" y="95.610578"/>
     <use style="fill:#ff0000;stroke:#ff0000;" x="379.008" xlink:href="#m6acdc5721a" y="193.622337"/>
     <use style="fill:#ff0000;stroke:#ff0000;" x="396.864" xlink:href="#m6acdc5721a" y="86.588941"/>
     <use style="fill:#ff0000;stroke:#ff0000;" x="414.72" xlink:href="#m6acdc5721a" y="198.001773"/>
    </g>
   </g>
   <g id="line2d_15">
    <path clip-path="url(#p8e9003953d)" d="M 57.635712 63.72829 
L 57.671424 63.72829 
L 57.707136 65.304886 
L 57.742848 75.640353 
L 57.77856 87.202062 
L 57.814272 106.909521 
L 57.849984 140.280817 
L 57.885696 113.04073 
L 57.921408 96.398876 
L 57.95712 86.764119 
L 58.31424 80.194966 
L 58.67136 66.706306 
L 59.02848 63.72829 
L 59.3856 63.72829 
L 59.74272 63.72829 
L 60.09984 63.72829 
L 60.45696 63.72829 
L 60.81408 63.72829 
L 61.1712 63.72829 
L 75.456 63.72829 
L 93.312 188.71737 
L 111.168 63.72829 
L 129.024 213.154618 
L 146.88 63.991056 
L 164.736 224.54115 
L 182.592 66.005596 
L 200.448 201.154966 
L 218.304 71.085741 
L 236.16 229.358529 
L 254.016 76.341063 
L 271.872 248.452866 
L 289.728 78.005248 
L 307.584 248.102511 
L 325.44 81.94674 
L 343.296 232.949665 
L 361.152 77.830071 
L 379.008 239.781584 
L 396.864 88.428304 
L 414.72 264.481599 
" style="fill:none;stroke:#0000ff;stroke-linecap:square;stroke-width:1.5;"/>
    <defs>
     <path d="M -3 0 
L 3 0 
M 0 3 
L 0 -3 
" id="maa34a63ae0" style="stroke:#0000ff;"/>
    </defs>
    <g clip-path="url(#p8e9003953d)">
     <use style="fill:#0000ff;stroke:#0000ff;" x="57.635712" xlink:href="#maa34a63ae0" y="63.72829"/>
     <use style="fill:#0000ff;stroke:#0000ff;" x="57.671424" xlink:href="#maa34a63ae0" y="63.72829"/>
     <use style="fill:#0000ff;stroke:#0000ff;" x="57.707136" xlink:href="#maa34a63ae0" y="65.304886"/>
     <use style="fill:#0000ff;stroke:#0000ff;" x="57.742848" xlink:href="#maa34a63ae0" y="75.640353"/>
     <use style="fill:#0000ff;stroke:#0000ff;" x="57.77856" xlink:href="#maa34a63ae0" y="87.202062"/>
     <use style="fill:#0000ff;stroke:#0000ff;" x="57.814272" xlink:href="#maa34a63ae0" y="106.909521"/>
     <use style="fill:#0000ff;stroke:#0000ff;" x="57.849984" xlink:href="#maa34a63ae0" y="140.280817"/>
     <use style="fill:#0000ff;stroke:#0000ff;" x="57.885696" xlink:href="#maa34a63ae0" y="113.04073"/>
     <use style="fill:#0000ff;stroke:#0000ff;" x="57.921408" xlink:href="#maa34a63ae0" y="96.398876"/>
     <use style="fill:#0000ff;stroke:#0000ff;" x="57.95712" xlink:href="#maa34a63ae0" y="86.764119"/>
     <use style="fill:#0000ff;stroke:#0000ff;" x="58.31424" xlink:href="#maa34a63ae0" y="80.194966"/>
     <use style="fill:#0000ff;stroke:#0000ff;" x="58.67136" xlink:href="#maa34a63ae0" y="66.706306"/>
     <use style="fill:#0000ff;stroke:#0000ff;" x="59.02848" xlink:href="#maa34a63ae0" y="63.72829"/>
     <use style="fill:#0000ff;stroke:#0000ff;" x="59.3856" xlink:href="#maa34a63ae0" y="63.72829"/>
     <use style="fill:#0000ff;stroke:#0000ff;" x="59.74272" xlink:href="#maa34a63ae0" y="63.72829"/>
     <use style="fill:#0000ff;stroke:#0000ff;" x="60.09984" xlink:href="#maa34a63ae0" y="63.72829"/>
     <use style="fill:#0000ff;stroke:#0000ff;" x="60.45696" xlink:href="#maa34a63ae0" y="63.72829"/>
     <use style="fill:#0000ff;stroke:#0000ff;" x="60.81408" xlink:href="#maa34a63ae0" y="63.72829"/>
     <use style="fill:#0000ff;stroke:#0000ff;" x="61.1712" xlink:href="#maa34a63ae0" y="63.72829"/>
     <use style="fill:#0000ff;stroke:#0000ff;" x="75.456" xlink:href="#maa34a63ae0" y="63.72829"/>
     <use style="fill:#0000ff;stroke:#0000ff;" x="93.312" xlink:href="#maa34a63ae0" y="188.71737"/>
     <use style="fill:#0000ff;stroke:#0000ff;" x="111.168" xlink:href="#maa34a63ae0" y="63.72829"/>
     <use style="fill:#0000ff;stroke:#0000ff;" x="129.024" xlink:href="#maa34a63ae0" y="213.154618"/>
     <use style="fill:#0000ff;stroke:#0000ff;" x="146.88" xlink:href="#maa34a63ae0" y="63.991056"/>
     <use style="fill:#0000ff;stroke:#0000ff;" x="164.736" xlink:href="#maa34a63ae0" y="224.54115"/>
     <use style="fill:#0000ff;stroke:#0000ff;" x="182.592" xlink:href="#maa34a63ae0" y="66.005596"/>
     <use style="fill:#0000ff;stroke:#0000ff;" x="200.448" xlink:href="#maa34a63ae0" y="201.154966"/>
     <use style="fill:#0000ff;stroke:#0000ff;" x="218.304" xlink:href="#maa34a63ae0" y="71.085741"/>
     <use style="fill:#0000ff;stroke:#0000ff;" x="236.16" xlink:href="#maa34a63ae0" y="229.358529"/>
     <use style="fill:#0000ff;stroke:#0000ff;" x="254.016" xlink:href="#maa34a63ae0" y="76.341063"/>
     <use style="fill:#0000ff;stroke:#0000ff;" x="271.872" xlink:href="#maa34a63ae0" y="248.452866"/>
     <use style="fill:#0000ff;stroke:#0000ff;" x="289.728" xlink:href="#maa34a63ae0" y="78.005248"/>
     <use style="fill:#0000ff;stroke:#0000ff;" x="307.584" xlink:href="#maa34a63ae0" y="248.102511"/>
     <use style="fill:#0000ff;stroke:#0000ff;" x="325.44" xlink:href="#maa34a63ae0" y="81.94674"/>
     <use style="fill:#0000ff;stroke:#0000ff;" x="343.296" xlink:href="#maa34a63ae0" y="232.949665"/>
     <use style="fill:#0000ff;stroke:#0000ff;" x="361.152" xlink:href="#maa34a63ae0" y="77.830071"/>
     <use style="fill:#0000ff;stroke:#0000ff;" x="379.008" xlink:href="#maa34a63ae0" y="239.781584"/>
     <use style="fill:#0000ff;stroke:#0000ff;" x="396.864" xlink:href="#maa34a63ae0" y="88.428304"/>
     <use style="fill:#0000ff;stroke:#0000ff;" x="414.72" xlink:href="#maa34a63ae0" y="264.481599"/>
    </g>
   </g>
   <g id="line2d_16">
    <path clip-path="url(#p8e9003953d)" d="M 57.635712 63.72829 
L 57.671424 63.72829 
L 57.707136 63.72829 
L 57.742848 63.72829 
L 57.77856 163.929767 
L 57.814272 169.272678 
L 57.849984 146.236849 
L 57.885696 160.163453 
L 57.921408 113.478673 
L 57.95712 124.427261 
L 58.31424 93.245683 
L 58.67136 90.180078 
L 59.02848 81.771563 
L 59.3856 79.669434 
L 59.74272 79.406668 
L 60.09984 78.968724 
L 60.45696 78.968724 
L 60.81408 78.268014 
L 61.1712 78.092837 
L 75.456 75.465176 
L 93.312 197.47624 
L 111.168 71.611273 
L 129.024 196.074821 
L 146.88 70.034676 
L 164.736 218.847884 
L 182.592 71.523684 
L 200.448 190.381555 
L 218.304 73.538224 
L 236.16 230.58477 
L 254.016 73.275458 
L 271.872 246.350737 
L 289.728 71.78645 
L 307.584 295.400411 
L 325.44 72.662337 
L 343.296 287.517428 
L 361.152 71.173329 
L 379.008 262.116704 
L 396.864 72.311983 
L 414.72 295.488 
" style="fill:none;stroke:#000000;stroke-linecap:square;stroke-width:1.5;"/>
    <defs>
     <path d="M -3 3 
L 3 3 
L 3 -3 
L -3 -3 
z
" id="m889870c1fb" style="stroke:#000000;stroke-linejoin:miter;"/>
    </defs>
    <g clip-path="url(#p8e9003953d)">
     <use style="stroke:#000000;stroke-linejoin:miter;" x="57.635712" xlink:href="#m889870c1fb" y="63.72829"/>
     <use style="stroke:#000000;stroke-linejoin:miter;" x="57.671424" xlink:href="#m889870c1fb" y="63.72829"/>
     <use style="stroke:#000000;stroke-linejoin:miter;" x="57.707136" xlink:href="#m889870c1fb" y="63.72829"/>
     <use style="stroke:#000000;stroke-linejoin:miter;" x="57.742848" xlink:href="#m889870c1fb" y="63.72829"/>
     <use style="stroke:#000000;stroke-linejoin:miter;" x="57.77856" xlink:href="#m889870c1fb" y="163.929767"/>
     <use style="stroke:#000000;stroke-linejoin:miter;" x="57.814272" xlink:href="#m889870c1fb" y="169.272678"/>
     <use style="stroke:#000000;stroke-linejoin:miter;" x="57.849984" xlink:href="#m889870c1fb" y="146.236849"/>
     <use style="stroke:#000000;stroke-linejoin:miter;" x="57.885696" xlink:href="#m889870c1fb" y="160.163453"/>
     <use style="stroke:#000000;stroke-linejoin:miter;" x="57.921408" xlink:href="#m889870c1fb" y="113.478673"/>
     <use style="stroke:#000000;stroke-linejoin:miter;" x="57.95712" xlink:href="#m889870c1fb" y="124.427261"/>
     <use style="stroke:#000000;stroke-linejoin:miter;" x="58.31424" xlink:href="#m889870c1fb" y="93.245683"/>
     <use style="stroke:#000000;stroke-linejoin:miter;" x="58.67136" xlink:href="#m889870c1fb" y="90.180078"/>
     <use style="stroke:#000000;stroke-linejoin:miter;" x="59.02848" xlink:href="#m889870c1fb" y="81.771563"/>
     <use style="stroke:#000000;stroke-linejoin:miter;" x="59.3856" xlink:href="#m889870c1fb" y="79.669434"/>
     <use style="stroke:#000000;stroke-linejoin:miter;" x="59.74272" xlink:href="#m889870c1fb" y="79.406668"/>
     <use style="stroke:#000000;stroke-linejoin:miter;" x="60.09984" xlink:href="#m889870c1fb" y="78.968724"/>
     <use style="stroke:#000000;stroke-linejoin:miter;" x="60.45696" xlink:href="#m889870c1fb" y="78.968724"/>
     <use style="stroke:#000000;stroke-linejoin:miter;" x="60.81408" xlink:href="#m889870c1fb" y="78.268014"/>
     <use style="stroke:#000000;stroke-linejoin:miter;" x="61.1712" xlink:href="#m889870c1fb" y="78.092837"/>
     <use style="stroke:#000000;stroke-linejoin:miter;" x="75.456" xlink:href="#m889870c1fb" y="75.465176"/>
     <use style="stroke:#000000;stroke-linejoin:miter;" x="93.312" xlink:href="#m889870c1fb" y="197.47624"/>
     <use style="stroke:#000000;stroke-linejoin:miter;" x="111.168" xlink:href="#m889870c1fb" y="71.611273"/>
     <use style="stroke:#000000;stroke-linejoin:miter;" x="129.024" xlink:href="#m889870c1fb" y="196.074821"/>
     <use style="stroke:#000000;stroke-linejoin:miter;" x="146.88" xlink:href="#m889870c1fb" y="70.034676"/>
     <use style="stroke:#000000;stroke-linejoin:miter;" x="164.736" xlink:href="#m889870c1fb" y="218.847884"/>
     <use style="stroke:#000000;stroke-linejoin:miter;" x="182.592" xlink:href="#m889870c1fb" y="71.523684"/>
     <use style="stroke:#000000;stroke-linejoin:miter;" x="200.448" xlink:href="#m889870c1fb" y="190.381555"/>
     <use style="stroke:#000000;stroke-linejoin:miter;" x="218.304" xlink:href="#m889870c1fb" y="73.538224"/>
     <use style="stroke:#000000;stroke-linejoin:miter;" x="236.16" xlink:href="#m889870c1fb" y="230.58477"/>
     <use style="stroke:#000000;stroke-linejoin:miter;" x="254.016" xlink:href="#m889870c1fb" y="73.275458"/>
     <use style="stroke:#000000;stroke-linejoin:miter;" x="271.872" xlink:href="#m889870c1fb" y="246.350737"/>
     <use style="stroke:#000000;stroke-linejoin:miter;" x="289.728" xlink:href="#m889870c1fb" y="71.78645"/>
     <use style="stroke:#000000;stroke-linejoin:miter;" x="307.584" xlink:href="#m889870c1fb" y="295.400411"/>
     <use style="stroke:#000000;stroke-linejoin:miter;" x="325.44" xlink:href="#m889870c1fb" y="72.662337"/>
     <use style="stroke:#000000;stroke-linejoin:miter;" x="343.296" xlink:href="#m889870c1fb" y="287.517428"/>
     <use style="stroke:#000000;stroke-linejoin:miter;" x="361.152" xlink:href="#m889870c1fb" y="71.173329"/>
     <use style="stroke:#000000;stroke-linejoin:miter;" x="379.008" xlink:href="#m889870c1fb" y="262.116704"/>
     <use style="stroke:#000000;stroke-linejoin:miter;" x="396.864" xlink:href="#m889870c1fb" y="72.311983"/>
     <use style="stroke:#000000;stroke-linejoin:miter;" x="414.72" xlink:href="#m889870c1fb" y="295.488"/>
    </g>
   </g>
   <g id="patch_3">
    <path d="M 57.6 307.584 
L 57.6 41.472 
" style="fill:none;stroke:#000000;stroke-linecap:square;stroke-linejoin:miter;stroke-width:0.8;"/>
   </g>
   <g id="patch_4">
    <path d="M 414.72 307.584 
L 414.72 41.472 
" style="fill:none;stroke:#000000;stroke-linecap:square;stroke-linejoin:miter;stroke-width:0.8;"/>
   </g>
   <g id="patch_5">
    <path d="M 57.6 307.584 
L 414.72 307.584 
" style="fill:none;stroke:#000000;stroke-linecap:square;stroke-linejoin:miter;stroke-width:0.8;"/>
   </g>
   <g id="patch_6">
    <path d="M 57.6 41.472 
L 414.72 41.472 
" style="fill:none;stroke:#000000;stroke-linecap:square;stroke-linejoin:miter;stroke-width:0.8;"/>
   </g>
   <g id="text_15">
    <!-- libmesh: size vs f1 -->
    <defs>
     <path d="M 9.421875 75.984375 
L 18.40625 75.984375 
L 18.40625 0 
L 9.421875 0 
z
" id="DejaVuSans-108"/>
     <path d="M 48.6875 27.296875 
Q 48.6875 37.203125 44.609375 42.84375 
Q 40.53125 48.484375 33.40625 48.484375 
Q 26.265625 48.484375 22.1875 42.84375 
Q 18.109375 37.203125 18.109375 27.296875 
Q 18.109375 17.390625 22.1875 11.75 
Q 26.265625 6.109375 33.40625 6.109375 
Q 40.53125 6.109375 44.609375 11.75 
Q 48.6875 17.390625 48.6875 27.296875 
z
M 18.109375 46.390625 
Q 20.953125 51.265625 25.265625 53.625 
Q 29.59375 56 35.59375 56 
Q 45.5625 56 51.78125 48.09375 
Q 58.015625 40.1875 58.015625 27.296875 
Q 58.015625 14.40625 51.78125 6.484375 
Q 45.5625 -1.421875 35.59375 -1.421875 
Q 29.59375 -1.421875 25.265625 0.953125 
Q 20.953125 3.328125 18.109375 8.203125 
L 18.109375 0 
L 9.078125 0 
L 9.078125 75.984375 
L 18.109375 75.984375 
z
" id="DejaVuSans-98"/>
     <path d="M 52 44.1875 
Q 55.375 50.25 60.0625 53.125 
Q 64.75 56 71.09375 56 
Q 79.640625 56 84.28125 50.015625 
Q 88.921875 44.046875 88.921875 33.015625 
L 88.921875 0 
L 79.890625 0 
L 79.890625 32.71875 
Q 79.890625 40.578125 77.09375 44.375 
Q 74.3125 48.1875 68.609375 48.1875 
Q 61.625 48.1875 57.5625 43.546875 
Q 53.515625 38.921875 53.515625 30.90625 
L 53.515625 0 
L 44.484375 0 
L 44.484375 32.71875 
Q 44.484375 40.625 41.703125 44.40625 
Q 38.921875 48.1875 33.109375 48.1875 
Q 26.21875 48.1875 22.15625 43.53125 
Q 18.109375 38.875 18.109375 30.90625 
L 18.109375 0 
L 9.078125 0 
L 9.078125 54.6875 
L 18.109375 54.6875 
L 18.109375 46.1875 
Q 21.1875 51.21875 25.484375 53.609375 
Q 29.78125 56 35.6875 56 
Q 41.65625 56 45.828125 52.96875 
Q 50 49.953125 52 44.1875 
z
" id="DejaVuSans-109"/>
     <path d="M 54.890625 33.015625 
L 54.890625 0 
L 45.90625 0 
L 45.90625 32.71875 
Q 45.90625 40.484375 42.875 44.328125 
Q 39.84375 48.1875 33.796875 48.1875 
Q 26.515625 48.1875 22.3125 43.546875 
Q 18.109375 38.921875 18.109375 30.90625 
L 18.109375 0 
L 9.078125 0 
L 9.078125 75.984375 
L 18.109375 75.984375 
L 18.109375 46.1875 
Q 21.34375 51.125 25.703125 53.5625 
Q 30.078125 56 35.796875 56 
Q 45.21875 56 50.046875 50.171875 
Q 54.890625 44.34375 54.890625 33.015625 
z
" id="DejaVuSans-104"/>
     <path d="M 11.71875 12.40625 
L 22.015625 12.40625 
L 22.015625 0 
L 11.71875 0 
z
M 11.71875 51.703125 
L 22.015625 51.703125 
L 22.015625 39.3125 
L 11.71875 39.3125 
z
" id="DejaVuSans-58"/>
     <path id="DejaVuSans-32"/>
     <path d="M 2.984375 54.6875 
L 12.5 54.6875 
L 29.59375 8.796875 
L 46.6875 54.6875 
L 56.203125 54.6875 
L 35.6875 0 
L 23.484375 0 
z
" id="DejaVuSans-118"/>
    </defs>
    <g transform="translate(180.570938 35.472)scale(0.12 -0.12)">
     <use xlink:href="#DejaVuSans-108"/>
     <use x="27.783203" xlink:href="#DejaVuSans-105"/>
     <use x="55.566406" xlink:href="#DejaVuSans-98"/>
     <use x="119.042969" xlink:href="#DejaVuSans-109"/>
     <use x="216.455078" xlink:href="#DejaVuSans-101"/>
     <use x="277.978516" xlink:href="#DejaVuSans-115"/>
     <use x="330.078125" xlink:href="#DejaVuSans-104"/>
     <use x="393.457031" xlink:href="#DejaVuSans-58"/>
     <use x="427.148438" xlink:href="#DejaVuSans-32"/>
     <use x="458.935547" xlink:href="#DejaVuSans-115"/>
     <use x="511.035156" xlink:href="#DejaVuSans-105"/>
     <use x="538.818359" xlink:href="#DejaVuSans-122"/>
     <use x="591.308594" xlink:href="#DejaVuSans-101"/>
     <use x="652.832031" xlink:href="#DejaVuSans-32"/>
     <use x="684.619141" xlink:href="#DejaVuSans-118"/>
     <use x="743.798828" xlink:href="#DejaVuSans-115"/>
     <use x="795.898438" xlink:href="#DejaVuSans-32"/>
     <use x="827.685547" xlink:href="#DejaVuSans-102"/>
     <use x="862.890625" xlink:href="#DejaVuSans-49"/>
    </g>
   </g>
   <g id="legend_1">
    <g id="patch_7">
     <path d="M 64.6 302.584 
L 123.46875 302.584 
Q 125.46875 302.584 125.46875 300.584 
L 125.46875 242.8715 
Q 125.46875 240.8715 123.46875 240.8715 
L 64.6 240.8715 
Q 62.6 240.8715 62.6 242.8715 
L 62.6 300.584 
Q 62.6 302.584 64.6 302.584 
z
" style="fill:#ffffff;opacity:0.8;stroke:#cccccc;stroke-linejoin:miter;"/>
    </g>
    <g id="line2d_17">
     <path d="M 66.6 248.969937 
L 86.6 248.969937 
" style="fill:none;stroke:#008000;stroke-linecap:square;stroke-width:1.5;"/>
    </g>
    <g id="line2d_18">
     <g>
      <use style="fill:#008000;stroke:#008000;" x="76.6" xlink:href="#m1f0c1e6123" y="248.969937"/>
     </g>
    </g>
    <g id="text_16">
     <!-- CART -->
     <defs>
      <path d="M 64.40625 67.28125 
L 64.40625 56.890625 
Q 59.421875 61.53125 53.78125 63.8125 
Q 48.140625 66.109375 41.796875 66.109375 
Q 29.296875 66.109375 22.65625 58.46875 
Q 16.015625 50.828125 16.015625 36.375 
Q 16.015625 21.96875 22.65625 14.328125 
Q 29.296875 6.6875 41.796875 6.6875 
Q 48.140625 6.6875 53.78125 8.984375 
Q 59.421875 11.28125 64.40625 15.921875 
L 64.40625 5.609375 
Q 59.234375 2.09375 53.4375 0.328125 
Q 47.65625 -1.421875 41.21875 -1.421875 
Q 24.65625 -1.421875 15.125 8.703125 
Q 5.609375 18.84375 5.609375 36.375 
Q 5.609375 53.953125 15.125 64.078125 
Q 24.65625 74.21875 41.21875 74.21875 
Q 47.75 74.21875 53.53125 72.484375 
Q 59.328125 70.75 64.40625 67.28125 
z
" id="DejaVuSans-67"/>
      <path d="M 34.1875 63.1875 
L 20.796875 26.90625 
L 47.609375 26.90625 
z
M 28.609375 72.90625 
L 39.796875 72.90625 
L 67.578125 0 
L 57.328125 0 
L 50.6875 18.703125 
L 17.828125 18.703125 
L 11.1875 0 
L 0.78125 0 
z
" id="DejaVuSans-65"/>
      <path d="M 44.390625 34.1875 
Q 47.5625 33.109375 50.5625 29.59375 
Q 53.5625 26.078125 56.59375 19.921875 
L 66.609375 0 
L 56 0 
L 46.6875 18.703125 
Q 43.0625 26.03125 39.671875 28.421875 
Q 36.28125 30.8125 30.421875 30.8125 
L 19.671875 30.8125 
L 19.671875 0 
L 9.8125 0 
L 9.8125 72.90625 
L 32.078125 72.90625 
Q 44.578125 72.90625 50.734375 67.671875 
Q 56.890625 62.453125 56.890625 51.90625 
Q 56.890625 45.015625 53.6875 40.46875 
Q 50.484375 35.9375 44.390625 34.1875 
z
M 19.671875 64.796875 
L 19.671875 38.921875 
L 32.078125 38.921875 
Q 39.203125 38.921875 42.84375 42.21875 
Q 46.484375 45.515625 46.484375 51.90625 
Q 46.484375 58.296875 42.84375 61.546875 
Q 39.203125 64.796875 32.078125 64.796875 
z
" id="DejaVuSans-82"/>
      <path d="M -0.296875 72.90625 
L 61.375 72.90625 
L 61.375 64.59375 
L 35.5 64.59375 
L 35.5 0 
L 25.59375 0 
L 25.59375 64.59375 
L -0.296875 64.59375 
z
" id="DejaVuSans-84"/>
     </defs>
     <g transform="translate(94.6 252.469937)scale(0.1 -0.1)">
      <use xlink:href="#DejaVuSans-67"/>
      <use x="69.824219" xlink:href="#DejaVuSans-65"/>
      <use x="138.232422" xlink:href="#DejaVuSans-82"/>
      <use x="207.605469" xlink:href="#DejaVuSans-84"/>
     </g>
    </g>
    <g id="line2d_19">
     <path d="M 66.6 263.648062 
L 86.6 263.648062 
" style="fill:none;stroke:#ff0000;stroke-linecap:square;stroke-width:1.5;"/>
    </g>
    <g id="line2d_20">
     <g>
      <use style="fill:#ff0000;stroke:#ff0000;" x="76.6" xlink:href="#m6acdc5721a" y="263.648062"/>
     </g>
    </g>
    <g id="text_17">
     <!-- FFT -->
     <defs>
      <path d="M 9.8125 72.90625 
L 51.703125 72.90625 
L 51.703125 64.59375 
L 19.671875 64.59375 
L 19.671875 43.109375 
L 48.578125 43.109375 
L 48.578125 34.8125 
L 19.671875 34.8125 
L 19.671875 0 
L 9.8125 0 
z
" id="DejaVuSans-70"/>
     </defs>
     <g transform="translate(94.6 267.148062)scale(0.1 -0.1)">
      <use xlink:href="#DejaVuSans-70"/>
      <use x="57.519531" xlink:href="#DejaVuSans-70"/>
      <use x="115.023438" xlink:href="#DejaVuSans-84"/>
     </g>
    </g>
    <g id="line2d_21">
     <path d="M 66.6 278.326187 
L 86.6 278.326187 
" style="fill:none;stroke:#0000ff;stroke-linecap:square;stroke-width:1.5;"/>
    </g>
    <g id="line2d_22">
     <g>
      <use style="fill:#0000ff;stroke:#0000ff;" x="76.6" xlink:href="#maa34a63ae0" y="278.326187"/>
     </g>
    </g>
    <g id="text_18">
     <!-- RF -->
     <g transform="translate(94.6 281.826187)scale(0.1 -0.1)">
      <use xlink:href="#DejaVuSans-82"/>
      <use x="69.482422" xlink:href="#DejaVuSans-70"/>
     </g>
    </g>
    <g id="line2d_23">
     <path d="M 66.6 293.004312 
L 86.6 293.004312 
" style="fill:none;stroke:#000000;stroke-linecap:square;stroke-width:1.5;"/>
    </g>
    <g id="line2d_24">
     <g>
      <use style="stroke:#000000;stroke-linejoin:miter;" x="76.6" xlink:href="#m889870c1fb" y="293.004312"/>
     </g>
    </g>
    <g id="text_19">
     <!-- VFDT -->
     <defs>
      <path d="M 28.609375 0 
L 0.78125 72.90625 
L 11.078125 72.90625 
L 34.1875 11.53125 
L 57.328125 72.90625 
L 67.578125 72.90625 
L 39.796875 0 
z
" id="DejaVuSans-86"/>
      <path d="M 19.671875 64.796875 
L 19.671875 8.109375 
L 31.59375 8.109375 
Q 46.6875 8.109375 53.6875 14.9375 
Q 60.6875 21.78125 60.6875 36.53125 
Q 60.6875 51.171875 53.6875 57.984375 
Q 46.6875 64.796875 31.59375 64.796875 
z
M 9.8125 72.90625 
L 30.078125 72.90625 
Q 51.265625 72.90625 61.171875 64.09375 
Q 71.09375 55.28125 71.09375 36.53125 
Q 71.09375 17.671875 61.125 8.828125 
Q 51.171875 0 30.078125 0 
L 9.8125 0 
z
" id="DejaVuSans-68"/>
     </defs>
     <g transform="translate(94.6 296.504312)scale(0.1 -0.1)">
      <use xlink:href="#DejaVuSans-86"/>
      <use x="68.408203" xlink:href="#DejaVuSans-70"/>
      <use x="125.927734" xlink:href="#DejaVuSans-68"/>
      <use x="202.929688" xlink:href="#DejaVuSans-84"/>
     </g>
    </g>
   </g>
  </g>
 </g>
 <defs>
  <clipPath id="p8e9003953d">
   <rect height="266.112" width="357.12" x="57.6" y="41.472"/>
  </clipPath>
 </defs>
</svg>
